<svg width="161" height="112" viewBox="0 0 161 112" fill="none" xmlns="http://www.w3.org/2000/svg">
<path fill-rule="evenodd" clip-rule="evenodd" d="M34.7592 70.1741L145.813 70.1741L145.257 73.1756L34.9259 73.1756C34.5925 73.5646 34.0366 74.9542 33.7031 75.7879L33.7031 75.788C32.8694 78.0113 31.9801 80.2901 29.9235 80.2901C26.7553 80.2901 26.0883 76.0103 25.5881 72.6198L25.4769 71.9528C24.8099 67.6729 24.1985 63.2263 23.6427 58.8909C23.6153 58.6895 23.5878 58.4865 23.5601 58.2822C22.3477 49.3497 20.7707 37.7297 19.1405 35.9908C17.2507 36.6578 14.5271 50.1088 11.6924 64.3379L11.081 67.3394C10.0805 72.3974 6.96791 73.1756 5.24485 73.1756L2.63247 73.1756L3.13272 70.1741L5.24485 70.1741C5.91185 70.1741 7.46816 70.1741 8.13515 66.728L8.74656 63.7265L8.80571 63.4343C13.4287 40.594 14.9904 32.8784 19.3628 32.9338C22.8645 32.9894 24.0318 39.6037 26.5886 58.4462C27.1444 62.7816 27.7558 67.2282 28.4228 71.4525L28.5339 72.1195C28.5641 72.2852 28.5983 72.4855 28.6366 72.7098C28.8809 74.1409 29.2913 76.5453 29.8679 77.1219C30.2014 76.6217 30.7017 75.4545 30.9796 74.6763C31.8133 72.453 32.7026 70.1741 34.7592 70.1741ZM52.4907 46.9403L41.0963 46.9403L37.0387 67.0056L43.5975 67.0056L46.7657 51.2758L46.988 51.2758L47.5994 67.0056L53.9914 67.0056L61.1616 51.2758L61.3283 51.2758L58.1045 67.0056L64.9968 67.0056L69.0543 46.9403L57.7154 46.9403L52.9909 57.9457L52.8798 57.9457L52.4907 46.9403ZM76.5555 64.1153L75.9441 67.3391L75.9441 67.3947L83.67 67.3947L84.2815 64.1709L85.7822 64.1709C92.6744 64.1709 96.0094 59.2797 96.0094 54.6107C96.0094 49.2748 91.5072 48.6078 88.6725 48.6078L87.4497 48.6078L88.0611 45.6063L80.3907 45.6063L79.7793 48.6078L78.5565 48.6078C71.553 48.6078 67.9958 53.777 67.9958 58.168C67.9958 61.1139 69.8856 64.1153 75.1659 64.1153L76.5555 64.1153ZM78.6676 53.2212L79.1123 53.2212L77.8339 59.6132L77.3892 59.6132C75.9997 59.6132 75.2771 58.4459 75.2771 57.2787C75.2771 55.3889 76.6111 53.2212 78.6676 53.2212ZM85.2819 59.5576L84.8373 59.5576L86.0601 53.1656L86.5048 53.1656C87.8943 53.1656 88.6169 54.1661 88.6169 55.4445C88.6169 57.2231 87.4497 59.5576 85.2819 59.5576ZM118.857 46.9403L117.635 52.8877L110.853 52.8877L108.019 67.0056L100.348 67.0056L103.183 52.8877L96.402 52.8877L97.6248 46.9403L118.857 46.9403ZM125.914 58.4459L128.248 46.9403L120.522 46.9403L116.465 67.0056L125.469 67.0056L132.806 55.778L132.917 55.778L130.638 67.0056L138.308 67.0056L142.366 46.9403L133.417 46.9403L126.025 58.4459L125.914 58.4459ZM148.371 74.5648L149.427 68.8954L160.21 72.1192L148.371 74.5648Z" fill="#2E2E40"/>
</svg>
