<svg width="80" height="79" viewBox="0 0 80 79" fill="none" xmlns="http://www.w3.org/2000/svg">
<path d="M0.453587 39.5869C0.349331 17.8447 17.8968 0.128156 39.639 0.0238997C61.3813 -0.0803569 79.0978 17.4671 79.202 39.2093C79.3063 60.9508 61.7588 78.6681 40.0166 78.7723C18.2743 78.8766 0.557844 61.3291 0.453587 39.5869Z" fill="#2E2E40"/>
<path d="M1.10592 39.5825C1.00325 18.2004 18.2609 0.776171 39.6437 0.674284C61.0258 0.571607 78.4501 17.8292 78.5519 39.2121C78.6546 60.5949 61.397 78.0176 40.0149 78.1203C18.6329 78.223 1.2086 60.9654 1.10671 39.5833L1.10592 39.5825Z" fill="white"/>
<path d="M51.4629 7.89387C51.331 8.35197 50.8524 8.61498 50.3959 8.4815C49.9386 8.3496 49.6756 7.87097 49.8075 7.41445C49.9394 6.95714 50.418 6.69413 50.8753 6.82603C51.3326 6.95793 51.5956 7.43657 51.4629 7.89308V7.89387Z" fill="#2E2E40"/>
<path d="M40.5727 73.5231C40.4408 73.9796 39.9621 74.2434 39.5048 74.1108C39.0475 73.9789 38.7845 73.5002 38.9172 73.0437C39.0499 72.5856 39.5285 72.3226 39.985 72.4553C40.4423 72.588 40.7054 73.0658 40.5727 73.5231Z" fill="#2E2E40"/>
<path d="M43.7854 5.23104L44.1179 6.63061L43.2025 6.53346L43.7854 5.23104ZM45.7094 9.15962C45.8302 9.16515 46.2125 9.14856 46.0435 9.01982H46.1011C46.0798 8.87449 45.9092 8.81604 45.8318 8.82394C45.5072 8.72127 45.4211 8.41324 45.3231 8.10994C45.1446 7.55312 45.0025 6.96154 44.8627 6.43552L44.339 4.46886C44.2553 4.14899 44.1131 3.50765 43.7711 4.07395C43.689 4.20901 43.5413 4.54469 43.4449 4.74135C42.9395 5.77523 42.4592 6.82648 41.9269 7.84693C41.8574 7.98041 41.7997 8.14549 41.6828 8.24342C41.4814 8.41324 41.4656 8.27897 41.2587 8.34215C41.1315 8.38085 40.9997 8.43772 41.0802 8.59489C41.156 8.7418 41.5217 8.71021 41.6513 8.72048C41.874 8.73785 42.6693 8.97243 42.7238 8.67941C42.8099 8.21973 42.1923 8.77418 42.5098 8.01753C42.618 7.85562 42.7752 7.12424 42.9845 7.00024C43.084 6.94101 44.1566 7.05237 44.2427 7.13293C44.3209 7.20639 44.3414 7.50889 44.369 7.61314C44.4433 7.89511 44.5246 8.17629 44.591 8.46062L44.6478 8.67704L44.5689 8.79709C44.5847 8.94715 44.6036 9.0443 44.8335 9.04983C45.1225 9.08774 45.4179 9.1454 45.7086 9.15962H45.7094ZM54.8002 12.6949C55.3697 13.0005 56.2274 13.1767 56.8419 12.9192C57.5251 12.6988 58.0638 12.2202 58.4121 11.597L58.3615 11.5686L58.4121 11.5962C59.2627 10.0592 58.3844 8.5167 56.8482 7.90775C56.5694 7.79717 56.0466 7.58629 55.7551 7.76321C55.6216 7.84456 55.4313 8.29397 55.3823 8.45431C55.3365 8.60279 55.2686 8.79235 55.4724 8.82078C55.6311 8.8429 55.7093 8.57752 55.7962 8.49775C55.9589 8.35005 56.124 8.29239 56.3514 8.29713C57.6309 8.32241 58.1783 9.79384 57.7921 10.8443C57.4129 10.6342 57.0307 10.4265 56.6531 10.2125C56.5228 10.1382 56.1097 9.73145 55.9936 9.75514C55.7646 9.86098 55.5103 10.2148 55.3878 10.3838C55.0877 10.8735 55.9399 10.4597 55.962 10.4565C56.3806 10.4739 57.0346 10.9351 57.3798 11.1713C57.608 11.3269 57.6222 11.2653 57.4366 11.552C57.2652 11.8166 57.0575 12.0677 56.7929 12.2447C56.2819 12.5867 55.6706 12.5574 55.1114 12.2605C54.647 12.014 54.23 11.6934 54.3856 11.12C54.4472 10.8925 54.4851 10.5639 54.1344 10.8111C53.9669 10.9296 53.5412 11.5607 53.6795 11.8142C53.8414 12.1965 54.4582 12.5108 54.8002 12.6949ZM61.9244 17.6897C62.0405 17.4101 61.4663 17.2995 61.8241 17.0397C62.1621 16.6155 62.5784 16.2459 62.9622 15.8628C62.9038 16.7364 62.7182 17.9977 62.9543 18.7725C62.9891 19.0332 63.1818 19.2812 63.3737 19.4826L63.647 19.7559C63.8776 19.9675 64.1588 20.0078 64.0127 19.6311L63.7773 19.2156C63.6604 18.8689 63.6794 18.4716 63.6739 18.1044C63.6668 17.6147 63.6762 17.1242 63.6849 16.6353L63.6952 16.1488C63.7031 15.8004 63.7244 15.8447 64.0711 15.8439C64.6311 15.8431 65.1919 15.8494 65.7519 15.8597C66.0094 15.8644 66.2424 15.8921 66.4785 16.0011C66.5544 16.0358 66.6965 16.1898 66.781 16.1717C67.1957 16.0808 66.6262 15.6306 66.5235 15.5311C66.3909 15.4016 66.255 15.1789 66.101 15.0888C65.8712 14.9545 65.9138 15.0493 65.7756 15.1654C65.6508 15.2705 65.8854 15.2428 65.6152 15.3108C65.4399 15.355 65.1935 15.325 65.0166 15.3265L63.474 15.351C63.786 15.0398 64.1209 14.5328 64.4984 14.3282C64.7986 14.1655 64.7141 14.4104 64.981 14.4104C65.233 14.4104 65.1619 14.2026 65.0853 14.0715C64.9352 13.8148 64.5221 13.5013 64.2978 13.2841C64.1241 13.1166 63.7118 12.9089 63.8745 13.3488C64.0159 13.7303 64.1351 13.6055 63.7758 13.9688L62.9583 14.7847L61.9789 15.7617C61.7657 15.9734 61.4418 16.426 61.1512 16.5255C60.9592 16.5911 60.7578 16.347 60.6196 16.4773C60.404 16.6811 61.0675 17.136 61.193 17.279C61.3028 17.3998 61.7791 18.0364 61.9236 17.6881L61.9244 17.6897ZM70.1014 21.8655C70.6883 22.0645 71.1914 22.6427 71.2704 23.3053C71.3786 24.212 70.7301 24.9403 69.9798 25.3383C69.404 25.6432 68.679 25.843 68.0661 25.516C67.311 25.1132 67.0393 24.1607 67.3394 23.3851C67.7312 22.3876 69.0352 21.593 70.1022 21.8663L70.1014 21.8655ZM69.8819 26.2798C71.4441 25.8644 72.5467 23.9862 71.5302 22.5676C71.3114 21.8236 70.4063 21.2984 69.6852 21.1776C68.4752 20.9754 67.206 21.657 66.7376 22.8006C65.9493 24.7112 67.8884 26.8106 69.8819 26.2798ZM70.0714 31.6316C69.9727 31.5574 70.0288 31.2991 69.8258 31.3236C69.6647 31.3434 69.6836 31.5321 69.682 31.5787C69.6741 31.882 69.8297 32.2832 69.8827 32.5952C69.9056 32.7287 69.9143 33.1678 70.148 33.152C70.2476 33.1449 70.3265 33.0336 70.261 32.9728C70.4671 32.8559 70.1125 32.6221 70.558 32.4736C70.9545 32.3409 71.3928 32.2888 71.8019 32.2098C71.907 32.1893 72.2269 32.0771 72.2971 32.1292C72.4598 32.2477 72.5057 33.2042 72.542 33.3922L72.7687 34.5642C72.1984 34.6748 71.4552 34.9521 70.9007 34.8881C70.6535 34.8596 70.8068 34.8825 70.6504 34.7277C70.5587 34.6369 70.5722 34.5382 70.434 34.554C70.2073 34.6393 70.4711 36.2718 70.6812 36.3579C70.8391 36.4227 70.9039 36.2821 70.9244 36.1779C70.9789 35.899 70.8044 35.7908 71.1124 35.7166C71.9986 35.4678 72.929 35.3359 73.8334 35.1621C74.1287 35.1053 74.4391 35.0152 74.7385 34.9876C75.0276 34.9607 74.9897 34.9947 75.1445 35.1606C75.2076 35.2285 75.2993 35.3454 75.3466 35.332C75.6515 35.2696 75.3806 34.6266 75.3459 34.4466C75.3064 34.2436 75.3198 33.9735 75.2361 33.7847C75.1618 33.6165 74.8262 33.4419 74.8814 33.78C74.9912 34.1504 74.7488 34.1812 74.402 34.2483C74.2219 34.2831 73.3982 34.5627 73.256 34.4545C73.1991 34.4118 73.1857 34.0919 73.1723 34.0248L73.0104 33.1915L72.7829 32.0187L73.6509 31.8512C73.8247 31.818 74.0261 31.743 74.2014 31.7446C74.3649 31.7462 74.3815 31.7643 74.5087 31.897C74.6074 31.9997 74.7085 32.2817 74.8609 31.9807C74.913 31.8781 74.8135 31.6308 74.7922 31.5376C74.7172 31.2043 74.6642 30.8687 74.6066 30.5314C74.5861 30.2858 74.2046 30.2897 74.2599 30.5614C74.6366 30.98 73.4582 31.0835 73.3065 31.1135C72.6107 31.2478 71.9165 31.3852 71.2198 31.5155C71.0176 31.5542 70.3036 31.8054 70.0722 31.6316H70.0714ZM70.881 44.0255C69.9956 41.2888 75.3451 40.7675 75.0442 43.6322C74.8325 45.6391 71.4584 45.7023 70.881 44.0255ZM70.4032 42.7223C70.103 43.9726 70.6385 45.2837 71.8406 45.824C72.6684 46.196 74.03 46.2157 74.6161 45.5325C75.4651 44.9236 75.7147 43.5264 75.4059 42.5809C74.6342 40.217 70.9853 40.3015 70.4032 42.7223ZM69.6662 50.4413C69.5533 50.3781 69.3472 50.3157 69.2863 50.209C69.1971 50.0535 69.3606 49.9318 69.2927 49.7904C69.0747 49.3363 68.7327 50.382 68.6569 50.5479C68.5913 50.69 68.3133 51.2492 68.7035 51.1489C68.8156 51.1197 68.897 50.897 68.9483 50.8046C69.7286 51.2935 70.6646 51.6955 71.4971 52.137C70.8794 52.1552 70.2626 52.1678 69.6773 52.2065C69.2674 52.2334 68.8559 52.2547 68.446 52.2879C68.1569 52.3108 67.758 52.2823 67.9168 52.6772C68.0574 53.0256 68.5668 53.4197 68.8053 53.6906L70.2018 55.2734C69.2753 54.9772 68.292 54.7458 67.3931 54.3761C67.2281 54.3082 67.3023 54.0934 67.0504 54.3374L66.9888 54.4393C66.864 54.6313 66.7897 54.9069 66.6989 55.1186C66.642 55.2521 66.3956 55.6667 66.6547 55.7346C66.8829 55.7947 66.9192 55.4092 67.0519 55.305C67.311 55.1012 67.7091 55.3058 67.9918 55.3919L69.938 55.9795C70.4087 56.1217 70.9015 56.331 71.3865 56.4171C71.9133 56.5103 71.7111 56.1327 71.4852 55.8808L68.9214 53.0208L71.5752 52.8865C72.0223 52.8636 72.4741 52.8597 72.9195 52.8186C73.1186 52.8005 73.579 52.6693 73.1739 52.4142C72.0089 51.7484 70.8344 51.0976 69.6647 50.4405L69.6662 50.4413ZM67.4682 61.9395C67.2146 62.043 67.3197 62.1978 67.0369 62.0453C66.7842 61.9087 66.5291 61.5872 66.3103 61.3906L64.7417 59.9768C64.4645 59.7264 64.1975 59.4373 63.8974 59.2138C63.5206 58.9334 63.4377 59.172 63.5048 59.5424C63.7718 60.9949 64.0103 62.4497 64.2023 63.914L63.0223 62.8494C62.7624 62.6148 61.8904 62.0422 61.8857 61.6931C61.8841 61.5809 62.0816 61.5019 62.0168 61.3613C61.877 61.058 61.5903 61.4648 61.49 61.5833C61.3439 61.7555 60.3629 62.6559 60.8431 62.7096C60.9987 62.7269 61.0564 62.5058 61.1796 62.4687C61.3352 62.4213 61.4213 62.5145 61.55 62.61C62.1219 63.035 62.6353 63.5642 63.1644 64.042C63.4038 64.2576 64.6817 65.6817 64.9494 65.3918C65.0466 65.286 64.9692 65.0735 64.9486 64.9621C64.8776 64.583 64.8152 64.2031 64.752 63.8232L64.6367 63.1219C64.504 62.2886 64.3871 61.4553 64.2741 60.6189L65.4699 61.6978L66.2432 62.3944C66.3277 62.4702 66.5844 62.644 66.6049 62.7704C66.6325 62.9355 66.3932 63.0452 66.4991 63.2143C66.601 63.3754 66.7494 63.2166 66.8418 63.1495C67.0211 63.02 67.8481 62.1693 67.7549 61.9727C67.7051 61.821 67.5558 61.9039 67.4674 61.9403L67.4682 61.9395ZM59.0013 69.3923C58.8473 69.3457 58.7564 69.0637 58.6885 68.9507L58.1664 68.0827C57.7684 67.4224 57.2842 66.755 56.9754 66.0505C56.9367 65.9621 56.849 65.8475 56.8696 65.7504C56.8917 65.6461 57.0702 65.624 57.0868 65.5055C57.1112 65.3326 56.9872 65.2931 56.8293 65.3199C56.6618 65.3491 56.4841 65.5419 56.3396 65.6303L55.643 66.0292C55.3555 66.1398 55.5656 66.3775 55.7725 66.357C56.105 66.3238 55.9873 66.1271 56.2385 66.4051C56.5773 66.7811 56.8387 67.3513 57.1049 67.7952C56.7345 67.6768 56.3609 67.5583 55.9834 67.4627C55.3223 67.2518 54.3295 66.8972 53.6858 67.2131C53.4946 67.3071 53.2419 67.4295 53.0792 67.567C52.8415 67.7692 52.8707 67.9461 53.1882 67.9066C53.3967 67.8805 53.527 67.7723 53.7505 67.7715C54.0767 67.7707 54.4093 67.8632 54.7228 67.9358C55.1161 68.0266 55.5063 68.1325 55.8965 68.2344L56.5757 68.4168C56.6302 68.4318 56.913 68.4697 56.9406 68.5179C56.9801 68.5858 56.8506 68.8955 56.8293 68.9808C56.6824 69.5684 56.5576 70.5493 56.2116 71.0572C56.1769 71.1069 55.8902 71.3392 55.887 71.4189C55.8799 71.6006 56.045 71.6709 56.1856 71.5753C56.4249 71.4213 56.8956 71.2396 57.0868 71.0327C57.3482 70.7507 57.0465 70.7934 56.9864 70.6149C56.9209 70.4206 57.1302 69.912 57.1752 69.72L57.4777 68.4145L58.0646 69.3938C58.119 69.4855 58.3039 69.709 58.2786 69.8314C58.2423 70.0067 57.9864 70.0075 58.0235 70.2121C58.0882 70.5659 58.7438 70.0178 58.8496 69.9554C58.9002 69.9254 59.9925 69.2998 59.4396 69.2596C59.4144 69.2248 59.0921 69.4199 59.0013 69.3923ZM50.3756 73.4985C50.2761 73.4417 50.2722 73.309 50.2406 73.2103C50.1197 72.8272 50.0471 72.4204 49.9483 72.0303C49.7927 71.4166 49.6048 70.6544 49.4413 69.9941C49.3497 69.626 49.1459 68.3671 48.7423 69.2761C48.1436 70.626 47.5354 71.9679 46.8759 73.2892C46.7156 72.6432 46.5521 71.9987 46.3957 71.3518C46.3254 71.0604 46.0411 70.3851 46.2535 70.1252C46.331 70.0304 46.5268 70.0423 46.496 69.8756C46.4471 69.615 45.0506 69.9988 44.8737 70.0936C44.5396 70.2729 44.7173 70.4119 44.9503 70.4364C45.2031 70.4632 45.3058 70.3005 45.3674 70.6062C45.6351 71.43 45.8136 72.2885 46.0221 73.1297C46.0845 73.3801 46.2749 74.9644 46.6556 74.9352C46.9731 74.8404 47.2408 73.8271 47.3814 73.5191L47.6744 72.8793C48.0291 72.1124 48.4011 71.3542 48.7778 70.5975L49.1917 72.2633C49.2825 72.6289 49.6608 73.4638 49.4184 73.7773C49.3418 73.8761 49.1253 73.8524 49.1775 74.0325C49.2351 74.2331 49.4318 74.1383 49.5534 74.113C49.807 74.0593 50.9514 73.9006 50.9032 73.5965C50.8393 73.3279 50.5273 73.5846 50.3748 73.4977L50.3756 73.4985ZM33.0738 71.4734C33.0359 71.6361 32.9845 72.2001 32.8566 72.2759C32.6828 72.3794 32.2074 72.0516 32.092 71.9276C31.927 71.7514 31.8243 71.5145 31.7872 71.2776C31.724 70.874 31.8053 70.3037 32.2255 70.1213C32.4388 70.0352 33.2902 70.0652 33.2902 70.4253C33.2902 70.761 33.1496 71.148 33.0746 71.4742L33.0738 71.4734ZM31.709 73.8421C31.5755 73.4535 31.6497 72.903 32.0004 72.644L32.1694 72.5476C32.2326 72.5744 32.7381 72.6226 32.7879 72.7134C32.8195 72.7703 32.712 73.0389 32.6978 73.1005L32.4285 74.2615C32.111 74.2615 31.8077 74.0798 31.709 73.8421ZM33.6875 69.8701C33.1994 69.7445 32.7397 69.5589 32.2247 69.6363C30.8299 69.8456 30.5558 71.5264 31.6284 72.3296C30.8512 72.8675 30.5187 73.978 31.5842 74.4913C32.1118 74.7457 32.8084 74.8041 33.3771 74.9518C33.4466 74.9787 33.6227 74.9589 33.6464 74.8254C33.6717 74.6809 33.5382 74.6722 33.4497 74.6098C33.2586 74.4771 33.2444 74.4755 33.1638 74.3381C33.3163 74.1928 33.3573 73.6399 33.4134 73.399L33.7601 71.8991C33.8186 71.6496 33.9458 70.5241 34.2174 70.3669C34.2593 70.3424 34.8983 70.3661 34.5492 70.0826C34.3525 69.9191 33.9339 69.9325 33.6883 69.8693L33.6875 69.8701ZM23.7176 66.199C23.896 66.1019 23.776 65.9557 23.6765 65.8625C23.4616 65.6627 23.0723 65.5269 22.8164 65.3705C22.6932 65.2947 22.3638 65.0222 22.2169 65.1786C22.0226 65.3855 22.4104 65.481 22.4823 65.6027C22.6071 65.8112 22.3433 66.1477 22.2358 66.3412C21.9223 66.9051 21.5921 67.4619 21.2691 68.0211C21.1119 68.2928 20.5946 69.5621 20.2123 69.2754C20.176 69.2485 20.0149 69.2556 19.9738 69.3543C19.8735 69.5976 20.4382 69.7887 20.5733 69.8646C20.766 69.9736 20.9737 70.1758 21.183 70.2366C21.3726 70.2911 21.668 70.1323 21.401 69.9617C21.3133 69.912 21.2462 69.8535 21.2059 69.7587C21.3378 69.3101 21.7217 68.8165 21.9594 68.405C22.3622 67.7084 22.7263 66.9359 23.2129 66.2969C23.4648 65.9739 23.4435 66.3499 23.7183 66.2006L23.7176 66.199ZM25.0081 69.0234C24.971 69.0874 24.8667 69.3496 24.7941 69.3741C24.5477 69.4578 24.1314 68.8378 24.0896 68.747C23.9261 68.2162 24.0817 67.2463 24.7562 67.176C25.0839 67.1349 25.6139 67.4003 25.7158 67.7455C25.6542 68.168 25.2143 68.668 25.0089 69.0226L25.0081 69.0234ZM25.6645 66.9912C24.7885 66.4873 23.6022 66.6358 23.2508 67.7084C23.0881 68.2067 23.2492 68.7304 23.5856 69.1182C23.8005 69.3646 24.2554 69.4926 24.4402 69.7406L24.5097 69.8859C24.5082 69.9751 24.3573 70.1481 24.3139 70.2247C24.1606 70.4893 24.0303 70.8013 23.8416 71.0414C23.5975 71.3518 23.6931 71.1164 23.4166 71.1417C23.1639 71.1654 23.1781 71.3226 23.34 71.4837C23.434 71.5769 23.6259 71.6353 23.746 71.7025C23.9513 71.817 24.1938 72.0484 24.411 72.1029C24.5153 72.129 24.6021 72.2182 24.7017 72.0871C24.8486 71.8928 24.5666 71.851 24.5011 71.7333C24.351 71.4632 24.6677 71.1378 24.8075 70.8961C25.1392 70.3227 25.4686 69.7485 25.8027 69.1758C25.993 68.8489 26.1692 68.4366 26.4282 68.1546C26.7126 67.845 26.5388 68.1191 26.8729 68.0732C27.0506 68.0377 27.1035 67.8434 26.9029 67.7281C26.4788 67.4959 26.0823 67.2313 25.6637 66.9904L25.6645 66.9912ZM16.0689 59.5985C16.0065 59.5835 15.8865 59.6182 15.7956 59.6656C15.6732 59.7351 15.1085 60.0668 15.159 60.1734L15.1132 60.1363C14.8897 60.3425 15.1211 60.453 15.2949 60.4404C15.3754 60.4341 15.5792 60.2864 15.5682 60.2927C16.0271 60.1229 16.4085 60.4412 16.7181 60.7555C17.3334 61.3953 17.508 62.336 17.136 63.1487C16.8058 63.8682 15.9323 64.6194 15.0951 64.5246C14.3487 64.4409 13.4285 63.6163 13.3424 62.8549C13.2998 62.4742 13.5952 62.3905 13.6552 62.1085C13.6955 61.9221 13.5304 61.7839 13.3654 61.9197C13.0605 62.1409 12.4239 62.5319 12.5439 62.8991C12.6055 63.0879 12.8535 63.328 12.9744 63.4939C13.2903 63.9283 13.6473 64.3421 14.0936 64.6494C14.8984 65.203 15.9196 65.2796 16.764 64.7678C17.1525 64.5325 17.4906 64.1936 17.7362 63.8122C17.8665 63.6092 18.3207 62.7111 18.0932 62.5168C18.2267 62.1788 17.9471 61.5501 17.7607 61.2215C17.4408 60.6513 16.7513 59.7635 16.0689 59.5977V59.5985ZM12.7983 56.0664C13.021 55.9779 12.9562 56.1525 13.1711 56.2449C13.269 56.2875 13.5051 56.3381 13.4048 56.1264C13.4767 55.9195 13.1166 55.4171 12.9941 55.1557C12.7003 54.5238 12.4026 53.8944 12.1119 53.2617C11.7589 52.4916 11.3971 51.7302 11.0385 50.9578C10.8916 50.6419 10.7803 50.1277 10.5567 49.8773C10.4651 49.7754 10.3688 49.6412 10.2369 49.7904C10.1018 49.9429 10.3656 50.1553 10.3151 50.3117C10.2226 50.5969 9.01975 51.0076 8.84441 51.0889L7.19052 51.859C7.0215 51.938 6.66055 52.1781 6.47652 52.1165C6.35331 52.0746 6.12505 51.5533 6.02474 52.0067C5.9813 52.2026 6.25853 52.5295 6.33751 52.6962C6.4473 52.9292 6.51285 53.2704 6.70004 53.4568C7.12576 53.7435 6.84695 53.0042 6.88565 52.9173C7.00649 52.6472 7.96613 52.3692 8.20623 52.2571L9.40992 51.6971C9.72664 51.5502 10.12 51.2524 10.4541 51.239C10.6831 51.2303 10.5323 51.1876 10.6618 51.329C10.8419 51.5241 10.943 51.9332 11.0551 52.1733C11.1065 52.2839 11.39 52.7049 11.3616 52.8313C11.3015 53.0958 10.3443 53.3739 10.0718 53.5018L8.82545 54.0808C8.53401 54.2166 7.84686 54.6913 7.56648 54.5207C7.45511 54.4528 7.49223 54.2695 7.29873 54.2987C7.12497 54.3248 7.17788 54.4844 7.19842 54.5926C7.23317 54.779 7.40377 54.9914 7.48433 55.1644C7.55858 55.3224 7.63914 55.756 7.80974 55.8421C8.06406 55.97 8.1391 55.673 8.03563 55.5656C7.92505 55.1826 8.80966 54.9606 9.06556 54.8414C9.74797 54.5223 10.5465 54.1937 11.1531 53.8707C11.1689 53.8643 11.7209 53.5998 11.7486 53.6637C11.9587 54.1068 12.1727 54.5689 12.3868 55.0309C12.4602 55.1905 12.4965 55.1984 12.4318 55.3026C12.3204 55.4819 11.8434 55.6083 11.6356 55.7062C10.7905 56.1035 9.94858 56.5442 9.08293 56.8957C8.88785 56.9747 8.83177 56.9889 8.66828 56.8973C8.55533 56.8341 8.37051 56.5 8.28837 56.8704C8.23782 57.0987 8.69513 57.8 8.80255 58.0235C8.86336 58.1499 8.9147 58.3924 9.10742 58.3513C9.39965 58.2881 9.11137 58.0164 9.13743 57.8766C9.19351 57.5781 9.69031 57.4833 9.94779 57.3633C10.8703 56.9352 11.7833 56.4518 12.7367 56.094L12.7998 56.0656L12.7983 56.0664ZM6.9978 44.9836L5.59192 44.7332L6.87064 44.0729L6.9978 44.9828V44.9836ZM9.1864 46.226C9.22984 46.3057 9.18719 46.4211 9.24722 46.4937C9.38781 46.6651 9.62949 46.579 9.55288 46.3129C9.5276 46.1201 9.51418 45.0499 9.28355 44.9465C9.01659 44.8264 9.0624 45.2063 9.01106 45.3248C8.68328 45.3587 8.29785 45.2347 7.96139 45.1708C7.50803 45.0847 7.50645 45.1163 7.44326 44.6621C7.39982 44.3509 7.24897 43.9781 7.4401 43.7688C7.64309 43.5469 8.27179 43.2483 8.5656 43.152L8.75279 43.054L8.85468 43.1196C9.10979 43.0185 9.04976 42.8368 9.02054 42.5912C9.00237 42.4364 9.01185 41.5565 8.73699 41.57C8.49294 41.5818 8.59403 41.8835 8.57034 42.0281C8.46292 42.3203 8.11382 42.487 7.8595 42.6354C7.24897 42.9893 6.62975 43.3281 6.01211 43.6693L5.11882 44.1622C4.96085 44.249 4.1963 44.5492 4.17419 44.7893C4.13786 45.1747 6.40307 45.4417 6.64001 45.493L8.63511 45.9195C8.85468 45.9566 9.07583 46.0261 9.1864 46.2276V46.226ZM4.75787 34.5421C4.825 34.4971 5.16226 34.5919 5.23966 34.6022C5.59271 34.6456 6.28459 34.5919 6.59184 34.7696C7.07837 35.0508 6.28775 35.854 5.96472 35.9701C5.33365 36.196 4.49249 35.918 4.59043 35.1329C4.61017 35.0129 4.65677 34.6108 4.75787 34.5429V34.5421ZM6.80667 36.1526C7.3319 36.5412 8.00562 36.9795 8.34919 37.549C8.4961 37.7923 8.43607 37.9763 8.50084 38.2124C8.52769 38.3088 8.5427 38.4281 8.66354 38.4273C8.89575 38.4265 8.88706 37.9534 8.90522 37.7749C8.99368 36.9274 8.48267 36.4867 7.84607 35.9662C7.65415 35.809 7.21737 35.5815 7.15498 35.3533C6.96463 34.6582 7.61466 34.8928 8.0222 34.9497C8.30575 34.9892 8.7441 34.9694 8.84678 35.2561C8.87442 35.3335 8.80413 35.7782 9.00474 35.6495C9.23142 35.7766 9.2638 34.7285 9.28434 34.5895C9.29382 34.5232 9.44704 33.547 9.06793 33.9229C8.88548 34.2025 9.00869 34.2452 8.57034 34.2262C7.94006 34.1986 7.30662 34.0864 6.67951 34.009L5.44343 33.8566C5.1046 33.8147 4.63781 33.8471 4.72312 33.3977C4.73101 33.2974 4.69468 33.231 4.59043 33.1979L4.57384 33.2531C4.50276 33.1244 4.42535 33.2745 4.37243 33.4032C4.2824 33.6236 4.32584 33.9521 4.28713 34.1915C4.20104 34.723 4.02491 35.2996 4.21131 35.7987C4.54462 37.0277 6.129 37.162 6.80746 36.1518L6.80667 36.1526ZM19.7724 15.7886C19.552 15.6504 19.4636 15.9497 19.2716 15.9316C19.1777 15.9221 19.0236 15.7286 18.9628 15.6622C18.6327 15.3036 18.3475 14.8985 18.049 14.5138C18.9699 14.6915 19.9817 14.9245 20.9145 14.8819C21.2786 14.8519 21.8449 14.5486 22.0881 14.2374C22.2809 13.9902 22.2153 13.8535 21.9168 13.9294L21.6008 14.0834C21.0519 14.2563 20.3324 14.0778 19.7787 14.006C19.443 13.9625 19.1066 13.9183 18.7709 13.8701C18.6216 13.8488 18.4115 13.8646 18.2836 13.799C18.1074 13.709 18.192 13.8685 18.1359 13.6482C18.109 13.5416 18.1722 13.3441 18.1856 13.2375C18.2488 12.7336 18.3136 12.2273 18.387 11.725C18.4155 11.5283 18.4471 11.3372 18.5426 11.1587C18.609 11.0354 18.9083 10.8024 18.782 10.6453C18.605 10.4241 18.1619 10.9367 18.0324 11.0362C17.9203 11.1223 17.7157 11.2037 17.6399 11.3198C17.478 11.5702 17.6201 11.4904 17.7244 11.6357L17.8255 11.7487C17.8934 11.9248 17.767 12.4026 17.7473 12.5859L17.6035 13.942L17.0483 13.2296C16.9511 13.104 16.775 12.9523 16.7142 12.8015C16.6234 12.5756 16.6921 12.6609 16.7608 12.4524C16.8192 12.2739 16.9369 12.0448 16.5673 12.1602C16.3288 12.2344 16.0365 12.5906 15.8296 12.7415C15.7293 12.8141 15.2451 13.0858 15.422 13.2801C15.6077 13.4831 15.8225 13.0803 16.0658 13.2185C16.3817 13.3986 16.7592 14.1007 16.9796 14.3835C17.4748 15.0177 18.1975 15.761 18.5118 16.437C18.5426 16.5579 18.083 17.1645 18.6572 16.9125C18.883 16.8138 19.1153 16.5358 19.3214 16.3833C19.5046 16.2483 19.9477 16.0421 19.7724 15.7862V15.7886ZM26.0049 10.9478C24.9757 10.6089 24.118 9.20385 24.4213 8.13127C24.6922 7.17242 25.8208 6.70406 26.7165 7.0808C27.5979 7.45044 28.1927 8.5633 28.1927 9.49687C28.1927 10.6082 27.0072 11.2779 26.0049 10.9486V10.9478ZM25.3643 6.57769C24.1204 7.07923 23.4 8.35558 23.7586 9.67774C24.1567 11.1452 25.6518 12.0322 27.1067 11.4967C28.4944 10.9857 29.2416 9.52136 28.7361 8.10599C28.2251 6.66694 26.786 6.00428 25.3643 6.57769ZM37.7243 8.32556C37.154 8.1368 36.8049 7.12819 36.5356 6.64482C36.087 5.83841 35.6818 4.97119 35.1834 4.19479C34.8311 3.64508 34.7024 4.15372 34.6289 4.4973L34.0311 7.29327C33.9189 7.81929 33.8881 8.91872 33.2823 8.97401C33.2041 8.98191 33.1085 9.05615 33.1204 9.16436C33.1867 9.43606 34.5989 9.22359 34.7608 9.04746C34.9338 8.76629 34.4915 8.86027 34.4165 8.79314C34.3012 8.68967 34.4283 8.32793 34.4583 8.16997C34.6408 7.21665 34.8114 6.30204 34.9812 5.3432C35.4614 6.27045 35.9116 7.12188 36.4037 8.02306C36.4811 8.16523 36.6217 8.33899 36.6619 8.49696C36.6722 8.53487 36.5624 8.60832 36.5932 8.67151C36.6785 8.84685 36.8239 8.79709 36.985 8.78919C37.2053 8.77892 38.1279 8.79235 38.146 8.4701C38.0639 8.21657 37.8941 8.38243 37.725 8.32714L37.7243 8.32556ZM8.12883 23.2801C8.22756 23.2587 8.39263 23.3906 8.48504 23.4467C8.96051 23.7318 9.42651 24.0351 9.89645 24.3297C10.4162 24.6559 10.9848 24.9529 11.4619 25.336L11.5417 25.396C11.8086 25.7001 11.559 25.4687 11.623 25.7514C11.7012 26.0958 11.875 25.997 12.0369 25.7325C12.2209 25.4307 12.4002 25.1275 12.5882 24.8281C13.0644 24.0667 13.6244 23.2627 14.0525 22.5195C14.5145 21.717 15.0398 20.939 15.5374 20.1508C15.6345 20.0236 15.5666 19.8119 15.3612 19.8538C15.2372 19.8791 15.103 20.1413 15.0643 20.1847C14.8202 20.2061 14.5351 19.966 14.3313 19.8435C13.893 19.579 13.4609 19.3033 13.0265 19.0308C12.5763 18.7488 11.9413 18.4961 11.5725 18.1202C11.3442 17.8872 11.4943 18.0112 11.4951 17.7821C11.4951 17.6605 11.6048 17.4796 11.3529 17.4899C11.1404 17.4986 10.9572 18.0135 10.8727 18.1486C10.7668 18.3176 10.3356 18.7488 10.4493 18.9724C10.5923 19.2543 10.8419 18.7899 10.9998 18.7157C11.4603 18.9044 11.9389 19.2812 12.3741 19.5537C13.0257 19.9612 13.7587 20.4509 14.3495 20.8166C14.5351 20.9943 14.2784 21.187 14.1544 21.3845C14.0375 21.5717 13.6963 22.3789 13.4886 22.446C13.3219 22.5005 12.7319 22.0345 12.5747 21.9374L11.4105 21.2099C11.0141 20.9611 10.5236 20.7376 10.1689 20.4335C10.0836 20.3609 10.0086 20.3048 9.99913 20.2148C9.98254 20.0663 10.2313 19.9502 10.026 19.8056C9.82458 19.665 8.87679 21.0259 9.10189 21.2542C9.31593 21.3774 9.31514 21.1373 9.44862 21.0749C9.68083 20.9651 9.96833 21.2384 10.1808 21.3718L11.8181 22.3962C12.1032 22.5755 12.6671 22.8393 12.882 23.0897C13.0392 23.273 12.9918 23.1434 12.9088 23.3748C12.8362 23.5786 12.6521 23.7848 12.5376 23.968C12.4255 24.1473 12.2975 24.4782 12.1332 24.6141L12.0013 24.6804C11.8173 24.6859 11.4105 24.3455 11.247 24.2444L9.98333 23.4546C9.84353 23.3677 8.84125 22.6206 8.69592 22.7177C8.74489 22.5992 8.60114 22.6308 8.58535 22.4942L8.66433 22.2944C8.63195 22.0345 8.56639 21.965 8.33023 22.1743C8.15647 22.3283 8.0459 22.6624 7.914 22.8654C7.8595 22.9483 7.32321 23.6086 7.74892 23.6086C7.93532 23.6086 7.95507 23.3188 8.12804 23.2816L8.12883 23.2801Z" fill="#2E2E40"/>
<path d="M8.72155 29.1419C8.58886 29.5992 8.11101 29.8622 7.65371 29.7295C7.1964 29.5976 6.93339 29.119 7.06529 28.6625C7.19798 28.2052 7.67582 27.9422 8.13313 28.0741C8.59044 28.2068 8.85345 28.6846 8.72155 29.1419Z" fill="#2E2E40"/>
<path d="M28.5503 57.9399L29.7184 55.6676V23.9191H34.8704V55.6328H38.5123V43.2461H43.267V55.6202H47.3883V49.9817C47.3883 46.5649 47.2114 41.8117 43.3658 39.357L45.6057 38.534C50.2412 40.2582 52.5617 44.7578 52.5617 50.687V55.6692L53.729 57.9399H28.5495H28.5503ZM37.7225 20.1532L37.9152 20.1564H39.8558C43.6872 20.1564 45.2913 20.8309 47.1064 22.2297C49.7459 24.2998 50.163 27.3035 50.163 28.8073C50.163 30.6721 49.5919 32.6411 48.1939 34.246C47.1577 35.4884 45.3561 37.2932 41.8232 37.7149C39.408 38.008 37.6238 37.8997 36.7336 37.8034V35.907C37.1301 35.9607 37.7138 36.0137 38.5091 36.0137C40.9126 36.0137 42.6154 34.8108 43.6509 33.5147C44.8277 32.0859 45.0741 30.74 45.1255 29.5371H38.5131V27.6739H45.067C44.8996 26.4149 44.4186 25.4529 43.6375 24.5075C42.1352 22.6428 40.0114 22.3324 38.6118 22.3324L29.1695 22.3284L28.0551 20.1524H37.7233L37.7225 20.1532ZM11.6094 39.398C11.6094 54.9797 24.245 67.6152 39.8258 67.6152C55.4066 67.6152 68.0438 54.9789 68.0438 39.398C68.0438 23.8164 55.4066 11.1816 39.8258 11.1816C24.245 11.1816 11.6094 23.8172 11.6094 39.398Z" fill="#2E2E40"/>
</svg>
