<svg width="209" height="37" viewBox="0 0 209 37" fill="none" xmlns="http://www.w3.org/2000/svg">
<path d="M121.942 8.01395C121.509 8.23016 120.933 8.44636 120.14 8.44636C118.843 8.44636 118.122 8.01395 117.473 7.4374C116.609 6.64463 116.32 5.70774 116.32 4.69877C116.32 3.40152 116.825 2.46462 117.473 1.88807C118.194 1.23945 119.059 0.951172 120.14 0.951172C120.644 0.951172 121.221 1.02324 121.942 1.38359V3.04118C121.293 2.32049 120.428 2.24842 120.212 2.24842C118.771 2.24842 117.834 3.40152 117.834 4.77084C117.834 6.35636 119.059 7.22119 120.284 7.22119C120.933 7.22119 121.581 6.93291 121.942 6.42843V8.01395Z" fill="#2E2E40"/>
<path d="M127.633 7.00502C127.489 7.36537 126.985 8.4464 125.327 8.4464C124.606 8.4464 124.03 8.2302 123.525 7.79778C123.021 7.2933 122.805 6.71674 122.805 5.99605C122.805 5.05915 123.165 4.4826 123.525 4.12225C124.102 3.5457 124.751 3.47363 125.255 3.47363C126.192 3.47363 126.768 3.83398 127.057 4.26639C127.561 4.84295 127.633 5.56364 127.633 6.06812V6.14019H124.102C124.102 6.42847 124.174 6.71674 124.318 6.93295C124.462 7.14916 124.751 7.36537 125.255 7.36537C125.76 7.36537 126.12 7.14916 126.336 6.71674L127.633 7.00502ZM126.408 5.34743C126.264 4.69881 125.76 4.41053 125.327 4.41053C124.823 4.41053 124.318 4.69881 124.246 5.34743H126.408Z" fill="#2E2E40"/>
<path d="M128.715 3.61758H130.012V4.19413C130.228 3.83378 130.733 3.40137 131.453 3.40137C131.886 3.40137 132.462 3.54551 132.823 3.97792C133.183 4.41034 133.183 4.84275 133.183 5.27517V8.23H131.886V5.70758C131.886 5.4193 131.886 5.05896 131.67 4.77068C131.453 4.55447 131.165 4.55447 131.021 4.55447C130.661 4.55447 130.372 4.69861 130.228 4.98689C130.012 5.27517 130.012 5.63551 130.012 5.92379V8.30207H128.715V3.61758Z" fill="#2E2E40"/>
<path d="M135.776 4.77085V8.30224H134.479V4.77085H133.902V3.61775H134.407V2.03223H135.704V3.61775H136.641V4.77085H135.776Z" fill="#2E2E40"/>
<path d="M141.977 7.00502C141.833 7.36537 141.328 8.4464 139.671 8.4464C138.95 8.4464 138.374 8.2302 137.869 7.79778C137.365 7.2933 137.148 6.71674 137.148 5.99605C137.148 5.05915 137.509 4.4826 137.869 4.12225C138.446 3.5457 139.094 3.47363 139.599 3.47363C140.536 3.47363 141.112 3.83398 141.401 4.26639C141.905 4.84295 141.977 5.56364 141.977 6.06812V6.14019H138.446C138.446 6.42847 138.518 6.71674 138.662 6.93295C138.806 7.14916 139.094 7.36537 139.599 7.36537C140.103 7.36537 140.464 7.14916 140.68 6.71674L141.977 7.00502ZM140.752 5.34743C140.608 4.69881 140.103 4.41053 139.671 4.41053C139.166 4.41053 138.662 4.69881 138.59 5.34743H140.752Z" fill="#2E2E40"/>
<path d="M142.984 3.61777H144.282V4.33846C144.498 3.90605 144.786 3.76191 144.858 3.68984C145.074 3.5457 145.291 3.47363 145.651 3.47363C145.867 3.47363 146.083 3.5457 146.227 3.61777L146.083 4.84295C145.939 4.69881 145.723 4.69881 145.435 4.69881C145.219 4.69881 144.786 4.77088 144.57 5.05915C144.354 5.34743 144.282 5.77985 144.282 6.06812V8.30227H142.984V3.61777Z" fill="#2E2E40"/>
<path d="M150.767 4.77102V8.30241H149.469V4.77102H148.965V3.61792H149.469V2.32067C149.469 1.88826 149.469 1.16756 150.118 0.66308C150.406 0.446873 150.767 0.302734 151.271 0.302734C151.559 0.302734 151.776 0.374803 151.992 0.446873V1.67205C151.776 1.52791 151.631 1.45584 151.415 1.45584C151.271 1.45584 151.055 1.52791 150.911 1.67205C150.767 1.81619 150.767 2.10446 150.767 2.46481V3.54585H151.992V4.69895H150.767V4.77102Z" fill="#2E2E40"/>
<path d="M156.892 4.12225C157.324 4.55467 157.685 5.20329 157.685 5.99605C157.685 6.71674 157.324 7.36537 156.892 7.79778C156.459 8.15813 155.883 8.4464 155.018 8.4464C154.153 8.4464 153.505 8.15813 153.144 7.79778C152.712 7.36537 152.352 6.71674 152.352 5.99605C152.352 5.20329 152.64 4.55467 153.144 4.12225C153.577 3.76191 154.153 3.47363 155.018 3.47363C155.883 3.47363 156.532 3.76191 156.892 4.12225ZM156.315 5.99605C156.315 5.27536 155.739 4.69881 155.018 4.69881C154.297 4.69881 153.721 5.27536 153.721 5.99605C153.721 6.71674 154.297 7.2933 155.018 7.2933C155.739 7.2933 156.315 6.64468 156.315 5.99605Z" fill="#2E2E40"/>
<path d="M158.695 3.61777H159.993V4.33846C160.209 3.90605 160.497 3.76191 160.569 3.68984C160.785 3.5457 161.002 3.47363 161.362 3.47363C161.578 3.47363 161.794 3.5457 161.938 3.61777L161.794 4.84295C161.65 4.69881 161.434 4.69881 161.146 4.69881C160.929 4.69881 160.497 4.77088 160.281 5.05915C160.065 5.34743 159.993 5.77985 159.993 6.06812V8.30227H158.695V3.61777Z" fill="#2E2E40"/>
<path d="M121.004 19.7618H118.121L117.472 21.2753H115.887L118.986 14.0684H120.067L123.094 21.2753H121.58L121.004 19.7618ZM120.571 18.6087L119.562 16.0142L118.553 18.6087H120.571Z" fill="#2E2E40"/>
<path d="M123.742 16.5904H125.039V17.3111C125.256 16.8787 125.544 16.7346 125.616 16.6625C125.832 16.5184 126.048 16.4463 126.409 16.4463C126.625 16.4463 126.841 16.5184 126.985 16.5904L126.841 17.8156C126.697 17.6715 126.481 17.6715 126.193 17.6715C125.976 17.6715 125.544 17.7435 125.328 18.0318C125.112 18.3201 125.039 18.7525 125.039 19.0408V21.2749H123.742V16.5904Z" fill="#2E2E40"/>
<path d="M129.001 17.7435V21.2749H127.704V17.7435H127.199V16.5904H127.704V15.0049H129.001V16.5904H129.938V17.7435H129.001Z" fill="#2E2E40"/>
<path d="M131.238 13.8516C131.67 13.8516 132.031 14.2119 132.031 14.6443C132.031 15.0767 131.67 15.4371 131.238 15.4371C130.806 15.4371 130.445 15.0767 130.445 14.6443C130.445 14.2119 130.806 13.8516 131.238 13.8516ZM131.887 16.5902V21.2747H130.589V16.5902H131.887Z" fill="#2E2E40"/>
<path d="M134.481 17.7437V21.2751H133.184V17.7437H132.68V16.5906H133.184V15.4375C133.184 14.933 133.184 14.5726 133.545 14.0682C133.905 13.6357 134.481 13.2754 135.418 13.2754C135.995 13.2754 136.86 13.4195 137.292 14.0682C137.652 14.5726 137.58 15.0771 137.58 15.4375V15.7257H136.283V15.4375C136.283 15.2213 136.283 15.0051 136.139 14.7888C135.923 14.4285 135.635 14.4285 135.418 14.4285C135.202 14.4285 134.842 14.4285 134.698 14.7888C134.553 15.0051 134.553 15.2213 134.553 15.4375V16.5906H135.779V17.7437H134.481ZM137.58 16.5906V21.2751H136.283V16.5906H137.58Z" fill="#2E2E40"/>
<path d="M142.408 18.0318C142.119 17.7435 141.759 17.5994 141.327 17.5994C140.462 17.5994 140.029 18.248 140.029 18.8966C140.029 19.6894 140.606 20.1939 141.399 20.1939C141.687 20.1939 142.047 20.1218 142.408 19.7615V21.0587C142.119 21.2029 141.759 21.347 141.183 21.347C140.462 21.347 139.813 21.0587 139.381 20.6984C139.021 20.338 138.66 19.7615 138.66 18.8966C138.66 18.1039 139.02 17.3832 139.453 17.0228C140.029 16.5184 140.678 16.4463 141.111 16.4463C141.615 16.4463 141.975 16.5184 142.408 16.7346V18.0318Z" fill="#2E2E40"/>
<path d="M144.066 13.8516C144.499 13.8516 144.859 14.2119 144.859 14.6443C144.859 15.0767 144.499 15.4371 144.066 15.4371C143.634 15.4371 143.273 15.0767 143.273 14.6443C143.273 14.2119 143.634 13.8516 144.066 13.8516ZM144.715 16.5902V21.2747H143.418V16.5902H144.715Z" fill="#2E2E40"/>
<path d="M149.542 16.5904H150.84V21.2749H149.542V20.6984C149.038 21.347 148.461 21.4191 148.101 21.4191C146.66 21.4191 145.723 20.266 145.723 18.8966C145.723 17.5273 146.66 16.4463 148.029 16.4463C148.389 16.4463 149.11 16.5184 149.542 17.167V16.5904ZM147.092 18.8966C147.092 19.6173 147.669 20.1939 148.389 20.1939C149.11 20.1939 149.686 19.6173 149.686 18.8966C149.686 18.1759 149.11 17.5994 148.389 17.5994C147.596 17.5994 147.092 18.1759 147.092 18.8966Z" fill="#2E2E40"/>
<path d="M153.434 13.4199V21.2755H152.137V13.4199H153.434Z" fill="#2E2E40"/>
<path d="M158.842 14.0684V21.2753H157.473V14.0684H158.842Z" fill="#2E2E40"/>
<path d="M160.281 16.5904H161.578V17.167C161.795 16.8066 162.299 16.4463 163.02 16.4463C163.452 16.4463 164.029 16.5904 164.389 17.0228C164.677 17.4553 164.75 17.8877 164.75 18.3201V21.2749H163.452V18.7525C163.452 18.4642 163.452 18.1039 163.236 17.8156C163.02 17.5994 162.732 17.5994 162.587 17.5994C162.227 17.5994 161.939 17.7435 161.795 18.0318C161.578 18.3201 161.578 18.6804 161.578 18.9687V21.347H160.281V16.5904Z" fill="#2E2E40"/>
<path d="M167.345 17.7435V21.2749H166.047V17.7435H165.543V16.5904H166.047V15.0049H167.345V16.5904H168.282V17.7435H167.345Z" fill="#2E2E40"/>
<path d="M173.543 19.9769C173.399 20.3372 172.895 21.4183 171.237 21.4183C170.445 21.4183 169.94 21.2021 169.436 20.7697C168.931 20.2652 168.715 19.6886 168.715 18.9679C168.715 18.031 169.075 17.4545 169.436 17.1662C170.012 16.5896 170.661 16.5176 171.165 16.5176C172.102 16.5176 172.679 16.8779 172.967 17.3103C173.471 17.8869 173.543 18.6076 173.543 19.1121V19.1841H170.012C170.012 19.4724 170.084 19.7607 170.228 19.9769C170.372 20.1931 170.661 20.4093 171.165 20.4093C171.67 20.4093 172.03 20.1931 172.246 19.7607L173.543 19.9769ZM172.318 18.3193C172.174 17.6707 171.67 17.3824 171.237 17.3824C170.733 17.3824 170.228 17.6707 170.156 18.3193H172.318Z" fill="#2E2E40"/>
<path d="M175.922 13.4199V21.2755H174.625V13.4199H175.922Z" fill="#2E2E40"/>
<path d="M178.514 13.4199V21.2755H177.145V13.4199H178.514Z" fill="#2E2E40"/>
<path d="M180.39 13.8516C180.823 13.8516 181.183 14.2119 181.183 14.6443C181.183 15.0767 180.823 15.4371 180.39 15.4371C179.958 15.4371 179.598 15.0767 179.598 14.6443C179.598 14.2119 179.958 13.8516 180.39 13.8516ZM181.039 16.5902V21.2747H179.742V16.5902H181.039Z" fill="#2E2E40"/>
<path d="M185.865 16.5904H187.162V21.0587C187.162 21.7794 187.09 22.5001 186.513 23.0767C186.225 23.3649 185.649 23.7253 184.64 23.7253C183.703 23.7253 183.198 23.437 182.91 23.2208C182.55 22.9325 182.261 22.356 182.189 21.8515H183.631C183.703 22.0677 183.775 22.2839 183.919 22.428C184.207 22.6442 184.568 22.6442 184.712 22.6442C185.072 22.6442 185.36 22.5001 185.504 22.356C185.793 22.0677 185.865 21.7073 185.865 21.347V20.6984C185.432 21.4191 184.784 21.4911 184.423 21.4911C183.775 21.4911 183.27 21.2749 182.838 20.8425C182.478 20.4822 182.117 19.9056 182.117 18.9687C182.117 18.248 182.405 17.5273 182.838 17.0949C183.27 16.6625 183.847 16.4463 184.423 16.4463C185.288 16.4463 185.721 16.9508 185.865 17.167V16.5904ZM183.847 17.9597C183.631 18.1759 183.414 18.4642 183.414 18.9687C183.414 19.4011 183.559 19.6894 183.775 19.9056C184.063 20.1939 184.423 20.338 184.712 20.338C185 20.338 185.36 20.1939 185.577 20.0497C185.865 19.8335 186.009 19.4011 186.009 19.0408C186.009 18.6084 185.793 18.3201 185.649 18.1039C185.36 17.8156 185.072 17.7435 184.712 17.7435C184.279 17.5994 183.991 17.8156 183.847 17.9597Z" fill="#2E2E40"/>
<path d="M193.071 19.9769C192.927 20.3372 192.422 21.4183 190.765 21.4183C190.044 21.4183 189.467 21.2021 188.963 20.7697C188.458 20.2652 188.242 19.6886 188.242 18.9679C188.242 18.031 188.603 17.4545 188.963 17.1662C189.539 16.5896 190.188 16.5176 190.693 16.5176C191.629 16.5176 192.206 16.8779 192.494 17.3103C192.999 17.8869 193.071 18.6076 193.071 19.1121V19.1841H189.539C189.539 19.4724 189.612 19.7607 189.756 19.9769C189.9 20.1931 190.188 20.4093 190.693 20.4093C191.197 20.4093 191.557 20.1931 191.774 19.7607L193.071 19.9769ZM191.846 18.3193C191.702 17.6707 191.197 17.3824 190.765 17.3824C190.26 17.3824 189.756 17.6707 189.684 18.3193H191.846Z" fill="#2E2E40"/>
<path d="M194.082 16.5904H195.379V17.167C195.595 16.8066 196.1 16.4463 196.821 16.4463C197.253 16.4463 197.83 16.5904 198.19 17.0228C198.55 17.4553 198.55 17.8877 198.55 18.3201V21.2749H197.325V18.7525C197.325 18.4642 197.325 18.1039 197.109 17.8156C196.893 17.5994 196.604 17.5994 196.46 17.5994C196.1 17.5994 195.812 17.7435 195.668 18.0318C195.451 18.3201 195.451 18.6804 195.451 18.9687V21.347H194.154V16.5904H194.082Z" fill="#2E2E40"/>
<path d="M203.376 18.0318C203.088 17.7435 202.728 17.5994 202.295 17.5994C201.431 17.5994 200.998 18.248 200.998 18.8966C200.998 19.6894 201.575 20.1939 202.368 20.1939C202.656 20.1939 203.016 20.1218 203.376 19.7615V21.0587C203.088 21.2029 202.728 21.347 202.151 21.347C201.431 21.347 200.782 21.0587 200.35 20.6984C199.989 20.338 199.629 19.7615 199.629 18.8966C199.629 18.1039 199.989 17.3832 200.422 17.0228C200.998 16.5184 201.647 16.4463 202.079 16.4463C202.584 16.4463 202.944 16.5184 203.376 16.7346V18.0318Z" fill="#2E2E40"/>
<path d="M209.001 19.9769C208.856 20.3372 208.352 21.4183 206.694 21.4183C205.974 21.4183 205.397 21.2021 204.893 20.7697C204.388 20.2652 204.172 19.6886 204.172 18.9679C204.172 18.031 204.532 17.4545 204.893 17.1662C205.469 16.5896 206.118 16.5176 206.622 16.5176C207.559 16.5176 208.136 16.8779 208.424 17.3103C208.928 17.8869 209.001 18.6076 209.001 19.1121V19.1841H205.469C205.469 19.4724 205.541 19.7607 205.685 19.9769C205.829 20.1931 206.118 20.4093 206.622 20.4093C207.127 20.4093 207.487 20.1931 207.703 19.7607L209.001 19.9769ZM207.775 18.3193C207.631 17.6707 207.127 17.3824 206.694 17.3824C206.262 17.3824 205.685 17.6707 205.613 18.3193H207.775Z" fill="#2E2E40"/>
<path d="M118.986 28.2652V34.247H117.617V28.2652H116.031V27.04H120.644V28.2652H118.986Z" fill="#2E2E40"/>
<path d="M125.903 32.9496C125.759 33.3099 125.254 34.3909 123.597 34.3909C122.804 34.3909 122.299 34.1747 121.795 33.7423C121.29 33.2378 121.074 32.6613 121.074 31.9406C121.074 31.0037 121.435 30.4271 121.795 30.1389C122.371 29.5623 123.02 29.4902 123.525 29.4902C124.461 29.4902 125.038 29.8506 125.326 30.283C125.831 30.8595 125.903 31.5802 125.903 32.0847V32.1568H122.371C122.371 32.4451 122.444 32.7333 122.588 32.9496C122.732 33.1658 123.02 33.382 123.525 33.382C124.029 33.382 124.389 33.1658 124.606 32.7333L125.903 32.9496ZM124.678 31.292C124.606 30.6433 124.029 30.3551 123.597 30.3551C123.092 30.3551 122.588 30.6433 122.516 31.292H124.678Z" fill="#2E2E40"/>
<path d="M130.443 31.0045C130.155 30.7162 129.794 30.5721 129.362 30.5721C128.497 30.5721 128.065 31.2207 128.065 31.8693C128.065 32.6621 128.641 33.1665 129.434 33.1665C129.722 33.1665 130.083 33.0945 130.443 32.7341V34.0314C130.155 34.1755 129.794 34.3196 129.218 34.3196C128.497 34.3196 127.848 34.0314 127.416 33.671C127.056 33.3107 126.695 32.7341 126.695 31.8693C126.695 31.0765 127.056 30.3558 127.488 29.9955C128.065 29.491 128.713 29.4189 129.146 29.4189C129.65 29.4189 130.01 29.491 130.443 29.7072V31.0045Z" fill="#2E2E40"/>
<path d="M131.453 26.3916H132.75V30.1392C132.967 29.7789 133.471 29.4185 134.192 29.4185C134.624 29.4185 135.201 29.5626 135.561 29.9951C135.849 30.4275 135.921 30.8599 135.921 31.2923V34.2471H134.624V31.7247C134.624 31.4364 134.624 31.0761 134.408 30.7878C134.192 30.5716 133.903 30.5716 133.759 30.5716C133.399 30.5716 133.111 30.7158 132.967 31.004C132.75 31.2923 132.75 31.6527 132.75 31.9409V34.3192H131.453V26.3916Z" fill="#2E2E40"/>
<path d="M137.219 29.5631H138.516V30.1396C138.732 29.7793 139.237 29.4189 139.957 29.4189C140.39 29.4189 140.966 29.5631 141.327 29.9955C141.615 30.4279 141.687 30.8603 141.687 31.2927V34.2476H140.39V31.7252C140.39 31.4369 140.39 31.0765 140.174 30.7883C139.957 30.5721 139.669 30.5721 139.525 30.5721C139.165 30.5721 138.876 30.7162 138.732 31.0045C138.516 31.2927 138.516 31.6531 138.516 31.9414V34.3196H137.219V29.5631Z" fill="#2E2E40"/>
<path d="M147.31 30.0676C147.742 30.5 148.103 31.1486 148.103 31.8693C148.103 32.59 147.742 33.2386 147.31 33.671C146.877 34.0314 146.301 34.3196 145.436 34.3196C144.571 34.3196 143.923 34.0314 143.562 33.671C143.13 33.2386 142.77 32.59 142.77 31.8693C142.77 31.0765 143.058 30.4279 143.562 30.0676C143.995 29.7072 144.571 29.4189 145.436 29.4189C146.301 29.4189 146.95 29.7072 147.31 30.0676ZM146.733 31.9414C146.733 31.2207 146.157 30.6441 145.436 30.6441C144.715 30.6441 144.139 31.2207 144.139 31.9414C144.139 32.6621 144.715 33.2386 145.436 33.2386C146.229 33.2386 146.733 32.59 146.733 31.9414Z" fill="#2E2E40"/>
<path d="M150.481 26.3916V34.2471H149.184V26.3916H150.481Z" fill="#2E2E40"/>
<path d="M156.029 30.0676C156.461 30.5 156.821 31.1486 156.821 31.8693C156.821 32.59 156.533 33.2386 156.029 33.671C155.596 34.0314 155.02 34.3196 154.155 34.3196C153.29 34.3196 152.641 34.0314 152.281 33.671C151.849 33.2386 151.488 32.59 151.488 31.8693C151.488 31.0765 151.777 30.4279 152.281 30.0676C152.713 29.7072 153.29 29.4189 154.155 29.4189C155.02 29.4189 155.668 29.7072 156.029 30.0676ZM155.452 31.9414C155.452 31.2207 154.876 30.6441 154.155 30.6441C153.434 30.6441 152.858 31.2207 152.858 31.9414C152.858 32.6621 153.434 33.2386 154.155 33.2386C154.876 33.2386 155.452 32.59 155.452 31.9414Z" fill="#2E2E40"/>
<path d="M161.435 29.5631H162.732V34.0314C162.732 34.7521 162.66 35.4728 162.084 36.0493C161.795 36.3376 161.219 36.6979 160.21 36.6979C159.273 36.6979 158.769 36.4097 158.48 36.1934C158.12 35.9052 157.832 35.3286 157.76 34.8241H159.201C159.273 35.0403 159.345 35.2565 159.489 35.4007C159.778 35.6169 160.138 35.6169 160.282 35.6169C160.642 35.6169 160.931 35.4728 161.075 35.3286C161.363 35.0403 161.435 34.68 161.435 34.3196V33.671C161.003 34.3917 160.354 34.4638 159.994 34.4638C159.345 34.4638 158.841 34.2476 158.408 33.8152C158.048 33.4548 157.688 32.8783 157.688 31.9414C157.688 31.2207 157.976 30.5 158.408 30.0676C158.841 29.6352 159.417 29.4189 159.994 29.4189C160.859 29.4189 161.291 29.9234 161.435 30.1396V29.5631ZM159.417 30.9324C159.201 31.1486 158.985 31.4369 158.985 31.9414C158.985 32.3738 159.129 32.6621 159.345 32.8783C159.633 33.1665 159.994 33.3107 160.282 33.3107C160.57 33.3107 160.931 33.1665 161.147 33.0224C161.435 32.8062 161.579 32.3738 161.579 32.0134C161.579 31.581 161.363 31.2927 161.219 31.0765C160.931 30.7883 160.642 30.7162 160.282 30.7162C159.85 30.5721 159.561 30.7883 159.417 30.9324Z" fill="#2E2E40"/>
<path d="M165.613 33.5263L163.379 29.5625H164.892L166.334 32.2291L167.631 29.5625H169.144L165.397 36.6973H163.883L165.613 33.5263Z" fill="#2E2E40"/>
<path d="M99.7402 32.7335H96.8574L96.2088 34.247H94.6953L97.7943 27.04H98.8753L101.902 34.247H100.389L99.7402 32.7335ZM99.3798 31.5804L98.3708 28.9859L97.3619 31.5804H99.3798Z" fill="#2E2E40"/>
<path d="M104.137 27.04V34.247H102.695V27.04H104.137Z" fill="#2E2E40"/>
<path d="M4.61243 12.4797C4.61243 13.1283 4.6845 15.0742 7.42312 15.0742C7.78347 15.0742 9.87348 15.0742 9.87348 13.2004C9.87348 12.4076 9.5852 11.9031 8.43209 11.6149L4.32415 10.5338C3.17104 10.2456 0.216208 9.45279 0.216208 5.9214C0.216208 3.18277 2.23414 0.732422 7.27899 0.732422C13.7652 0.732422 14.0535 4.26381 14.1256 6.06554H9.44106C9.44106 5.56106 9.44106 3.75933 7.27899 3.75933C5.90967 3.75933 5.11691 4.55209 5.11691 5.48899C5.11691 6.71416 6.12588 7.00244 6.7745 7.21865L9.87348 8.01141C12.1076 8.58796 14.7021 9.30865 14.7021 12.84C14.7021 16.5876 11.5311 18.2452 7.35106 18.2452C5.6214 18.2452 2.8107 17.957 1.29725 16.2273C0.0720693 14.858 0.0720692 13.2725 0 12.5518H4.61243V12.4797Z" fill="#2E2E40"/>
<path d="M17.3672 1.09375H21.6193V11.3276L25.5831 6.21066H30.4117L26.4479 11.1114L30.9883 17.8138H25.7272L21.6193 11.3276V17.8138H17.3672V1.09375Z" fill="#2E2E40"/>
<path d="M38.2667 5.77832C42.0143 5.77832 44.9691 7.65212 44.9691 11.7601C44.9691 13.4177 44.4646 15.1473 43.3115 16.3725C42.3746 17.3094 40.9332 18.0301 38.555 18.0301C35.9605 18.0301 34.3029 17.3815 33.2218 16.3004C31.8525 15.0032 31.5642 13.2735 31.5642 11.9042C31.4922 8.37281 33.6543 5.77832 38.2667 5.77832ZM36.537 14.7149C37.0415 15.5797 37.8343 15.6518 38.1946 15.6518C40.0684 15.6518 40.4288 13.5618 40.4288 11.9763C40.4288 9.95833 39.9243 8.30074 38.1946 8.30074C36.2487 8.30074 35.8884 10.2466 35.8884 11.9763C36.0325 12.697 36.0325 13.8501 36.537 14.7149Z" fill="#2E2E40"/>
<path d="M51.9609 1.09375H47.6367V17.8138H51.9609V1.09375Z" fill="#2E2E40"/>
<path d="M63.2053 6.21147V8.9501H60.3946V12.986C60.3946 14.4274 60.3946 15.076 62.0522 15.076C62.4126 15.076 62.6288 15.076 63.1333 15.0039V17.7425C62.5567 17.8146 61.7639 17.9587 60.3226 17.9587C56.8632 17.9587 56.1425 16.8056 56.1425 14.5715V9.02217H53.9805V6.28354H56.2146V4.48181L60.3946 2.82422V6.28354H63.2053V6.21147Z" fill="#2E2E40"/>
<path d="M68.8974 12.8411C68.8974 13.4897 68.8974 15.6518 71.1315 15.6518C72.2846 15.6518 73.0053 15.0752 73.1495 13.9942H77.1854C76.825 16.877 74.1584 18.0301 71.1315 18.0301C67.0957 18.0301 64.9336 16.0121 64.9336 12.1925C64.9336 8.30074 66.8074 5.77832 71.1315 5.77832C74.3747 5.77832 75.8881 7.07556 76.6809 8.73315C77.1853 9.74212 77.3295 10.8232 77.3295 12.8411H68.8974ZM73.0774 10.4628C73.0053 9.81419 72.8612 8.01246 70.9874 8.01246C69.1136 8.01246 68.8974 9.88626 68.8974 10.4628H73.0774Z" fill="#2E2E40"/>
<path d="M87.0587 10.2466C87.0587 9.16557 86.6262 8.22867 85.5452 8.22867C83.9597 8.22867 83.5993 9.81419 83.5993 11.9042C83.5993 14.9311 84.4642 15.5797 85.5452 15.5797C87.0587 15.5797 87.1307 14.0663 87.1307 13.2014H91.5269C91.5269 16.1563 89.2207 18.0301 85.6894 18.0301C82.0138 18.0301 79.2031 16.0842 79.2031 11.9042C79.2031 7.36384 82.4462 5.77832 85.6894 5.77832C86.9145 5.77832 89.0766 5.99453 90.3738 7.43591C91.3828 8.51695 91.4549 9.59799 91.5269 10.2466H87.0587Z" fill="#2E2E40"/>
<path d="M92.6094 1.09375H97.0056V7.43584C97.438 7.00342 98.5191 5.92238 100.609 5.92238C101.762 5.92238 102.915 6.21066 103.852 7.07549C105.005 8.08446 105.005 9.3817 105.005 11.0393V17.8138H100.681V11.5438C100.681 10.6069 100.681 8.66101 98.8794 8.66101C97.5101 8.66101 97.1497 9.81412 97.0777 10.2465C96.9335 10.751 96.9335 11.5438 96.9335 12.4807V17.7417H92.6094V1.09375Z" fill="#2E2E40"/>
</svg>
