<svg width="203" height="48" viewBox="0 0 203 48" fill="none" xmlns="http://www.w3.org/2000/svg">
<path fill-rule="evenodd" clip-rule="evenodd" d="M167.08 26.9081H155.718C154.035 26.9081 154.043 29.1652 155.718 29.1652C157.219 29.1652 158.652 29.138 160.143 29.138C160.254 29.138 160.364 29.1414 160.475 29.1482H163.311C165.22 29.1482 167.457 30.735 167.457 32.8291V33.4146C167.457 35.507 165.216 37.0955 163.311 37.0955H150.922V34.2461H162.669C164.42 34.2461 164.374 31.9891 162.669 31.9891C161.176 31.9891 159.709 32.0162 158.244 32.0162C158.136 32.0162 158.03 32.0162 157.924 32.006H155.068C153.161 32.006 150.922 30.4193 150.922 28.3252V27.7397C150.922 25.6455 153.161 24.0571 155.068 24.0571H167.089V26.9081H167.08ZM124.834 29.1482L132.434 29.1652C134.109 29.1652 134.115 26.9081 132.434 26.9081H125.49C125.176 26.9107 124.872 27.024 124.63 27.229C124.389 27.434 124.224 27.7181 124.163 28.0333H124.153V29.2127C124.38 29.1704 124.61 29.1488 124.841 29.1482H124.834ZM137.238 34.2393H125.491C123.811 34.2393 123.811 31.9823 125.491 31.9823C126.984 31.9823 128.452 32.0094 129.916 32.0094C130.022 32.0094 130.13 32.0094 130.236 31.9992H133.09C134.997 31.9992 137.236 30.4125 137.236 28.3184V27.7329C137.236 25.6387 134.997 24.0503 133.09 24.0503H124.831C122.924 24.0503 120.685 25.6387 120.685 27.7329V33.4078C120.685 35.5002 122.926 37.0887 124.831 37.0887H137.235V34.2461L137.238 34.2393ZM184.789 34.9776V37.0887H180.202C178.296 37.0887 176.056 35.5002 176.056 33.4078V29.5878V19.5192C176.056 18.6714 176.386 17.8584 176.972 17.2589C177.557 16.6595 178.352 16.3225 179.18 16.322H179.572V24.1131C179.78 24.077 179.991 24.0583 180.202 24.0571H183.816V26.9081H179.572V29.0583V32.0688C179.574 32.6456 179.799 33.1981 180.197 33.6059C180.596 34.0138 181.136 34.2439 181.7 34.2461H184.789V34.9843V34.9776ZM120.756 24.0503C119.211 24.0503 117.083 23.8399 115.97 25.7168L110.829 33.7065L105.688 25.7168C104.648 23.8755 102.508 24.0503 100.903 24.0503L107.913 35.0811C108.621 36.1943 109.432 36.9614 110.447 37.07C111.69 37.2024 112.812 36.5609 113.751 35.0811C115.907 31.687 118.408 27.7499 120.761 24.0503H120.756ZM75.3312 26.8453C75.3312 25.2332 76.4158 24.0503 77.9847 24.0503L80.2883 24.0588C80.5023 24.0588 80.7527 24.1165 81.1856 24.5492L90.72 34.0883V26.3244C90.72 24.7122 91.8063 24.0571 93.3736 24.0571L95.6772 24.0656C94.8015 24.1674 94.2227 24.405 94.236 26.601V35.1235C94.236 35.933 93.6572 37.1056 92.8677 37.1056H89.6852C88.9206 37.1226 88.3003 36.3946 87.7763 35.8668L78.8471 26.8623C78.8471 26.9523 78.8471 27.0422 78.8471 27.1372V37.1056H75.3312V26.8521V26.8453ZM139.981 26.8453C139.981 25.2332 141.535 24.0503 143.104 24.0503H148.711H149.812V26.9013H145.623C145.06 26.9036 144.52 27.1337 144.121 27.5415C143.723 27.9494 143.498 28.5019 143.495 29.0786V37.0887H139.976V26.8487L139.981 26.8453ZM202.5 47.0028H202.107C201.279 47.0023 200.485 46.6655 199.899 46.0663C199.314 45.4671 198.985 44.6546 198.984 43.8072V37.0411C198.775 37.0768 198.564 37.0949 198.352 37.0955H189.967C188.061 37.0955 185.821 35.507 185.821 33.4146V27.7397C185.821 25.8984 187.554 24.4491 189.269 24.125V32.8902C189.278 33.2528 189.425 33.5973 189.679 33.8508C189.933 34.1042 190.273 34.2466 190.627 34.2478H197.69C197.998 34.2465 198.297 34.1389 198.538 33.9424C198.778 33.7459 198.947 33.472 199.017 33.1651C199.039 33.0643 199.05 32.9613 199.05 32.8579V27.7397C199.05 25.8984 200.782 24.4491 202.497 24.1267V32.9513V47.0028H202.5ZM170.004 26.8589C170.004 25.2467 171.558 24.0639 173.129 24.0639H173.518V37.1056H170.004V26.8521V26.8589ZM59.5593 24.1267C57.8444 24.4491 56.113 25.8984 56.113 27.7397V33.4146C56.113 35.507 58.3536 37.0955 60.2592 37.0955H68.646C70.5515 37.0955 72.7921 35.507 72.7921 33.4146V24.125C71.0789 24.4491 69.3458 25.8984 69.3458 27.7397C69.3458 29.4435 69.3458 31.1485 69.3458 32.8546C69.345 33.2231 69.2016 33.5762 68.9472 33.837C68.6927 34.0977 68.3477 34.2448 67.9876 34.2461H60.9209C60.5603 34.2452 60.2148 34.0984 59.9596 33.8377C59.7045 33.5769 59.5606 33.2235 59.5593 32.8546V24.1267ZM96.7717 26.8521C96.7717 25.2399 98.3257 24.0571 99.8963 24.0571H100.288V37.0988H96.7717V26.8521ZM0.5 11.034C0.5 9.42185 2.05563 8.23901 3.62619 8.23901H4.01759V21.2808H0.5V11.034ZM37.3725 10.5046C37.3725 8.89237 38.4571 8.23901 40.026 8.23901H42.3329C41.4539 8.34253 40.8768 8.57842 40.8884 10.7846V19.3003C40.8884 20.1081 40.3129 21.2825 39.5218 21.2825H36.3392C35.5747 21.2977 34.9561 20.5714 34.4304 20.0419L25.4565 10.9916V19.3071C25.4565 20.1149 24.8777 21.2892 24.0882 21.2892H20.9073C20.1428 21.3045 19.5225 20.5782 18.9984 20.0487L10.0693 11.0544C10.0693 11.1426 10.0693 11.2343 10.0693 11.3293V21.2977H6.55337V11.034C6.55337 9.42185 7.638 8.23901 9.2069 8.23901H11.5105C11.7244 8.23901 11.9765 8.29841 12.4077 8.73115L21.9405 18.2634V10.5046C21.9405 8.89237 23.0268 8.23901 24.5941 8.23901H26.8977H26.9308C27.1497 8.23901 27.4002 8.29162 27.8397 8.73115L37.3725 18.2634V10.5046ZM136.891 11.09H125.529C123.846 11.09 123.854 13.3454 125.529 13.3454C127.03 13.3454 128.463 13.3183 129.954 13.3183C130.065 13.3183 130.175 13.3216 130.286 13.3284H133.122C135.031 13.3284 137.268 14.9152 137.268 17.0093V17.5948C137.268 19.6889 135.029 21.2774 133.122 21.2774H120.725V18.4263H132.472C134.223 18.4263 134.177 16.1693 132.472 16.1693C130.979 16.1693 129.511 16.1964 128.045 16.1964C127.939 16.1964 127.833 16.1964 127.727 16.1964H124.871C122.962 16.1964 120.725 14.608 120.725 12.5139V11.9199C120.725 9.82744 122.962 8.23901 124.871 8.23901H136.891V11.09ZM114.336 11.034C114.336 9.42185 115.89 8.23901 117.461 8.23901H117.852V21.2808H114.336V11.034ZM104.689 0.503913V16.249C104.691 16.8259 104.916 17.3787 105.314 17.7866C105.713 18.1946 106.253 18.4245 106.817 18.4263H111.451V21.2774H105.314C103.409 21.2774 101.168 19.6889 101.168 17.5948V3.70113C101.168 3.28078 101.249 2.86451 101.406 2.47617C101.563 2.08783 101.794 1.73506 102.085 1.43806C102.375 1.14106 102.721 0.905665 103.1 0.745369C103.48 0.585072 103.887 0.50302 104.298 0.503913H104.689ZM56.0467 21.2774H47.6599C45.7543 21.2774 43.5137 19.6889 43.5137 17.5948V11.9199C43.5137 9.82744 45.7543 8.23901 47.6599 8.23901H56.0467C57.9539 8.23901 60.1928 9.82744 60.1928 11.9199V17.5948C60.1928 19.6872 57.9506 21.2774 56.0467 21.2774ZM56.7482 17.0348V12.4799C56.7473 12.1124 56.6046 11.7602 56.3512 11.4999C56.0977 11.2396 55.754 11.0923 55.3949 11.09H48.3183C47.9921 11.0895 47.6767 11.2093 47.43 11.4275C47.1832 11.6457 47.0216 11.9477 46.9749 12.278C46.9666 12.3425 46.9617 12.9228 46.9617 12.9907V17.0348C46.9621 17.4031 47.1051 17.7563 47.3593 18.0171C47.6135 18.2778 47.9583 18.425 48.3183 18.4263H55.3949C55.7553 18.4254 56.1007 18.2785 56.3556 18.0178C56.6104 17.757 56.754 17.4036 56.7548 17.0348H56.7482ZM75.2665 21.2774H66.8814C66.6697 21.2762 66.4584 21.258 66.2495 21.2231V27.9807C66.2495 28.8282 65.9205 29.641 65.3348 30.2402C64.7492 30.8395 63.9549 31.1762 63.1266 31.1762H62.7336V11.9199C62.7336 9.82744 64.9725 8.23901 66.8797 8.23901H75.2649C77.1704 8.23901 79.411 9.82744 79.411 11.9199V17.5948C79.411 19.6872 77.1688 21.2774 75.2649 21.2774H75.2665ZM75.9598 17.084V12.4799C75.9586 12.1172 75.8194 11.7692 75.5717 11.5098C75.3241 11.2503 74.9873 11.0997 74.633 11.09H67.5381C67.1773 11.0896 66.831 11.2357 66.5754 11.4963C66.3198 11.7569 66.1758 12.1107 66.1749 12.4799V17.0348C66.1758 17.4033 66.3191 17.7564 66.5736 18.0172C66.8281 18.2779 67.173 18.425 67.5331 18.4263H74.6032C74.9551 18.4257 75.293 18.2855 75.546 18.0351C75.799 17.7848 75.9473 17.4439 75.9598 17.084ZM67.4486 11.09C67.3968 11.0935 67.3453 11.1003 67.2943 11.1104C67.3453 11.1003 67.3968 11.0935 67.4486 11.09ZM67.2628 11.1155C67.1937 11.1302 67.126 11.1512 67.0605 11.1783C67.126 11.1512 67.1937 11.1302 67.2628 11.1155ZM94.5676 21.274H86.1742C84.2686 21.274 82.0281 19.6855 82.0281 17.5914V11.9199C82.0281 9.82744 84.2686 8.23901 86.1742 8.23901H94.561C96.4682 8.23901 98.7072 9.82744 98.7072 11.9199V17.5948C98.7072 19.6872 96.4649 21.2774 94.561 21.2774L94.5676 21.274ZM95.2675 17.0314V12.4799C95.2666 12.1116 95.1233 11.7586 94.8687 11.4981C94.6142 11.2377 94.2692 11.0909 93.9092 11.09H86.8326C86.5064 11.0898 86.1909 11.2096 85.944 11.4278C85.697 11.6459 85.535 11.9477 85.4876 12.278C85.4777 12.3425 85.4727 12.9228 85.4727 12.9907V17.0348C85.4735 17.4033 85.6169 17.7564 85.8714 18.0172C86.1259 18.2779 86.4708 18.425 86.8309 18.4263H93.9009C94.2611 18.425 94.606 18.2779 94.8605 18.0172C95.115 17.7564 95.2584 17.4033 95.2592 17.0348L95.2675 17.0314Z" fill="#2E2E40"/>
</svg>
