<svg width="173" height="76" viewBox="0 0 173 76" fill="none" xmlns="http://www.w3.org/2000/svg">
<path fill-rule="evenodd" clip-rule="evenodd" d="M54.5705 26.2996C54.5705 27.5603 53.6029 28.5301 52.3451 28.5301C51.0872 28.5301 50.1197 27.5603 50.1197 26.2996C50.1197 25.0389 51.0872 24.0692 52.3451 24.0692C53.6029 24.0692 54.5705 25.0389 54.5705 26.2996ZM169.904 72.0725C169.323 72.8483 168.549 73.2362 167.485 73.2362C166.421 73.2362 165.647 72.8483 165.066 72.0725C164.485 71.2967 164.195 70.3269 164.195 69.1632C164.195 67.9995 164.485 67.0297 165.066 66.2539C165.647 65.4781 166.421 65.0902 167.485 65.0902C168.549 65.0902 169.323 65.4781 169.904 66.2539C170.484 67.0297 170.775 67.9995 170.775 69.1632C170.775 70.3269 170.484 71.2967 169.904 72.0725ZM171.549 64.8962C170.581 63.7325 169.227 63.2476 167.485 63.2476C165.743 63.2476 164.389 63.8295 163.421 64.8962C162.454 65.963 161.97 67.4176 161.97 69.1632C161.97 70.9088 162.454 72.3634 163.421 73.4302C164.389 74.4969 165.743 75.0788 167.485 75.0788C169.227 75.0788 170.581 74.4969 171.549 73.4302C172.516 72.3634 173 70.9088 173 69.1632C173 67.4176 172.516 65.963 171.549 64.8962ZM158.487 63.3446C158.1 63.3446 157.713 63.5386 157.422 64.0234L154.133 69.2602L150.843 64.0234C150.553 63.5386 150.166 63.3446 149.779 63.3446C149.488 63.3446 149.198 63.4416 149.101 63.6355C148.908 63.8295 148.811 64.1204 148.811 64.5083V73.915C148.811 74.5939 149.101 74.9818 149.779 74.9818C150.456 74.9818 150.746 74.5939 150.746 73.915V67.4176L153.068 71.1027C153.359 71.4906 153.649 71.6846 154.036 71.6846C154.423 71.6846 154.713 71.4906 155.003 71.1027L157.326 67.4176V73.915C157.326 74.206 157.422 74.4969 157.616 74.6908C157.809 74.8848 158.1 74.9818 158.39 74.9818C158.777 74.9818 158.97 74.8848 159.164 74.6908C159.357 74.4969 159.454 74.206 159.454 73.915V64.5083C159.454 64.2174 159.357 63.9265 159.164 63.7325C158.97 63.4416 158.777 63.3446 158.487 63.3446ZM146.005 63.3446H138.168C137.878 63.3446 137.587 63.4416 137.394 63.6355C137.2 63.8295 137.103 64.0234 137.103 64.3144C137.103 64.6053 137.2 64.7993 137.394 64.9932C137.587 65.1872 137.781 65.2841 138.168 65.2841H141.07V73.915C141.07 74.206 141.167 74.4969 141.361 74.6908C141.554 74.8848 141.845 74.9818 142.135 74.9818C142.522 74.9818 142.715 74.8848 142.909 74.6908C143.102 74.4969 143.199 74.206 143.199 73.915V65.2841H146.102C146.392 65.2841 146.682 65.1872 146.876 64.9932C147.069 64.7993 147.166 64.6053 147.166 64.3144C147.166 64.0234 147.069 63.8295 146.876 63.6355C146.586 63.4416 146.295 63.3446 146.005 63.3446ZM135.265 73.8181V64.4114C135.265 63.6355 134.878 63.3446 134.298 63.3446C133.911 63.3446 133.523 63.5386 133.33 63.9265L128.105 71.1997V64.4114C128.105 64.1204 128.008 63.8295 127.815 63.6355C127.621 63.4416 127.331 63.3446 127.041 63.3446C126.654 63.3446 126.46 63.4416 126.267 63.6355C126.073 63.8295 125.977 64.1204 125.977 64.4114V73.8181C125.977 74.109 126.073 74.3999 126.267 74.5939C126.46 74.7878 126.654 74.8848 127.041 74.8848C127.428 74.8848 127.718 74.6908 128.008 74.3029L133.233 67.1267V73.8181C133.233 74.109 133.33 74.3999 133.523 74.5939C133.717 74.7878 134.007 74.8848 134.298 74.8848C134.685 74.8848 134.878 74.7878 135.072 74.5939C135.265 74.3999 135.265 74.206 135.265 73.8181ZM119.494 64.3144C119.494 64.0234 119.397 63.8295 119.204 63.6355C119.01 63.4416 118.817 63.3446 118.43 63.3446H110.592C110.302 63.3446 110.012 63.4416 109.818 63.6355C109.625 63.8295 109.528 64.0234 109.528 64.3144C109.528 64.6053 109.625 64.7993 109.818 64.9932C110.012 65.1872 110.205 65.2841 110.592 65.2841H113.495V73.915C113.495 74.206 113.592 74.4969 113.785 74.6908C113.979 74.8848 114.269 74.9818 114.559 74.9818C114.85 74.9818 115.14 74.8848 115.333 74.6908C115.527 74.4969 115.624 74.206 115.624 73.915V65.2841H118.526C118.817 65.2841 119.107 65.1872 119.3 64.9932C119.397 64.7993 119.494 64.6053 119.494 64.3144ZM107.786 73.0423H103.045V69.939H106.625C106.916 69.939 107.206 69.842 107.399 69.6481C107.593 69.4541 107.69 69.2602 107.69 68.9692C107.69 68.6783 107.593 68.4844 107.399 68.2904C107.206 68.0965 107.012 67.9995 106.625 67.9995H103.045V65.1872H107.593C107.883 65.1872 108.173 65.0902 108.367 64.8962C108.56 64.7023 108.657 64.5083 108.657 64.2174C108.657 63.9265 108.56 63.7325 108.367 63.5386C108.173 63.3446 107.98 63.2476 107.593 63.2476H101.981C101.691 63.2476 101.4 63.3446 101.207 63.5386C101.013 63.7325 100.917 64.0234 100.917 64.3144V73.7211C100.917 74.012 101.013 74.3029 101.207 74.4969C101.4 74.6908 101.691 74.7878 101.981 74.7878H107.69C107.98 74.7878 108.27 74.6908 108.464 74.4969C108.657 74.3029 108.754 74.109 108.754 73.8181C108.754 73.5271 108.657 73.3332 108.464 73.1392C108.367 73.1392 108.077 73.0423 107.786 73.0423ZM99.0783 64.3144C99.0783 64.0234 98.9815 63.8295 98.788 63.6355C98.5945 63.4416 98.401 63.3446 98.014 63.3446H90.1767C89.8865 63.3446 89.5962 63.4416 89.4027 63.6355C89.2092 63.8295 89.1124 64.0234 89.1124 64.3144C89.1124 64.6053 89.2092 64.7993 89.4027 64.9932C89.5962 65.1872 89.7897 65.2841 90.1767 65.2841H93.0794V73.915C93.0794 74.206 93.1762 74.4969 93.3697 74.6908C93.5632 74.8848 93.8535 74.9818 94.1437 74.9818C94.5308 74.9818 94.7243 74.8848 94.9178 74.6908C95.1113 74.4969 95.2081 74.206 95.2081 73.915V65.2841H98.1107C98.401 65.2841 98.6913 65.1872 98.8848 64.9932C98.9815 64.7993 99.0783 64.6053 99.0783 64.3144ZM86.4033 63.3446C86.0162 63.3446 85.6292 63.5386 85.4357 63.9265L80.2108 71.1997V64.4114C80.2108 64.1204 80.1141 63.8295 79.9206 63.6355C79.7271 63.4416 79.4368 63.3446 79.1465 63.3446C78.7595 63.3446 78.566 63.4416 78.3725 63.6355C78.179 63.8295 78.0822 64.1204 78.0822 64.4114V73.8181C78.0822 74.109 78.179 74.3999 78.3725 74.5939C78.566 74.7878 78.7595 74.8848 79.1465 74.8848C79.5336 74.8848 79.8238 74.6908 80.1141 74.3029L85.3389 67.1267V73.8181C85.3389 74.109 85.4357 74.3999 85.6292 74.5939C85.8227 74.7878 86.113 74.8848 86.4033 74.8848C86.6935 74.8848 86.9838 74.7878 87.1773 74.5939C87.3708 74.3999 87.4676 74.109 87.4676 73.8181V64.4114C87.3708 63.7325 86.9838 63.3446 86.4033 63.3446ZM74.212 72.4604C73.4379 72.9453 72.6639 73.1392 71.8898 73.1392C70.9223 73.1392 70.1482 72.7513 69.5677 72.0725C68.9871 71.3937 68.6969 70.3269 68.6969 69.0662C68.6969 67.8055 68.9871 66.8358 69.5677 66.1569C70.5352 64.9932 71.9866 64.7023 74.0185 65.4781C74.6957 65.769 75.1795 65.672 75.373 65.1872C75.5666 64.7023 75.4698 64.2174 74.986 63.9265C74.212 63.4416 73.2444 63.1507 71.8898 63.1507C70.245 63.1507 68.8904 63.7325 67.9228 64.7993C66.9553 65.866 66.4715 67.3206 66.4715 69.1632C66.4715 71.0057 66.9553 72.4604 67.8261 73.5271C68.6969 74.5939 70.0515 75.1757 71.7931 75.1757C73.1477 75.1757 74.3087 74.8848 75.1795 74.206C75.4698 74.012 75.6633 73.7211 75.6633 73.4302C75.7601 73.1392 75.6633 72.9453 75.5666 72.6543C75.2763 72.1695 74.7925 72.1695 74.212 72.4604ZM59.0213 65.2841C59.505 65.1872 59.9888 65.1872 60.3758 65.1872C61.9239 65.1872 62.6012 65.769 62.6012 67.1267C62.6012 68.4844 61.8272 69.1632 60.1823 69.1632C59.6985 69.1632 59.2148 69.1632 58.9245 69.0662V65.2841H59.0213ZM64.9234 67.0297C64.9234 65.769 64.5364 64.7993 63.7623 64.2174C62.9883 63.6355 61.9239 63.3446 60.4726 63.3446C59.505 63.3446 58.6342 63.4416 57.9569 63.5386C57.2796 63.6355 56.9894 64.1204 56.9894 64.7993V73.915C56.9894 74.206 57.0861 74.4969 57.2796 74.6908C57.4732 74.8848 57.7634 74.9818 58.0537 74.9818C58.344 74.9818 58.6342 74.8848 58.8277 74.6908C59.0213 74.4969 59.118 74.206 59.118 73.915V70.9088C59.4083 70.9088 59.8921 71.0057 60.4726 71.0057C61.8272 71.0057 62.8915 70.7148 63.6656 70.036C64.4396 69.2602 64.9234 68.2904 64.9234 67.0297ZM54.5705 74.6908C54.764 74.4969 54.8607 74.3029 54.8607 74.012C54.8607 73.7211 54.764 73.5271 54.5705 73.3332C54.377 73.1392 54.1834 73.0423 53.7964 73.0423H49.0554V69.939H52.6353C52.9256 69.939 53.2159 69.842 53.4094 69.6481C53.6029 69.4541 53.6997 69.2602 53.6997 68.9692C53.6997 68.6783 53.6029 68.4844 53.4094 68.2904C53.2159 68.0965 53.0224 67.9995 52.6353 67.9995H49.0554V65.1872H53.6029C53.8932 65.1872 54.1834 65.0902 54.377 64.8962C54.5705 64.7023 54.6672 64.5083 54.6672 64.2174C54.6672 63.9265 54.5705 63.7325 54.377 63.5386C54.1834 63.3446 53.9899 63.2476 53.6029 63.2476H47.9911C47.7008 63.2476 47.4105 63.3446 47.217 63.5386C47.0235 63.7325 46.9267 64.0234 46.9267 64.3144V73.7211C46.9267 74.012 47.0235 74.3029 47.217 74.4969C47.4105 74.6908 47.7008 74.7878 47.9911 74.7878H53.6997C54.0867 74.9818 54.377 74.8848 54.5705 74.6908ZM41.7019 72.8483C41.3149 73.1392 40.7343 73.2362 39.8635 73.2362C39.1862 73.2362 38.5089 73.2362 38.0252 73.1392V69.842H39.8635C41.5084 69.842 42.2824 70.4239 42.2824 71.4906C42.2824 72.1695 42.0889 72.5574 41.7019 72.8483ZM39.67 68.1934H38.0252V65.0902C38.5089 64.9932 38.9927 64.9932 39.4765 64.9932C41.0246 64.9932 41.7019 65.4781 41.7019 66.4479C41.7019 67.6116 41.0246 68.1934 39.67 68.1934ZM42.476 68.7753C42.863 68.5813 43.25 68.2904 43.4435 67.8055C43.7338 67.3206 43.8305 66.8358 43.8305 66.3509C43.8305 64.3144 42.3792 63.2476 39.5733 63.2476C38.6057 63.2476 37.6381 63.3446 36.8641 63.4416C36.1868 63.5386 35.8965 63.9265 35.8965 64.6053V73.6241C35.8965 74.3029 36.1868 74.6908 36.8641 74.7878C37.6381 74.8848 38.6057 74.9818 39.67 74.9818C42.7662 74.9818 44.3143 73.8181 44.3143 71.3936C44.3143 70.7148 44.1208 70.133 43.7338 69.6481C43.5403 69.2602 43.0565 68.9692 42.476 68.7753ZM24.5761 74.9818C24.9631 74.9818 25.2534 74.7878 25.5436 74.3999L30.7685 67.2237V73.915C30.7685 74.206 30.8652 74.4969 31.0587 74.6908C31.2522 74.8848 31.5425 74.9818 31.8328 74.9818C32.2198 74.9818 32.4133 74.8848 32.6068 74.6908C32.8003 74.4969 32.8971 74.206 32.8971 73.915V64.5083C32.8971 63.7325 32.5101 63.4416 31.9295 63.4416C31.5425 63.4416 31.1555 63.6355 30.962 64.0234L25.7371 71.2967V64.5083C25.7371 64.2174 25.6404 63.9265 25.4469 63.7325C25.2534 63.5386 24.9631 63.4416 24.6728 63.4416C24.2858 63.4416 24.0923 63.5386 23.8988 63.7325C23.7053 63.9265 23.6085 64.2174 23.6085 64.5083V73.915C23.6085 74.206 23.7053 74.4969 23.8988 74.6908C24.0923 74.8848 24.2858 74.9818 24.5761 74.9818ZM12.288 74.9818C12.5783 74.9818 12.8686 74.8848 13.0621 74.6908C13.2556 74.4969 13.3523 74.206 13.3523 73.915V70.036H18.4804V73.915C18.4804 74.206 18.5772 74.4969 18.7707 74.6908C18.9642 74.8848 19.2545 74.9818 19.5447 74.9818C19.835 74.9818 20.1253 74.8848 20.3188 74.6908C20.5123 74.4969 20.6091 74.206 20.6091 73.915V64.5083C20.6091 64.2174 20.5123 63.9265 20.3188 63.7325C20.1253 63.5386 19.835 63.4416 19.5447 63.4416C19.2545 63.4416 18.9642 63.5386 18.7707 63.7325C18.5772 63.9265 18.4804 64.2174 18.4804 64.5083V68.0965H13.3523V64.5083C13.3523 64.2174 13.2556 63.9265 13.0621 63.7325C12.8686 63.5386 12.5783 63.4416 12.288 63.4416C11.9978 63.4416 11.7075 63.5386 11.514 63.7325C11.3205 63.9265 11.2237 64.2174 11.2237 64.5083V73.915C11.2237 74.206 11.3205 74.4969 11.514 74.6908C11.7075 74.7878 11.901 74.9818 12.288 74.9818ZM9.19183 64.8962C9.38535 64.5083 9.38535 64.1204 9.28859 63.8295C9.19184 63.6355 8.99832 63.4416 8.80481 63.3446C8.22427 63.1507 7.74049 63.4416 7.35347 64.2174L5.12808 69.745L1.93512 64.2174C1.74161 63.8295 1.5481 63.6355 1.25783 63.5386C0.967561 63.4416 0.677293 63.4416 0.387025 63.6355C0.193512 63.7325 0 63.9265 0 64.2174C0 64.5083 0.0967562 64.7992 0.290268 65.1872L4.16051 71.8785C3.967 72.3634 3.77349 72.6543 3.57998 72.8483C3.38647 73.0423 3.19295 73.1392 2.90268 73.1392C2.80593 73.1392 2.70917 73.1392 2.61242 73.1392C2.51566 73.1392 2.4189 73.0423 2.22539 73.0423C2.03188 72.9453 1.93512 72.9453 1.93512 72.9453C1.35459 72.7513 0.967562 72.9453 0.774049 73.4302C0.580537 74.012 0.774049 74.4969 1.35459 74.7878C1.74161 74.9818 2.32215 75.1757 2.99944 75.1757C3.77349 75.1757 4.35403 74.8848 4.83781 74.3029C5.32159 73.7211 5.80537 72.8483 6.28915 71.6846L9.19183 64.8962ZM131.782 6.7104C131.782 7.48621 131.201 8.06807 130.427 8.06807C129.653 8.06807 129.073 7.48621 129.073 6.7104C129.073 5.93458 129.653 5.35273 130.427 5.35273C131.201 5.35273 131.782 6.03156 131.782 6.7104ZM122.009 1.86158C122.009 2.63739 121.429 3.21925 120.655 3.21925C119.881 3.21925 119.3 2.63739 119.3 1.86158C119.3 1.08576 119.881 0.503906 120.655 0.503906C121.429 0.503906 122.009 1.08576 122.009 1.86158ZM92.6924 6.7104C92.6924 7.48621 92.1119 8.06807 91.3378 8.06807C90.5638 8.06807 89.9832 7.48621 89.9832 6.7104C89.9832 5.93458 90.5638 5.35273 91.3378 5.35273C92.1119 5.35273 92.6924 6.03156 92.6924 6.7104ZM122.977 21.4508C122.977 22.7115 122.01 23.6813 120.752 23.6813C119.494 23.6813 118.526 22.7115 118.526 21.4508C118.526 20.1901 119.591 19.2203 120.752 19.2203C121.913 19.1234 122.977 20.1901 122.977 21.4508ZM122.009 31.2454C122.009 32.0212 121.429 32.6031 120.655 32.6031C119.881 32.6031 119.3 32.0212 119.3 31.2454C119.3 30.4696 119.881 29.8878 120.655 29.8878C121.429 29.8878 122.009 30.4696 122.009 31.2454ZM114.269 16.505C114.269 18.3476 112.721 19.8992 110.883 19.8992C109.044 19.8992 107.496 18.3476 107.496 16.505C107.496 14.6625 109.044 13.1108 110.883 13.1108C112.818 13.1108 114.269 14.6625 114.269 16.505ZM124.041 11.6562C124.041 13.4987 122.493 15.0504 120.655 15.0504C118.817 15.0504 117.268 13.4987 117.268 11.6562C117.268 9.81364 118.817 8.26202 120.655 8.26202C122.59 8.26202 124.041 9.71666 124.041 11.6562ZM112.237 36.0942C112.237 36.8701 111.657 37.4519 110.883 37.4519C110.109 37.4519 109.528 36.8701 109.528 36.0942C109.528 35.3184 110.109 34.7366 110.883 34.7366C111.657 34.7366 112.237 35.4154 112.237 36.0942ZM131.782 16.505C131.782 17.2808 131.201 17.8627 130.427 17.8627C129.653 17.8627 129.073 17.2808 129.073 16.505C129.073 15.7292 129.653 15.1473 130.427 15.1473C131.201 15.1473 131.782 15.8262 131.782 16.505ZM73.1477 6.7104C73.1477 7.48621 72.5671 8.06807 71.7931 8.06807C71.019 8.06807 70.4385 7.48621 70.4385 6.7104C70.4385 5.93458 71.019 5.35273 71.7931 5.35273C72.5671 5.35273 73.1477 6.03156 73.1477 6.7104ZM53.6029 6.7104C53.6029 7.48621 53.0224 8.06807 52.2483 8.06807C51.4743 8.06807 50.8937 7.48621 50.8937 6.7104C50.9905 6.03156 51.571 5.35273 52.2483 5.35273C53.0224 5.35273 53.6029 6.03156 53.6029 6.7104ZM82.8233 41.04C82.8233 41.8158 82.2427 42.3977 81.4687 42.3977C80.6946 42.3977 80.1141 41.8158 80.1141 41.04C80.1141 40.2642 80.6946 39.6824 81.4687 39.6824C82.2427 39.6824 82.8233 40.2642 82.8233 41.04ZM63.3753 1.86158C63.3753 2.63739 62.7947 3.21925 62.0207 3.21925C61.2466 3.21925 60.6661 2.63739 60.6661 1.86158C60.6661 1.08576 61.2466 0.503906 62.0207 0.503906C62.7947 0.503906 63.3753 1.08576 63.3753 1.86158ZM63.3753 31.1484C63.3753 31.9243 62.7947 32.5061 62.0207 32.5061C61.2466 32.5061 60.6661 31.9243 60.6661 31.1484C60.6661 30.3726 61.2466 29.7908 62.0207 29.7908C62.7947 29.7908 63.3753 30.3726 63.3753 31.1484ZM43.8305 21.4508C43.8305 22.2266 43.25 22.8085 42.476 22.8085C41.7019 22.8085 41.1214 22.2266 41.1214 21.4508C41.1214 20.675 41.7019 20.0931 42.476 20.0931C43.25 20.0931 43.8305 20.675 43.8305 21.4508ZM43.8305 31.2454C43.8305 32.0212 43.25 32.6031 42.476 32.6031C41.7019 32.6031 41.1214 32.0212 41.1214 31.2454C41.1214 30.4696 41.7019 29.8878 42.476 29.8878C43.25 29.8878 43.8305 30.4696 43.8305 31.2454ZM65.5039 21.4508C65.5039 23.2934 63.9558 24.845 62.1174 24.845C60.2791 24.845 58.731 23.2934 58.731 21.4508C58.731 19.6083 60.2791 18.0566 62.1174 18.0566C63.9558 17.9597 65.5039 19.5113 65.5039 21.4508ZM74.1152 36.0942C74.1152 37.3549 73.1477 38.3247 71.8898 38.3247C70.632 38.3247 69.6644 37.258 69.6644 36.0942C69.6644 34.8335 70.632 33.8638 71.8898 33.8638C73.0509 33.8638 74.1152 34.8335 74.1152 36.0942ZM83.8876 11.6562C83.8876 12.9169 82.8233 13.8866 81.6622 13.8866C80.4044 13.8866 79.4368 12.8199 79.4368 11.6562C79.4368 10.3955 80.5011 9.42573 81.6622 9.42573C82.8233 9.32876 83.8876 10.3955 83.8876 11.6562ZM113.205 26.2996C113.205 27.5603 112.14 28.5301 110.979 28.5301C109.721 28.5301 108.754 27.5603 108.754 26.2996C108.754 25.0389 109.818 24.0692 110.979 24.0692C112.14 24.0692 113.205 25.0389 113.205 26.2996ZM113.205 6.7104C113.205 7.97109 112.14 8.94085 110.979 8.94085C109.721 8.94085 108.754 7.97109 108.754 6.7104C108.754 5.4497 109.721 4.47994 110.979 4.47994C112.14 4.47994 113.205 5.4497 113.205 6.7104ZM104.497 11.6562C104.497 13.4987 102.949 15.0504 101.11 15.0504C99.2718 15.0504 97.7237 13.4987 97.7237 11.6562C97.7237 9.81364 99.2718 8.26202 101.11 8.26202C103.045 8.26202 104.497 9.71666 104.497 11.6562ZM83.8876 31.2454C83.8876 32.5061 82.8233 33.4759 81.6622 33.4759C80.3076 33.4759 79.34 32.5061 79.34 31.2454C79.34 29.9847 80.4044 29.015 81.5654 29.015C82.8233 28.918 83.8876 29.9847 83.8876 31.2454ZM94.7243 16.505C94.7243 18.3476 93.1762 19.8992 91.3378 19.8992C89.4994 19.8992 87.9513 18.3476 87.9513 16.505C87.9513 14.6625 89.4994 13.1108 91.3378 13.1108C93.2729 13.1108 94.7243 14.6625 94.7243 16.505ZM104.497 21.4508C104.497 23.2934 102.949 24.845 101.11 24.845C99.2718 24.845 97.7237 23.2934 97.7237 21.4508C97.7237 19.6083 99.2718 18.0566 101.11 18.0566C103.045 17.9597 104.497 19.5113 104.497 21.4508ZM103.432 31.2454C103.432 32.5061 102.368 33.4759 101.207 33.4759C99.9491 33.4759 98.9815 32.4091 98.9815 31.2454C98.9815 29.9847 100.046 29.015 101.207 29.015C102.368 28.918 103.432 29.9847 103.432 31.2454ZM93.66 36.0942C93.66 37.3549 92.5956 38.3247 91.4346 38.3247C90.1767 38.3247 89.2092 37.3549 89.2092 36.0942C89.2092 34.8335 90.2735 33.8638 91.4346 33.8638C92.5956 33.8638 93.66 34.8335 93.66 36.0942ZM94.7243 26.2996C94.7243 28.1422 93.1762 29.6938 91.3378 29.6938C89.4994 29.6938 87.9513 28.1422 87.9513 26.2996C87.9513 24.4571 89.4994 22.9055 91.3378 22.9055C93.2729 22.9055 94.7243 24.4571 94.7243 26.2996ZM75.1795 26.2996C75.1795 28.1422 73.6314 29.6938 71.7931 29.6938C69.9547 29.6938 68.4066 28.1422 68.4066 26.2996C68.4066 24.4571 69.9547 22.9055 71.7931 22.9055C73.7282 22.9055 75.1795 24.4571 75.1795 26.2996ZM84.9519 21.4508C84.9519 23.2934 83.4038 24.845 81.5654 24.845C79.7271 24.845 78.179 23.2934 78.179 21.4508C78.179 19.6083 79.7271 18.0566 81.5654 18.0566C83.5006 17.9597 84.9519 19.5113 84.9519 21.4508ZM75.1795 16.505C75.1795 18.3476 73.6314 19.8992 71.7931 19.8992C69.9547 19.8992 68.4066 18.3476 68.4066 16.505C68.4066 14.6625 69.9547 13.1108 71.7931 13.1108C73.7282 13.1108 75.1795 14.6625 75.1795 16.505ZM65.5039 11.6562C65.5039 13.4987 63.9558 15.0504 62.1174 15.0504C60.2791 15.0504 58.731 13.4987 58.731 11.6562C58.731 9.81364 60.2791 8.26202 62.1174 8.26202C63.9558 8.26202 65.5039 9.71666 65.5039 11.6562Z" fill="#2E2E40"/>
<path d="M52.2458 19.4968C54.0842 19.4968 55.6323 17.9451 55.6323 16.1026C55.6323 14.1631 54.0842 12.6114 52.2458 12.7084C50.4075 12.7084 48.8594 14.26 48.8594 16.1026C48.8594 17.9451 50.4075 19.4968 52.2458 19.4968Z" fill="#2E2E40"/>
</svg>
