<svg width="100" height="101" viewBox="0 0 100 101" fill="none" xmlns="http://www.w3.org/2000/svg">
<path d="M99.6947 68.3226C99.638 67.8303 99.2769 66.8674 99.1426 66.5957L88.9191 46.1208C88.3235 44.9289 86.8684 44.4421 85.6741 45.0376L85.327 45.2116C83.8913 45.9283 82.7709 47.0907 82.1053 48.5257V37.8768C82.1053 37.8768 84.3774 37.8791 84.3999 37.8791C88.2148 37.8791 91.9227 36.372 94.6683 33.6256C98.0182 30.2756 99.5262 25.4893 98.7015 20.8218L98.5586 20.0158L97.7526 19.8722C93.0851 19.0436 88.2964 20.5501 84.9441 23.9021C83.7576 25.0886 82.8064 26.4583 82.1053 27.9361V23.9061C85.6866 21.1696 87.8102 16.9075 87.8102 12.3758C87.8102 7.63679 85.4915 3.1866 81.6083 0.469012L80.9358 0L80.2649 0.469012C76.3777 3.18441 74.0575 7.6346 74.0575 12.3758C74.0575 16.9043 76.1813 21.1659 79.7624 23.9029V27.4298C79.0892 26.1439 78.2195 24.9503 77.1689 23.8997C73.8184 20.5492 69.0304 19.045 64.3628 19.8736L63.5568 20.0164L63.4139 20.8225C62.5854 25.4869 64.0926 30.2725 67.4446 33.6238C70.191 36.371 73.902 37.8782 77.7224 37.8782H79.7615V47.614C79.6684 47.4727 79.5682 47.3345 79.4595 47.2002C77.7465 45.0726 74.7282 44.585 72.4328 46.0727L48.195 61.7705C47.1996 61.5748 46.1722 61.4684 45.1192 61.4684C40.7235 61.4684 36.7415 63.2661 33.8647 66.1639L33.8639 66.1632L0.283203 100.187H43.7037L51.996 92.5542H79.4462C83.8568 92.5542 87.4481 88.963 87.4481 84.5523V84.4778C87.4481 84.2526 87.4356 84.0328 87.4178 83.8123L98.278 72.9521C98.8456 72.3845 99.2556 71.7012 99.4877 70.9565C99.6826 70.4355 99.7937 69.8748 99.7937 69.2878C99.7929 68.9562 99.7591 68.6348 99.6947 68.3226ZM86.599 25.5601C89.212 22.947 92.866 21.6706 96.5109 22.0626C96.8984 25.7084 95.6218 29.361 93.0098 31.9725C90.7152 34.267 87.6201 35.5289 84.4356 35.5389L91.668 28.3065L90.0117 26.6502L83.051 33.6108C83.1893 30.6112 84.4324 27.7264 86.599 25.5601ZM76.4003 12.3767C76.4003 8.68047 78.0814 5.19558 80.935 2.89326C83.7871 5.19638 85.4667 8.68286 85.4667 12.3767C85.4667 15.5324 84.2375 18.5312 82.1036 20.7721V14.4933H79.7617V20.7674C77.628 18.5271 76.4003 15.5308 76.4003 12.3767ZM69.1003 31.9693C66.4873 29.3563 65.2117 25.7052 65.6013 22.0626C69.25 21.6705 72.9005 22.9455 75.5111 25.5569C77.6652 27.7109 78.9076 30.573 79.0598 33.554L72.1567 26.6508L70.5004 28.3071L77.728 35.5347C74.5242 35.5362 71.4056 34.2748 69.1003 31.9693ZM84.0263 50.0106C84.4215 48.8264 85.2555 47.8667 86.3729 47.3091L86.72 47.1351C86.7309 47.1297 86.7425 47.1274 86.7534 47.1274C86.7814 47.1274 86.8093 47.1429 86.8225 47.1693L95.4844 64.5164C95.3229 64.4994 95.159 64.4916 94.9944 64.4916C93.2535 64.4916 91.7292 65.4281 90.8899 66.8204L84.2795 53.5795C83.7212 52.4621 83.631 51.1947 84.0263 50.0106ZM79.7625 53.431V60.8561H82.1044V54.4453C82.1324 54.505 82.1549 54.5664 82.1836 54.6254L89.02 68.3175L80.751 76.5865C80.3255 76.5166 79.8906 76.4778 79.4441 76.4778H60.9596C60.8897 75.1733 60.6614 73.9099 60.2925 72.7071L79.0389 54.3171C79.3177 54.0438 79.556 53.7455 79.7625 53.431ZM82.7226 84.016C82.7226 85.3695 81.6216 86.4706 80.2681 86.4706C80.2238 86.4706 80.1788 86.466 80.1353 86.4636C79.5676 86.4077 79.0156 86.1639 78.5823 85.7299L78.5543 85.7019C78.121 85.2678 77.8764 84.7158 77.8205 84.1489C77.8182 84.1046 77.8135 84.0611 77.8135 84.0161C77.8135 82.6627 78.9146 81.5615 80.2681 81.5615C81.6223 81.5615 82.7226 82.6618 82.7226 84.016ZM73.7105 48.036C74.991 47.2091 76.6776 47.4785 77.6334 48.6681C78.5939 49.8624 78.4914 51.5722 77.3996 52.6454L72.4837 57.4691C72.4907 57.3534 72.5015 57.2377 72.5015 57.1205C72.5015 54.4804 70.7404 52.2449 68.3316 51.5211L73.7105 48.036ZM66.6529 53.6143C68.5864 53.6143 70.1597 55.1875 70.1597 57.1195C70.1597 59.053 68.5865 60.6263 66.6529 60.6263C64.7194 60.6263 63.1461 59.0531 63.1461 57.1195C63.1461 55.1876 64.7193 53.6143 66.6529 53.6143ZM60.8593 56.3607C60.8267 56.61 60.8034 56.8631 60.8034 57.1202C60.8034 60.345 63.4272 62.9688 66.6521 62.9688C66.732 62.9688 66.8105 62.9603 66.8889 62.9564L59.3559 70.3456C57.6508 66.8848 54.7203 64.1344 51.1352 62.6582L60.8593 56.3607ZM42.7822 97.8471H5.88386L29.6724 73.7405C29.403 74.8959 29.2562 76.0994 29.2562 77.3349C29.2562 86.0822 36.3729 93.1989 45.1194 93.1989C46.1327 93.1989 47.122 93.0995 48.0817 92.917L42.7822 97.8471ZM45.1204 90.8562C37.6651 90.8562 31.599 84.7901 31.599 77.3343C31.599 69.8791 37.6651 63.813 45.1204 63.813C52.5756 63.813 58.6417 69.8791 58.6417 77.3343C58.6409 84.7903 52.5756 90.8562 45.1204 90.8562ZM79.4465 90.2141H54.5388L55.7719 89.0788C55.7788 89.0718 55.7866 89.0656 55.7928 89.0586L55.9574 88.9064L55.9582 88.8994C58.707 86.3214 60.5404 82.7806 60.9099 78.8181H78.5163L76.8965 80.4379C75.9725 81.3619 75.4639 82.5895 75.4639 83.8963C75.4639 85.2032 75.9725 86.4324 76.8965 87.3564L76.9245 87.3843C77.8485 88.3083 79.0761 88.8169 80.3845 88.8169C81.6914 88.8169 82.919 88.3083 83.843 87.3843L84.7639 86.4634C83.9773 88.646 81.8933 90.2141 79.4465 90.2141ZM84.948 82.9723C84.5451 81.1646 83.1202 79.7405 81.3133 79.3376L90.3176 70.3332C90.7206 72.1409 92.1447 73.565 93.9524 73.968L84.948 82.9723ZM94.9968 71.7426C93.6433 71.7426 92.5422 70.6415 92.5422 69.288C92.5422 67.9345 93.6433 66.8334 94.9968 66.8334C96.3502 66.8334 97.4514 67.9345 97.4514 69.288C97.4514 70.6414 96.3495 71.7426 94.9968 71.7426ZM45.1217 70.2152C41.1965 70.2152 38.0029 73.4089 38.0029 77.3341C38.0029 81.2593 41.1965 84.453 45.1217 84.453C49.047 84.453 52.2406 81.2593 52.2406 77.3341C52.2406 73.4089 49.047 70.2152 45.1217 70.2152ZM45.1217 82.1105C42.4879 82.1105 40.3448 79.9674 40.3448 77.3335C40.3448 74.6996 42.4879 72.5565 45.1217 72.5565C47.7556 72.5565 49.8987 74.6996 49.8987 77.3335C49.898 79.9682 47.7556 82.1105 45.1217 82.1105Z" fill="#CACAD7"/>
<circle cx="45.2949" cy="77.0957" r="7.5" fill="#5D60F4"/>
</svg>
