<svg width="236" height="40" viewBox="0 0 236 40" fill="none" xmlns="http://www.w3.org/2000/svg">
<path d="M40.382 30.8223H20.2855C19.7272 30.9606 19.169 31.0989 18.6108 31.3756C18.0525 31.6522 17.4943 32.2055 17.2152 32.6205L13.168 39.5368H45.5457L40.382 30.8223Z" fill="#2E2E40"/>
<path d="M29.0777 28.055C29.636 28.3316 30.3338 28.6083 31.0316 28.6083H39.126L22.9371 0.804688L17.7734 9.65757L27.6821 26.5334C27.9613 27.0867 28.5195 27.64 29.0777 28.055Z" fill="#2E2E40"/>
<path d="M20.9829 20.724C20.9829 20.0323 20.8433 19.3407 20.5642 18.7874L16.517 11.8711L0.328125 39.5364H10.6555L20.4246 22.7989C20.7038 22.2456 20.9829 21.4156 20.9829 20.724Z" fill="#2E2E40"/>
<path d="M68.7088 19.062C68.7088 18.6471 68.9879 5.50607 68.9879 5.50607L65.3593 19.062H62.5682L58.9396 5.50607C58.9396 5.50607 59.2187 18.5087 59.2187 19.062H56.1484V2.46289H60.6143L63.8242 14.7739L67.034 2.46289H71.4999V18.9237H68.7088V19.062Z" fill="#2E2E40"/>
<path d="M89.0841 19.062H86.0138V8.27259L78.6172 17.1255V19.062H75.5469V2.46289H78.6172V13.2523L86.0138 4.39946V2.46289H89.0841V19.062Z" fill="#2E2E40"/>
<path d="M103.18 19.062V11.4541H96.0625V18.9237H92.9922V2.46289H96.0625V8.68757H103.18V2.46289H106.39V18.9237H103.18V19.062Z" fill="#2E2E40"/>
<path d="M123.275 2.46289V18.9237H120.205V5.36774H113.227V19.062H110.156V2.46289H123.275Z" fill="#2E2E40"/>
<path d="M133.606 2.46289C137.095 2.46289 139.468 4.53778 139.468 7.99594C139.468 11.0391 137.653 13.3907 133.327 13.3907H130.117V19.062H127.047V2.46289H133.606ZM130.257 10.9008H133.048C135.281 10.9008 136.397 9.93251 136.397 7.85762C136.397 5.22942 134.164 5.09109 132.769 5.09109H130.396V10.9008H130.257Z" fill="#2E2E40"/>
<path d="M149.094 2.04883C154.119 2.04883 157.049 6.19862 157.049 10.6251C157.049 14.3599 154.956 19.3396 148.955 19.3396C144.07 19.3396 141 15.3282 141 10.6251C141 5.92196 144.21 2.04883 149.094 2.04883ZM149.094 16.5731C151.606 16.5731 153.839 14.6365 153.839 10.9017C153.839 7.99686 152.304 4.95368 148.955 4.95368C146.164 4.95368 144.21 7.02857 144.21 10.7634C144.21 13.2533 145.466 16.5731 149.094 16.5731Z" fill="#2E2E40"/>
<path d="M172.4 19.062C172.4 18.6471 172.679 5.50607 172.679 5.50607L169.051 19.062H166.26L162.631 5.50607C162.631 5.50607 162.91 18.5087 162.91 19.062H159.84V2.46289H164.306L167.516 14.7739L170.725 2.46289H175.191V18.9237H172.4V19.062Z" fill="#2E2E40"/>
<path d="M185.38 5.22942V18.9237H182.31V5.22942H177.844V2.46289H190.125V5.22942H185.38Z" fill="#2E2E40"/>
<path d="M199.618 2.04883C204.642 2.04883 207.573 6.19862 207.573 10.6251C207.573 14.3599 205.479 19.3396 199.478 19.3396C194.594 19.3396 191.523 15.3282 191.523 10.6251C191.663 5.92196 194.733 2.04883 199.618 2.04883ZM199.618 16.5731C202.13 16.5731 204.363 14.6365 204.363 10.9017C204.363 7.99686 202.828 4.95368 199.478 4.95368C196.687 4.95368 194.733 7.02857 194.733 10.7634C194.873 13.2533 196.129 16.5731 199.618 16.5731Z" fill="#2E2E40"/>
<path d="M217.059 2.46289C220.548 2.46289 222.921 4.53778 222.921 7.99594C222.921 11.0391 221.246 13.3907 216.78 13.3907H213.57V19.062H210.5V2.46289H217.059ZM213.71 10.9008H216.501C218.734 10.9008 219.85 9.93251 219.85 7.85762C219.85 5.22942 217.618 5.09109 216.222 5.09109H213.849V10.9008H213.71Z" fill="#2E2E40"/>
<path d="M235.206 2.46289V5.22942H228.367V18.9237H225.297V2.46289H235.206Z" fill="#2E2E40"/>
<path d="M62.7077 23.0742C66.1967 23.0742 68.5692 25.1491 68.5692 28.6073C68.5692 31.6504 66.8945 34.002 62.4286 34.002H59.2187V39.535H56.1484V23.0742H62.7077ZM59.3583 31.5121H62.1495C64.3824 31.5121 65.4989 30.5438 65.4989 28.6073C65.4989 25.9791 63.266 25.8407 61.8704 25.8407H59.4979V31.5121H59.3583Z" fill="#2E2E40"/>
<path d="M78.196 22.6602C83.2201 22.6602 86.1509 26.8099 86.1509 31.2364C86.1509 34.9712 84.0575 39.9509 78.0564 39.9509C73.1719 39.9509 70.1016 35.9395 70.1016 31.2364C70.1016 26.5333 73.3114 22.6602 78.196 22.6602ZM78.196 37.1844C80.7081 37.1844 82.941 35.2479 82.941 31.513C82.941 28.6082 81.4059 25.565 78.0564 25.565C75.2653 25.565 73.3114 27.6399 73.3114 31.3747C73.3114 33.8646 74.5675 37.1844 78.196 37.1844Z" fill="#2E2E40"/>
<path d="M103.042 34.9709C102.484 36.3541 100.67 39.9506 95.9247 39.9506C92.017 39.9506 88.1094 37.3224 88.1094 31.0977C88.1094 27.3629 90.2028 22.5215 96.0642 22.5215C100.391 22.5215 102.065 25.288 102.903 27.6396L99.8323 28.4695C99.6928 26.6713 98.1576 25.4263 96.2038 25.4263C93.5522 25.4263 91.5984 27.5012 91.5984 31.0977C91.5984 33.3109 92.5753 36.9074 96.2038 36.9074C98.2972 36.9074 99.6928 35.2475 100.251 33.5876L103.042 34.9709Z" fill="#2E2E40"/>
<path d="M119.787 34.9709C119.229 36.3541 117.415 39.9506 112.53 39.9506C108.622 39.9506 104.715 37.3224 104.715 31.0977C104.715 27.3629 106.808 22.5215 112.67 22.5215C116.996 22.5215 118.671 25.288 119.369 27.6396L116.298 28.4695C116.159 26.6713 114.624 25.4263 112.67 25.4263C110.018 25.4263 108.064 27.5012 108.064 31.0977C108.064 33.3109 109.041 36.9074 112.67 36.9074C114.763 36.9074 116.159 35.2475 116.717 33.5876L119.787 34.9709Z" fill="#2E2E40"/>
<path d="M135.697 39.5347H132.627V28.7453L125.23 37.5981V39.5347H122.16V23.0739H125.23V33.725L132.627 24.8721V22.9355H135.697V39.5347Z" fill="#2E2E40"/>
<path d="M153.139 39.5347H150.068V28.7453L142.672 37.5981V39.5347H139.602V23.0739H142.672V33.725L150.068 24.8721V22.9355H153.139V39.5347Z" fill="#2E2E40"/>
</svg>
