<svg width="91" height="64" viewBox="0 0 91 64" fill="none" xmlns="http://www.w3.org/2000/svg">
<path fill-rule="evenodd" clip-rule="evenodd" d="M0.449219 0.0605469H90.9595V63.9996H0.449219V0.0605469ZM13.1538 45.8638C14.7641 45.8638 15.0722 46.9467 15.2264 47.5091H17.1768C17.0705 46.1477 15.9385 44.2344 13.1378 44.2344C10.7251 44.2344 8.84375 45.8795 8.84375 49.1175C8.84375 52.303 10.6241 53.9745 13.1112 53.9745C15.4602 53.9745 16.7888 52.571 17.1768 50.5578H15.2264C14.9979 51.6879 14.2379 52.3397 13.1538 52.3397C11.501 52.3397 10.7941 50.7944 10.7941 49.1386C10.7941 46.5261 12.2131 45.8638 13.1538 45.8638ZM19.5676 49.4709L21.8634 46.8691H24.0955L21.6562 49.5235L24.154 53.7339H21.9751L20.3276 50.7851L19.5676 51.563V53.7339H17.75V46.8691H19.5676V49.4709ZM27.2714 53.9124C29.1314 53.9124 30.8054 52.7665 30.8054 50.2907C30.8054 47.8149 29.1314 46.6953 27.2714 46.6953C25.4166 46.6953 23.7266 47.8307 23.7266 50.3012C23.7266 52.7769 25.4166 53.9124 27.2714 53.9124ZM27.2714 52.3933C25.8684 52.3933 25.5973 51.1737 25.5973 50.2907C25.5973 49.4076 25.8684 48.2091 27.2714 48.2091C28.6743 48.2091 28.9348 49.4233 28.9348 50.3012C28.9348 51.1842 28.6743 52.3933 27.2714 52.3933ZM37.6465 46.8744V53.7286H35.829V48.3145H33.8786V50.433C33.8786 53.0559 33.0814 53.8864 31.8006 53.8864C31.4818 53.8864 30.961 53.8338 30.6953 53.734V52.3936C30.7324 52.4198 30.9663 52.4462 31.2373 52.4462C31.7793 52.4462 32.0611 52.178 32.0611 50.086V46.8744H37.6465ZM42.6875 46.8691L40.3917 49.4709V46.8691H38.5742V53.7339H40.3917V51.563L41.1517 50.7851L42.8044 53.7339H44.9834L42.4803 49.5235L44.9143 46.8691H42.6875ZM51.6375 50.2907C51.6375 52.7665 49.9633 53.9124 48.1033 53.9124C46.2487 53.9124 44.5586 52.7769 44.5586 50.3012C44.5586 47.8307 46.2487 46.6953 48.1033 46.6953C49.9581 46.6953 51.6375 47.8149 51.6375 50.2907ZM46.4293 50.2907C46.4293 51.1737 46.7003 52.3933 48.1033 52.3933C49.5117 52.3933 49.7667 51.1842 49.7667 50.3012C49.7667 49.4233 49.5117 48.2091 48.1033 48.2091C46.7003 48.2091 46.4293 49.4076 46.4293 50.2907ZM55.3568 46.8691H52.2266V53.7286H55.7075C57.2805 53.7286 58.2478 53.1242 58.2478 51.8522C58.2478 50.7272 57.456 50.2805 56.7491 50.1175C57.4719 49.9389 58.0405 49.429 58.0405 48.6405C58.0405 47.4946 56.9033 46.8691 55.3568 46.8691ZM55.2291 49.6497H54.0441V48.1043H55.2451C55.851 48.1043 56.2601 48.3093 56.2601 48.8717C56.2601 49.4079 55.835 49.6497 55.2291 49.6497ZM55.3833 52.4935H54.0441V50.7326H55.3568C56.0317 50.7326 56.4675 51.0111 56.4675 51.6103C56.4675 52.2885 56.0529 52.4935 55.3833 52.4935ZM65.5294 50.2907C65.5294 52.7665 63.8501 53.9124 61.9954 53.9124C60.1406 53.9124 58.4453 52.7769 58.4453 50.3012C58.4453 47.8307 60.1352 46.6953 61.9954 46.6953C63.8501 46.6953 65.5294 47.8149 65.5294 50.2907ZM60.3213 50.2907C60.3213 51.1737 60.5924 52.3933 62.0006 52.3933C63.4037 52.3933 63.664 51.1842 63.664 50.3012C63.664 49.4233 63.4037 48.2091 62.0006 48.2091C60.5924 48.2091 60.3213 49.4076 60.3213 50.2907ZM30.2892 40.3568C27.4407 42.4173 23.6196 42.6854 22.073 42.6854C11.2901 42.6854 9.41406 36.5038 9.41406 32.8664H15.3343C15.3343 34.5222 16.2325 37.634 21.6266 37.634C24.5656 37.634 27.8339 36.9085 27.8339 33.8388C27.8339 31.5365 25.5859 30.9688 22.4397 30.2014L16.477 28.7453C12.2732 27.7361 9.86048 25.2709 9.86048 20.8239C9.86048 17.5913 11.6568 11.8145 21.2547 11.8145C25.6868 11.8145 28.5302 13.2285 30.2892 15.0892V12.5871H36.0501V28.4247L43.3148 20.1775H50.3831L42.6665 28.5824L50.5903 41.9179H43.6869L38.4575 32.5878L36.0501 35.053V41.9231H30.2892V40.3568ZM18.7675 23.4522L25.9951 25.1921C27.5363 25.5757 29.0297 26.0541 30.2892 26.7742V21.3075H26.8507C26.6913 19.9777 26.1971 16.8658 20.8082 16.8658C18.438 16.8658 15.6213 17.7594 15.6213 20.3825C15.6213 22.6848 17.5399 23.1683 18.7675 23.4522Z" fill="#2E2E40"/>
</svg>
