<svg width="16" height="17" viewBox="0 0 16 17" fill="none" xmlns="http://www.w3.org/2000/svg">
<path d="M12.9109 1.28203H12.3141V0.651884C12.3141 0.291848 12.0344 0 11.6894 0C11.3444 0 11.0647 0.291848 11.0647 0.651884V1.28203H4.9353V0.651884C4.9353 0.291848 4.65561 0 4.31058 0C3.96555 0 3.68586 0.291848 3.68586 0.651884V1.28203H3.08909C1.38576 1.28203 0 2.72804 0 4.5054V13.4648C0 15.2422 1.38576 16.6882 3.08909 16.6882H12.9109C14.6142 16.6882 16 15.2422 16 13.4648V4.5054C16 2.72804 14.6142 1.28203 12.9109 1.28203ZM3.08909 2.58579H3.68586V3.85697C3.68586 4.217 3.96555 4.50885 4.31058 4.50885C4.65561 4.50885 4.9353 4.217 4.9353 3.85697V2.58579H11.0647V3.85697C11.0647 4.217 11.3444 4.50885 11.6894 4.50885C12.0345 4.50885 12.3141 4.217 12.3141 3.85697V2.58579H12.9109C13.9253 2.58579 14.7506 3.44693 14.7506 4.5054V5.12814H1.24944V4.5054C1.24944 3.44693 2.0747 2.58579 3.08909 2.58579ZM12.9109 15.3845H3.08909C2.0747 15.3845 1.24944 14.5233 1.24944 13.4648V6.43191H14.7506V13.4648C14.7506 14.5233 13.9253 15.3845 12.9109 15.3845ZM5.54962 8.99599C5.54962 9.35603 5.26993 9.64788 4.9249 9.64788H3.69629C3.35126 9.64788 3.07157 9.35603 3.07157 8.99599C3.07157 8.63596 3.35126 8.34411 3.69629 8.34411H4.9249C5.2699 8.34411 5.54962 8.63596 5.54962 8.99599ZM12.9285 8.99599C12.9285 9.35603 12.6488 9.64788 12.3037 9.64788H11.0751C10.7301 9.64788 10.4504 9.35603 10.4504 8.99599C10.4504 8.63596 10.7301 8.34411 11.0751 8.34411H12.3037C12.6487 8.34411 12.9285 8.63596 12.9285 8.99599ZM9.23548 8.99599C9.23548 9.35603 8.95579 9.64788 8.61076 9.64788H7.38215C7.03712 9.64788 6.75743 9.35603 6.75743 8.99599C6.75743 8.63596 7.03712 8.34411 7.38215 8.34411H8.61076C8.95576 8.34411 9.23548 8.63596 9.23548 8.99599ZM5.54962 12.8421C5.54962 13.2021 5.26993 13.494 4.9249 13.494H3.69629C3.35126 13.494 3.07157 13.2021 3.07157 12.8421C3.07157 12.4821 3.35126 12.1902 3.69629 12.1902H4.9249C5.2699 12.1902 5.54962 12.4821 5.54962 12.8421ZM12.9285 12.8421C12.9285 13.2021 12.6488 13.494 12.3037 13.494H11.0751C10.7301 13.494 10.4504 13.2021 10.4504 12.8421C10.4504 12.4821 10.7301 12.1902 11.0751 12.1902H12.3037C12.6487 12.1902 12.9285 12.4821 12.9285 12.8421ZM9.23548 12.8421C9.23548 13.2021 8.95579 13.494 8.61076 13.494H7.38215C7.03712 13.494 6.75743 13.2021 6.75743 12.8421C6.75743 12.4821 7.03712 12.1902 7.38215 12.1902H8.61076C8.95576 12.1902 9.23548 12.4821 9.23548 12.8421Z" fill="#0050B2"/>
</svg>
