<svg width="21" height="20" viewBox="0 0 21 20" fill="none" xmlns="http://www.w3.org/2000/svg">
<path d="M21.0009 1.82411C21.0009 2.33266 20.7012 2.7449 20.3315 2.7449L1.64588 2.74532C1.27622 2.74532 0.976562 2.33309 0.976562 1.82453C0.976562 1.31598 1.27622 0.903746 1.64588 0.903746L20.3315 0.90332C20.7012 0.90332 21.0009 1.31556 21.0009 1.82411ZM21.0009 7.25676C21.0009 7.76532 20.7012 8.17755 20.3315 8.17755L1.64588 8.17799C1.27622 8.17799 0.976562 7.76575 0.976562 7.2572C0.976562 6.74865 1.27622 6.3364 1.64588 6.3364L20.3315 6.33598C20.7012 6.33598 21.0009 6.74821 21.0009 7.25676Z" fill="#0050B2"/>
<path d="M21.0009 12.7418C21.0009 13.2504 20.7012 13.6626 20.3315 13.6626L1.64588 13.663C1.27622 13.663 0.976562 13.2508 0.976562 12.7423C0.976562 12.2337 1.27622 11.8215 1.64588 11.8215L20.3315 11.821C20.7012 11.821 21.0009 12.2333 21.0009 12.7418ZM21.0009 18.1745C21.0009 18.683 20.7012 19.0953 20.3315 19.0953L1.64588 19.0957C1.27622 19.0957 0.976562 18.6835 0.976562 18.1749C0.976562 17.6664 1.27622 17.2541 1.64588 17.2541L20.3315 17.2537C20.7012 17.2537 21.0009 17.6659 21.0009 18.1745Z" fill="#0050B2"/>
</svg>
