<svg width="23" height="25" viewBox="0 0 23 25" fill="none" xmlns="http://www.w3.org/2000/svg">
<g clip-path="url(#clip0_363:4203)">
<path d="M18.5594 1.91909H17.7015V1.01325C17.7015 0.495704 17.2995 0.0761719 16.8035 0.0761719C16.3075 0.0761719 15.9055 0.495704 15.9055 1.01325V1.91909H7.0945V1.01325C7.0945 0.495704 6.69245 0.0761719 6.19646 0.0761719C5.70047 0.0761719 5.29842 0.495704 5.29842 1.01325V1.91909H4.44057C1.99203 1.91909 0 3.99772 0 6.55268V19.4318C0 21.9869 1.99203 24.0655 4.44057 24.0655H18.5595C21.008 24.0655 23 21.9869 23 19.4318V6.55268C23 3.99772 21.008 1.91909 18.5594 1.91909ZM4.44057 3.79325H5.29842V5.62056C5.29842 6.13811 5.70047 6.55765 6.19646 6.55765C6.69245 6.55765 7.0945 6.13811 7.0945 5.62056V3.79325H15.9055V5.62056C15.9055 6.13811 16.3076 6.55765 16.8035 6.55765C17.2995 6.55765 17.7016 6.13811 17.7016 5.62056V3.79325H18.5595C20.0176 3.79325 21.2039 5.03114 21.2039 6.55268V7.44787H1.79608V6.55268C1.79608 5.03114 2.98238 3.79325 4.44057 3.79325ZM18.5594 22.1913H4.44057C2.98238 22.1913 1.79608 20.9534 1.79608 19.4318V9.32204H21.2039V19.4318C21.2039 20.9534 20.0176 22.1913 18.5594 22.1913ZM7.97758 13.0079C7.97758 13.5255 7.57553 13.945 7.07954 13.945H5.31342C4.81743 13.945 4.41538 13.5255 4.41538 13.0079C4.41538 12.4904 4.81743 12.0708 5.31342 12.0708H7.07954C7.57549 12.0708 7.97758 12.4904 7.97758 13.0079ZM18.5847 13.0079C18.5847 13.5255 18.1826 13.945 17.6866 13.945H15.9205C15.4245 13.945 15.0225 13.5255 15.0225 13.0079C15.0225 12.4904 15.4245 12.0708 15.9205 12.0708H17.6866C18.1826 12.0708 18.5847 12.4904 18.5847 13.0079ZM13.276 13.0079C13.276 13.5255 12.874 13.945 12.378 13.945H10.6118C10.1159 13.945 9.7138 13.5255 9.7138 13.0079C9.7138 12.4904 10.1159 12.0708 10.6118 12.0708H12.378C12.8739 12.0708 13.276 12.4904 13.276 13.0079ZM7.97758 18.5367C7.97758 19.0543 7.57553 19.4738 7.07954 19.4738H5.31342C4.81743 19.4738 4.41538 19.0543 4.41538 18.5367C4.41538 18.0191 4.81743 17.5996 5.31342 17.5996H7.07954C7.57549 17.5996 7.97758 18.0191 7.97758 18.5367ZM18.5847 18.5367C18.5847 19.0543 18.1826 19.4738 17.6866 19.4738H15.9205C15.4245 19.4738 15.0225 19.0543 15.0225 18.5367C15.0225 18.0191 15.4245 17.5996 15.9205 17.5996H17.6866C18.1826 17.5996 18.5847 18.0191 18.5847 18.5367ZM13.276 18.5367C13.276 19.0543 12.874 19.4738 12.378 19.4738H10.6118C10.1159 19.4738 9.7138 19.0543 9.7138 18.5367C9.7138 18.0191 10.1159 17.5996 10.6118 17.5996H12.378C12.8739 17.5996 13.276 18.0191 13.276 18.5367Z" fill="#0050B2"/>
</g>
<defs>
<clipPath id="clip0_363:4203">
<rect width="23" height="24" fill="white" transform="translate(0 0.0712891)"/>
</clipPath>
</defs>
</svg>
