<svg width="240" height="394" viewBox="0 0 240 394" fill="none" xmlns="http://www.w3.org/2000/svg">
<path d="M0.51907 388.644C27.3059 394.687 55.0626 395.042 81.9951 389.685C108.928 384.329 134.436 373.381 156.872 357.548C179.309 341.716 198.173 321.351 212.246 297.772C226.318 274.192 235.287 247.921 238.57 220.659C241.854 193.396 239.381 165.747 231.31 139.5C223.239 113.253 209.75 88.9916 191.715 68.2842C173.681 47.5768 151.501 30.8842 126.611 19.2855C101.721 7.68685 74.6741 1.44019 47.2186 0.949328L47.0697 9.27565C73.3603 9.74568 99.2598 15.7273 123.094 26.8339C146.928 37.9404 168.166 53.9247 185.436 73.7535C202.705 93.5823 215.622 116.814 223.35 141.948C231.079 167.081 233.447 193.557 230.303 219.663C227.158 245.769 218.57 270.924 205.095 293.504C191.619 316.083 173.555 335.583 152.071 350.744C130.587 365.905 106.16 376.389 80.3706 381.518C54.5809 386.647 28.0019 386.307 2.35166 380.521L0.51907 388.644Z" fill="url(#paint0_linear_363:2741)"/>
<defs>
<linearGradient id="paint0_linear_363:2741" x1="-20.9649" y1="-48.4763" x2="43.7102" y2="393.456" gradientUnits="userSpaceOnUse">
<stop stop-color="#E52E2E"/>
<stop offset="1" stop-color="#0030D9"/>
</linearGradient>
</defs>
</svg>
