<svg width="160" height="57" viewBox="0 0 160 57" fill="none" xmlns="http://www.w3.org/2000/svg">
<path d="M0 8.5C0 4.08172 3.58172 0.5 8 0.5H152C156.418 0.5 160 4.08172 160 8.5V48.5C160 52.9183 156.418 56.5 152 56.5H8C3.58172 56.5 0 52.9183 0 48.5V8.5Z" fill="#F5F5F7"/>
<g clip-path="url(#clip0_2206_23475)">
<path fill-rule="evenodd" clip-rule="evenodd" d="M18 36.9376V19.167H21.4327V34.159H29.6032V36.9376H18ZM32.918 36.9376V19.167H44.101V21.9455H36.3126V26.601H42.6009V29.3785H36.3126V34.159H44.5211V36.9376H32.918ZM46.179 36.9376L52.6897 19.167H56.245L62.7548 36.9376H59.3041L57.709 32.3829H51.1992L49.6307 36.9376H46.1799H46.179ZM52.2572 29.6203H57.2289L55.5368 24.9863C55.2136 24.01 54.7839 22.303 54.7839 22.303H54.7298C54.7298 22.303 54.3001 24.011 53.9769 24.9863L52.2563 29.6203H52.2572ZM66.0696 36.9376V19.167H72.49C78.3002 19.167 82.0941 22.4206 82.0941 28.0271C82.0941 33.6336 78.3002 36.9376 72.4891 36.9376H66.0696ZM69.3853 33.8016H72.126C75.8476 33.8016 78.226 31.7081 78.226 27.7667C78.226 23.8747 75.7963 21.7803 72.126 21.7803H69.3853V33.8016ZM85.9612 36.9376V19.167H97.1432V21.9455H89.3558V26.601H95.6441V29.3785H89.3558V34.159H97.5643V36.9376H85.9612ZM101.432 36.9376V19.167H107.681C109.55 19.167 110.457 19.3163 111.259 19.643C113.208 20.3934 114.463 22.0958 114.463 24.4982C114.463 26.601 113.288 28.6029 111.285 29.3543V29.4037C111.285 29.4037 111.526 29.6791 111.9 30.3296L115.798 36.9376H111.926L108.188 30.3053H104.876V36.9376H101.431H101.432ZM105.3 27.5296H108.392C110.231 27.5296 111.378 26.4162 111.378 24.6027C111.378 23.4379 110.924 22.5055 109.885 22.0911C109.405 21.8839 108.845 21.7803 107.806 21.7803H105.3V27.5296Z" fill="#1E1E2F"/>
<path fill-rule="evenodd" clip-rule="evenodd" d="M126.297 36.9376H129.612V19.167H126.297V36.9376ZM141.645 19.167H131.822V36.9376H141.645L146.187 32.6321V23.4734L141.645 19.167ZM135.137 34.3242H143.425V22.303H135.137V34.3242Z" fill="#2185FB"/>
<path fill-rule="evenodd" clip-rule="evenodd" d="M142.873 35.8918L146.188 32.8426V23.2611L142.873 20.2119V35.8918Z" fill="#116CD8"/>
</g>
<defs>
<clipPath id="clip0_2206_23475">
<rect width="128.333" height="18.6666" fill="white" transform="translate(18 19.167)"/>
</clipPath>
</defs>
</svg>
