<svg width="239" height="575" viewBox="0 0 239 575" fill="none" xmlns="http://www.w3.org/2000/svg">
<path opacity="0.1" fill-rule="evenodd" clip-rule="evenodd" d="M207.712 -221.058L588.282 -238.56L734.791 -140.092L731.45 -135.122L589.128 -230.775L524.218 -15.4863L539.89 11.6585L882.893 -43.3781L808.491 235.24L907.158 310.614L701.241 633.76L476.351 573.511L515.638 641.559L317.181 650.457L384.654 426.665L369.004 399.557L43.7994 451.43L197.838 492.697L196.289 498.482L26.611 453.024L14.5114 275.762L20.486 275.354L31.2223 432.643L100.363 176.553L1.53383 101.136L107.924 -64.6229L147.139 3.29902L207.712 -221.058ZM144.936 11.4599L107.654 -53.1145L14.723 91.6733L143.325 17.4248L144.936 11.4599ZM141.114 25.6167L10.9339 100.776L102.049 170.307L141.114 25.6167ZM105.506 180.478L33.5492 447L365.798 394.004L350.427 367.381L105.506 180.478ZM342.652 353.915L107.192 174.232L148.462 21.3741L150.11 20.4224L342.652 353.915ZM362.788 376.814L372.13 392.994L381.94 391.429L362.788 376.814ZM390.105 390.127L355.013 363.348L155.296 17.4282L359.313 -100.361L509.062 14.036L508.249 16.7356L441.702 27.4133L442.651 33.3263L506.327 23.1091L395.952 389.194L390.105 390.127ZM388.513 396.445L375.336 398.547L387.027 418.797L392.783 399.704L388.513 396.445ZM397.868 403.584L391.136 425.914L435.169 502.182L470.319 458.873L397.868 403.584ZM475.082 462.508L438.375 507.735L468.024 559.089L544.093 515.171L475.082 462.508ZM549.713 511.926L478.858 457.856L549.545 370.759L724.217 342.898L753.782 394.107L549.713 511.926ZM549.252 519.107L471.019 564.275L472.117 566.177L686.03 623.485L549.252 519.107ZM699.122 625.943L554.871 515.863L756.776 399.293L757.944 401.316L741.731 462.03L747.517 463.575L762.182 408.657L798.023 470.735L699.122 625.943ZM801.651 465.042L894.052 320.037L766.124 393.896L764.369 400.467L801.651 465.042ZM768.307 385.721L887.623 316.833L782.213 333.647L768.307 385.721ZM775.739 334.68L760.979 389.952L758.968 391.113L730.548 341.888L775.739 334.68ZM783.904 327.313L895.791 309.466L806.82 241.499L783.904 327.313ZM801.671 237.567L777.43 328.346L727.342 336.335L603.882 122.496L630.741 106.989L801.671 237.567ZM803.343 231.308L874.053 -33.4871L636.36 103.745L803.343 231.308ZM631.204 99.8069L863.241 -34.1597L543.095 17.2095L558.887 44.5625L631.204 99.8069ZM546.516 35.1117L536.766 18.2249L526.556 19.8634L546.516 35.1117ZM518.403 21.1715L554.3 48.5941L595.702 120.304L459.583 198.893L512.9 22.0545L518.403 21.1715ZM519.994 14.851L533.562 12.6741L521.846 -7.61804L515.993 11.7945L519.994 14.851ZM510.909 7.91083L517.737 -14.7351L441.054 -147.554L364.932 -103.605L510.909 7.91083ZM359.776 -107.543L438.06 -152.74L397.05 -223.77L218.386 -215.554L359.776 -107.543ZM211.761 -213.079L151.365 10.6196L152.302 12.2419L354.158 -104.299L211.761 -213.079ZM403.787 -224.08L443.246 -155.735L575.284 -231.967L403.787 -224.08ZM582.384 -229.151L446.24 -150.548L520.109 -22.6033L582.384 -229.151ZM457.059 207.265L402.523 388.146L546.339 365.207L597.713 301.906L602.363 305.68L555.198 363.793L721.011 337.345L598.696 125.49L457.059 207.265ZM540.685 372.173L474.095 454.221L399.714 397.46L400.602 394.517L540.685 372.173ZM600.888 117.31L566.672 58.0449L625.586 103.051L600.888 117.31ZM462.838 562.083L434.335 512.714L405.441 548.315L460.936 563.182L462.838 562.083ZM453.601 567.416L401.308 553.407L333.804 636.581L453.601 567.416ZM328.522 633.586L394.973 551.71L363.899 543.385L365.449 537.601L399.106 546.617L431.129 507.161L388.763 433.782L328.522 633.586ZM333.388 643.736L505.524 636.018L468.171 571.32L461.782 569.608L333.388 643.736Z" stroke="black"/>
</svg>
