<svg width="88" height="88" viewBox="0 0 88 88" fill="none" xmlns="http://www.w3.org/2000/svg">
<path d="M85.6845 32.4208C86.9634 32.4208 87.9997 31.3844 87.9997 30.1055C87.9997 28.8267 86.9634 27.7895 85.6845 27.7895H81.0524V18.526H85.6845C86.9634 18.526 87.9997 17.4897 87.9997 16.2108C87.9997 14.9319 86.9634 13.8947 85.6845 13.8947H81.0524V9.26344C81.0532 8.64859 80.809 8.06003 80.3747 7.62498C79.9405 7.19076 79.3511 6.94737 78.7371 6.94737H74.105V2.31607C74.105 1.03719 73.0686 0 71.7898 0C70.5109 0 69.4737 1.03719 69.4737 2.31607V6.94737H60.2103V2.31607C60.2103 1.03719 59.1739 0 57.895 0C56.6161 0 55.579 1.03719 55.579 2.31607V6.94737H46.3155V2.31607C46.3155 1.03719 45.2792 0 44.0003 0C42.7214 0 41.6842 1.03719 41.6842 2.31607V6.94737H32.4208V2.31607C32.4208 1.03719 31.3844 0 30.1055 0C28.8267 0 27.7895 1.03719 27.7895 2.31607V6.94737H18.526V2.31607C18.526 1.03719 17.4897 0 16.2108 0C14.9319 0 13.8947 1.03719 13.8947 2.31607V6.94737H9.26344C8.64859 6.94737 8.06003 7.19076 7.62498 7.62498C7.19076 8.06003 6.94737 8.64859 6.94737 9.26344V13.8947H2.31607C1.03719 13.8947 0 14.9319 0 16.2108C0 17.4897 1.03719 18.526 2.31607 18.526H6.94737V27.7895H2.31607C1.03719 27.7895 0 28.8267 0 30.1055C0 31.3844 1.03719 32.4208 2.31607 32.4208H6.94737V41.6842H2.31607C1.03719 41.6842 0 42.7214 0 44.0003C0 45.2792 1.03719 46.3155 2.31607 46.3155H6.94737V55.579H2.31607C1.03719 55.579 0 56.6161 0 57.895C0 59.1739 1.03719 60.2103 2.31607 60.2103H6.94737V69.4737H2.31607C1.03719 69.4737 0 70.5109 0 71.7898C0 73.0686 1.03719 74.105 2.31607 74.105H6.94737V78.7371C6.94737 79.3511 7.19076 79.9405 7.62498 80.3747C8.06003 80.809 8.64859 81.0532 9.26344 81.0524H13.8947V85.6845C13.8947 86.9634 14.9319 87.9997 16.2108 87.9997C17.4897 87.9997 18.526 86.9634 18.526 85.6845V81.0524H27.7895V85.6845C27.7895 86.9634 28.8267 87.9997 30.1055 87.9997C31.3844 87.9997 32.4208 86.9634 32.4208 85.6845V81.0524H41.6842V85.6845C41.6842 86.9634 42.7214 87.9997 44.0003 87.9997C45.2792 87.9997 46.3155 86.9634 46.3155 85.6845V81.0524H55.579V85.6845C55.579 86.9634 56.6161 87.9997 57.895 87.9997C59.1739 87.9997 60.2103 86.9634 60.2103 85.6845V81.0524H69.4737V85.6845C69.4737 86.9634 70.5109 87.9997 71.7898 87.9997C73.0686 87.9997 74.105 86.9634 74.105 85.6845V81.0524H78.7371C79.3511 81.0532 79.9405 80.809 80.3747 80.3747C80.809 79.9405 81.0532 79.3511 81.0524 78.7371V74.105H85.6845C86.9634 74.105 87.9997 73.0686 87.9997 71.7898C87.9997 70.5109 86.9634 69.4737 85.6845 69.4737H81.0524V60.2103H85.6845C86.9634 60.2103 87.9997 59.1739 87.9997 57.895C87.9997 56.6161 86.9634 55.579 85.6845 55.579H81.0524V46.3155H85.6845C86.9634 46.3155 87.9997 45.2792 87.9997 44.0003C87.9997 42.7214 86.9634 41.6842 85.6845 41.6842H81.0524V32.4208H85.6845ZM76.4211 76.4211H11.5787V11.5787H76.4211V76.4211Z" fill="white"/>
<path d="M69.4738 16.2108H18.5262C17.9122 16.21 17.3228 16.4542 16.8885 16.8884C16.4543 17.3226 16.2101 17.912 16.2109 18.526V69.4737C16.2101 70.0877 16.4543 70.6771 16.8885 71.1113C17.3228 71.5464 17.9122 71.7898 18.5262 71.7898H69.4738C70.0878 71.7898 70.6772 71.5464 71.1114 71.1113C71.5465 70.6771 71.7899 70.0877 71.7899 69.4737V18.526C71.7899 17.912 71.5465 17.3226 71.1114 16.8884C70.6772 16.4542 70.0878 16.21 69.4738 16.2108ZM67.1577 67.1576H20.8422V20.8421H67.1577V67.1576Z" fill="white"/>
<path d="M32.4207 57.8951C33.0355 57.8951 33.6241 57.6517 34.0592 57.2166C34.4934 56.7824 34.7368 56.193 34.7368 55.579V48.6316H39.3681V55.579C39.3681 56.8579 40.4052 57.8951 41.6841 57.8951C42.963 57.8951 44.0002 56.8579 44.0002 55.579V37.053C44.0002 33.2155 40.8895 30.1056 37.0528 30.1056C33.2153 30.1056 30.1055 33.2155 30.1055 37.053V55.579C30.1046 56.193 30.3489 56.7824 30.7831 57.2166C31.2173 57.6517 31.8067 57.8951 32.4207 57.8951ZM37.0528 34.7369C38.3309 34.7386 39.3664 35.7741 39.3681 37.053V44.0003H34.7368V37.053C34.7385 35.7741 35.774 34.7386 37.0528 34.7369Z" fill="white"/>
<path d="M48.6309 55.579C48.6309 56.193 48.8743 56.7824 49.3085 57.2166C49.7435 57.6517 50.3321 57.8951 50.9469 57.8951H55.5782C56.8571 57.8951 57.8943 56.8579 57.8943 55.579C57.8943 54.3001 56.8571 53.2629 55.5782 53.2629V34.7369C56.8571 34.7369 57.8943 33.6997 57.8943 32.4208C57.8943 31.1419 56.8571 30.1056 55.5782 30.1056H50.9469C49.668 30.1056 48.6309 31.1419 48.6309 32.4208C48.6309 33.6997 49.668 34.7369 50.9469 34.7369V53.2629C50.3321 53.2629 49.7435 53.5063 49.3085 53.9414C48.8743 54.3756 48.6309 54.965 48.6309 55.579Z" fill="white"/>
</svg>
