<svg width="88" height="88" viewBox="0 0 88 88" fill="none" xmlns="http://www.w3.org/2000/svg">
<path d="M62.9035 13.3667C62.9071 12.7445 62.5752 12.167 62.0338 11.8593C62.0338 11.8593 62.0338 11.8593 62.0321 11.8593C62.0065 11.8447 62.0605 11.8743 61.8927 11.7803C61.0698 11.3162 60.0181 11.6099 59.5537 12.4368C59.0896 13.2635 59.3852 14.3137 60.2101 14.7778L60.2668 14.8087C60.291 14.8224 60.3134 14.8362 60.3372 14.8499C61.4696 15.4916 62.8961 14.6779 62.9035 13.3667Z" fill="white"/>
<path d="M56.5585 13.0092C57.6899 13.4763 58.9305 12.6403 58.9305 11.4245C58.934 10.7232 58.5146 10.0976 57.8666 9.83119C57.8168 9.81056 57.7669 9.78994 57.7188 9.76931C56.8472 9.41611 55.8411 9.82431 55.4794 10.7146C55.3058 11.1409 55.3093 11.6084 55.488 12.0312C55.8137 12.802 56.4973 12.971 56.5585 13.0092Z" fill="white"/>
<path d="M52.4406 11.6205C52.6577 11.6802 52.8021 11.7185 53.0303 11.7185C53.8055 11.7185 54.4861 11.196 54.6888 10.4483C54.9414 9.50509 54.3715 8.58092 53.4788 8.33943C53.2981 8.29114 53.1348 8.23975 52.8808 8.23975C52.1057 8.23975 51.4233 8.76568 51.2222 9.51678C50.9782 10.4329 51.5247 11.3765 52.4406 11.6205Z" fill="white"/>
<path d="M73.4129 24.7741C72.5965 25.2536 72.3232 26.3089 72.8028 27.1271C72.8268 27.1683 72.8526 27.2096 72.8767 27.2525C73.345 28.0572 74.3936 28.3554 75.2262 27.8713C76.0361 27.4021 76.3295 26.3502 75.8467 25.5217C75.8276 25.486 75.825 25.4855 75.7657 25.3842C75.4582 24.8617 74.2338 24.2891 73.4129 24.7741Z" fill="white"/>
<path d="M76.1152 34.8201C76.1221 34.8459 76.1307 34.8716 76.1375 34.8974C76.3381 35.6898 77.0416 36.2088 77.8083 36.2088C78.7653 36.2088 79.5271 35.4256 79.5271 34.4918C79.5271 34.1726 79.4358 33.9401 79.4169 33.8679C79.2072 33.1357 78.5283 32.6252 77.7669 32.6252C76.6212 32.6252 75.7988 33.7218 76.1152 34.8201Z" fill="white"/>
<path d="M74.6997 30.8704C74.7314 30.9374 74.7492 30.9854 74.7565 31.0027C75.028 31.6387 75.6483 32.0495 76.3394 32.0495C77.5725 32.0495 78.4028 30.7848 77.9205 29.657L77.9188 29.6552C77.8982 29.6071 77.8775 29.559 77.8571 29.5109C77.4865 28.6479 76.4836 28.2325 75.5985 28.612C74.7257 28.986 74.3233 29.9973 74.6997 30.8704Z" fill="white"/>
<path d="M72.8005 63.1891C70.2216 61.5594 66.7583 61.8337 64.478 64.1141C62.3569 66.2352 61.9489 69.4715 63.3118 72.019C63.2847 72.0176 63.258 72.014 63.2305 72.014C62.8937 72.014 62.5673 72.1118 62.2852 72.2991C62.2667 72.3114 62.1663 72.377 62.1477 72.3887C61.663 72.7067 61.3707 73.2429 61.3691 73.8239C61.3691 74.7595 62.1235 75.5462 63.0896 75.5462C63.4248 75.5462 63.7479 75.4498 64.0299 75.2661L64.1795 75.1681C64.598 74.8912 64.8539 74.4625 64.9275 74.0035C67.5537 76.1995 71.4766 76.0754 73.958 73.5939C76.54 71.0116 76.5691 66.8306 74.0489 64.2098C73.8282 63.6824 73.3674 63.3017 72.8005 63.1891ZM71.5273 71.1629C70.2064 72.4834 68.0245 72.4459 66.7578 70.9994C65.6316 69.7124 65.698 67.7555 66.9088 66.5444C68.1927 65.2605 70.2611 65.2784 71.5271 66.5444C72.8002 67.8179 72.8002 69.8896 71.5273 71.1629Z" fill="white"/>
<path d="M76.7045 55.397C75.9928 55.397 75.3656 55.8249 75.1042 56.4867C75.1016 56.4932 75.0549 56.6166 75.0509 56.6224C74.6039 57.746 75.4277 58.9771 76.6476 58.9771C77.3558 58.9771 77.9814 58.5526 78.2444 57.896C78.2444 57.8943 78.2444 57.8943 78.2461 57.8943C78.265 57.8445 78.2839 57.7946 78.3045 57.7448C78.744 56.6231 77.919 55.397 76.7045 55.397Z" fill="white"/>
<path d="M74.8308 59.4084C74.2017 59.4084 73.6225 59.7505 73.3217 60.3022C73.2976 60.3452 73.2753 60.3881 73.2512 60.4294C72.7882 61.2771 73.1048 62.3125 73.925 62.7652C74.7508 63.2227 75.7998 62.9262 76.2609 62.0931C76.2609 62.0914 76.2609 62.0914 76.2609 62.0897C76.2833 62.0502 76.3188 61.9866 76.3381 61.9522C76.5581 61.5481 76.6079 61.0841 76.479 60.6442C76.2566 59.882 75.5595 59.4084 74.8308 59.4084Z" fill="white"/>
<path d="M78.0615 51.1809C77.2743 51.1809 76.5902 51.7137 76.3977 52.4786C76.38 52.5607 76.3066 52.7606 76.3066 53.0475C76.3046 54.0043 77.0837 54.7679 78.0271 54.7679C78.8093 54.7679 79.4932 54.2368 79.6891 53.4789L79.7048 53.4222C79.7134 53.3897 79.7203 53.3568 79.7288 53.3226C80.0044 52.24 79.1825 51.1809 78.0615 51.1809Z" fill="white"/>
<path d="M58.1574 74.6262C58.0272 74.6891 58.0301 74.6876 58.0112 74.6967C57.1583 75.0953 56.7758 76.1226 57.1829 76.9809C57.5837 77.8365 58.6127 78.2117 59.4689 77.8093L59.6321 77.732C60.4879 77.3264 60.854 76.2986 60.4485 75.4426C60.0529 74.6111 59.0435 74.2094 58.1574 74.6262Z" fill="white"/>
<path d="M53.7448 76.3486C53.7056 76.3607 53.6331 76.383 53.5884 76.3968C52.6797 76.6728 52.171 77.6243 52.4454 78.5416C52.6761 79.2941 53.3655 79.7602 54.0903 79.7602C54.3887 79.7602 54.5807 79.6872 54.764 79.6313C55.6698 79.3494 56.1769 78.3852 55.8967 77.4794C55.6085 76.5532 54.6381 76.0726 53.7448 76.3486Z" fill="white"/>
<path d="M50.8502 78.1968C50.2798 75.0545 47.5365 72.7031 44.2578 72.7031C40.5862 72.7031 37.5547 75.7304 37.5547 79.4062C37.5547 83.1024 40.5616 86.1094 44.2578 86.1094C47.7893 86.1094 50.6894 83.3638 50.9412 79.8956C51.2059 79.3688 51.1935 78.7292 50.8502 78.1968ZM44.2578 82.6719C42.4571 82.6719 40.9922 81.207 40.9922 79.4166L40.9946 79.3353C41.0321 77.5737 42.4961 76.1406 44.2578 76.1406C46.0625 76.1406 47.5234 77.5974 47.5234 79.4062C47.5234 81.207 46.0585 82.6719 44.2578 82.6719Z" fill="white"/>
<path d="M27.4853 73.6829C27.4423 73.6586 27.3993 73.6347 27.3564 73.6107C26.5223 73.1459 25.4779 73.4496 25.0189 74.2739C24.5576 75.102 24.8511 76.1475 25.6823 76.6131C25.7235 76.6355 25.7665 76.6596 25.8095 76.6836C25.8267 76.6905 26.1713 76.9053 26.6534 76.9053C27.2807 76.9053 27.8565 76.565 28.159 76.0185C28.6179 75.1885 28.3154 74.1399 27.4853 73.6829Z" fill="white"/>
<path d="M31.355 75.508C31.3435 75.5035 31.2302 75.4586 31.2192 75.4531C31.2175 75.4531 31.2175 75.4531 31.2158 75.4531C30.1027 75.0037 28.8694 75.8175 28.8594 77.0394C28.856 77.7492 29.2788 78.3783 29.937 78.643C29.9388 78.6447 29.9388 78.6447 29.9405 78.6447C30.0285 78.6727 30.2946 78.8253 30.7225 78.8253C31.9727 78.8253 32.7859 77.5467 32.3003 76.424C32.1181 76.0031 31.783 75.6766 31.355 75.508Z" fill="white"/>
<path d="M35.4276 76.8246C35.2848 76.7914 35.117 76.7336 34.8535 76.7336C33.8938 76.7336 33.1348 77.517 33.1348 78.4505C33.1348 79.236 33.6641 79.9202 34.4238 80.116C34.4255 80.1177 34.4255 80.1177 34.4255 80.1177H34.4273C34.5543 80.1476 34.7385 80.2105 35.0065 80.2105C35.792 80.2105 36.476 79.6777 36.6702 78.9146C36.904 77.9952 36.3454 77.0585 35.4276 76.8246Z" fill="white"/>
<path d="M9.57206 50.8853C12.7963 50.4055 15.2969 47.5932 15.2969 44.2578C15.2969 40.5804 12.2741 37.5547 8.59375 37.5547C4.89758 37.5547 1.89062 40.5616 1.89062 44.2578C1.89062 47.7373 4.55555 50.605 7.95128 50.9293C8.47756 51.1937 9.08084 51.1658 9.57206 50.8853ZM5.32812 44.2578C5.32812 42.459 6.79009 40.9955 8.58825 40.9924L8.64703 40.9939C10.4184 41.0223 11.8594 42.4865 11.8594 44.2578C11.8594 46.0207 10.4254 47.4846 8.65717 47.5212L8.58619 47.5234C6.78906 47.5193 5.32812 46.056 5.32812 44.2578Z" fill="white"/>
<path d="M11.3175 53.336C11.3136 53.3216 11.2832 53.2087 11.278 53.1936V53.1917C11.0718 52.4509 10.3911 51.9337 9.62285 51.9337C8.67101 51.9337 7.89602 52.7123 7.90238 53.6628C7.90548 53.9412 7.96752 54.1109 8.00379 54.2506L8.00895 54.2695C8.21691 55.0068 8.89754 55.5225 9.66238 55.5225C10.7999 55.5225 11.6269 54.4317 11.3175 53.336Z" fill="white"/>
<path d="M13.1977 63.7981C13.502 63.7981 13.8027 63.7157 14.0657 63.5609C14.8821 63.0796 15.1571 62.0245 14.6776 61.2081C14.657 61.172 14.6363 61.1376 14.6157 61.1015L14.602 61.0809C14.602 61.0792 14.602 61.0792 14.602 61.0792C14.1327 60.2743 13.0874 59.9732 12.2524 60.4587C11.4431 60.929 11.1505 61.9755 11.6302 62.8082C11.6577 62.8548 11.6852 62.9028 11.7127 62.9492C12.0204 63.4734 12.5893 63.7981 13.196 63.7981H13.1977Z" fill="white"/>
<path d="M12.7437 57.3805C12.7248 57.3341 12.7042 57.2894 12.6853 57.243C12.3233 56.38 11.3274 55.9533 10.4354 56.3269C9.55954 56.6944 9.15013 57.7004 9.5176 58.5768V58.5785L9.5812 58.728C9.9564 59.6066 10.9669 60.0052 11.8379 59.6355C12.6978 59.267 13.1222 58.2638 12.7437 57.3805Z" fill="white"/>
<path d="M14.9743 24.6618C17.5724 26.4576 21.1774 26.2298 23.521 23.886C26.0274 21.3797 26.1467 17.3427 23.7925 14.6953C21.2226 11.8032 16.7659 11.6818 14.0412 14.4064C11.5267 16.9211 11.4328 20.9526 13.7586 23.5833C13.9623 24.1374 14.4269 24.5326 14.9743 24.6618ZM16.4718 16.837C17.7929 15.516 19.9614 15.5609 21.2237 16.9795C22.3697 18.2684 22.3113 20.2345 21.0901 21.4555C19.7949 22.7509 17.7279 22.709 16.4718 21.4555C15.1988 20.1821 15.1988 18.1103 16.4718 16.837Z" fill="white"/>
<path d="M10.9592 32.4965C11.6605 32.4965 12.2844 32.0771 12.5508 31.4291L12.6075 31.2916C12.9633 30.4374 12.5749 29.4189 11.676 29.0469C10.8145 28.6865 9.79925 29.088 9.42955 29.9768C9.4115 30.0584 9.05091 30.6701 9.37455 31.4429C9.5533 31.8657 10.2788 32.4965 10.9592 32.4965Z" fill="white"/>
<path d="M12.9164 28.4625C13.5351 28.4625 14.1075 28.1291 14.4134 27.5911C14.4323 27.5567 14.4512 27.5223 14.4718 27.488C14.477 27.4794 14.4804 27.4708 14.4856 27.4622C14.4856 27.4622 14.4856 27.4622 14.4856 27.4605C14.956 26.6441 14.6704 25.5874 13.8479 25.1178C13.0329 24.6484 11.9759 24.93 11.5018 25.7555C11.4877 25.7811 11.4769 25.8002 11.4211 25.8964C10.7793 27.0328 11.5919 28.4625 12.9164 28.4625Z" fill="white"/>
<path d="M9.53148 36.7469C10.3084 36.7469 10.9907 36.2227 11.1901 35.4716L11.2279 35.3289C11.4811 34.423 10.9378 33.4691 10.0196 33.22C9.07893 32.9684 8.15338 33.5361 7.9107 34.4283C7.89695 34.4816 7.8832 34.5332 7.86945 34.5847C7.57898 35.6744 8.39916 36.7469 9.53148 36.7469Z" fill="white"/>
<path d="M37.2102 10.0999C37.8967 13.1132 40.5731 15.2969 43.7418 15.2969C47.4674 15.2969 50.445 12.2983 50.445 8.59375C50.445 4.89758 47.438 1.89062 43.7418 1.89062C40.0809 1.89062 37.0978 4.84103 37.0415 8.48873C36.8196 9.03341 36.8949 9.63617 37.2102 10.0999ZM43.7418 5.32812C45.6792 5.32812 47.1921 7.01216 46.9896 8.93595C46.8174 10.6026 45.4211 11.8594 43.7418 11.8594C41.928 11.8594 40.4762 10.4022 40.4762 8.59375C40.4762 6.79302 41.9411 5.32812 43.7418 5.32812Z" fill="white"/>
<path d="M34.7371 11.703C34.7835 11.691 34.8316 11.6772 34.878 11.6652C35.6257 11.4624 36.1465 10.78 36.1465 10.0049C36.1465 9.05183 35.3686 8.28784 34.4277 8.28784C34.2503 8.28784 34.0733 8.31104 33.821 8.39097C32.9066 8.64362 32.3704 9.59237 32.623 10.505C32.8678 11.3938 33.7954 11.9625 34.7371 11.703Z" fill="white"/>
<path d="M30.7425 13.0866C30.7564 13.0806 30.6992 13.1046 30.8766 13.0299C31.7541 12.6677 32.1737 11.6695 31.8081 10.7852C31.4353 9.88096 30.4108 9.49957 29.5634 9.85363C29.5347 9.86514 29.5569 9.85569 29.4156 9.9155C28.5408 10.2816 28.1266 11.2905 28.4926 12.1636C28.8524 13.0242 29.8434 13.4596 30.7425 13.0866Z" fill="white"/>
<path d="M26.9503 14.9618C26.9932 14.9377 27.0362 14.9137 27.0774 14.8896C27.6103 14.5854 27.9437 14.0147 27.9454 13.4012C27.9506 12.4778 27.1974 11.6772 26.2249 11.6772C25.655 11.6772 25.3051 11.9522 25.2349 11.9832C24.4134 12.4558 24.1315 13.5094 24.6041 14.331C25.0674 15.1352 26.111 15.4454 26.9503 14.9618Z" fill="white"/>
<path d="M64.1136 23.5215C66.5648 25.9728 70.3701 26.0929 72.9628 24.0759C72.9637 24.0753 72.9999 24.0455 73.0121 24.035C76.1776 21.5301 76.402 16.8507 73.5932 14.0417C70.9603 11.4089 66.6651 11.4106 64.0435 14.1166C63.5286 14.3528 63.1575 14.831 63.0654 15.4045C61.5551 17.994 61.948 21.3557 64.1136 23.5215ZM71.1626 16.4724C72.4358 17.7456 72.4358 19.8176 71.1629 21.0905C69.9158 22.3376 67.8452 22.3917 66.5445 21.0908C65.2778 19.8239 65.2688 17.7466 66.5443 16.4724C67.1612 15.8555 67.981 15.5159 68.8536 15.5159C69.7259 15.5159 70.5457 15.8555 71.1626 16.4724Z" fill="white"/>
<path d="M23.885 64.4783C21.3059 61.8997 17.0939 61.8172 14.4055 64.4783C11.7919 67.0919 11.7919 71.3446 14.4055 73.9581C16.8739 76.4264 20.775 76.5653 23.4048 74.394C23.9392 74.2158 24.3579 73.7902 24.5146 73.2247C26.4656 70.6048 26.249 66.8423 23.885 64.4783ZM16.8361 71.5275C15.5766 70.268 15.5467 68.1998 16.8408 66.9056C16.842 66.9044 16.8428 66.903 16.844 66.902C18.1212 65.6328 20.1805 65.6358 21.4542 66.9092C22.7034 68.1584 22.7227 70.2095 21.5063 71.4726C21.49 71.4893 21.4618 71.5192 21.446 71.5361C20.8301 72.1474 20.0136 72.484 19.1453 72.484C18.273 72.484 17.4528 72.1442 16.8361 71.5275Z" fill="white"/>
<path d="M79.3189 37.0421C78.7873 36.8439 78.1909 36.9187 77.7202 37.2568C74.8105 38.0128 72.7031 40.6699 72.7031 43.7421C72.7031 47.4617 75.7058 50.4452 79.4062 50.4452C83.1024 50.4452 86.1094 47.4383 86.1094 43.7421C86.1094 40.0217 83.0565 36.9878 79.3189 37.0421ZM79.0475 46.9876C77.3903 46.8075 76.1406 45.4124 76.1406 43.7421C76.1406 41.9422 77.6096 40.4765 79.4062 40.4765C81.207 40.4765 82.6719 41.9414 82.6719 43.7421C82.6719 45.6647 81.0019 47.2009 79.0475 46.9876Z" fill="white"/>
<path d="M60.8452 31.0952C60.8452 30.0498 59.9184 29.246 58.8834 29.3938C54.1286 30.073 48.9313 29.9084 45.2573 26.8146C44.6736 26.3231 43.8361 26.2751 43.2005 26.6967C38.9847 29.4917 34.3763 30.3148 29.4366 29.4049C28.3811 29.2111 27.4064 30.0215 27.4064 31.0952C27.4064 44.9895 27.1193 50.0373 29.9964 54.8103C31.3251 57.0137 33.3055 59.1024 36.2036 62.0469H32.8277C31.8784 62.0469 31.1089 62.8166 31.1089 63.7657C31.1089 64.7148 31.8784 65.4844 32.8277 65.4844H55.1714C56.1205 65.4844 56.8902 64.7148 56.8902 63.7657C56.8902 62.8166 56.1205 62.0469 55.1714 62.0469H52.0423C56.9945 56.9465 59.2689 54.5645 60.2232 49.9542C61.0097 46.1542 60.8452 41.1643 60.8452 31.0952ZM56.8572 49.2574C55.989 53.4511 53.7512 55.2909 47.2586 62.0469H41.0301C37.2321 58.1834 34.4026 55.4605 32.9402 53.0355C30.7423 49.389 30.8286 45.3233 30.8425 33.076C35.4972 33.5501 39.9404 32.6426 44.0511 30.2183C47.9104 32.9181 52.6797 33.4516 57.4096 33.0258C57.4237 40.9797 57.5221 46.0447 56.8572 49.2574Z" fill="white"/>
</svg>
