<svg width="88" height="88" viewBox="0 0 88 88" fill="none" xmlns="http://www.w3.org/2000/svg">
<g clip-path="url(#clip0_982_8372)">
<path d="M44 64.625C43.6354 64.6249 43.2857 64.48 43.0279 64.2221L41.8894 63.0836C41.5072 62.6992 41.0525 62.3944 40.5516 62.1869C40.0508 61.9794 39.5137 61.8734 38.9716 61.875H37.125C36.031 61.875 34.9818 61.4404 34.2082 60.6668C33.4346 59.8932 33 58.844 33 57.75V38.5C33 38.1353 33.1449 37.7856 33.4027 37.5277C33.6606 37.2699 34.0103 37.125 34.375 37.125H38.5V39.875H35.75V57.75C35.75 58.1147 35.8949 58.4644 36.1527 58.7223C36.4106 58.9801 36.7603 59.125 37.125 59.125H38.9716C39.875 59.1227 40.7698 59.2995 41.6044 59.6453C42.4389 59.991 43.1966 60.4989 43.8336 61.1394L44 61.3057L44.1664 61.1394C44.8034 60.4989 45.5611 59.991 46.3956 59.6453C47.2302 59.2995 48.125 59.1227 49.0284 59.125H50.875C51.2397 59.125 51.5894 58.9801 51.8473 58.7223C52.1051 58.4644 52.25 58.1147 52.25 57.75V39.875H41.25V37.125H53.625C53.9897 37.125 54.3394 37.2699 54.5973 37.5277C54.8551 37.7856 55 38.1353 55 38.5V57.75C55 58.844 54.5654 59.8932 53.7918 60.6668C53.0182 61.4404 51.969 61.875 50.875 61.875H49.0284C48.4863 61.8734 47.9492 61.9794 47.4484 62.1869C46.9475 62.3944 46.4928 62.6992 46.1106 63.0836L44.9721 64.2221C44.7143 64.48 44.3646 64.6249 44 64.625Z" fill="white"/>
<path d="M48.125 16.5H39.875C39.5103 16.5 39.1606 16.3551 38.9027 16.0973C38.6449 15.8394 38.5 15.4897 38.5 15.125V14.2065C37.6505 12.8251 37.1765 11.2459 37.125 9.625C37.125 7.975 37.7946 4.125 44 4.125C50.2054 4.125 50.875 7.975 50.875 9.625C50.8235 11.2459 50.3495 12.8251 49.5 14.2065V15.125C49.5 15.4897 49.3551 15.8394 49.0973 16.0973C48.8394 16.3551 48.4897 16.5 48.125 16.5ZM41.2981 13.75H46.7198C46.7139 13.5495 46.7534 13.3503 46.8353 13.1672C46.9172 12.9841 47.0394 12.8219 47.1927 12.6926C47.7685 11.7702 48.0901 10.7119 48.125 9.625C48.125 8.87288 48.125 6.875 44 6.875C39.875 6.875 39.875 8.87288 39.875 9.625C39.9099 10.7119 40.2315 11.7702 40.8072 12.6926C40.9609 12.8227 41.0844 12.9847 41.1691 13.1673C41.2539 13.3498 41.2979 13.5487 41.2981 13.75Z" fill="white"/>
<path d="M45.375 1.375H42.625V5.5H45.375V1.375Z" fill="white"/>
<path d="M50.875 39.875V37.125C51.3922 37.1245 51.8987 36.9782 52.3365 36.7029C52.7743 36.4276 53.1255 36.0344 53.35 35.5685C52.3551 35.4479 51.4312 34.9913 50.7311 34.2742C50.031 33.5571 49.5967 32.6225 49.5 31.625C49.5 27.1453 54.4582 23.0161 57.5327 20.8862C56.8617 20.713 56.1715 20.6252 55.4785 20.625H51.4442L51.8471 21.0279C52.0191 21.2 52.1423 21.4146 52.2042 21.6499C52.2661 21.8852 52.2645 22.1327 52.1995 22.3672C52.1345 22.6016 52.0084 22.8146 51.8342 22.9844C51.6599 23.1542 51.4438 23.2748 51.2077 23.3337C49.6421 23.7175 48.24 24.5915 47.2061 25.8283C46.1721 27.0651 45.5604 28.5998 45.4602 30.2087C45.4052 31.0516 45.375 31.9797 45.375 33V38.5H42.625V33C42.625 31.9742 42.6553 30.9774 42.7144 30.0396C42.8249 28.2373 43.4075 26.4958 44.4038 24.9898C45.4001 23.4838 46.7749 22.2664 48.3904 21.4596L47.1529 20.2221C46.9606 20.0298 46.8297 19.7849 46.7767 19.5182C46.7237 19.2515 46.7509 18.9751 46.8549 18.7239C46.959 18.4726 47.1352 18.2579 47.3612 18.1068C47.5873 17.9557 47.8531 17.8751 48.125 17.875H55.4785C57.1857 17.8768 58.8693 18.2745 60.3969 19.0369L61.1132 19.3944C61.336 19.5055 61.5245 19.675 61.6584 19.8849C61.7924 20.0947 61.8669 20.337 61.874 20.5858C61.881 20.8347 61.8204 21.0808 61.6985 21.2979C61.5767 21.515 61.3981 21.6949 61.182 21.8185C58.6974 23.2375 52.25 27.775 52.25 31.625C52.25 32.186 53.3211 33 55 33C55.3647 33 55.7144 33.1449 55.9723 33.4027C56.2301 33.6606 56.375 34.0103 56.375 34.375C56.375 35.8337 55.7955 37.2326 54.7641 38.2641C53.7326 39.2955 52.3337 39.875 50.875 39.875Z" fill="white"/>
<path d="M63.25 26.125H55V23.375H61.7224C61.3938 22.1375 60.643 22.011 60.4615 22L60.5 19.25C61.9273 19.25 64.625 20.3995 64.625 24.75C64.625 25.1147 64.4801 25.4644 64.2223 25.7223C63.9644 25.9801 63.6147 26.125 63.25 26.125Z" fill="white"/>
<path d="M60.3941 19.7793L57.8559 18.7206L59.1099 15.7121C59.125 15.4604 58.7496 15.1249 58.1336 15.1249H54.6164C54.0004 15.1249 53.625 15.4604 53.625 15.6433L54.8941 18.7206L52.3559 19.7793L51.1019 16.7749C50.952 16.4165 50.8749 16.0318 50.875 15.6433C50.9427 14.7157 51.3736 13.8522 52.0741 13.2403C52.7745 12.6284 53.6881 12.3174 54.6164 12.3749H58.1336C59.0619 12.3174 59.9755 12.6284 60.6759 13.2403C61.3764 13.8522 61.8073 14.7157 61.875 15.6433C61.8744 16.0284 61.7982 16.4096 61.6509 16.7653L60.3941 19.7793Z" fill="white"/>
<path d="M57.75 9.625H55V13.75H57.75V9.625Z" fill="white"/>
<path d="M59.1261 49.5C58.9133 49.5024 58.7029 49.4553 58.5115 49.3625L56.0516 48.125H53.6261V45.375H56.3761C56.5888 45.3727 56.7992 45.4198 56.9907 45.5125L58.8552 46.4448L60.904 44.396C61.1629 44.1407 61.5124 43.9983 61.8761 44H64.0926L63.3226 41.6845C63.2538 41.4779 63.235 41.2579 63.2679 41.0427C63.3007 40.8274 63.3842 40.623 63.5115 40.4463C63.6387 40.2697 63.8062 40.1257 64 40.0264C64.1937 39.9271 64.4083 39.8752 64.6261 39.875C65.2407 39.875 65.7013 38.5 65.898 37.125H63.2511C62.9411 37.1253 62.6401 37.0208 62.3969 36.8285C62.1538 36.6362 61.9827 36.3674 61.9115 36.0657C61.8404 35.764 61.8732 35.4471 62.0048 35.1664C62.1364 34.8857 62.359 34.6577 62.6365 34.5194C63.3872 34.144 63.9166 32.7704 64.2397 31.2056L60.1037 35.3375C59.7574 35.6567 59.5292 36.0836 59.4561 36.5489C59.3829 37.0141 59.4692 37.4905 59.7008 37.9005C59.7793 38.0551 59.8923 38.1896 60.0311 38.2936C60.1698 38.3975 60.3307 38.4682 60.5011 38.5C60.8658 38.5 61.2155 38.6449 61.4734 38.9028C61.7312 39.1606 61.8761 39.5104 61.8761 39.875C61.8809 40.6257 61.6979 41.3657 61.3437 42.0275C60.9894 42.6894 60.4753 43.2522 59.848 43.6645C58.1622 44.6188 55.8962 44.2145 52.918 42.427L54.3342 40.0703C57.164 41.7684 58.2337 41.4178 58.4936 41.2706C58.6667 41.1637 58.804 41.0076 58.8882 40.8224C58.2917 40.4834 57.7856 40.0056 57.4128 39.4295C56.824 38.4915 56.5768 37.3791 56.7128 36.2799C56.8488 35.1808 57.3598 34.1622 58.1595 33.396L65.0345 26.521C65.2275 26.3302 65.4726 26.2008 65.739 26.1491C66.0054 26.0974 66.2811 26.1256 66.5315 26.2303C66.7818 26.335 66.9956 26.5114 67.1459 26.7373C67.2962 26.9633 67.3763 27.2287 67.3761 27.5C67.3983 29.85 66.9747 32.1829 66.1276 34.375H67.3761C67.7408 34.375 68.0905 34.5199 68.3484 34.7777C68.6062 35.0356 68.7511 35.3853 68.7511 35.75C68.7511 38.225 68.0952 41.0122 66.3682 42.1273L67.3046 44.9405C67.3734 45.1471 67.3922 45.3671 67.3593 45.5824C67.3265 45.7976 67.243 46.002 67.1157 46.1787C66.9884 46.3554 66.821 46.4993 66.6272 46.5987C66.4335 46.698 66.2188 46.7499 66.0011 46.75H62.4453L60.0982 49.0972C59.8404 49.355 59.4907 49.5 59.1261 49.5Z" fill="white"/>
<path d="M64.625 59.125C64.4123 59.1273 64.2019 59.0803 64.0104 58.9875C63.1084 58.5351 59.1071 56.4066 58.0223 53.625H53.625V50.875H59.125C59.4897 50.875 59.8394 51.0198 60.0973 51.2777C60.3551 51.5356 60.5 51.8853 60.5 52.25C60.5 53.2455 62.2875 54.7635 64.0241 55.836C64.4481 53.7512 64.6495 51.6273 64.625 49.5C64.6215 49.1874 64.7246 48.883 64.9173 48.6369C65.11 48.3908 65.3808 48.2177 65.685 48.1461C65.9893 48.0745 66.3089 48.1087 66.5911 48.2431C66.8733 48.3775 67.1013 48.604 67.2375 48.8854C67.7765 49.9647 70.0274 50.9974 72.2081 51.678C71.3616 50.237 70.3374 48.908 69.1598 47.7221C68.9475 47.5095 68.8107 47.2332 68.7703 46.9354C68.7299 46.6377 68.7881 46.3349 68.9361 46.0734C69.0841 45.8119 69.3137 45.6061 69.5897 45.4874C69.8657 45.3687 70.1731 45.3437 70.4646 45.4162C72.4337 45.9064 74.432 46.2711 76.4473 46.508C75.1415 45.4929 73.7418 44.6047 72.2673 43.8556C71.9903 43.7176 71.768 43.4902 71.6363 43.2102C71.5046 42.9302 71.4712 42.614 71.5415 42.3126C71.6118 42.0113 71.7817 41.7425 72.0237 41.5497C72.2656 41.3568 72.5656 41.2512 72.875 41.25C76.0489 41.2881 79.1543 40.3259 81.7507 38.5H74.25C73.9056 38.499 73.574 38.3689 73.321 38.1352C73.0679 37.9015 72.9118 37.5814 72.8834 37.2381C72.8551 36.8949 72.9566 36.5535 73.1679 36.2815C73.3792 36.0095 73.6849 35.8267 74.0245 35.7692C77.6545 35.0242 80.9018 33.0141 83.1875 30.0974L74.6886 32.9285C74.3655 33.0344 74.0146 33.0169 73.7037 32.8792C73.3927 32.7416 73.1438 32.4936 73.005 32.1832C72.8662 31.8728 72.8473 31.5219 72.9521 31.1984C73.0568 30.8749 73.2777 30.6017 73.5721 30.4315C77.0359 28.6704 79.8553 25.8606 81.6283 22.4029L76.3923 25.894C76.1225 26.077 75.7964 26.1582 75.4723 26.123C75.1482 26.0879 74.8471 25.9387 74.6227 25.7022C74.3984 25.4656 74.2654 25.1571 74.2475 24.8315C74.2296 24.506 74.328 24.1847 74.525 23.925C75.2965 22.9315 75.8638 21.7952 76.1942 20.5815C76.5245 19.3678 76.6115 18.1008 76.45 16.8534L70.1113 25.5585L67.8879 23.9415L75.8876 12.9415C76.0278 12.7517 76.2135 12.6003 76.4277 12.5013C76.6418 12.4023 76.8774 12.3589 77.1128 12.375C77.3484 12.3943 77.5751 12.474 77.7709 12.6065C77.9667 12.739 78.1251 12.9197 78.2306 13.1312C79.308 15.5619 79.5657 18.277 78.9649 20.867L83.1119 18.1019C83.3193 17.9635 83.5603 17.8841 83.8093 17.8722C84.0583 17.8603 84.3059 17.9163 84.5255 18.0343C84.7452 18.1522 84.9286 18.3276 85.0562 18.5417C85.1838 18.7559 85.2508 19.0007 85.25 19.25C84.9627 22.4905 83.5523 25.5287 81.2625 27.8396L86.196 26.1896C86.4548 26.1021 86.7338 26.0937 86.9974 26.1654C87.261 26.2371 87.4973 26.3857 87.6761 26.5922C87.8549 26.7987 87.9681 27.0538 88.0013 27.325C88.0345 27.5961 87.9862 27.871 87.8625 28.1146C86.2243 31.1445 83.911 33.757 81.1017 35.75H85.25C85.5054 35.75 85.7557 35.8211 85.9729 35.9553C86.1901 36.0896 86.3657 36.2817 86.4799 36.5101C86.5941 36.7385 86.6424 36.9941 86.6195 37.2485C86.5965 37.5028 86.5032 37.7457 86.35 37.95C83.9589 40.7893 80.6931 42.7547 77.0646 43.538C78.6585 44.5451 80.0004 45.904 80.9875 47.5104C81.0926 47.7206 81.142 47.9542 81.1311 48.1889C81.1201 48.4237 81.0492 48.6517 80.9251 48.8512C80.801 49.0508 80.6278 49.2152 80.4221 49.3287C80.2164 49.4423 79.985 49.5013 79.75 49.5C77.721 49.4527 75.6985 49.2514 73.7 48.8977C74.7761 50.2596 75.4436 51.8988 75.625 53.625C75.6251 53.8289 75.5797 54.0303 75.4924 54.2145C75.405 54.3988 75.2777 54.5613 75.1198 54.6902C74.9618 54.8192 74.7772 54.9115 74.5792 54.9603C74.3812 55.0091 74.1748 55.0133 73.975 54.9725C71.6261 54.5175 69.362 53.7006 67.2636 52.5511C67.0931 54.9202 66.6573 57.6565 65.5916 58.7221C65.3352 58.9786 64.9877 59.1235 64.625 59.125Z" fill="white"/>
<path d="M71.5 74.25C70.1403 74.25 68.811 73.8468 67.6805 73.0914C66.5499 72.3359 65.6687 71.2622 65.1483 70.006C64.628 68.7497 64.4918 67.3674 64.7571 66.0338C65.0224 64.7001 65.6772 63.4751 66.6386 62.5136C67.6001 61.5522 68.8251 60.8974 70.1588 60.6321C71.4924 60.3668 72.8747 60.503 74.131 61.0233C75.3872 61.5437 76.4609 62.4249 77.2164 63.5555C77.9718 64.686 78.375 66.0153 78.375 67.375C78.3728 69.1977 77.6478 70.9451 76.359 72.234C75.0701 73.5228 73.3227 74.2478 71.5 74.25ZM71.5 63.25C70.6842 63.25 69.8866 63.4919 69.2083 63.9452C68.5299 64.3985 68.0012 65.0427 67.689 65.7964C67.3768 66.5502 67.2951 67.3796 67.4543 68.1798C67.6134 68.9799 68.0063 69.7149 68.5832 70.2918C69.1601 70.8687 69.8951 71.2616 70.6953 71.4208C71.4954 71.5799 72.3248 71.4982 73.0786 71.186C73.8323 70.8738 74.4766 70.3451 74.9298 69.6667C75.3831 68.9884 75.625 68.1909 75.625 67.375C75.625 66.281 75.1904 65.2318 74.4168 64.4582C73.6432 63.6846 72.594 63.25 71.5 63.25Z" fill="white"/>
<path d="M72.875 56.375H70.125V61.875H72.875V56.375Z" fill="white"/>
<path d="M74.25 57.75H68.75V60.5H74.25V57.75Z" fill="white"/>
<path d="M77 66H66V68.75H77V66Z" fill="white"/>
<path d="M68.75 77C68.6164 76.9998 68.4835 76.9803 68.3554 76.9423L54.6054 72.8173C54.322 72.7324 54.0736 72.5583 53.897 72.321C53.7204 72.0837 53.625 71.7958 53.625 71.5V67.375H56.375V70.477L68.3581 74.0712L70.5279 71.9029L72.4721 73.8471L69.7221 76.5971C69.4643 76.855 69.1146 76.9999 68.75 77Z" fill="white"/>
<path d="M37.1261 39.875C35.6674 39.875 34.2685 39.2955 33.237 38.2641C32.2056 37.2326 31.6261 35.8337 31.6261 34.375C31.6261 34.0103 31.771 33.6606 32.0289 33.4027C32.2867 33.1449 32.6365 33 33.0011 33C34.68 33 35.7511 32.186 35.7511 31.625C35.7511 27.7668 29.3038 23.2375 26.8136 21.8185C26.5975 21.6949 26.419 21.515 26.2971 21.2979C26.1752 21.0808 26.1146 20.8347 26.1216 20.5858C26.1287 20.337 26.2032 20.0947 26.3372 19.8849C26.4712 19.675 26.6596 19.5055 26.8824 19.3944L27.6001 19.0369C29.1288 18.2736 30.814 17.8758 32.5226 17.875H39.8761C40.148 17.8751 40.4138 17.9557 40.6399 18.1068C40.8659 18.2579 41.0421 18.4726 41.1462 18.7239C41.2502 18.9751 41.2775 19.2515 41.2244 19.5182C41.1714 19.7849 41.0405 20.0298 40.8483 20.2221L39.6108 21.4596C41.2262 22.2667 42.6011 23.4844 43.5973 24.9906C44.5936 26.4968 45.1762 28.2385 45.2868 30.041C45.3459 30.9774 45.3761 31.9742 45.3761 33V38.5H42.6261V33C42.6261 31.9797 42.5959 31.0516 42.5409 30.2143C42.4407 28.6054 41.829 27.0706 40.7951 25.8338C39.7611 24.597 38.359 23.723 36.7934 23.3393C36.5573 23.2803 36.3412 23.1597 36.1669 22.9899C35.9927 22.8201 35.8667 22.6071 35.8017 22.3727C35.7367 22.1382 35.735 21.8907 35.7969 21.6554C35.8588 21.4201 35.982 21.2055 36.154 21.0334L36.5569 20.625H32.5226C31.8296 20.6252 31.1394 20.713 30.4684 20.8862C33.5429 23.0161 38.5011 27.1453 38.5011 31.625C38.4044 32.6225 37.9701 33.5571 37.27 34.2742C36.5699 34.9913 35.646 35.4479 34.6511 35.5685C34.8756 36.0344 35.2269 36.4276 35.6646 36.7029C36.1024 36.9782 36.609 37.1245 37.1261 37.125V39.875Z" fill="white"/>
<path d="M33 26.125H24.75C24.3853 26.125 24.0356 25.9801 23.7777 25.7223C23.5199 25.4644 23.375 25.1147 23.375 24.75C23.375 20.3995 26.0727 19.25 27.5 19.25L27.5385 22C27.357 22.0124 26.6062 22.1375 26.2776 23.375H33V26.125Z" fill="white"/>
<path d="M35.6441 19.7793L33.1059 18.7206L34.3599 15.7121C34.375 15.4604 33.9996 15.1249 33.3836 15.1249H29.8664C29.2504 15.1249 28.875 15.4604 28.875 15.6433L30.1441 18.7206L27.6059 19.7793L26.3519 16.7749C26.202 16.4165 26.1249 16.0318 26.125 15.6433C26.1927 14.7157 26.6236 13.8522 27.3241 13.2403C28.0245 12.6284 28.9381 12.3174 29.8664 12.3749H33.3836C34.3119 12.3174 35.2255 12.6284 35.9259 13.2403C36.6264 13.8522 37.0573 14.7157 37.125 15.6433C37.1244 16.0284 37.0482 16.4096 36.9009 16.7653L35.6441 19.7793Z" fill="white"/>
<path d="M33 9.625H30.25V13.75H33V9.625Z" fill="white"/>
<path d="M28.875 49.5C28.5104 49.4999 28.1607 49.355 27.9029 49.0971L25.5557 46.75H22C21.7822 46.7498 21.5676 46.6979 21.3739 46.5986C21.1801 46.4993 21.0127 46.3553 20.8854 46.1786C20.7581 46.002 20.6746 45.7976 20.6418 45.5823C20.6089 45.367 20.6277 45.147 20.6965 44.9404L21.6329 42.1272C19.9059 41.0121 19.25 38.225 19.25 35.75C19.25 35.3853 19.3949 35.0355 19.6527 34.7777C19.9106 34.5198 20.2603 34.375 20.625 34.375H21.8735C21.0264 32.1828 20.6028 29.8499 20.625 27.5C20.6251 27.228 20.7057 26.9623 20.8568 26.7362C21.0079 26.5101 21.2226 26.3339 21.4739 26.2299C21.7251 26.1258 22.0015 26.0986 22.2682 26.1516C22.5349 26.2047 22.7798 26.3356 22.9721 26.5278L29.8471 33.4028C30.647 34.1689 31.1583 35.1874 31.2945 36.2865C31.4308 37.3856 31.1838 38.4981 30.5951 39.4363C30.2212 40.0115 29.7154 40.489 29.1197 40.8292C29.2056 41.0161 29.3448 41.1735 29.5199 41.2816C29.7825 41.4273 30.855 41.7683 33.6724 40.0771L35.0886 42.4338C32.1104 44.2213 29.8457 44.6242 28.1586 43.6713C27.5293 43.259 27.0135 42.6954 26.6582 42.0322C26.3029 41.369 26.1196 40.6273 26.125 39.875C26.125 39.5103 26.2699 39.1605 26.5277 38.9027C26.7856 38.6448 27.1353 38.5 27.5 38.5C27.6706 38.4685 27.8316 38.3983 27.9708 38.2949C28.11 38.1914 28.2237 38.0574 28.303 37.9032C28.5335 37.4929 28.6188 37.0168 28.5452 36.5519C28.4716 36.0871 28.2434 35.6606 27.8974 35.3416L23.7614 31.2125C24.0845 32.7772 24.6139 34.1508 25.3646 34.5262C25.6384 34.6664 25.8572 34.8943 25.9861 35.1736C26.1151 35.4528 26.1467 35.7672 26.0759 36.0665C26.0051 36.3658 25.836 36.6327 25.5956 36.8246C25.3553 37.0165 25.0575 37.1222 24.75 37.125H22.1031C22.297 38.5151 22.7535 39.875 23.375 39.875C23.5928 39.8751 23.8074 39.927 24.0011 40.0263C24.1949 40.1256 24.3623 40.2696 24.4896 40.4463C24.6169 40.6229 24.7004 40.8273 24.7332 41.0426C24.7661 41.2579 24.7473 41.4779 24.6785 41.6845L23.9085 44H26.125C26.4896 44 26.8393 44.1449 27.0971 44.4028L29.1459 46.4516L31.0104 45.5193C31.2013 45.4242 31.4117 45.3748 31.625 45.375H34.375V48.125H31.9495L29.4896 49.3625C29.2981 49.4552 29.0878 49.5023 28.875 49.5Z" fill="white"/>
<path d="M23.3751 59.125C23.0105 59.1249 22.6608 58.98 22.403 58.7221C21.3374 57.6565 20.9015 54.9202 20.731 52.5511C18.6344 53.7001 16.3722 54.5169 14.0251 54.9725C13.8253 55.0133 13.619 55.0091 13.421 54.9603C13.223 54.9115 13.0383 54.8192 12.8804 54.6902C12.7225 54.5613 12.5952 54.3988 12.5078 54.2145C12.4204 54.0303 12.3751 53.8289 12.3751 53.625C12.5566 51.8988 13.2241 50.2596 14.3001 48.8977C12.3016 49.2514 10.2792 49.4527 8.25014 49.5C8.01574 49.5001 7.7852 49.4403 7.58042 49.3262C7.37564 49.2122 7.20342 49.0476 7.08011 48.8483C6.95681 48.6489 6.88652 48.4214 6.87591 48.1872C6.86531 47.953 6.91474 47.72 7.01952 47.5104C8.00464 45.9048 9.34418 44.546 10.9355 43.538C7.30709 42.7547 4.04124 40.7893 1.65014 37.95C1.49693 37.7457 1.40363 37.5028 1.3807 37.2485C1.35777 36.9942 1.40611 36.7385 1.52031 36.5101C1.6345 36.2817 1.81005 36.0896 2.02726 35.9553C2.24448 35.8211 2.49479 35.75 2.75014 35.75H6.89852C4.09168 33.7562 1.78082 31.1438 0.14452 28.1146C0.0232169 27.8714 -0.0232713 27.5976 0.0109281 27.328C0.0451276 27.0583 0.15848 26.8049 0.336666 26.5996C0.514851 26.3944 0.749875 26.2465 1.01205 26.1748C1.27422 26.103 1.55177 26.1106 1.80964 26.1965L6.74314 27.8465C4.44993 25.5346 3.0374 22.4936 2.75014 19.25C2.75011 19.0011 2.81765 18.7568 2.94557 18.5432C3.07348 18.3297 3.25698 18.1549 3.47647 18.0374C3.69596 17.92 3.94321 17.8643 4.19185 17.8764C4.4405 17.8885 4.68119 17.9678 4.88827 18.106L9.03527 20.8711C8.43442 18.2812 8.69213 15.566 9.76952 13.1354C9.87539 12.9251 10.0335 12.7456 10.2286 12.6139C10.4237 12.4823 10.6494 12.4029 10.8839 12.3835C11.1185 12.364 11.3542 12.4051 11.5683 12.5028C11.7825 12.6005 11.968 12.7516 12.107 12.9415L20.1081 23.9415L17.8903 25.5612L11.5501 16.8437C11.3861 18.0927 11.4717 19.3619 11.8022 20.5775C12.1327 21.7931 12.7013 22.931 13.4751 23.925C13.67 24.1846 13.7667 24.5047 13.7482 24.8287C13.7298 25.1527 13.5973 25.4597 13.3742 25.6955C13.1511 25.9312 12.8519 26.0804 12.5294 26.1168C12.2069 26.1531 11.8819 26.0742 11.612 25.894L6.36639 22.3974C8.14168 25.86 10.9669 28.6722 14.4376 30.4315C14.732 30.6017 14.953 30.8749 15.0577 31.1984C15.1624 31.5219 15.1436 31.8728 15.0048 32.1832C14.866 32.4936 14.6171 32.7416 14.3061 32.8793C13.9952 33.0169 13.6443 33.0344 13.3211 32.9285L4.81264 30.0974C7.0973 33.0133 10.3431 35.0233 13.9715 35.7692C14.3108 35.8266 14.6163 36.0091 14.8276 36.2806C15.0389 36.5522 15.1407 36.8931 15.1129 37.2361C15.0851 37.5791 14.9297 37.8992 14.6774 38.1332C14.4251 38.3672 14.0942 38.498 13.7501 38.5H6.24952C8.84581 40.3261 11.9512 41.2882 15.1251 41.25C15.4352 41.2497 15.7362 41.3542 15.9793 41.5465C16.2225 41.7388 16.3935 42.0076 16.4647 42.3093C16.5359 42.611 16.503 42.928 16.3714 43.2087C16.2398 43.4893 16.0172 43.7173 15.7398 43.8556C14.2663 44.6045 12.8675 45.4922 11.5625 46.5066C13.577 46.2711 15.5744 45.9069 17.5424 45.4162C17.834 45.3437 18.1413 45.3687 18.4173 45.4874C18.6934 45.6061 18.9229 45.8119 19.0709 46.0734C19.2189 46.3349 19.2772 46.6377 19.2368 46.9354C19.1964 47.2332 19.0596 47.5095 18.8473 47.7221C17.6705 48.9074 16.6468 50.2354 15.8003 51.6752C17.981 50.9877 20.2333 49.9606 20.7695 48.8854C20.9078 48.6079 21.1358 48.3853 21.4165 48.2537C21.6972 48.1221 22.0141 48.0893 22.3158 48.1604C22.6175 48.2316 22.8864 48.4026 23.0787 48.6458C23.271 48.889 23.3754 49.19 23.3751 49.5C23.3503 51.6273 23.5517 53.7513 23.976 55.836C25.7126 54.7621 27.5001 53.2455 27.5001 52.25C27.5001 51.8853 27.645 51.5356 27.9029 51.2777C28.1607 51.0199 28.5105 50.875 28.8751 50.875H34.3751V53.625H29.9751C28.8903 56.3997 24.8876 58.5282 23.987 58.9875C23.7964 59.0798 23.587 59.1269 23.3751 59.125Z" fill="white"/>
<path d="M44.0003 71.5C43.6356 71.4999 43.2859 71.355 43.0281 71.0971C40.5492 68.5205 38.4085 65.6387 36.6578 62.5213C36.9515 63.9923 37.5106 65.3975 38.3078 66.6683C38.4654 66.9311 38.5307 67.239 38.4933 67.5432C38.456 67.8473 38.3181 68.1303 38.1015 68.3471C37.6498 68.8982 37.0704 69.3305 36.4135 69.6066C35.7567 69.8826 35.0423 69.994 34.3326 69.9311C33.6979 69.8238 33.1083 69.5337 32.6359 69.0965L30.869 69.9806C30.6108 70.1095 30.3187 70.1538 30.0339 70.1074C29.7491 70.061 29.4862 69.9262 29.2823 69.7221L28.2868 68.7266C26.699 68.5906 25.1795 68.0197 23.895 67.0766C23.69 66.9138 23.5357 66.6959 23.4503 66.4485C23.3648 66.201 23.3518 65.9343 23.4128 65.6797C23.4737 65.4251 23.6061 65.1932 23.7943 65.0112C23.9825 64.8293 24.2187 64.7048 24.4753 64.6525C25.1817 63.7287 25.7385 62.6995 26.1253 61.6027C26.337 57.4846 31.3681 56.3777 34.3753 56.3777V59.1277C34.3203 59.1277 28.8753 59.2185 28.8753 61.8777C28.8754 62.043 28.8461 62.2069 28.7886 62.3618C28.3745 63.5384 27.8205 64.6611 27.1386 65.7057C27.6976 65.8979 28.2842 65.9973 28.8753 66C29.2399 66.0001 29.5896 66.145 29.8474 66.4029L30.5211 67.0766L32.3856 66.1444C32.5472 66.0636 32.7232 66.0154 32.9034 66.0027C33.0836 65.9899 33.2645 66.0128 33.4359 66.07C33.6073 66.1272 33.7657 66.2176 33.9021 66.3361C34.0385 66.4545 34.1502 66.5987 34.2309 66.7604C34.2694 66.8305 34.5059 67.1729 34.7809 67.2183C34.9922 67.2267 35.2002 67.1632 35.3708 67.0381C34.4853 65.3235 33.2973 62.3975 34.3326 60.5687C34.618 60.0924 35.0304 59.7049 35.5237 59.4499C36.017 59.1949 36.5716 59.0824 37.1253 59.125C37.3808 59.1249 37.6313 59.196 37.8486 59.3303C38.066 59.4646 38.2417 59.6568 38.3559 59.8854C39.909 62.8436 41.8034 65.6097 44.0003 68.1271C46.1947 65.6094 48.0868 62.8433 49.6378 59.8854C49.7525 59.6558 49.9292 59.4628 50.1479 59.3285C50.3666 59.1941 50.6186 59.1236 50.8753 59.125C51.4298 59.0813 51.9856 59.1933 52.4799 59.4484C52.9743 59.7035 53.3876 60.0915 53.6734 60.5687C54.7088 62.3961 53.5221 65.3208 52.6353 67.0312C52.8081 67.157 53.0184 67.2205 53.232 67.2114C53.4974 67.1688 53.7463 66.7989 53.7696 66.7549C53.8503 66.5932 53.962 66.449 54.0984 66.3306C54.2348 66.2121 54.3932 66.1217 54.5646 66.0645C54.736 66.0073 54.9169 65.9844 55.0971 65.9972C55.2774 66.0099 55.4533 66.0581 55.6149 66.1389L57.4794 67.0711L58.1531 66.3974C58.4118 66.1415 58.7614 65.9986 59.1253 66C59.7151 65.9959 60.3002 65.8955 60.8577 65.703C60.1759 64.6584 59.6219 63.5357 59.2078 62.359C59.1517 62.2039 59.1238 62.04 59.1253 61.875C59.1253 59.2432 53.6803 59.125 53.6253 59.125V56.375C56.6241 56.375 61.6552 57.4846 61.8684 61.6C62.2563 62.6967 62.813 63.7261 63.5184 64.6511C63.7749 64.7027 64.0114 64.8263 64.2 65.0076C64.3887 65.1889 64.5218 65.4202 64.5836 65.6744C64.6454 65.9287 64.6333 66.1953 64.5489 66.4429C64.4645 66.6906 64.3111 66.909 64.1069 67.0725C62.8224 68.0156 61.3028 68.5864 59.7151 68.7225L58.7196 69.718C58.5157 69.9221 58.2527 70.0569 57.968 70.1033C57.6832 70.1497 57.391 70.1053 57.1329 69.9765L55.366 69.0924C54.8934 69.5293 54.3038 69.8193 53.6693 69.927C52.9595 69.9902 52.2451 69.8788 51.5882 69.6028C50.9313 69.3267 50.3519 68.8942 49.9004 68.343C49.6838 68.1262 49.5459 67.8432 49.5086 67.539C49.4712 67.2349 49.5365 66.9269 49.6941 66.6641C50.4859 65.4001 51.0404 64.0022 51.3304 62.5391C49.5812 65.6497 47.4438 68.5254 44.9696 71.0971C44.7125 71.3543 44.3639 71.4992 44.0003 71.5Z" fill="white"/>
<path d="M62.3126 68.8231L61.4434 71.4307L69.6887 74.1791L70.5579 71.5716L62.3126 68.8231Z" fill="white"/>
<path d="M19.6447 76.9423L18.8555 74.3078L31.6251 70.477V67.375H34.3751V71.5C34.3751 71.7958 34.2797 72.0837 34.1031 72.321C33.9265 72.5583 33.6781 72.7324 33.3947 72.8173L19.6447 76.9423Z" fill="white"/>
<path d="M25.6911 68.819L17.4414 71.5718L18.3114 74.1791L26.5611 71.4263L25.6911 68.819Z" fill="white"/>
<path d="M13.5873 62.5992L11.166 63.903L20.7912 81.7781L23.2125 80.4743L13.5873 62.5992Z" fill="white"/>
<path d="M12.3745 64.6251H8.24947C8.02315 64.6251 7.80033 64.5693 7.60077 64.4625C7.4012 64.3558 7.23107 64.2014 7.10547 64.0132L4.35547 59.8882L6.64347 58.3619L8.98509 61.8751H11.5247L12.2645 60.3942L11.071 56.8096L13.6835 55.9406L15.0585 60.0656C15.1742 60.4111 15.1479 60.7884 14.9856 61.1147L13.6106 63.8647C13.496 64.0941 13.3195 64.2869 13.101 64.4212C12.8826 64.5556 12.6309 64.6262 12.3745 64.6251Z" fill="white"/>
<path d="M44 88C43.7737 88 43.5509 87.9442 43.3513 87.8374C43.1517 87.7307 42.9816 87.5763 42.856 87.3881L40.106 83.2631C39.9558 83.0369 39.8754 82.7715 39.875 82.5C39.875 79.6963 41.2046 69.025 41.261 68.5795L43.989 68.9205C43.9753 69.025 42.7446 78.9126 42.6333 82.0957L44 84.15L45.3667 82.0998C45.2554 78.9153 44.0247 69.0291 44.011 68.9246L46.739 68.5836C46.7954 69.0318 48.125 79.6963 48.125 82.5C48.1246 82.7715 48.0442 83.0369 47.894 83.2631L45.144 87.3881C45.0184 87.5763 44.8483 87.7307 44.6487 87.8374C44.4491 87.9442 44.2263 88 44 88Z" fill="white"/>
<path d="M49.5004 86.625C49.2713 86.625 49.0458 86.5678 48.8445 86.4586C48.6431 86.3493 48.4722 86.1915 48.3474 85.9994C48.2225 85.8073 48.1476 85.5871 48.1295 85.3588C48.1114 85.1304 48.1506 84.9011 48.2436 84.6918C48.7062 83.6845 49.0856 82.641 49.378 81.5719L48.5282 80.7221C48.3746 80.5681 48.2596 80.3799 48.1929 80.1729C48.1261 79.9658 48.1094 79.7459 48.1442 79.5311C48.1789 79.3164 48.2642 79.1129 48.3928 78.9375C48.5215 78.7621 48.69 78.6198 48.8844 78.5221C48.8844 78.5084 48.8844 78.4919 48.8844 78.4754C47.6338 76.7645 46.1532 75.2344 44.4844 73.9282L46.2581 71.8245C49.8262 74.8358 51.6358 77.0399 51.6358 78.3764C51.6436 78.8324 51.5638 79.2856 51.4006 79.7115L51.8434 80.1542C51.9891 80.3 52.1003 80.4766 52.1686 80.671C52.2369 80.8655 52.2606 81.0728 52.238 81.2776C52.1161 82.0612 51.9157 82.8304 51.6399 83.5739C52.5422 83.3939 53.3601 82.922 53.9675 82.2309C54.5749 81.5398 54.9378 80.6679 55.0004 79.75C55.0004 77.9625 48.4609 71.5 45.3754 71.5V68.75C49.5389 68.75 57.7504 76.0499 57.7504 79.75C57.7504 83.6701 54.2042 86.625 49.5004 86.625Z" fill="white"/>
<path d="M38.5 86.625C33.7961 86.625 30.25 83.6701 30.25 79.75C30.25 76.0499 38.4615 68.75 42.625 68.75V71.5C39.5395 71.5 33 77.9625 33 79.75C33.0626 80.6671 33.4251 81.5382 34.0317 82.2289C34.6382 82.9197 35.4551 83.3918 36.3564 83.5725C36.0805 82.8291 35.8801 82.0598 35.7582 81.2763C35.7356 81.0714 35.7594 80.8641 35.8277 80.6696C35.896 80.4752 36.0071 80.2986 36.1529 80.1529L36.5956 79.7101C36.4324 79.2843 36.3526 78.831 36.3605 78.375C36.3605 77.0385 38.17 74.8344 41.7381 71.8231L43.5119 73.9269C41.8431 75.233 40.3625 76.7632 39.1119 78.474C39.1119 78.4905 39.1119 78.507 39.1119 78.5207C39.3063 78.6184 39.4747 78.7608 39.6034 78.9362C39.7321 79.1116 39.8173 79.315 39.8521 79.5298C39.8868 79.7445 39.8701 79.9644 39.8034 80.1715C39.7366 80.3785 39.6217 80.5668 39.468 80.7208L38.6182 81.5705C38.9104 82.6397 39.2898 83.6832 39.7526 84.6904C39.8458 84.8995 39.8853 85.1285 39.8675 85.3568C39.8497 85.585 39.7753 85.8052 39.6508 85.9973C39.5264 86.1895 39.356 86.3475 39.155 86.4571C38.9541 86.5667 38.7289 86.6244 38.5 86.625Z" fill="white"/>
</g>
<defs>
<clipPath id="clip0_982_8372">
<rect width="88" height="88" fill="white"/>
</clipPath>
</defs>
</svg>
