<svg width="60" height="60" viewBox="0 0 60 60" fill="none" xmlns="http://www.w3.org/2000/svg">
<path d="M33.0908 26.6818V23.1456C33.108 23.0597 33.1313 23.0054 33.1615 22.9719C33.3103 23.1154 33.4787 23.239 33.6623 23.3391C33.9879 23.5128 34.3552 23.6048 34.7231 23.6048C35.9725 23.6048 36.9881 22.5735 36.9881 21.3058C36.9881 20.0366 35.972 19.0038 34.7231 19.0038C34.1585 19.0038 33.6191 19.2191 33.2067 19.5957C33.1416 19.5584 33.1099 19.5193 33.0918 19.4806V15.9604H29.6078C29.5232 15.9429 29.4697 15.9193 29.4367 15.8886C29.5781 15.7376 29.6999 15.5667 29.7985 15.3803C29.9696 15.0499 30.0603 14.677 30.0603 14.3037C30.0603 13.0354 29.0442 12.0046 27.7952 12.0046C26.5448 12.0046 25.5273 13.0359 25.5273 14.3037C25.5273 14.8767 25.7393 15.4242 26.1104 15.8428C26.0737 15.9089 26.0351 15.941 25.997 15.9594L23.9397 15.9599V15.7239C23.9397 15.0617 23.4077 14.5227 22.7544 14.5227H13.0406V14.526C12.4565 14.5448 11.9278 14.7907 11.54 15.1816L11.5358 15.1858V15.1863L5.35938 21.4373C5.35334 21.4435 5.34729 21.4496 5.34125 21.4558L5.31614 21.4812L5.31753 21.4827C4.92878 21.8942 4.68836 22.4507 4.68836 23.0648V32.5855L0 37.3441V56.7774L14.4187 42.3308L14.416 42.328C15.7571 41.0598 16.5988 39.2535 16.5988 37.2503C16.5988 36.9775 16.5816 36.7089 16.5513 36.4446L24.0465 29.6847C24.8985 28.9154 25.0994 27.6759 24.5767 26.6823H33.0908L33.0908 26.6818ZM9.75917 30.3072C9.56665 30.3072 9.37599 30.3176 9.18719 30.3337V24.0693L14.0569 19.1266H20.9815C21.5502 19.1266 22.0803 18.96 22.5314 18.6768V25.3758C22.4975 25.3744 22.464 25.3696 22.4301 25.3696C22.0055 25.3696 21.5842 25.4853 21.2108 25.7038L12.4415 30.8646C11.6179 30.5059 10.7116 30.3072 9.75926 30.3072L9.75917 30.3072ZM12.2959 18.892L9.03145 22.2054C8.80731 21.648 8.37345 21.1986 7.82885 20.9617L11.0626 17.6804C11.2979 18.2331 11.7434 18.6707 12.2958 18.892H12.2959ZM7.79076 23.0663C7.79076 23.5407 7.41084 23.9263 6.94349 23.9263C6.47614 23.9263 6.09622 23.5407 6.09622 23.0663C6.09622 22.592 6.47614 22.2063 6.94349 22.2063C7.41084 22.2063 7.79076 22.5924 7.79076 23.0663ZM6.94349 25.3559C7.23878 25.3559 7.52012 25.2965 7.77866 25.1917V30.6055C7.17878 30.7901 6.61426 31.0568 6.0962 31.3919V25.187C6.358 25.295 6.64353 25.3559 6.94347 25.3559L6.94349 25.3559ZM23.9408 17.391H26.1845L26.2645 17.3721C26.7937 17.2456 27.2085 16.8841 27.4289 16.3592C27.5796 16.0095 27.5996 15.6942 27.6014 15.6347L27.6182 15.2434L27.3029 15.0188C27.0727 14.855 26.9355 14.5883 26.9355 14.3051C26.9355 13.8256 27.321 13.4357 27.7949 13.4357C28.2674 13.4357 28.6515 13.826 28.6515 14.3051C28.6515 14.45 28.618 14.5878 28.5547 14.7096C28.4901 14.8319 28.3966 14.9385 28.286 15.0174L28.0125 15.2109L27.9865 15.5479C27.9116 16.5197 28.465 17.2225 29.4304 17.3816L31.6815 17.3911V19.6708L31.7001 19.752C31.8248 20.2891 32.181 20.7101 32.6981 20.9338C33.0426 21.0868 33.3533 21.1071 33.4119 21.1089L33.7974 21.1259L34.0187 20.8059C34.1801 20.5723 34.4428 20.4331 34.7218 20.4331C35.1943 20.4331 35.5784 20.8243 35.5784 21.3053C35.5784 21.7849 35.1938 22.1747 34.7218 22.1747C34.5791 22.1747 34.4433 22.1407 34.3233 22.0765C34.2029 22.0109 34.0978 21.9161 34.0201 21.8037L33.8294 21.5262L33.4974 21.4998C32.5437 21.4266 31.8476 21.985 31.6908 22.9653L31.6815 25.2502L23.9408 25.2512L23.9408 17.391ZM22.5313 16.1237C22.5313 16.9903 21.8361 17.6965 20.9818 17.6965H15.1513C15.2717 17.4185 15.3406 17.1112 15.3406 16.7879C15.3406 16.4934 15.2834 16.2125 15.182 15.9548H22.5311L22.5313 16.1237ZM13.1118 15.9548C13.5643 15.9548 13.9326 16.3281 13.9326 16.7878C13.9326 17.2471 13.5647 17.6209 13.1118 17.6209C12.6593 17.6209 12.2906 17.2476 12.2906 16.7878C12.2901 16.3281 12.6589 15.9548 13.1118 15.9548ZM1.40908 53.358V37.9375L2.98036 36.3427C2.94176 36.6405 2.91991 36.9431 2.91991 37.2508C2.91991 41.0787 5.9877 44.1934 9.75988 44.1934C10.0491 44.1934 10.3333 44.1731 10.6132 44.1372L1.40908 53.358ZM9.7595 42.7626C6.7648 42.7626 4.32807 40.2893 4.32807 37.2496C4.32807 34.21 6.7648 31.7367 9.7595 31.7367C12.7542 31.7367 15.1909 34.21 15.1909 37.2496C15.1909 40.2893 12.7542 42.7626 9.7595 42.7626ZM23.1104 28.6157L16.1831 34.864C15.7218 33.5891 14.9024 32.4889 13.8495 31.6884L21.9168 26.9401C22.3688 26.6753 22.9649 26.8122 23.2616 27.2304C23.5699 27.6641 23.5044 28.2598 23.1105 28.6157L23.1104 28.6157ZM9.7595 34.0139C8.00168 34.0139 6.57183 35.4653 6.57183 37.2494C6.57183 39.0335 8.0018 40.4849 9.7595 40.4849C11.5173 40.4849 12.9472 39.0335 12.9472 37.2494C12.9481 35.4652 11.5177 34.0139 9.7595 34.0139ZM9.7595 39.0558C8.77831 39.0558 7.97942 38.2459 7.97942 37.249C7.97942 36.2522 8.77739 35.4423 9.7595 35.4423C10.7416 35.4423 11.5396 36.2522 11.5396 37.249C11.5396 38.2459 10.7412 39.0558 9.7595 39.0558ZM59.7644 29.4956L55.7806 19.2972V11.5305H58.1127V3.42871H41.6797V11.5296H44.0425V18.3055L42.5725 20.2332C41.8759 21.1465 41.4918 22.2863 41.4918 23.4413V29.4616L39.9805 32.3531H30.8977V35.8988L30.9005 35.9592C31.0033 37.1906 32.0947 37.5607 32.6574 37.5852L33.0406 37.6012L33.2619 37.2841C33.4266 37.0481 33.6833 36.9121 33.966 36.9121C34.4398 36.9121 34.8253 37.302 34.8253 37.7815C34.8253 38.2625 34.4398 38.6538 33.966 38.6538C33.8242 38.6538 33.6898 38.6198 33.5619 38.5504C33.4452 38.4881 33.3419 38.3947 33.262 38.28L33.0718 38.0067L32.743 37.9798C32.0738 37.9255 31.6623 38.1856 31.4303 38.4136C30.9034 38.9313 30.8936 39.6964 30.8978 39.8598V43.0745H34.3818C34.4664 43.0919 34.5199 43.1155 34.5529 43.1462C34.4116 43.2973 34.2897 43.4677 34.1911 43.6536C34.02 43.984 33.9293 44.3559 33.9293 44.7302C33.9293 45.9985 34.9454 47.0293 36.1944 47.0293C37.4449 47.0293 38.4623 45.998 38.4623 44.7302C38.4623 44.1572 38.2503 43.6097 37.8792 43.1911C37.9164 43.1236 37.9573 43.091 37.9927 43.074H41.458V41.8633C41.484 41.8638 41.5086 41.8685 41.5347 41.8685H47.36L45.2572 44.8818C44.5271 45.9277 44.7001 47.3645 45.6511 48.1522C46.071 48.5001 46.5983 48.6917 47.1364 48.6917C47.8977 48.6917 48.6142 48.3155 49.0536 47.6863L51.667 43.9416L50.9649 46.5224C50.631 47.7491 51.2695 49.0376 52.418 49.4558C52.6752 49.5492 52.9426 49.5965 53.2128 49.5965C54.2642 49.5965 55.1946 48.8771 55.4746 47.8472L59.8807 31.6522C60.0714 30.9442 60.0309 30.1782 59.764 29.4956L59.7644 29.4956ZM43.0886 10.0998V4.85778H56.705V10.0998H43.0886ZM40.0488 41.6427H37.805L37.725 41.6616C37.1949 41.789 36.781 42.1501 36.5611 42.674C36.4104 43.0247 36.3904 43.3391 36.3876 43.3995L36.3709 43.7908L36.6862 44.0154C36.9163 44.1792 37.0535 44.4459 37.0535 44.7291C37.0535 45.2086 36.668 45.5985 36.1942 45.5985C35.7217 45.5985 35.3376 45.2081 35.3376 44.7291C35.3376 44.5837 35.3711 44.4464 35.4343 44.3246C35.499 44.2023 35.5924 44.0957 35.7031 44.0168L35.9765 43.8233L36.0026 43.4863C36.0774 42.5145 35.5241 41.8117 34.5587 41.6526L32.3075 41.6431L32.3071 39.8462L32.3066 39.8208C32.3038 39.7098 32.3401 39.5201 32.4038 39.4465C32.554 39.5918 32.7219 39.716 32.9009 39.8113C33.2264 39.9888 33.5942 40.0827 33.9667 40.0827C35.2172 40.0827 36.2347 39.05 36.2347 37.7808C36.2347 36.5135 35.2172 35.4817 33.9667 35.4817C33.4013 35.4817 32.8609 35.6974 32.4475 36.076C32.38 36.0321 32.3219 35.965 32.3075 35.8607V33.7826H39.2353L38.3667 35.445C37.8133 36.5046 38.0732 37.7875 38.9851 38.4969C39.0726 38.5653 39.1646 38.6267 39.259 38.6814C39.5822 38.8216 39.8385 38.8981 40.0491 38.9359L40.0496 41.6427L40.0488 41.6427ZM58.5222 31.2701L54.1161 47.4651C54.004 47.8771 53.632 48.1646 53.2121 48.1646C53.1042 48.1646 52.9968 48.1447 52.8921 48.107C52.4336 47.9399 52.183 47.4098 52.3216 46.9006L54.065 40.4913L56.3017 37.2856L55.1606 36.4652L55.1634 36.4544L55.1573 36.4624L55.1522 36.4581L47.9039 46.8581C47.7281 47.1096 47.4412 47.2607 47.1366 47.2607C46.9194 47.2607 46.7134 47.1856 46.5418 47.0435C46.1684 46.7344 46.108 46.135 46.4065 45.7073L53.6297 35.3356L52.4802 34.5096L48.7 39.9277C48.4773 40.2472 48.1141 40.4379 47.7281 40.4379H41.5341C41.5081 40.4379 41.4834 40.4327 41.4574 40.4304V38.5315H47.0864L49.8612 31.0249L45.7207 28.4907L41.2453 37.0536C40.858 37.7385 40.0958 37.5525 39.8414 37.3609C39.4797 37.089 39.3848 36.5467 39.6108 36.1139L42.9022 29.8161V23.4399C42.9022 22.6002 43.1807 21.7713 43.6876 21.1067L45.4523 18.7926V11.5296H54.3728V19.57L58.4562 30.0224C58.6101 30.417 58.6338 30.8606 58.5222 31.2698L58.5222 31.2701ZM42.8142 37.1026L46.2674 30.4951L48.1312 31.6359L46.1107 37.1025L42.8142 37.1026Z" fill="#D9D9DE"/>
</svg>
