<svg width="61" height="60" viewBox="0 0 61 60" fill="none" xmlns="http://www.w3.org/2000/svg">
<path d="M16.0311 34.6135H12.2768C9.81951 34.6135 7.81981 32.5906 7.81981 30.1038C7.81981 27.6175 9.81903 25.5942 12.2768 25.5942H16.0311C16.4199 25.5942 16.7343 25.9127 16.7343 26.3056C16.7343 26.699 16.4194 27.0171 16.0311 27.0171H12.2768C10.5948 27.0171 9.22616 28.4018 9.22616 30.1037C9.22616 31.8057 10.5948 33.1904 12.2768 33.1904H16.0311C16.4199 33.1904 16.7343 33.509 16.7343 33.9019C16.7343 34.2962 16.419 34.6133 16.0311 34.6133V34.6135ZM22.6046 17.9977H17.9123C16.2302 17.9977 14.8616 16.613 14.8616 14.911V14.8517C14.8616 13.1498 16.2302 11.7651 17.9123 11.7651H23.4798C23.8686 11.7651 24.183 11.4465 24.183 11.0536C24.183 10.6603 23.8681 10.3422 23.4798 10.3422H17.9123C15.4549 10.3422 13.4549 12.365 13.4549 14.8518V14.9111C13.4549 17.3974 15.4541 19.4207 17.9123 19.4207H22.6046C24.2866 19.4207 25.6552 20.8055 25.6552 22.5074C25.6552 24.2094 24.2866 25.5941 22.6046 25.5941H19.7892C19.4004 25.5941 19.0861 25.9127 19.0861 26.3056C19.0861 26.6989 19.4009 27.017 19.7892 27.017H22.6046C25.0619 27.017 27.062 24.9942 27.062 22.5074C27.062 20.021 25.0627 17.9977 22.6046 17.9977ZM22.6046 33.1909H19.7892C19.4004 33.1909 19.0861 33.5094 19.0861 33.9023C19.0861 34.2957 19.4009 34.6138 19.7892 34.6138H22.6046C24.2866 34.6138 25.6552 35.9985 25.6552 37.7004C25.6552 39.4024 24.2866 40.7871 22.6046 40.7871H17.9123C15.4549 40.7871 13.4549 42.81 13.4549 45.2968V45.3561C13.4549 47.8424 15.4541 49.8657 17.9123 49.8657H23.4798C23.8686 49.8657 24.183 49.5472 24.183 49.1543C24.183 48.7618 23.8681 48.4428 23.4798 48.4428H17.9123C16.2302 48.4428 14.8616 47.0581 14.8616 45.3561V45.2968C14.8616 43.5949 16.2302 42.2102 17.9123 42.2102H22.6046C25.0619 42.2102 27.062 40.1873 27.062 37.7005C27.062 35.2142 25.0627 33.1909 22.6046 33.1909ZM58.4926 36.2521C58.7437 37.14 58.8711 38.0553 58.8711 38.9799C58.8711 42.2604 57.2946 45.285 54.635 47.1413C54.1695 51.7332 50.6836 55.3525 46.1643 55.943C44.7984 58.4383 42.2402 59.9726 39.3979 59.9726C35.8589 59.9726 32.7803 57.5564 31.9028 54.0933C31.7372 53.5545 31.66 52.5594 31.66 52.0475C31.6665 7.77496 31.6665 7.77135 31.6679 7.74364C31.8312 3.53852 35.227 0.236328 39.3975 0.236328C42.2371 0.236328 44.7929 1.76841 46.161 4.26077C50.4403 4.80423 53.9152 8.19066 54.6071 12.5017C57.283 14.3565 58.871 17.39 58.871 20.6819C58.871 21.4996 58.7711 22.3127 58.5739 23.1056C60.1406 24.9143 60.9986 27.2166 60.9986 29.6314C60.9986 32.0946 60.1118 34.4284 58.4924 36.2518L58.4926 36.2521ZM57.4644 38.9799C57.4644 38.0656 57.3188 37.1612 57.0328 36.2926C56.9496 36.0395 57.0128 35.7609 57.1974 35.5704C58.7414 33.9729 59.5919 31.8644 59.5919 29.6322C59.5919 27.448 58.772 25.3716 57.2829 23.7859C57.1094 23.6019 57.0471 23.3379 57.1183 23.0947C57.3475 22.3103 57.4638 21.4986 57.4638 20.6831C57.4638 17.7692 56.011 15.0908 53.577 13.5202C53.4012 13.4068 53.2845 13.22 53.2575 13.0111C52.7604 9.07457 49.5613 5.9733 45.6512 5.63879C45.4052 5.61809 45.1885 5.46798 45.0797 5.24402C44.005 3.03437 41.8267 1.66093 39.3955 1.66093C35.9871 1.66093 33.2113 4.35566 33.0713 7.79805C33.0713 7.99567 33.0709 10.49 33.0699 14.2025H42.861C43.1604 13.2407 44.0505 12.5405 45.0983 12.5405C46.3915 12.5405 47.4435 13.6049 47.4435 14.9134C47.4435 16.2219 46.3916 17.2863 45.0983 17.2863C44.0501 17.2863 43.1605 16.5866 42.861 15.6248L33.0709 15.6239C33.0704 19.5152 33.0695 24.4365 33.069 29.3932H34.3944L40.0252 23.696H49.2395C49.573 22.7964 50.4296 22.1527 51.4341 22.1527C52.7274 22.1527 53.7793 23.2171 53.7793 24.5256C53.7793 25.8341 52.7274 26.8985 51.4341 26.8985C50.3436 26.8985 49.4266 26.1404 49.1661 25.1185L40.6078 25.119L36.3829 29.3937H45.0165C45.3504 28.494 46.2066 27.8508 47.2111 27.8508C48.5044 27.8508 49.5563 28.9151 49.5563 30.2236C49.5563 31.5322 48.5044 32.5965 47.2111 32.5965C46.1206 32.5965 45.2036 31.8385 44.9431 30.8165H39.7155L43.9404 35.0913H49.2406C49.5745 34.1916 50.4306 33.5484 51.4352 33.5484C52.7284 33.5484 53.7804 34.6127 53.7804 35.9212C53.7804 37.2298 52.7285 38.2941 51.4352 38.2941C50.3447 38.2941 49.4276 37.5361 49.1671 36.5141H43.3587L37.728 30.8169H33.0696C33.0692 35.8074 33.0682 40.7357 33.0678 44.5862H42.6287C42.9281 43.6245 43.8182 42.9248 44.866 42.9248C46.1592 42.9248 47.2112 43.9891 47.2112 45.2977C47.2112 46.6062 46.1592 47.6705 44.866 47.6705C43.8178 47.6705 42.9282 46.9708 42.6287 46.0086L33.0664 46.0091C33.066 49.5884 33.066 51.9472 33.066 52.0479C33.066 52.5396 33.1455 53.3593 33.2478 53.6797C33.2525 53.6948 33.2566 53.7089 33.2604 53.7244C33.9724 56.5665 36.4967 58.5506 39.3981 58.5506C41.8316 58.5506 44.0094 57.1767 45.0837 54.9646C45.1916 54.7421 45.4069 54.5925 45.6515 54.5699C49.7825 54.1934 52.9825 50.8809 53.262 46.6923C53.2773 46.4669 53.3969 46.2627 53.5847 46.1413C56.0141 44.5664 57.4646 41.8895 57.4646 38.9788L57.4644 38.9799ZM44.8652 46.2468C45.3832 46.2468 45.8045 45.8205 45.8045 45.2963C45.8045 44.7721 45.3832 44.3458 44.8652 44.3458C44.3471 44.3458 43.9258 44.7721 43.9258 45.2963C43.9258 45.8205 44.3471 46.2468 44.8652 46.2468ZM51.4344 36.8704C51.9525 36.8704 52.3738 36.4441 52.3738 35.92C52.3738 35.3958 51.9525 34.9695 51.4344 34.9695C50.9164 34.9695 50.495 35.3958 50.495 35.92C50.495 36.4441 50.9168 36.8704 51.4344 36.8704ZM47.2113 31.1732C47.7294 31.1732 48.1507 30.7469 48.1507 30.2228C48.1507 29.6986 47.7294 29.2723 47.2113 29.2723C46.6932 29.2723 46.2719 29.6986 46.2719 30.2228C46.2719 30.7469 46.6933 31.1732 47.2113 31.1732ZM51.4344 25.476C51.9525 25.476 52.3738 25.0497 52.3738 24.5255C52.3738 24.0014 51.9525 23.5751 51.4344 23.5751C50.9164 23.5751 50.495 24.0014 50.495 24.5255C50.495 25.0497 50.9168 25.476 51.4344 25.476ZM45.0996 15.8617C45.6176 15.8617 46.039 15.4354 46.039 14.9112C46.039 14.387 45.6176 13.9607 45.0996 13.9607C44.5815 13.9607 44.1602 14.387 44.1602 14.9112C44.1602 15.4354 44.582 15.8617 45.0996 15.8617ZM30.2693 7.80002C30.2698 7.81555 30.274 7.89177 30.2768 52.0014C30.2768 52.512 30.2001 53.5047 30.035 54.0435C29.1588 57.5 26.0863 59.9116 22.5543 59.9116C19.718 59.9116 17.1653 58.3809 15.8013 55.8904C11.2903 55.3008 7.81238 51.6895 7.34772 47.1069C4.69371 45.254 3.12045 42.2356 3.12045 38.9616C3.12045 38.0393 3.24694 37.1261 3.4976 36.2395C1.88065 34.4204 0.996094 32.0912 0.996094 29.6332C0.996094 27.2231 1.85224 24.926 3.41569 23.1196C3.21898 22.3291 3.11899 21.517 3.11899 20.7021C3.11899 17.4164 4.70297 14.389 7.37365 12.5379C8.06424 8.23535 11.5326 4.85607 15.8031 4.31401C17.168 1.82683 19.7193 0.298483 22.5532 0.298483C26.7163 0.298483 30.1055 3.59356 30.2691 7.80062L30.2693 7.80002ZM28.8705 52.0014C28.8705 51.5657 28.8677 8.58419 28.864 7.84579C28.7194 4.40568 25.9519 1.72131 22.5538 1.72131C20.1276 1.72131 17.955 3.09054 16.883 5.29597C16.7742 5.51995 16.557 5.66958 16.3115 5.69074C12.4106 6.02482 9.21911 9.11809 8.72243 13.0465C8.69639 13.2554 8.5792 13.4427 8.40294 13.5556C5.97489 15.124 4.52544 17.7951 4.52544 20.7026C4.52544 21.5166 4.64124 22.3263 4.87004 23.1089C4.94119 23.3526 4.87887 23.6161 4.70541 23.8001C3.22001 25.383 2.40201 27.4543 2.40201 29.6333C2.40201 31.8599 3.25071 33.9641 4.79137 35.5579C4.97553 35.7489 5.03877 36.0274 4.95599 36.2801C4.67046 37.1478 4.52536 38.0494 4.52536 38.9617C4.52536 41.8663 5.97255 44.5361 8.39727 46.1054C8.58514 46.2268 8.70466 46.4319 8.72 46.6564C8.99856 50.8351 12.192 54.1397 16.3127 54.5157C16.5574 54.5378 16.7722 54.6879 16.8806 54.9104C17.952 57.1177 20.1261 58.4883 22.5536 58.4883C25.4484 58.4883 27.9663 56.5083 28.6764 53.6729C28.6797 53.6578 28.6843 53.6432 28.689 53.6291C28.7908 53.3096 28.8703 52.4918 28.8703 52.0015L28.8705 52.0014Z" fill="#D9D9DE"/>
</svg>
