<svg width="60" height="62" viewBox="0 0 60 62" fill="none" xmlns="http://www.w3.org/2000/svg">
<path d="M47.132 9.4177H35.0537V7.98942H47.132V9.4177ZM47.132 12.3351H35.0537V13.7633H47.132V12.3351ZM27.0023 7.98942H14.924V9.4177H27.0023V7.98942ZM27.0023 12.3351H14.924V13.7633H27.0023V12.3351ZM47.132 16.6797H35.0537V18.108H47.132V16.6797ZM27.0023 16.6797H14.924V18.108H27.0023V16.6797ZM55.0834 3.64474V33.3171H34.6942C34.3315 35.0385 32.8343 36.304 31.0266 36.304C29.2206 36.304 27.7243 35.038 27.3616 33.3171H6.97006V3.64474H10.1696V0.904297H26.8033C28.1158 0.904297 29.349 1.42181 30.2762 2.36136C30.5617 2.65068 30.803 2.97154 31.0062 3.31309C31.2103 2.97201 31.4507 2.65068 31.7362 2.36136C32.6633 1.42184 33.8974 0.904297 35.2091 0.904297H51.8428V3.64474H55.0834ZM31.7112 5.87525L31.7373 29.8665C33.6469 28.6955 35.8634 28.0619 38.1036 28.0619H50.4295V2.33269H35.2076C34.273 2.33269 33.3937 2.70153 32.733 3.37053C32.0723 4.04 31.7091 4.9296 31.7105 5.87528L31.7112 5.87525ZM11.5803 28.0611H23.9062C26.146 28.0611 28.3626 28.6953 30.2726 29.8667L30.2986 5.87429C30.3 4.92866 29.9369 4.03906 29.2752 3.37002C28.6145 2.70103 27.7361 2.33219 26.8006 2.33219L11.5799 2.33171L11.5803 28.0611ZM53.6729 5.07193H51.8423L51.8427 29.4895H38.1039C36.0101 29.4895 33.9405 30.1176 32.1881 31.2692C31.8379 31.4993 31.4302 31.6226 31.0122 31.624C30.5895 31.6254 30.1761 31.5012 29.8223 31.2683C28.0698 30.1171 26.0007 29.4891 23.9069 29.4891L10.1693 29.4895V5.07195H8.38143V31.8875H28.6706L28.6906 32.5809C28.7278 33.8517 29.7294 34.8505 30.9801 34.8749C32.2551 34.8994 33.3291 33.7816 33.3673 32.492L33.3845 31.8884H53.6714L53.6718 5.07172L53.6729 5.07193ZM59.5724 43.27L48.554 54.4059C48.1034 55.9937 46.6582 57.1594 44.9458 57.1594C44.9458 57.1594 19.8072 57.1547 19.7179 57.1519L15.6164 61.2999H13.6212L17.9612 56.9086C15.2137 56.2321 12.9999 54.2454 12.0161 51.5501C11.9812 51.4541 11.952 51.3577 11.9208 51.2622L1.99914 61.2995H0.00390625L11.5487 49.6184C11.2874 47.5433 11.7882 45.453 13.0134 43.6737C14.6213 41.3388 17.1568 39.9994 19.9695 39.9994L42.2263 40.0046C43.3023 40.0046 44.1782 40.8909 44.1782 41.9795C44.1782 44.8743 41.8505 47.2294 38.9895 47.2294H33.2271L30.946 49.5577H44.2825L52.8897 40.8593C54.618 39.1125 57.4473 39.0965 59.1957 40.8231L59.5621 41.1854C59.8415 41.4606 59.9959 41.8304 59.9982 42.2246C59.9987 42.6198 59.848 42.991 59.5723 43.27L59.5724 43.27ZM42.2257 41.4343H33.6362C33.905 41.7561 34.13 42.125 34.2993 42.5352C34.748 43.6243 34.721 44.7892 34.2658 45.8021H38.9891C41.0717 45.8021 42.766 44.0878 42.766 41.9806C42.7664 41.679 42.5237 41.4344 42.2257 41.4344L42.2257 41.4343ZM24.9873 53.6118L32.4301 46.0143C33.3498 45.0748 33.3261 43.885 32.996 43.0843C32.6668 42.2836 31.8479 41.4288 30.5414 41.4288H19.9684C17.624 41.4288 15.5112 42.5452 14.1711 44.4915C12.8305 46.4378 12.5278 48.8301 13.3397 51.0554C14.1804 53.3593 16.0989 55.0454 18.4703 55.5652C20.8431 56.0865 23.279 55.3563 24.9873 53.6118H24.9873ZM47.2894 53.3592C47.2894 52.0513 46.2376 50.9871 44.945 50.9871H29.5469L25.9907 54.6177C25.5774 55.0393 25.1287 55.4109 24.6521 55.7313H44.9449C46.2379 55.7313 47.2892 54.6671 47.2892 53.3593L47.2894 53.3592ZM58.585 42.2342C58.585 42.2191 58.5776 42.2121 58.5743 42.2088L58.207 41.8461C57.0083 40.6624 55.0699 40.6737 53.8855 41.871L46.0962 49.7427C47.3 50.136 48.2364 51.1287 48.568 52.3716L58.5742 42.2595C58.5775 42.2562 58.5849 42.2487 58.5849 42.2341L58.585 42.2342ZM44.8962 52.5363C44.4201 52.5363 44.0341 52.9268 44.0341 53.4086C44.0341 53.8903 44.4201 54.2808 44.8962 54.2808C45.3723 54.2808 45.7583 53.8903 45.7583 53.4086C45.7578 52.9268 45.3719 52.5363 44.8962 52.5363ZM23.9809 48.6697C23.9809 50.9067 22.1819 52.7274 19.9705 52.7274C17.7596 52.7274 15.9602 50.9072 15.9602 48.6697C15.9602 46.4327 17.7591 44.612 19.9705 44.612C22.1824 44.612 23.9809 46.4327 23.9809 48.6697ZM22.5692 48.6697C22.5692 47.2202 21.4036 46.0408 19.971 46.0408C18.5384 46.0408 17.3727 47.2202 17.3727 48.6697C17.3727 50.1191 18.5384 51.2986 19.971 51.2986C21.404 51.2986 22.5692 50.1191 22.5692 48.6697Z" fill="#D9D9DE"/>
</svg>
