<svg width="60" height="60" viewBox="0 0 60 60" fill="none" xmlns="http://www.w3.org/2000/svg">
<path d="M59.8416 33.8759L57.7218 29.1918V25.6583C57.7218 17.5625 51.1714 10.9761 43.1198 10.9761L40.8589 10.9756C33.5382 10.9756 27.5115 16.6416 26.8797 23.8406H22.2538C22.4652 23.0105 23.024 22.3293 23.8382 21.9467L24.8203 21.4825L24.5546 20.292H4.28439C1.92275 20.2925 0.000918314 22.2249 0.000918314 24.5995C0.000918314 26.9746 1.92288 28.9065 4.28439 28.9065L24.5597 28.9035L24.8199 27.7119L23.8403 27.2517C23.0247 26.8693 22.4657 26.1865 22.2549 25.3559H26.8275C26.9177 30.1388 29.424 34.5575 33.4542 37.0791V49.2298H48.785V45.204C49.2352 45.3664 49.7163 45.4557 50.2124 45.4557H54.6135C56.3281 45.4557 57.7234 44.0535 57.7234 42.3297C57.7229 41.8264 57.7229 39.547 57.7229 36.3644L58.2509 36.3639C58.8482 36.3634 59.3981 36.0611 59.7216 35.5563C60.0441 35.0515 60.0889 34.4228 59.8416 33.8759ZM42.5798 23.8406C42.2782 22.6561 41.339 21.7292 40.152 21.451V19.0017C42.6651 19.333 44.6648 21.3232 45.0248 23.8401L42.5798 23.8406ZM39.4111 22.8791C40.3857 22.8791 41.1785 23.6762 41.1785 24.6562C41.1785 25.6363 40.3858 26.4334 39.4111 26.4334C38.4364 26.4334 37.6437 25.6363 37.6437 24.6562C37.6432 23.6762 38.4359 22.8791 39.4111 22.8791ZM38.6448 21.4575C37.4692 21.7427 36.5415 22.6646 36.2418 23.8406H33.797C34.1559 21.3316 36.1437 19.3461 38.6448 19.0046V21.4575ZM4.28386 27.3907C2.75282 27.3907 1.50793 26.139 1.50793 24.5995C1.50793 23.0601 2.75281 21.8084 4.28386 21.8084H7.59934C6.9597 22.5603 6.57282 23.5348 6.57282 24.5995C6.57282 25.6658 6.96319 26.6393 7.60432 27.3907H4.28386ZM21.6224 27.3907H10.8567C9.32667 27.3907 8.08076 26.139 8.08076 24.5995C8.08076 23.0601 9.32563 21.8084 10.8567 21.8084H21.6233C21.1557 22.3888 20.8416 23.0856 20.7149 23.8406H17.2832V25.356H20.7149C20.8406 26.113 21.1553 26.8092 21.6224 27.3907ZM47.2776 47.7155H34.9614V45.384H37.9832V43.8686H34.9614V41.6083H37.9832V40.0929H34.9614V37.5007H41.5532C43.0643 37.5007 44.4243 38.4036 45.0191 39.7996L46.3323 42.8835C46.5576 43.4124 46.8827 43.8766 47.278 44.261L47.2776 47.7155ZM58.4521 34.7363C58.4257 34.7779 58.3634 34.8486 58.2482 34.8486L56.2141 34.8506C56.2141 34.8506 56.2146 41.7899 56.2146 42.3318C56.2146 43.2191 55.4962 43.9409 54.6127 43.9409H50.2116C49.1242 43.9409 48.1446 43.2912 47.7173 42.2866L46.4041 39.2027C45.5716 37.2483 43.6677 35.9845 41.5517 35.9845H34.5615C30.7885 33.7748 28.4298 29.7379 28.337 25.3562H36.2111C36.5312 26.8365 37.8428 27.9484 39.4093 27.9484C40.9758 27.9484 42.2875 26.836 42.6085 25.3562H45.0384C44.7148 27.998 42.5891 30.0863 39.9387 30.3345V28.8873L36.8882 31.1181L39.9387 33.3489V31.8541C43.652 31.5804 46.5898 28.4578 46.5898 24.6556C46.5898 20.6744 43.3688 17.4355 39.4092 17.4355C35.7239 17.4355 32.6802 20.2417 32.2754 23.8399H28.3897C29.0159 17.4776 34.3679 12.4912 40.8575 12.4912H43.118C50.3379 12.4912 56.2127 18.3978 56.2127 25.6578V29.5208L58.4681 34.503C58.5165 34.6088 58.4796 34.6942 58.4521 34.7363ZM53.8016 29.4106L51.8199 28.2476H50.3352V26.7322H53.8016V29.4106ZM4.28347 30.4332C1.92183 30.4332 0 32.3652 0 34.7402C0 37.1153 1.92196 39.0472 4.28347 39.0472L24.5588 39.0442L24.819 37.8521L23.8394 37.392C22.7874 36.8982 22.1593 35.9067 22.1593 34.7397C22.1593 33.5726 22.7874 32.5806 23.8394 32.0873L24.8215 31.6231L24.5558 30.4326L4.28432 30.4316L4.28347 30.4332ZM4.28347 37.5314C2.75244 37.5314 1.50755 36.2797 1.50755 34.7402C1.50755 33.2018 2.75243 31.9491 4.28347 31.9491H7.59998C6.96084 32.7015 6.57297 33.6755 6.57297 34.7402C6.57297 35.8055 6.96084 36.779 7.59998 37.5314H4.28347ZM10.8566 37.5314C9.32654 37.5314 8.08063 36.2797 8.08063 34.7402C8.08063 33.2018 9.32551 31.9491 10.8566 31.9491H21.6232C21.003 32.72 20.652 33.6941 20.652 34.7402C20.652 35.7864 21.003 36.7604 21.6232 37.5314H10.8566ZM23.8389 42.2275L24.8211 41.7633L24.5554 40.5727H4.28389C1.92225 40.5732 0.000420688 42.5053 0.000420688 44.8802C0.000420688 47.2554 1.92238 49.1872 4.28389 49.1872L24.5592 49.1842L24.8194 47.9927L23.8398 47.5325C22.7878 47.0387 22.1597 46.0472 22.1597 44.8802C22.1587 43.7132 22.787 42.7213 23.8389 42.2275ZM4.28347 47.6715C2.75244 47.6715 1.50755 46.4198 1.50755 44.8803C1.50755 43.3409 2.75243 42.0891 4.28347 42.0891H7.59998C6.96084 42.8416 6.57297 43.8156 6.57297 44.8803C6.57297 45.946 6.96234 46.9201 7.60297 47.6715H4.28347ZM21.622 47.6715H10.8563C9.32629 47.6715 8.08038 46.4198 8.08038 44.8803C8.08038 43.3409 9.32525 42.0891 10.8563 42.0891H21.6229C21.0027 42.8601 20.6517 43.8342 20.6517 44.8803C20.6517 45.9265 21.0018 46.9005 21.622 47.6715Z" fill="#5D60F4"/>
</svg>
