<svg width="60" height="60" viewBox="0 0 60 60" fill="none" xmlns="http://www.w3.org/2000/svg">
<path d="M51.0969 28.0597V30.6672H42.4428L40.6422 29.1936C39.5625 28.31 38.2028 27.823 36.8137 27.823H26.4111C25.7034 27.823 25.0087 28.07 24.4571 28.5189L23.0025 29.7008H8.92652V28.0601H0.0241549V47.26L8.92652 47.2605V45.3455H13.0336C13.0187 45.4439 13.0094 45.5436 13.0094 45.6453C13.0108 46.1666 13.2126 46.6564 13.5781 47.0238L22.7205 56.2205C23.0846 56.5865 23.5678 56.7893 24.0812 56.7893H24.0859C24.6011 56.7879 25.0852 56.5837 25.4483 56.2139L26.9286 54.7092L28.3278 55.9814C28.8472 56.4529 29.502 56.6877 30.1558 56.6877C30.8463 56.6877 31.536 56.4265 32.0637 55.9066L32.259 55.7142C32.6022 55.3764 32.8324 54.9675 32.9612 54.5332L32.9659 54.5379L33.3076 54.896C33.8182 55.4342 34.5069 55.7349 35.2449 55.7424H35.2756C36.0015 55.7424 36.686 55.4577 37.2017 54.9392C37.551 54.5887 37.7849 54.1615 37.9072 53.7088C38.3452 54.0076 38.8605 54.1709 39.4018 54.1756H39.4325C40.1584 54.1756 40.8406 53.8909 41.3586 53.3724C41.7288 53.0002 41.9701 52.5429 42.0846 52.062C42.471 52.2705 42.9021 52.3867 43.3545 52.3914H43.3824C44.1083 52.3914 44.7905 52.1049 45.3086 51.5854C46.3651 50.5239 46.3814 48.7817 45.3458 47.6981L45.2412 47.5889L51.0972 45.5681V47.2624L59.9991 47.261V28.0599L51.0969 28.0597ZM7.52131 45.8382H1.42997V29.4822H7.52131V45.8382ZM15.9211 47.3754L14.5697 46.0147C14.4701 45.9149 14.4157 45.7818 14.4157 45.6402C14.4157 45.4985 14.4697 45.3659 14.5682 45.2652L16.5223 43.2787C16.7278 43.0698 17.0008 42.954 17.2924 42.9536H17.2951C17.5853 42.9536 17.8583 43.0674 18.0638 43.2745L18.2405 43.4523C18.6665 43.8814 18.6684 44.5806 18.2447 45.0115C18.2447 45.0115 18.2489 45.012 18.2522 45.012L15.9215 47.3815L15.9211 47.3754ZM20.3323 44.9151C20.7564 44.4841 21.4484 44.4827 21.8743 44.9104L22.051 45.0882C22.477 45.5173 22.4789 46.2165 22.0552 46.6484L21.6074 47.1039C21.5981 47.1133 21.5874 47.1213 21.5781 47.1307L18.6447 50.1133L16.9241 48.3804L20.3323 44.9151ZM21.3651 52.8488L19.6431 51.1154L22.5746 48.1347C22.9987 47.7038 23.6907 47.7019 24.1166 48.1305L24.2933 48.3084C24.4998 48.5163 24.6142 48.7925 24.6147 49.0875C24.6151 49.3821 24.5026 49.6597 24.2975 49.8686L23.6223 50.5551L21.3651 52.8488ZM24.4529 55.2103C24.3544 55.311 24.2228 55.366 24.0828 55.3669H24.0814C23.9419 55.3669 23.8107 55.3124 23.7122 55.2126L22.3607 53.8529L24.684 51.4909C25.1081 51.0599 25.8001 51.0581 26.226 51.4867L26.4028 51.6646C26.6092 51.8725 26.7236 52.1487 26.7241 52.4437C26.7245 52.7383 26.612 53.0159 26.4069 53.2243L24.4529 55.2103ZM44.3169 50.5762C44.0663 50.8279 43.7338 50.9672 43.3794 50.9672H43.3674C43.0088 50.9624 42.674 50.818 42.4234 50.5569L34.5356 42.3107L33.5395 43.3157L40.3856 50.4717C40.8897 50.9977 40.8795 51.8465 40.367 52.3613C40.1117 52.6177 39.7746 52.7523 39.4156 52.7523C39.0571 52.7476 38.7222 52.6032 38.4734 52.342L31.6659 45.2142L30.6726 46.2193L36.2673 52.0789C36.7333 52.6078 36.7128 53.4251 36.2134 53.9276C35.9599 54.1812 35.6302 54.3186 35.2759 54.3186H35.2619C34.9011 54.3139 34.5686 54.1695 34.3179 53.9083L28.794 48.1178L27.8007 49.1228L31.3265 52.8178C31.8138 53.3508 31.7971 54.1851 31.28 54.6937L31.0846 54.8861C30.5847 55.3778 29.7873 55.3947 29.2687 54.9223L27.8421 53.6251C28.0313 53.2637 28.1313 52.8586 28.1299 52.4384C28.1285 51.7637 27.8672 51.1305 27.3947 50.6552L27.218 50.4773C26.8506 50.1075 26.3968 49.8779 25.922 49.7871C25.9861 49.5612 26.0201 49.325 26.0191 49.0827C26.0173 48.408 25.7564 47.7747 25.2839 47.2994L25.1072 47.1216C24.7152 46.7268 24.2246 46.4944 23.7155 46.4182C23.8936 45.6014 23.6708 44.7121 23.0426 44.0802L22.8659 43.9024C22.0498 43.0808 20.8091 42.9519 19.8568 43.509C19.7419 43.119 19.5359 42.7515 19.2322 42.4452L19.0555 42.2673C18.584 41.7931 17.9595 41.5319 17.2954 41.5319H17.2889C16.6221 41.5338 15.9962 41.7978 15.5256 42.2758L13.9063 43.9221H8.92641L8.92595 31.123H21.252L17.2034 34.4133L17.8587 35.1595C19.5834 37.1243 22.5219 37.376 24.5484 35.7316L26.7825 33.9182L31.9731 35.748L43.7689 48.0942L43.7684 48.0947L44.3353 48.6847C44.8398 49.2103 44.8296 50.059 44.3171 50.5757L44.3169 50.5762ZM44.1602 46.4569L32.7518 34.5157L26.5107 32.3161L23.6694 34.6211C22.359 35.6849 20.5101 35.6337 19.2633 34.5637L25.3379 29.6276C25.6411 29.3806 26.0224 29.2451 26.4121 29.2451H36.8147C37.8833 29.2451 38.9287 29.6196 39.7587 30.2995L41.9461 32.0898H51.0973V44.0633L44.1602 46.4569ZM58.5933 45.8381H52.502V29.4821H58.5933V45.8381ZM52.4852 16.4036H47.3043C46.9956 15.2772 45.9758 14.4467 44.7649 14.4467C43.3107 14.4467 42.1278 15.6442 42.1278 17.115C42.1278 18.5863 43.3103 19.7832 44.7649 19.7832C45.9753 19.7832 46.9946 18.9527 47.3034 17.8263H51.9015L56.0235 21.9969L38.5297 21.9974C38.2209 20.871 37.2012 20.0406 35.9912 20.0406C34.537 20.0406 33.3541 21.2371 33.3541 22.7088C33.3541 24.1805 34.5366 25.377 35.9912 25.377C37.2016 25.377 38.2209 24.5466 38.5297 23.4202H59.9746V21.9978H58.0123L52.4852 16.4036ZM44.7653 18.3604C44.0869 18.3604 43.5339 17.8015 43.5339 17.1145C43.5339 16.4271 44.0864 15.8685 44.7653 15.8685C45.4438 15.8685 45.9967 16.4275 45.9967 17.1145C45.9967 17.8019 45.4448 18.3604 44.7653 18.3604ZM35.9899 23.9534C35.3114 23.9534 34.7585 23.3945 34.7585 22.7075C34.7585 22.021 35.3109 21.4615 35.9899 21.4615C36.6683 21.4615 37.2213 22.0205 37.2213 22.7075C37.2213 23.3945 36.6688 23.9534 35.9899 23.9534ZM24.5549 7.76845C23.1008 7.76845 21.9178 8.96496 21.9178 10.4367C21.9178 11.9084 23.1004 13.1049 24.5549 13.1049C25.7654 13.1049 26.7846 12.2745 27.0934 11.1481H38.5321V9.72566L27.0934 9.72613C26.7847 8.59972 25.7649 7.76832 24.5549 7.76832V7.76845ZM24.5549 11.6831C23.8764 11.6831 23.3235 11.1241 23.3235 10.4372C23.3235 9.75069 23.8759 9.19122 24.5549 9.19122C25.2334 9.19122 25.7863 9.75018 25.7863 10.4372C25.7863 11.1236 25.2334 11.6831 24.5549 11.6831ZM35.2802 15.834C35.2802 14.3627 34.0977 13.1657 32.6431 13.1657C31.4327 13.1657 30.4134 13.9962 30.1046 15.1226L16.8369 15.1221V16.5445H30.1046C30.4134 17.6709 31.4331 18.5014 32.6431 18.5014C34.0973 18.5018 35.2802 17.3053 35.2802 15.834V15.834ZM32.6436 17.0799C31.9651 17.0799 31.4122 16.5209 31.4122 15.834C31.4122 15.1475 31.9646 14.588 32.6436 14.588C33.3221 14.588 33.875 15.147 33.875 15.834C33.875 16.5204 33.3221 17.0799 32.6436 17.0799ZM21.8188 19.4931C20.6083 19.4931 19.589 20.3236 19.2793 21.45H12.8137L7.96492 16.5449H13.8586V15.1225L3.16594 15.122L11.3132 6.87905H32.0153C32.3487 7.9664 33.3518 8.75833 34.5348 8.75833C35.9889 8.75833 37.1719 7.56182 37.1719 6.0901C37.1719 4.61839 35.9884 3.42188 34.5348 3.42188C33.2969 3.42188 32.258 4.29043 31.9762 5.45641H10.7313L1.17883 15.1221H0V16.5445H5.97789L12.232 22.8724H19.2803C19.5891 23.9988 20.6089 24.8292 21.8188 24.8292C23.273 24.8292 24.456 23.6327 24.456 22.161C24.4564 20.6897 23.2729 19.4933 21.8188 19.4933L21.8188 19.4931ZM34.534 4.84511C35.2134 4.84511 35.7655 5.40407 35.7655 6.09105C35.7655 6.77753 35.213 7.337 34.534 7.337C33.8556 7.337 33.3026 6.77803 33.3026 6.09105C33.3026 5.40458 33.8551 4.84511 34.534 4.84511ZM21.8188 23.4078C21.1403 23.4078 20.5874 22.8488 20.5874 22.1618C20.5874 21.4744 21.1398 20.9159 21.8188 20.9159C22.4972 20.9159 23.0502 21.4749 23.0502 22.1618C23.0502 22.8488 22.4982 23.4078 21.8188 23.4078ZM59.9753 12.7672V14.1896L49.5659 14.19L46.4799 11.1491H41.5103V9.72673H47.0515L50.1374 12.7676L59.9753 12.7672Z" fill="#5D60F4"/>
</svg>
