<svg width="60" height="60" viewBox="0 0 60 60" fill="none" xmlns="http://www.w3.org/2000/svg">
<path d="M24.7447 44.1041C24.7447 42.2775 24.0416 40.5606 22.7646 39.2695L11.33 27.7103C10.0488 26.4145 8.00085 26.3735 6.66954 27.6185C6.55236 27.7286 6.44354 27.8453 6.34402 27.9681V17.0399C6.34402 15.2698 4.92153 13.8304 3.17201 13.8304C1.42261 13.8304 0 15.2697 0 17.0399V33.5478C0 34.9839 0.55245 36.3338 1.55595 37.3487L13.2184 49.1469L13.2179 52.2297H10.0553V59.1924H27.8469V52.2297H24.7447L24.7447 44.1041ZM2.54837 36.3443C1.80991 35.5976 1.40301 34.6039 1.40301 33.547V17.0403C1.40301 16.0527 2.19681 15.25 3.1724 15.25C4.14757 15.25 4.9418 16.0532 4.9418 17.0403V28.7933C4.9418 30.1296 5.45566 31.3849 6.38989 32.3291L6.43872 32.3785C6.4829 32.4284 6.5294 32.4778 6.57684 32.5263L13.3081 39.3291L13.3146 39.3357L14.3061 38.332L7.46324 31.4088C7.14842 31.039 6.98239 30.5722 6.9917 30.0792C7.00193 29.5343 7.22561 29.0304 7.62089 28.6606C8.39748 27.9346 9.59076 27.959 10.338 28.7138L21.7736 40.2744C22.7855 41.2978 23.3421 42.6575 23.3421 44.1044L23.3426 52.2297H14.6205L14.6219 48.5597L2.54837 36.3443ZM26.4447 57.7727H11.4579V53.6482H26.4447V57.7727ZM56.8279 13.8306C55.0785 13.8306 53.6559 15.2699 53.6559 17.04V27.9683C53.5564 27.8455 53.448 27.7288 53.3304 27.6187C51.999 26.3737 49.9524 26.4147 48.6703 27.7105L37.2352 39.2706C35.9578 40.5617 35.2551 42.2782 35.2551 44.1052V52.2296H32.1528V59.1923H49.9456L49.9461 52.2296H46.783L46.7826 49.1467L58.445 37.3485C59.4476 36.3327 60 34.9832 60 33.5477V17.0397C60 15.2697 58.5765 13.8303 56.828 13.8303L56.8279 13.8306ZM48.5425 57.7727H33.5556V53.6482H48.5425V57.7727ZM58.5973 33.5474C58.5973 34.6037 58.1909 35.5975 57.452 36.3447L45.3794 48.5597L45.3803 52.2298H36.6582V44.1044C36.6582 42.6575 37.2153 41.2968 38.2268 40.2744L49.6623 28.7143C50.4101 27.9581 51.6039 27.9351 52.379 28.6611C52.7742 29.0314 52.9984 29.5348 53.0082 30.0797C53.0175 30.5732 52.851 31.0409 52.5357 31.4103L45.7937 38.2318V38.2323L46.7851 39.2359L53.4252 32.5259C53.4717 32.4788 53.5173 32.4299 53.561 32.38L53.6117 32.3288C54.545 31.3844 55.0588 30.1286 55.0588 28.7929V17.0404C55.0588 16.0528 55.8526 15.2501 56.8282 15.2501C57.8034 15.2501 58.5976 16.0533 58.5976 17.0404L58.5973 33.5474ZM41.6319 23.6327V20.3734L37.5411 19.3825L37.0244 18.1205L37.0249 8.98497C37.8401 8.69137 38.4269 7.90561 38.4269 6.98149C38.4269 5.80849 37.4834 4.85334 36.3236 4.85334C35.1643 4.85334 34.2203 5.80802 34.2203 6.98149C34.2203 7.90559 34.8071 8.69227 35.6223 8.98497V18.4032L36.5198 20.5935L40.2298 21.4922V22.5142L36.5198 23.4105L35.5707 25.7265L37.5666 29.0162L36.8537 29.7375L33.6023 27.718L31.3163 28.6784L30.4281 32.4321H29.418L28.5321 28.6784L26.2432 27.718L22.9918 29.7375L22.2789 29.0162L24.2749 25.7265L23.3257 23.4105L19.6157 22.5142V21.4922L23.3257 20.5935L24.1088 18.6828L24.1098 8.99485C24.9259 8.70125 25.5123 7.91407 25.5123 6.99137C25.5123 5.81555 24.5678 4.86274 23.4085 4.86274C22.2491 4.86274 21.307 5.81601 21.307 6.99137C21.307 7.91357 21.8916 8.70119 22.7073 8.99485V18.4032L22.3055 19.3829L18.2147 20.3738V23.6331L22.3055 24.624L22.7054 25.6008L20.5063 29.2289L22.7854 31.5326L26.369 29.3066L27.3344 29.7113L28.3137 33.8504H31.5336L32.5129 29.7113L33.4783 29.3066L37.0642 31.5326L39.3409 29.2289L37.1409 25.6008L37.5409 24.624L41.6319 23.6327ZM35.3893 6.98144C35.3893 6.45918 35.8074 6.03664 36.3231 6.03664C36.8393 6.03664 37.2569 6.45963 37.2569 6.98144C37.2569 7.50371 36.8388 7.92625 36.3231 7.92625C35.8074 7.92719 35.3893 7.50325 35.3893 6.98144ZM22.4751 6.99227C22.4751 6.46953 22.8913 6.04606 23.4079 6.04606C23.9246 6.04606 24.3431 6.46952 24.3431 6.99227C24.3431 7.51219 23.9246 7.93612 23.4079 7.93612C22.8913 7.93565 22.4751 7.51219 22.4751 6.99227ZM27.2686 11.8555V18.3708C26.1744 19.1895 25.4605 20.5004 25.4605 21.9796C25.4605 24.4536 27.4518 26.4689 29.8997 26.4689C32.3472 26.4689 34.3366 24.4541 34.3366 21.9796C34.3366 20.6786 33.7874 19.5057 32.9131 18.685L31.9198 19.6901C32.542 20.2504 32.9345 21.0686 32.9345 21.9796C32.9345 23.6734 31.5738 25.0492 29.9007 25.0492C28.2267 25.0492 26.8641 23.6724 26.8641 21.9796C26.8641 21.1237 27.2119 20.3478 27.7709 19.7922L32.5155 14.9929L32.515 5.1492C33.3302 4.8556 33.917 4.06985 33.917 3.14573C33.917 1.97273 32.9735 1.01758 31.8137 1.01758C30.6544 1.01758 29.7104 1.97226 29.7104 3.14573C29.7104 4.06982 30.2973 4.85651 31.1124 5.1492V14.4052L28.671 16.8755V11.8555C29.4862 11.5619 30.073 10.7761 30.073 9.85202C30.073 8.67902 29.1295 7.72387 27.9697 7.72387C26.8104 7.72387 25.8664 8.67855 25.8664 9.85202C25.8664 10.7761 26.4528 11.5628 27.2684 11.8555L27.2686 11.8555ZM30.8791 3.14575C30.8791 2.62348 31.2971 2.20095 31.8129 2.20095C32.329 2.20095 32.7467 2.62394 32.7467 3.14575C32.7467 3.66802 32.3286 4.09055 31.8129 4.09055C31.2972 4.09102 30.8791 3.66803 30.8791 3.14575ZM27.9698 8.90625C28.486 8.90625 28.9036 9.32924 28.9036 9.85105C28.9036 10.3733 28.4855 10.7959 27.9698 10.7959H27.9694C27.4532 10.7959 27.0356 10.3724 27.0356 9.85105C27.0356 9.33019 27.4536 8.90625 27.9698 8.90625Z" fill="#5D60F4"/>
</svg>
