<svg width="110" height="16" viewBox="0 0 110 16" fill="none" xmlns="http://www.w3.org/2000/svg">
<path fill-rule="evenodd" clip-rule="evenodd" d="M0 15.232V0H2.9423V12.8504H9.94563V15.232H0ZM12.7869 15.232V0H22.3724V2.3816H15.6966V6.372H21.0866V8.7528H15.6966V12.8504H22.7325V15.232H12.7869ZM24.1536 15.232L29.7342 0H32.7816L38.3615 15.232H35.4037L34.0364 11.328H28.4566L27.1121 15.232H24.1544H24.1536ZM29.3635 8.96H33.625L32.1746 4.988C31.8976 4.1512 31.5293 2.688 31.5293 2.688H31.4828C31.4828 2.688 31.1145 4.152 30.8375 4.988L29.3627 8.96H29.3635ZM41.2027 15.232V0H46.706C51.6861 0 54.9381 2.7888 54.9381 7.5944C54.9381 12.4 51.6861 15.232 46.7052 15.232H41.2027ZM44.0448 12.544H46.3939C49.5839 12.544 51.6226 10.7496 51.6226 7.3712C51.6226 4.0352 49.5399 2.24 46.3939 2.24H44.0448V12.544ZM58.2527 15.232V0H67.8374V2.3816H61.1624V6.372H66.5524V8.7528H61.1624V12.8504H68.1984V15.232H58.2527ZM71.5138 15.232V0H76.8696C78.4716 0 79.2497 0.128 79.9366 0.408C81.607 1.0512 82.6833 2.5104 82.6833 4.5696C82.6833 6.372 81.6762 8.088 79.9594 8.732V8.7744C79.9594 8.7744 80.1656 9.0104 80.4858 9.568L83.8273 15.232H80.5086L77.3047 9.5472H74.4659V15.232H71.513H71.5138ZM74.8293 7.168H77.4791C79.0558 7.168 80.0384 6.2136 80.0384 4.6592C80.0384 3.6608 79.6498 2.8616 78.7592 2.5064C78.3477 2.3288 77.8678 2.24 76.9772 2.24H74.8293V7.168V7.168Z" fill="#1E1E2F"/>
<path fill-rule="evenodd" clip-rule="evenodd" d="M92.8262 15.232H95.6674V0H92.8262V15.232ZM105.982 0H97.5619V15.232H105.982L109.875 11.5416V3.6912L105.982 0ZM100.403 12.992H107.508V2.688H100.403V12.992V12.992Z" fill="#2185FB"/>
<path fill-rule="evenodd" clip-rule="evenodd" d="M107.035 14.336L109.876 11.7224V3.5096L107.035 0.895996V14.336Z" fill="#116CD8"/>
</svg>
