<svg width="24" height="24" viewBox="0 0 24 24" fill="none" xmlns="http://www.w3.org/2000/svg">
<path d="M21.2586 5.848C20.5386 6.16 19.7946 6.376 19.0026 6.472C19.8186 5.992 20.4426 5.224 20.7306 4.288C19.9626 4.744 19.1226 5.056 18.2346 5.248C17.5146 4.48 16.4826 4 15.3546 4C13.1706 4 11.4186 5.776 11.4186 7.936C11.4186 8.248 11.4426 8.536 11.5146 8.824C8.25059 8.68 5.37059 7.096 3.42659 4.72C2.03459 7.216 3.59459 9.28 4.62659 9.976C4.00259 9.976 3.37859 9.784 2.85059 9.496C2.85059 11.44 4.21859 13.048 5.99459 13.408C5.61059 13.528 4.74659 13.6 4.21859 13.48C4.72259 15.04 6.18659 16.192 7.89059 16.216C6.54659 17.272 4.57859 18.112 2.05859 17.848C3.81059 18.976 5.87459 19.624 8.10659 19.624C15.3546 19.624 19.2906 13.624 19.2906 8.44C19.2906 8.272 19.2906 8.104 19.2666 7.936C20.0826 7.336 20.7546 6.64 21.2586 5.848Z" fill="#333333"/>
</svg>
