<svg width="24" height="24" viewBox="0 0 24 24" fill="none" xmlns="http://www.w3.org/2000/svg">
<path d="M13.0718 18.6176C4.87196 18.6176 0.194878 13.3182 0 4.5H4.10743C4.24235 10.9724 7.27046 13.7139 9.66896 14.2792V4.5H13.5365V10.0821C15.9051 9.84181 18.3935 7.29809 19.233 4.5H23.1006C22.7842 5.95117 22.1537 7.3252 21.2483 8.53614C20.3429 9.74708 19.1823 10.7689 17.8389 11.5376C19.3384 12.2401 20.6629 13.2343 21.7249 14.4547C22.7869 15.6751 23.5624 17.094 24 18.6176H19.7427C19.3498 17.2942 18.5513 16.1096 17.4473 15.2121C16.3433 14.3146 14.9829 13.7443 13.5365 13.5726V18.6176H13.0718Z" fill="#333333"/>
</svg>
