<svg width="25" height="24" viewBox="0 0 25 24" fill="none" xmlns="http://www.w3.org/2000/svg">
<path d="M2.36516 11.6309L7.12882 13.4089L8.97265 19.3386C9.09063 19.7184 9.55503 19.8588 9.86328 19.6068L12.5186 17.4421C12.797 17.2153 13.1934 17.204 13.4843 17.4151L18.2736 20.8923C18.6033 21.1319 19.0705 20.9512 19.1532 20.5528L22.6616 3.67669C22.7519 3.24143 22.3242 2.87833 21.9098 3.03862L2.35958 10.5805C1.87712 10.7666 1.88132 11.4496 2.36516 11.6309ZM8.6755 12.4624L17.9855 6.72842C18.1528 6.62567 18.3249 6.85191 18.1813 6.98519L10.4978 14.1273C10.2278 14.3787 10.0535 14.7151 10.0042 15.0803L9.74247 17.0199C9.70781 17.2789 9.34402 17.3046 9.27256 17.054L8.26595 13.517C8.15066 13.1136 8.31867 12.6827 8.6755 12.4624Z" fill="#333333"/>
</svg>
