<svg width="24" height="25" viewBox="0 0 24 25" fill="none" xmlns="http://www.w3.org/2000/svg">
<path fill-rule="evenodd" clip-rule="evenodd" d="M18 24.4399H6C5.21204 24.44 4.43179 24.2849 3.70379 23.9834C2.9758 23.6819 2.31433 23.2399 1.75716 22.6828C1.19999 22.1256 0.758039 21.4641 0.456542 20.7361C0.155045 20.0082 -8.86221e-05 19.2279 3.79808e-08 18.4399V6.43994C-8.86221e-05 5.65199 0.155045 4.87173 0.456542 4.14374C0.758039 3.41574 1.19999 2.75427 1.75716 2.1971C2.31433 1.63993 2.9758 1.19798 3.70379 0.896484C4.43179 0.594987 5.21204 0.439853 6 0.439941H18C18.788 0.439853 19.5682 0.594987 20.2962 0.896484C21.0242 1.19798 21.6857 1.63993 22.2428 2.1971C22.8 2.75427 23.242 3.41574 23.5435 4.14374C23.845 4.87173 24.0001 5.65199 24 6.43994V18.4399C24.0001 19.2279 23.845 20.0082 23.5435 20.7361C23.242 21.4641 22.8 22.1256 22.2428 22.6828C21.6857 23.2399 21.0242 23.6819 20.2962 23.9834C19.5682 24.2849 18.788 24.44 18 24.4399Z" fill="#7387DC"/>
<path fill-rule="evenodd" clip-rule="evenodd" d="M11.25 7.18994H18C18.8652 7.18989 19.6974 6.85756 20.3246 6.26159C20.9519 5.66563 21.3263 4.85154 21.3706 3.98744C21.4149 3.12335 21.1256 2.27525 20.5626 1.61829C19.9995 0.96133 19.2057 0.545685 18.345 0.457191C18.2288 0.450816 18.1162 0.439941 18 0.439941H6C5.21204 0.439853 4.43179 0.594987 3.70379 0.896484C2.9758 1.19798 2.31433 1.63993 1.75716 2.1971C1.19999 2.75427 0.758039 3.41574 0.456542 4.14374C0.155045 4.87173 -8.86221e-05 5.65199 3.79808e-08 6.43994V18.4399C3.79808e-08 15.4563 1.18526 12.5948 3.29505 10.485C5.40483 8.37521 8.26631 7.18994 11.25 7.18994Z" fill="#8CA0F5"/>
<path fill-rule="evenodd" clip-rule="evenodd" d="M18 12.4399C16.8133 12.4399 15.6533 12.7918 14.6666 13.4511C13.6799 14.1104 12.9108 15.0475 12.4567 16.1438C12.0026 17.2402 11.8838 18.4466 12.1153 19.6105C12.3468 20.7744 12.9182 21.8435 13.7574 22.6826C14.5965 23.5217 15.6656 24.0931 16.8295 24.3247C17.9933 24.5562 19.1997 24.4373 20.2961 23.9832C21.3924 23.5291 22.3295 22.7601 22.9888 21.7734C23.6481 20.7867 24 19.6266 24 18.4399V6.43994C24.0001 7.2279 23.8449 8.00815 23.5434 8.73615C23.2419 9.46414 22.8 10.1256 22.2428 10.6828C21.6857 11.2399 21.0242 11.6819 20.2962 11.9834C19.5682 12.2849 18.7879 12.44 18 12.4399Z" fill="#5A6EC3"/>
<path d="M10.4363 12.2383C10.2447 12.222 10.0526 12.2639 9.88522 12.3586C9.71782 12.4532 9.58291 12.5962 9.49815 12.7688C9.41338 12.9414 9.38272 13.1356 9.41017 13.326C9.43761 13.5163 9.5219 13.6939 9.65198 13.8355C9.78205 13.9772 9.95187 14.0762 10.1392 14.1197C10.3265 14.1632 10.5226 14.1492 10.7018 14.0794C10.881 14.0096 11.0349 13.8873 11.1435 13.7286C11.252 13.5698 11.3101 13.382 11.3101 13.1897C11.3203 12.9477 11.234 12.7115 11.0702 12.5331C10.9063 12.3547 10.6783 12.2486 10.4363 12.2383Z" fill="white"/>
<path d="M13.5632 12.2383C13.3716 12.222 13.1796 12.2639 13.0122 12.3586C12.8448 12.4532 12.7099 12.5962 12.6251 12.7688C12.5403 12.9414 12.5097 13.1356 12.5371 13.326C12.5646 13.5163 12.6488 13.6939 12.7789 13.8355C12.909 13.9772 13.0788 14.0762 13.2661 14.1197C13.4535 14.1632 13.6496 14.1492 13.8287 14.0794C14.0079 14.0096 14.1619 13.8873 14.2704 13.7286C14.3789 13.5698 14.437 13.382 14.437 13.1897C14.4473 12.9477 14.361 12.7115 14.1971 12.5331C14.0333 12.3547 13.8053 12.2486 13.5632 12.2383Z" fill="white"/>
<path d="M19.5 6.81286C19.5006 6.58142 19.4556 6.35212 19.3675 6.1381C19.2794 5.92407 19.15 5.72951 18.9866 5.56553C18.8233 5.40156 18.6292 5.2714 18.4155 5.18249C18.2018 5.09357 17.9727 5.04766 17.7413 5.04736H6.25876C6.02731 5.04766 5.79819 5.09357 5.5845 5.18249C5.37081 5.2714 5.17675 5.40156 5.0134 5.56553C4.85006 5.72951 4.72064 5.92407 4.63255 6.1381C4.54445 6.35212 4.49941 6.58142 4.50001 6.81286V18.1742C4.49938 18.4057 4.54439 18.635 4.63247 18.8491C4.72054 19.0632 4.84996 19.2578 5.0133 19.4218C5.17665 19.5858 5.37073 19.716 5.58443 19.8049C5.79814 19.8939 6.02728 19.9398 6.25876 19.9401H15.4463C15.5044 19.9403 15.5617 19.9269 15.6137 19.9011C15.6658 19.8752 15.7111 19.8376 15.746 19.7912C15.781 19.7448 15.8046 19.6909 15.8151 19.6337C15.8255 19.5766 15.8225 19.5178 15.8063 19.462C15.6788 19.0229 15.5138 18.4401 15.5138 18.4401C15.5138 18.4401 17.745 20.5382 18.8663 21.5958C18.9196 21.6462 18.9866 21.6799 19.0588 21.6928C19.1311 21.7056 19.2056 21.6969 19.273 21.6679C19.3405 21.6388 19.3979 21.5907 19.4382 21.5293C19.4786 21.468 19.5001 21.3962 19.5 21.3228V6.81286ZM14.505 16.2359C14.4672 16.2376 14.4295 16.2304 14.395 16.2149C14.3605 16.1994 14.3301 16.176 14.3063 16.1466L14.04 15.8192C14.0158 15.7894 13.999 15.7543 13.9909 15.7167C13.9828 15.6791 13.9838 15.6401 13.9937 15.603C14.0035 15.5658 14.022 15.5315 14.0477 15.5029C14.0734 15.4743 14.1054 15.4521 14.1413 15.4382C14.633 15.2659 15.0606 14.9481 15.3675 14.527C14.3593 15.1625 13.1918 15.4997 12 15.4997C10.8082 15.4997 9.64074 15.1625 8.63251 14.527C8.93939 14.9481 9.36706 15.2659 9.85876 15.4382C9.89462 15.4521 9.92668 15.4743 9.95233 15.5029C9.97799 15.5315 9.99651 15.5658 10.0064 15.603C10.0163 15.6401 10.0172 15.6791 10.0091 15.7167C10.0011 15.7543 9.98425 15.7894 9.96001 15.8192L9.69376 16.1466C9.66995 16.176 9.63955 16.1994 9.60503 16.2149C9.5705 16.2304 9.53282 16.2376 9.49501 16.2359C9.00538 16.2321 8.52357 16.1126 8.0889 15.8871C7.65422 15.6617 7.27897 15.3368 6.99376 14.9387C7.02157 13.2011 7.44342 11.4924 8.22751 9.94149C8.90888 9.41232 9.73294 9.09902 10.5938 9.04187C10.6072 9.04161 10.6206 9.0443 10.6329 9.04974C10.6452 9.05518 10.6561 9.06325 10.665 9.07337C10.6753 9.08469 10.6825 9.09844 10.686 9.11332C10.6895 9.1282 10.6892 9.14372 10.6851 9.15844C10.681 9.17316 10.6732 9.1866 10.6625 9.19749C10.6517 9.20839 10.6384 9.21639 10.6238 9.22074C9.89218 9.43016 9.21085 9.78626 8.62126 10.2674C9.65682 9.6993 10.8189 9.40149 12 9.40149C13.1812 9.40149 14.3432 9.6993 15.3788 10.2674C14.7892 9.78626 14.1079 9.43016 13.3763 9.22074C13.3616 9.21639 13.3483 9.20839 13.3376 9.19749C13.3269 9.1866 13.3191 9.17316 13.315 9.15844C13.3108 9.14372 13.3105 9.1282 13.314 9.11332C13.3175 9.09844 13.3248 9.08469 13.335 9.07337C13.3439 9.06325 13.3549 9.05518 13.3672 9.04974C13.3795 9.0443 13.3928 9.04161 13.4063 9.04187C14.2671 9.09902 15.0912 9.41232 15.7725 9.94149C16.5566 11.4924 16.9785 13.2011 17.0063 14.9387C16.7211 15.3368 16.3458 15.6617 15.9111 15.8871C15.4765 16.1126 14.9947 16.2321 14.505 16.2359Z" fill="white"/>
</svg>
