<svg width="24" height="25" viewBox="0 0 24 25" fill="none" xmlns="http://www.w3.org/2000/svg">
<path fill-rule="evenodd" clip-rule="evenodd" d="M18 24.4399H6C4.40872 24.4399 2.88264 23.8077 1.75744 22.6825C0.632233 21.5573 6.96138e-05 20.0312 0 18.4399L0 6.43994C6.96138e-05 4.84866 0.632233 3.32258 1.75744 2.19738C2.88264 1.07217 4.40872 0.440011 6 0.439941L18 0.439941C19.5913 0.439941 21.1174 1.07208 22.2426 2.1973C23.3679 3.32252 24 4.84864 24 6.43994V18.4399C24 20.0312 23.3679 21.5574 22.2426 22.6826C21.1174 23.8078 19.5913 24.4399 18 24.4399Z" fill="#199BDF"/>
<path fill-rule="evenodd" clip-rule="evenodd" d="M11.25 7.18994H18C18.8652 7.18989 19.6974 6.85756 20.3246 6.26159C20.9519 5.66563 21.3263 4.85154 21.3706 3.98744C21.4149 3.12335 21.1256 2.27525 20.5626 1.61829C19.9995 0.96133 19.2057 0.545685 18.345 0.457191C18.2302 0.450816 18.1166 0.439941 18 0.439941H6C4.40872 0.440011 2.88264 1.07217 1.75744 2.19738C0.632233 3.32258 6.96138e-05 4.84866 0 6.43994L0 18.4399C6.96164e-05 15.4563 1.18536 12.5948 3.29513 10.4851C5.40489 8.3753 8.26634 7.19001 11.25 7.18994Z" fill="#32B4FF"/>
<path fill-rule="evenodd" clip-rule="evenodd" d="M18 12.4399C16.8133 12.4399 15.6533 12.7918 14.6666 13.4511C13.6799 14.1104 12.9108 15.0475 12.4567 16.1438C12.0026 17.2402 11.8838 18.4466 12.1153 19.6105C12.3468 20.7744 12.9182 21.8435 13.7574 22.6826C14.5965 23.5217 15.6656 24.0931 16.8295 24.3247C17.9933 24.5562 19.1997 24.4373 20.2961 23.9832C21.3924 23.5291 22.3295 22.7601 22.9888 21.7734C23.6481 20.7867 24 19.6266 24 18.4399V6.43994C24 8.03124 23.3678 9.55736 22.2426 10.6826C21.1174 11.8078 19.5913 12.4399 18 12.4399Z" fill="#0082BE"/>
<path fill-rule="evenodd" clip-rule="evenodd" d="M16.9059 6.82684C17.0903 6.75073 17.2916 6.72499 17.4891 6.75227C17.6867 6.77954 17.8735 6.85885 18.0303 6.98206C18.1871 7.10527 18.3084 7.26796 18.3816 7.45346C18.4549 7.63896 18.4775 7.84059 18.4472 8.03772C18.0102 10.8798 17.2089 16.0878 16.7836 18.8523C16.7542 19.0436 16.6759 19.2241 16.5563 19.3763C16.4368 19.5285 16.2799 19.6473 16.101 19.7211C15.9221 19.795 15.7272 19.8215 15.5351 19.798C15.343 19.7744 15.1602 19.7018 15.0044 19.587C13.4998 18.4785 11.244 16.8165 10.0987 15.9723C10.0103 15.9072 9.93733 15.8235 9.88485 15.727C9.83238 15.6306 9.80172 15.5238 9.79504 15.4142C9.78836 15.3046 9.80582 15.1949 9.84619 15.0928C9.88656 14.9907 9.94885 14.8987 10.0287 14.8233C11.0781 13.8322 13.1683 11.8582 14.6064 10.5C14.6402 10.4678 14.6609 10.4241 14.6642 10.3775C14.6676 10.3309 14.6534 10.2847 14.6244 10.248C14.5955 10.2113 14.5539 10.1867 14.5078 10.1791C14.4617 10.1714 14.4144 10.1813 14.3752 10.2067C12.5313 11.4093 9.70733 13.251 8.32328 14.1536C8.06389 14.3228 7.77238 14.4366 7.46698 14.4879C7.16159 14.5392 6.84889 14.5269 6.54847 14.4517C5.78636 14.2612 4.68708 13.9863 3.70882 13.7418C3.55566 13.7036 3.41848 13.618 3.31682 13.4972C3.21517 13.3764 3.15421 13.2266 3.14264 13.0692C3.13107 12.9117 3.16948 12.7546 3.2524 12.6203C3.33531 12.486 3.4585 12.3812 3.60442 12.321C7.00987 10.9143 13.6743 8.16184 16.9059 6.82684Z" fill="white"/>
</svg>
