<svg width="24" height="25" viewBox="0 0 24 25" fill="none" xmlns="http://www.w3.org/2000/svg">
<g clip-path="url(#clip0_2593_25985)">
<path fill-rule="evenodd" clip-rule="evenodd" d="M1.68707 2.12701C0 3.81407 0 6.52934 0 11.9599V12.9199C0 18.3505 0 21.0658 1.68707 22.7529C3.37413 24.4399 6.0894 24.4399 11.52 24.4399H12.48C17.9106 24.4399 20.6259 24.4399 22.313 22.7529C24 21.0658 24 18.3505 24 12.9199V11.9599C24 6.52934 24 3.81407 22.313 2.12701C20.6259 0.439941 17.9106 0.439941 12.48 0.439941H11.52C6.0894 0.439941 3.37413 0.439941 1.68707 2.12701ZM4.05006 7.73999C4.18006 13.98 7.30005 17.73 12.7701 17.73H13.0801V14.16C15.0901 14.36 16.61 15.83 17.22 17.73H20.06C19.28 14.89 17.2299 13.32 15.95 12.72C17.2299 11.98 19.0299 10.18 19.4599 7.73999H16.8799C16.3199 9.71999 14.6601 11.52 13.0801 11.69V7.73999H10.5V14.66C8.9 14.26 6.88005 12.32 6.79005 7.73999H4.05006Z" fill="#0077FF"/>
</g>
<defs>
<clipPath id="clip0_2593_25985">
<rect width="24" height="24" fill="white" transform="translate(0 0.439941)"/>
</clipPath>
</defs>
</svg>
