<svg width="24" height="25" viewBox="0 0 24 25" fill="none" xmlns="http://www.w3.org/2000/svg">
<path fill-rule="evenodd" clip-rule="evenodd" d="M18 24.4399H6C4.40872 24.4399 2.88264 23.8077 1.75744 22.6825C0.632233 21.5573 6.96138e-05 20.0312 0 18.4399L0 6.43994C6.96138e-05 4.84866 0.632233 3.32258 1.75744 2.19738C2.88264 1.07217 4.40872 0.440011 6 0.439941L18 0.439941C19.5913 0.439941 21.1174 1.07208 22.2426 2.1973C23.3679 3.32252 24 4.84864 24 6.43994V18.4399C24 20.0312 23.3679 21.5574 22.2426 22.6826C21.1174 23.8078 19.5913 24.4399 18 24.4399Z" fill="#00D264"/>
<path fill-rule="evenodd" clip-rule="evenodd" d="M11.25 7.18994H18C18.8652 7.18989 19.6974 6.85756 20.3246 6.26159C20.9519 5.66563 21.3263 4.85154 21.3706 3.98744C21.4149 3.12335 21.1256 2.27525 20.5626 1.61829C19.9995 0.96133 19.2057 0.545685 18.345 0.457191C18.2302 0.450816 18.1166 0.439941 18 0.439941H6C4.40872 0.440011 2.88264 1.07217 1.75744 2.19738C0.632233 3.32258 6.96138e-05 4.84866 0 6.43994L0 18.4399C6.96164e-05 15.4563 1.18536 12.5948 3.29513 10.4851C5.40489 8.3753 8.26634 7.19001 11.25 7.18994Z" fill="#00EB78"/>
<path fill-rule="evenodd" clip-rule="evenodd" d="M18 12.4399C16.8133 12.4399 15.6533 12.7918 14.6666 13.4511C13.6799 14.1104 12.9108 15.0475 12.4567 16.1438C12.0026 17.2402 11.8838 18.4466 12.1153 19.6105C12.3468 20.7744 12.9182 21.8435 13.7574 22.6826C14.5965 23.5217 15.6656 24.0931 16.8295 24.3247C17.9933 24.5562 19.1997 24.4373 20.2961 23.9832C21.3924 23.5291 22.3295 22.7601 22.9888 21.7734C23.6481 20.7867 24 19.6266 24 18.4399V6.43994C24 8.03124 23.3678 9.55736 22.2426 10.6826C21.1174 11.8078 19.5913 12.4399 18 12.4399Z" fill="#00B950"/>
<path fill-rule="evenodd" clip-rule="evenodd" d="M8.1274 18.1C8.22722 18.0716 8.33184 18.0642 8.43466 18.0783C8.53747 18.0923 8.63626 18.1275 8.72478 18.1817C10.2158 19.07 11.98 19.383 13.6856 19.0617C15.3912 18.7404 16.9206 17.807 17.9862 16.437C19.0518 15.0671 19.5802 13.355 19.4719 11.6228C19.3637 9.89061 18.6262 8.25765 17.3983 7.03106C16.1704 5.80447 14.5367 5.06878 12.8044 4.96236C11.072 4.85594 9.36053 5.38612 7.99172 6.45318C6.62291 7.52025 5.69114 9.05066 5.37166 10.7566C5.05217 12.4625 5.36699 14.2264 6.2569 15.7165C6.31086 15.8047 6.34592 15.9032 6.35987 16.0057C6.37381 16.1082 6.36633 16.2125 6.3379 16.312C6.12902 17.0511 5.62502 18.8151 5.62502 18.8151C5.62502 18.8151 7.38903 18.3111 8.1274 18.1ZM4.95715 16.4653C3.88499 14.658 3.5095 12.5215 3.90117 10.4569C4.29284 8.39227 5.42474 6.54168 7.08431 5.25258C8.74388 3.96349 10.817 3.32457 12.9143 3.45581C15.0116 3.58705 16.9889 4.47942 18.4748 5.96534C19.9607 7.45126 20.8531 9.42853 20.9843 11.5258C21.1156 13.6231 20.4767 15.6962 19.1876 17.3558C17.8985 19.0154 16.0479 20.1473 13.9833 20.5389C11.9187 20.9306 9.78211 20.5551 7.97478 19.483C7.97478 19.483 5.5834 20.1662 4.39915 20.5048C4.33481 20.5231 4.26676 20.5239 4.20202 20.5071C4.13727 20.4903 4.0782 20.4565 4.0309 20.4092C3.98361 20.3619 3.9498 20.3028 3.93299 20.2381C3.91618 20.1733 3.91696 20.1053 3.93527 20.041C4.2739 18.8567 4.95715 16.4653 4.95715 16.4653Z" fill="white"/>
<path fill-rule="evenodd" clip-rule="evenodd" d="M8.24255 9.73525C8.35922 11.4144 9.07586 12.9956 10.2617 14.1902C11.4475 15.3848 13.0233 16.1132 14.7016 16.2423H14.7023C14.9703 16.263 15.2395 16.2255 15.4916 16.1322C15.7437 16.039 15.9726 15.8923 16.1626 15.7023L16.4243 15.4405C16.5479 15.3168 16.6173 15.1492 16.6174 14.9744V14.4186C16.6174 14.349 16.598 14.2807 16.5614 14.2214C16.5248 14.1621 16.4724 14.1142 16.4101 14.083C16.0152 13.8858 15.1579 13.4571 14.7379 13.2471C14.6675 13.2119 14.5878 13.1997 14.5101 13.2123C14.4323 13.2249 14.3605 13.2616 14.3048 13.3173C14.0956 13.5265 13.7648 13.8576 13.5773 14.0448C13.5337 14.0884 13.4799 14.1206 13.4209 14.1385C13.3618 14.1565 13.2992 14.1595 13.2387 14.1475L13.2353 14.1468C12.5093 14.0016 11.8425 13.6447 11.319 13.1212C10.7955 12.5977 10.4386 11.9309 10.2934 11.2049L10.2927 11.2015C10.2806 11.141 10.2837 11.0784 10.3016 11.0193C10.3196 10.9603 10.3518 10.9065 10.3954 10.8629C10.5826 10.6754 10.9137 10.3446 11.1229 10.1354C11.1786 10.0797 11.2153 10.0079 11.2279 9.93013C11.2405 9.8524 11.2283 9.77268 11.1931 9.70225C10.9831 9.28225 10.5544 8.425 10.3572 8.03013C10.326 7.96782 10.2781 7.91542 10.2188 7.8788C10.1595 7.84217 10.0912 7.82277 10.0216 7.82275H9.54905C9.43685 7.82279 9.32591 7.84637 9.2234 7.89198C9.12088 7.93758 9.02908 8.00419 8.95393 8.0875C8.87855 8.1715 8.79193 8.2675 8.70493 8.36425C8.54119 8.54596 8.41571 8.75876 8.33595 8.98998C8.25619 9.22121 8.22379 9.46612 8.24068 9.71013C8.24143 9.71838 8.2418 9.72663 8.24255 9.73525Z" fill="white"/>
</svg>
