<svg width="111" height="57" viewBox="0 0 111 57" fill="none" xmlns="http://www.w3.org/2000/svg">
<path fill-rule="evenodd" clip-rule="evenodd" d="M0 32.0007H64.5923V0H0V32.0007ZM18.9844 10.1178V28.0602H24.9192V10.1178H18.9844ZM43.9529 13.259L43.9536 13.2582V13.2598C43.9534 13.2595 43.9531 13.2593 43.9529 13.259ZM40.5318 17.306L43.9529 13.259C42.1352 11.236 39.1409 9.95801 36.3609 9.95801C30.7464 9.95801 26.6301 13.7922 26.6301 19.0637C26.6301 24.4412 30.6396 28.3283 36.1473 28.3283C38.9276 28.3283 41.9753 26.8902 43.9536 24.8137L40.5318 21.1401C39.3556 22.3647 37.7514 23.1636 36.4677 23.1636C34.2758 23.1636 32.7247 21.4059 32.7247 19.0099C32.7247 16.6138 34.3288 14.9099 36.4677 14.9099C37.8582 14.9099 39.4624 15.8687 40.5318 17.306ZM55.8809 28.0617V14.8031H61.0144V10.117H44.8126V14.8031H49.9461V28.0617H55.8809Z" fill="white"/>
<path d="M67.909 56.1216L59.2476 24.0156L29.3047 27.3166L67.909 56.1216ZM71.4384 41.0001V36.7933L69.8881 40.3609H68.8186L67.2675 36.7933V41.0001H65.7709V34.557H67.5886L69.3533 38.3904L71.118 34.557H72.9357V41.0001H71.4392H71.4384ZM80.7436 37.7513C80.7436 39.6142 79.247 41.0523 77.215 41.0523C75.2359 41.0523 73.7386 39.6142 73.7386 37.7513C73.7386 35.8876 75.2359 34.5033 77.215 34.5033C79.2463 34.5033 80.7436 35.8876 80.7436 37.7513ZM75.4503 37.7513C75.4503 38.816 76.3054 39.668 77.268 39.668C78.2844 39.668 79.0857 38.816 79.0857 37.7505C79.0857 36.6858 78.2844 35.8338 77.268 35.8338C76.2523 35.8876 75.4503 36.6857 75.4503 37.7513ZM86.6761 35.1962L86.0346 36.4737C85.3393 36.1012 84.4834 35.7816 83.9487 35.7816C83.5208 35.7816 83.2535 35.9414 83.2535 36.2609C83.2535 37.3787 86.6753 36.7403 86.6753 39.0826C86.6753 40.3609 85.5529 41.0531 84.1093 41.0531C83.0399 41.0531 81.9167 40.6267 81.1684 40.0413L81.8099 38.763C82.4514 39.3492 83.4678 39.7217 84.1631 39.7217C84.6978 39.7217 85.0182 39.509 85.0182 39.1364C85.0182 38.0178 81.5963 38.657 81.5963 36.3669C81.5963 35.1962 82.612 34.3973 84.1631 34.3973C85.0719 34.4503 85.9808 34.7698 86.6761 35.1962ZM93.2555 35.5672L92.2929 36.6857C91.8657 36.1534 91.2242 35.8338 90.6895 35.8338C89.6731 35.8338 88.871 36.6327 88.871 37.6975C88.871 38.7622 89.6739 39.615 90.6895 39.615C91.2242 39.615 91.8657 39.2954 92.2929 38.869L93.2555 39.8808C92.5602 40.5729 91.5446 41.0523 90.5819 41.0523C88.6037 41.0523 87.1601 39.6142 87.1601 37.7513C87.1601 35.8876 88.6567 34.5033 90.6357 34.5033C91.5984 34.5033 92.561 34.9288 93.2555 35.568V35.5672ZM100.473 37.7513C100.473 39.6142 98.9767 41.0523 96.9447 41.0523C94.9664 41.0523 93.4691 39.6142 93.4691 37.7513C93.4691 35.8876 94.9656 34.5033 96.9447 34.5033C98.9767 34.5033 100.473 35.8876 100.473 37.7513ZM95.1262 37.7513C95.1262 38.816 95.982 39.668 96.9447 39.668C97.9603 39.668 98.7624 38.816 98.7624 37.7505C98.7624 36.6858 97.9603 35.8338 96.9447 35.8338C95.982 35.8876 95.127 36.6857 95.127 37.7513H95.1262ZM106.838 41.0001L105.661 36.5275L104.431 41.0001H102.72L100.582 34.557H102.346L103.629 39.2962L104.859 34.557H106.463L107.746 39.2962L108.976 34.557H110.687L108.549 41.0001H106.838Z" fill="white"/>
</svg>
