<svg width="70" height="47" viewBox="0 0 70 47" fill="none" xmlns="http://www.w3.org/2000/svg">
<path d="M63.2411 41.791H62.0195V43.0067H63.2411V41.791Z" fill="white"/>
<path d="M62.0419 40.5752H60.8203V41.7909H62.0419V40.5752Z" fill="white"/>
<path d="M66.8817 39.3594H65.6602V40.575H66.8817V39.3594Z" fill="white"/>
<path d="M60.8231 38.168H59.6016V39.3837H60.8231V38.168Z" fill="white"/>
<path d="M65.6825 36.9521H64.4609V39.3598H65.6825V36.9521Z" fill="white"/>
<path d="M63.2411 38.168H62.0195V39.3837H63.2411V38.168Z" fill="white"/>
<path d="M64.4637 39.3594H63.2422V40.575H64.4637V39.3594Z" fill="white"/>
<path d="M59.6016 33.3524H60.8231V32.1367H59.6016V33.3524Z" fill="white"/>
<path d="M7.98328 4.55762H6.76172V5.77331H7.98328V4.55762Z" fill="white"/>
<path d="M9.1825 5.74902H7.96094V6.96473H9.1825V5.74902Z" fill="white"/>
<path d="M4.34265 6.96484H3.12109V8.18054H4.34265V6.96484Z" fill="white"/>
<path d="M10.4013 8.15723H9.17969V9.37293H10.4013V8.15723Z" fill="white"/>
<path d="M5.56531 8.15723H4.34375V10.5648H5.56531V8.15723Z" fill="white"/>
<path d="M7.98328 8.15723H6.76172V9.37293H7.98328V8.15723Z" fill="white"/>
<path d="M6.76061 6.96484H5.53906V8.18054H6.76061V6.96484Z" fill="white"/>
<path d="M10.3773 14.1875H9.17969V15.4032H10.3773V14.1875Z" fill="white"/>
<path d="M7.96094 11.7802H10.3801V10.5645H7.96094V11.7802Z" fill="white"/>
<path d="M62.0207 35.7607H59.6016V36.9526H62.0207V35.7607Z" fill="white"/>
<path d="M38.0432 3.1748L10.3067 27.894V16.5951H9.18097V15.4033H7.95941V11.78H6.76181V10.5643H5.56421H5.54026V11.78H4.34265V12.9958H6.76181V14.1876H5.54026V15.4033H6.76181V16.5951H5.54026V15.4033H4.34265V12.9958H3.12109V43.8888L30.8576 19.1696V43.6981L59.6959 18.9789V30.9213H60.8217V32.137H62.0193V35.7603H63.2409V36.9521H64.4623V35.7603H65.66V34.5446H63.2409V33.3528H64.4623V32.137H63.2409V30.9213H64.4623V32.137H65.66V34.5446H66.8815V3.3655L38.0432 28.0847V3.1748Z" fill="white"/>
</svg>
