<svg width="97" height="37" viewBox="0 0 97 37" fill="none" xmlns="http://www.w3.org/2000/svg">
<path d="M26.3377 29.4101L17.0232 15.6537L26.1772 1.58105H19.4321L13.1689 11.0682L7.06623 1.58105H0.160596L9.31457 15.4956L0 29.4101H6.90563L13.0083 19.9229L19.2715 29.4101H26.3377Z" fill="white"/>
<path d="M37.0984 25.4569C35.3319 25.4569 34.0471 24.5082 34.0471 23.0851C34.0471 21.662 35.3319 20.7133 37.0984 20.7133H41.1133V21.662C41.1133 23.7176 39.3468 25.4569 37.259 25.4569H37.0984ZM38.062 8.53809C32.6017 8.53809 29.5504 11.3842 29.0686 15.021H34.5289C35.0107 13.756 36.456 12.8073 37.9014 13.1236C39.8285 13.1236 41.2739 14.0723 41.2739 15.9697V16.9184H36.7772C31.4775 16.9184 28.2656 19.2902 28.2656 23.5595C28.2656 27.8287 31.4775 30.0424 35.4924 30.0424C37.9014 30.2005 40.1497 29.0936 41.5951 27.3543V29.568H47.0554V16.1278C47.0554 11.068 43.5222 8.53809 38.062 8.53809Z" fill="white"/>
<path d="M61.8302 25.141C58.7789 25.141 57.173 22.7692 57.173 19.4487C57.173 16.1282 58.9395 14.0726 61.9908 14.0726C65.0422 14.0726 66.4875 16.4444 66.4875 19.4487C66.4875 22.453 64.8816 25.141 61.8302 25.141ZM63.2756 9.32906C60.5455 9.17094 58.1365 10.4359 56.5306 12.4915C56.8518 8.69658 58.4577 6.79915 62.4726 6.16667L70.3418 5.05983V0L61.8302 1.42308C53.6398 2.68803 51.0703 8.0641 51.0703 17.0769C51.0703 25.141 55.0852 29.8846 61.9908 29.8846C68.2541 29.8846 72.1084 25.141 72.1084 19.4487C72.269 13.2821 68.7359 9.32906 63.2756 9.32906Z" fill="white"/>
<path d="M86.5594 24.9828C83.8293 24.9828 82.0627 22.7691 82.0627 19.2905V19.1324C82.0627 15.6538 83.8293 13.4401 86.5594 13.4401C89.2895 13.4401 91.0561 15.6538 91.0561 19.1324C91.0561 22.611 89.2895 24.9828 86.5594 24.9828ZM88.0048 8.53838C85.5958 8.38026 83.3475 9.4871 81.9021 11.3845V9.01274H76.2812V36.9999H82.2233V27.5127C83.6687 29.2521 85.7564 30.0426 87.8442 29.8845C92.9832 29.8845 96.9981 25.9315 96.9981 19.1324C96.9981 12.3333 92.8226 8.53838 88.0048 8.53838Z" fill="white"/>
</svg>
