<svg width="53" height="52" viewBox="0 0 53 52" fill="none" xmlns="http://www.w3.org/2000/svg">
<g clip-path="url(#clip0_2191_14960)">
<path d="M10.4424 46.4944C10.293 46.4927 10.1491 46.4384 10.0371 46.3414C6.1068 43.2796 3.14345 39.1857 1.49183 34.5362C-0.159787 29.8866 -0.431779 24.8724 0.707503 20.0771C1.84679 15.2818 4.3505 10.9025 7.92735 7.44867C11.5042 3.99485 16.0071 1.60855 20.9122 0.567392C25.8173 -0.473763 30.9228 -0.126957 35.6349 1.56746C40.3469 3.26187 44.4717 6.23424 47.5293 10.1387C50.5869 14.0432 52.4517 18.7193 52.9066 23.6229C53.3614 28.5264 52.3878 33.456 50.0988 37.8379C49.9741 37.9908 49.7871 38.1438 49.6312 38.1438C49.413 38.2049 49.2259 38.1438 49.07 38.052C48.01 37.2261 46.8877 36.4308 45.7341 35.5744L44.4871 34.6567C43.6818 34.1343 42.9112 33.5622 42.18 32.9438C41.65 32.3932 41.7747 31.9344 41.8994 31.5367C42.5853 29.7626 43.24 26.6426 41.0577 20.3108C39 14.3155 35.4459 10.6144 30.7071 9.51318C29.2106 9.2073 23.9106 8.28965 18.6418 11.532C14.4018 14.132 11.4712 18.5979 10.0371 24.8073C8.88355 29.6708 9.66296 31.3226 10.5671 33.2496C10.9724 34.1367 11.4712 35.1461 11.7518 36.5226C11.97 37.532 11.3465 43.4049 11.0659 45.8826C11.0347 46.1273 10.8788 46.3108 10.6294 46.4026C10.6294 46.4638 10.5359 46.4944 10.4424 46.4944ZM26.4983 1.31553C21.388 1.33066 16.4033 2.87034 12.2058 5.73019C8.00837 8.59004 4.79671 12.6348 2.99718 17.3275C1.19765 22.0202 0.895373 27.1389 2.13048 32.0041C3.36558 36.8694 6.07964 41.251 9.91238 44.5673C10.4424 40.0096 10.5983 37.2261 10.5359 36.7979C10.2241 35.5744 9.81885 34.6567 9.41355 33.8002C8.44708 31.7508 7.54296 29.8238 8.79002 24.532C10.2865 17.9555 13.4041 13.2144 17.9871 10.4308C21.9014 8.07213 26.5988 7.30399 31.0812 8.28965C36.2565 9.452 40.1535 13.4896 42.3671 19.9132C44.6741 26.6426 43.9259 30.0073 43.2088 31.9955V32.0567C43.3959 32.3014 44.1441 32.852 45.2665 33.6473L46.5135 34.5344L49.2571 36.5226C51.0623 32.7584 51.8698 28.608 51.6049 24.4561C51.34 20.3042 50.0112 16.285 47.7417 12.7711C45.4721 9.25713 42.3353 6.3621 38.6218 4.35424C34.9083 2.34639 30.7383 1.29068 26.4983 1.28494V1.31553Z" fill="white"/>
<path d="M28.8997 31.6584C28.2762 31.6584 27.6527 31.0466 26.9668 29.7313C26.3107 28.3659 25.7888 26.9422 25.408 25.4796C24.9326 23.756 24.7225 21.9724 24.7844 20.1878C24.8468 18.1078 25.3456 17.4349 25.5327 17.2514C25.6262 17.1596 27.4344 15.4161 30.6456 15.9666C33.8256 16.5172 33.9191 18.1996 33.9815 19.209V19.4843C34.1997 21.7478 32.2356 28.8749 30.3027 30.9243C29.8038 31.4443 29.3674 31.6584 28.8997 31.6584ZM26.4991 18.1384C26.4368 18.2302 26.1562 18.7808 26.125 20.2184C26.0627 21.9925 26.2809 23.5831 26.6862 25.1737C27.6215 28.5384 28.588 30.0678 28.9621 30.3737C29.305 30.2208 30.2715 29.0584 31.3315 25.9384C32.1733 23.4302 32.7344 20.7384 32.6409 19.6066V19.3008C32.5786 18.4443 32.5162 17.649 30.3962 17.2819C29.7233 17.12 29.0213 17.113 28.3453 17.2616C27.6692 17.4102 27.0373 17.7103 26.4991 18.1384ZM26.4991 18.1384C26.4991 18.1384 26.468 18.169 26.4991 18.1384C26.468 18.169 26.4991 18.1384 26.4991 18.1384ZM22.0721 40.5596H22.0409C16.6162 40.3455 12.688 38.6325 10.3497 35.4514C7.85561 32.0866 7.85561 27.8655 8.60385 25.2655C8.66076 25.1082 8.77524 24.9772 8.92503 24.8981C9.07483 24.819 9.24925 24.7973 9.41444 24.8372C9.75738 24.929 9.97561 25.2655 9.88208 25.6325C9.35208 27.4678 9.07149 31.4443 11.4409 34.6866C13.5297 37.5314 17.115 39.0608 22.1033 39.2749C22.4462 39.2749 22.7268 39.5808 22.7268 39.9478C22.7268 40.2843 22.415 40.5596 22.0721 40.5596Z" fill="white"/>
<path d="M6.45268 14.4375H48.6656C48.6656 14.4375 44.8933 20.7999 38.845 21.2281C35.4156 21.5034 32.8903 18.5363 31.4562 17.3128C30.365 16.3951 29.3674 16.2116 27.0603 17.3128C25.5015 18.0775 25.5327 19.5763 21.8539 20.861C21.4486 20.9834 15.2444 22.574 11.1603 19.7599C10.5368 19.3316 8.66621 18.1999 7.41915 16.5175C6.17209 14.8963 6.48386 14.4681 6.48386 14.4375H6.45268Z" fill="white"/>
</g>
<defs>
<clipPath id="clip0_2191_14960">
<rect width="53" height="52" fill="white"/>
</clipPath>
</defs>
</svg>
