<svg width="54" height="43" viewBox="0 0 54 43" fill="none" xmlns="http://www.w3.org/2000/svg">
<path d="M39.1279 29.4805C37.596 29.4805 36.1598 30.0135 35.0747 30.8917C33.2236 32.5539 30.7663 33.5888 28.0854 33.5888C28.0535 33.5888 25.9152 33.5888 25.8832 33.5888C23.1704 33.5888 20.713 32.5539 18.8939 30.8917C17.7769 30.0135 16.3725 29.4805 14.8407 29.4805C11.2981 29.4805 8.42578 32.3029 8.42578 35.784C8.42578 39.2651 11.2981 42.0876 14.8407 42.0876C16.3725 42.0876 17.8087 41.5545 18.9258 40.6449C20.7768 38.9829 23.2024 37.9793 25.9152 37.9793C25.9471 37.9793 28.1173 37.9793 28.1173 37.9793C30.7982 37.9793 33.2555 38.9829 35.1067 40.6449C36.2237 41.5231 37.6279 42.0876 39.1918 42.0876C42.7343 42.0876 45.6066 39.2651 45.6066 35.784C45.5747 32.3029 42.7024 29.4805 39.1279 29.4805Z" fill="white"/>
<path d="M47.5532 15.1826C46.0213 15.1826 44.5851 15.7158 43.5 16.5939C41.6489 18.256 39.1914 19.2909 36.5107 19.2909C36.4788 19.2909 17.5212 19.2909 17.4893 19.2909C14.7766 19.2909 12.3192 18.256 10.5 16.5939C9.38298 15.7158 7.97872 15.1826 6.44681 15.1826C2.87234 15.1826 0 18.0365 0 21.5176C0 24.9987 2.87234 27.8212 6.41489 27.8212C7.9468 27.8212 9.38298 27.288 10.5 26.3785C12.3511 24.7164 14.7766 23.7129 17.4893 23.7129C17.5212 23.7129 36.4788 23.7129 36.5107 23.7129C39.1914 23.7129 41.6489 24.7164 43.5 26.3785C44.617 27.2567 46.0213 27.8212 47.5852 27.8212C51.1277 27.8212 54 24.9987 54 21.5176C54 18.0365 51.1277 15.1826 47.5532 15.1826Z" fill="white"/>
<path d="M14.8101 13.5505C16.342 13.5505 17.7781 13.0175 18.8952 12.108C20.7462 10.4458 23.1718 9.4423 25.8846 9.4423C25.9165 9.4423 28.0867 9.4423 28.0867 9.4423C30.7676 9.4423 33.2249 10.4458 35.0761 12.108C36.1931 12.986 37.5973 13.5505 39.1612 13.5505C42.7037 13.5505 45.576 10.7281 45.576 7.24703C45.576 3.76596 42.7037 0.912109 39.1293 0.912109C37.5973 0.912109 36.1611 1.44525 35.0761 2.32336C33.2249 3.98549 30.7676 5.0204 28.0867 5.0204C28.0548 5.0204 25.8846 5.0204 25.8846 5.0204C23.1718 5.0204 20.7143 3.98549 18.8952 2.32336C17.7463 1.44525 16.342 0.912109 14.8101 0.912109C11.2356 0.912109 8.36328 3.73459 8.36328 7.21567C8.36328 10.6967 11.2356 13.5505 14.8101 13.5505Z" fill="white"/>
</svg>
