<svg width="25" height="25" viewBox="0 0 25 25" fill="none" xmlns="http://www.w3.org/2000/svg">
<path d="M0.808594 4.93994C0.808594 2.7308 2.59945 0.939941 4.80859 0.939941H20.8086C23.0177 0.939941 24.8086 2.7308 24.8086 4.93994V20.9399C24.8086 23.1491 23.0177 24.9399 20.8086 24.9399H4.80859C2.59946 24.9399 0.808594 23.1491 0.808594 20.9399V4.93994Z" fill="#FF5C00"/>
<path d="M11.8575 6.86699C12.1569 5.94568 13.4603 5.94568 13.7597 6.86699L14.6047 9.46781C14.7386 9.87983 15.1225 10.1588 15.5558 10.1588H18.2904C19.2591 10.1588 19.6619 11.3984 18.8782 11.9678L16.6658 13.5752C16.3153 13.8298 16.1687 14.2812 16.3025 14.6932L17.1476 17.294C17.447 18.2154 16.3925 18.9815 15.6088 18.4121L13.3964 16.8047C13.0459 16.55 12.5713 16.55 12.2208 16.8047L10.0084 18.4121C9.22471 18.9815 8.17023 18.2154 8.46958 17.294L9.31464 14.6932C9.44851 14.2812 9.30185 13.8298 8.95137 13.5752L6.73899 11.9678C5.95527 11.3984 6.35805 10.1588 7.32677 10.1588H10.0614C10.4947 10.1588 10.8786 9.87983 11.0125 9.46781L11.8575 6.86699Z" fill="white"/>
</svg>
