<svg width="40" height="40" viewBox="0 0 40 40" fill="none" xmlns="http://www.w3.org/2000/svg">
<path fill-rule="evenodd" clip-rule="evenodd" d="M19.9985 0.130859C24.7675 0.130859 29.1436 1.81183 32.5651 4.61609L29.1476 7.34891C26.5775 5.48337 23.416 4.38389 19.9965 4.38389C11.3833 4.38389 4.40339 11.3658 4.40339 19.977C4.40339 28.5902 11.3853 35.5701 19.9965 35.5701C28.6097 35.5701 35.5896 28.5883 35.5896 19.977C35.5896 19.7786 35.5857 19.5801 35.5797 19.3816L39.543 16.5198C39.7415 17.6431 39.8427 18.7982 39.8427 19.977C39.8427 30.938 30.9575 39.8232 19.9965 39.8232C9.03548 39.8232 0.152344 30.938 0.152344 19.977C0.152344 9.01598 9.03747 0.130859 19.9985 0.130859Z" fill="url(#paint0_linear_2091_24479)"/>
<path fill-rule="evenodd" clip-rule="evenodd" d="M12.5312 15.1399L19.9974 19.9764L36.1085 8.16797L38.5019 12.0558L19.9974 25.579L12.5312 20.9191V15.1399Z" fill="#229E39"/>
<defs>
<linearGradient id="paint0_linear_2091_24479" x1="23.2394" y1="0.130859" x2="2.21766" y2="28.4721" gradientUnits="userSpaceOnUse">
<stop stop-color="#0187C8"/>
<stop offset="0.390625" stop-color="#08A652"/>
<stop offset="0.625" stop-color="#08A652"/>
<stop offset="1" stop-color="#FAEF23"/>
</linearGradient>
</defs>
</svg>
