<svg width="56" height="56" viewBox="0 0 56 56" fill="none" xmlns="http://www.w3.org/2000/svg">
<g clip-path="url(#clip0_938_7517)">
<path d="M8.8905 11.6528C10.872 11.6528 12.4841 10.0425 12.4841 8.06334C12.4841 6.08584 10.872 4.47693 8.8905 4.47693C6.90895 4.47693 5.29688 6.08584 5.29688 8.06334C5.29688 10.0425 6.90895 11.6528 8.8905 11.6528ZM8.8905 6.66443C9.66586 6.66443 10.2966 7.29191 10.2966 8.06334C10.2966 8.8364 9.66586 9.4653 8.8905 9.4653C8.11514 9.4653 7.48438 8.8364 7.48438 8.06334C7.48438 7.29191 8.11514 6.66443 8.8905 6.66443Z" fill="#A7A7AB"/>
<path d="M18.8905 11.6528C20.872 11.6528 22.4841 10.0425 22.4841 8.06334C22.4841 6.08584 20.872 4.47693 18.8905 4.47693C16.909 4.47693 15.2969 6.08584 15.2969 8.06334C15.2969 10.0425 16.909 11.6528 18.8905 11.6528ZM18.8905 6.66443C19.6659 6.66443 20.2966 7.29191 20.2966 8.06334C20.2966 8.8364 19.6659 9.4653 18.8905 9.4653C18.1151 9.4653 17.4844 8.8364 17.4844 8.06334C17.4844 7.29191 18.1151 6.66443 18.8905 6.66443Z" fill="#A7A7AB"/>
<path d="M30.8474 11.6528H41.1796C43.1612 11.6528 44.7732 10.0425 44.7732 8.06334C44.7732 6.08584 43.1612 4.47693 41.1796 4.47693H30.8474C28.866 4.47693 27.2539 6.08584 27.2539 8.06334C27.2539 10.0425 28.866 11.6528 30.8474 11.6528ZM30.8474 6.66443H41.1796C41.955 6.66443 42.5857 7.29191 42.5857 8.06334C42.5857 8.8364 41.9549 9.4653 41.1796 9.4653H30.8474C30.0721 9.4653 29.4414 8.8364 29.4414 8.06334C29.4414 7.29191 30.0722 6.66443 30.8474 6.66443Z" fill="#A7A7AB"/>
<path d="M53.42 29.1804H50.0706V4.43275C50.0706 1.98855 48.0776 0 45.6282 0H4.44248C1.99292 0 0 1.98855 0 4.43275V45.9153C0 48.3596 1.99292 50.348 4.44248 50.348H26.8861V53.4212C26.8861 54.8431 28.045 56 29.4692 56H53.4201C54.8426 56 56 54.8431 56 53.4212V45.8068C56 45.2028 55.5102 44.713 54.9062 44.713C54.3023 44.713 53.8125 45.2028 53.8125 45.8068V53.4212C53.8125 53.6332 53.6327 53.8125 53.42 53.8125H29.4692C29.2548 53.8125 29.0736 53.6332 29.0736 53.4212V31.7591C29.0736 31.547 29.2548 31.3679 29.4692 31.3679H53.4201C53.6328 31.3679 53.8126 31.547 53.8126 31.7591V35.9818C53.8126 36.5857 54.3024 37.0755 54.9064 37.0755C55.5103 37.0755 56.0001 36.5857 56.0001 35.9818V31.7591C56 30.3371 54.8426 29.1804 53.42 29.1804ZM4.44248 2.1875H45.6282C46.8716 2.1875 47.8831 3.19473 47.8831 4.43275V13.9421H2.1875V4.43275C2.1875 3.19473 3.19911 2.1875 4.44248 2.1875ZM26.886 31.7591V48.1605H4.44248C3.19911 48.1605 2.1875 47.1533 2.1875 45.9153V16.1297H47.8831V29.1804H29.4692C28.0448 29.1804 26.886 30.3371 26.886 31.7591Z" fill="#A7A7AB"/>
<path d="M13.1997 29.1015C13.7807 29.2357 14.3774 28.8621 14.5113 28.2815L16.4578 19.8424C16.5935 19.2538 16.2264 18.6666 15.6378 18.5308C15.0491 18.3949 14.462 18.7623 14.3262 19.3508L12.3797 27.79C12.2441 28.3785 12.6112 28.9658 13.1997 29.1015Z" fill="#A7A7AB"/>
<path d="M7.90785 28.0078C8.1242 28.2595 8.43001 28.3884 8.73768 28.3884C8.99012 28.3884 9.24387 28.3015 9.45026 28.1239C9.90832 27.7301 9.96039 27.0396 9.56653 26.5815L7.18827 23.8157L9.56675 21.0471C9.96039 20.5889 9.90811 19.8983 9.44993 19.5047C8.99187 19.1109 8.30139 19.1634 7.90753 19.6215L4.91644 23.1033C4.56415 23.5133 4.56437 24.1193 4.91677 24.5291L7.90785 28.0078Z" fill="#A7A7AB"/>
<path d="M20.9234 19.6218C20.5297 19.1637 19.8393 19.1113 19.381 19.505C18.9228 19.8986 18.8705 20.5891 19.2642 21.0474L21.6427 23.816L19.2645 26.5819C18.9032 27.002 18.9186 27.647 19.301 28.0484C19.7415 28.5108 20.5068 28.4923 20.9232 28.008L23.9144 24.5294C24.2668 24.1195 24.267 23.5136 23.9146 23.1035L20.9234 19.6218Z" fill="#A7A7AB"/>
<path d="M31.6808 22.7224H27.5703C26.9662 22.7224 26.4766 23.2122 26.4766 23.8162C26.4766 24.4201 26.9662 24.9099 27.5703 24.9099H31.6808C32.2848 24.9099 32.7746 24.4201 32.7746 23.8162C32.7746 23.2122 32.2848 22.7224 31.6808 22.7224Z" fill="#A7A7AB"/>
<path d="M44.185 22.7224H36.1289C35.5249 22.7224 35.0352 23.2122 35.0352 23.8162C35.0352 24.4201 35.5249 24.9099 36.1289 24.9099H44.185C44.789 24.9099 45.2788 24.4201 45.2788 23.8162C45.2788 23.2122 44.7891 22.7224 44.185 22.7224Z" fill="#A7A7AB"/>
<path d="M22.771 31.5554H12.2148C11.6108 31.5554 11.1211 32.0452 11.1211 32.6492C11.1211 33.2531 11.6108 33.7429 12.2148 33.7429H22.771C23.375 33.7429 23.8647 33.2531 23.8647 32.6492C23.8647 32.0452 23.375 31.5554 22.771 31.5554Z" fill="#A7A7AB"/>
<path d="M7.77103 31.5554H5.75C5.14592 31.5554 4.65625 32.0452 4.65625 32.6492C4.65625 33.2531 5.14592 33.7429 5.75 33.7429H7.77103C8.37511 33.7429 8.86478 33.2531 8.86478 32.6492C8.86478 32.0452 8.37511 31.5554 7.77103 31.5554Z" fill="#A7A7AB"/>
<path d="M22.5706 39.094C23.1747 39.094 23.6644 38.6042 23.6644 38.0002C23.6644 37.3963 23.1747 36.9065 22.5706 36.9065H5.32031C4.71623 36.9065 4.22656 37.3963 4.22656 38.0002C4.22656 38.6042 4.71623 39.094 5.32031 39.094H22.5706Z" fill="#A7A7AB"/>
<path d="M22.768 42.2606H20.75C20.1459 42.2606 19.6562 42.7504 19.6562 43.3544C19.6562 43.9583 20.1459 44.4481 20.75 44.4481H22.768C23.372 44.4481 23.8617 43.9583 23.8617 43.3544C23.8617 42.7504 23.372 42.2606 22.768 42.2606Z" fill="#A7A7AB"/>
<path d="M16.306 42.2606H5.75C5.14592 42.2606 4.65625 42.7504 4.65625 43.3544C4.65625 43.9583 5.14592 44.4481 5.75 44.4481H16.306C16.9101 44.4481 17.3998 43.9583 17.3998 43.3544C17.3998 42.7504 16.9101 42.2606 16.306 42.2606Z" fill="#A7A7AB"/>
<path d="M54.9062 39.7974C54.3023 39.7974 53.8125 40.2887 53.8125 40.8928C53.8125 41.4968 54.3023 41.9865 54.9062 41.9865C55.5102 41.9865 56 41.4967 56 40.8928V40.8896C56 40.2855 55.5102 39.7974 54.9062 39.7974Z" fill="#A7A7AB"/>
<path d="M39.4378 36.3885C38.9879 36.3887 38.5839 36.6642 38.4196 37.0829L34.4118 47.2984C34.1912 47.8608 34.4682 48.4954 35.0305 48.7161C35.1617 48.7675 35.2968 48.7919 35.4296 48.7919C35.8664 48.7919 36.279 48.5284 36.4482 48.0973L37.1939 46.1965H41.6843L42.4307 48.0975C42.6515 48.6598 43.2862 48.9366 43.8485 48.7159C44.4109 48.495 44.6878 47.8603 44.4669 47.298L40.4559 37.0825C40.2916 36.6638 39.8876 36.3884 39.4378 36.3885ZM38.0522 44.0091L39.4383 40.476L40.8255 44.0091H38.0522Z" fill="#A7A7AB"/>
<path d="M47.1406 37.4823V47.6978C47.1406 48.3018 47.6304 48.7916 48.2344 48.7916C48.8383 48.7916 49.3281 48.3018 49.3281 47.6978V37.4823C49.3281 36.8783 48.8383 36.3885 48.2344 36.3885C47.6304 36.3885 47.1406 36.8783 47.1406 37.4823Z" fill="#A7A7AB"/>
</g>
<defs>
<clipPath id="clip0_938_7517">
<rect width="56" height="56" fill="white"/>
</clipPath>
</defs>
</svg>
