<svg width="56" height="56" viewBox="0 0 56 56" fill="none" xmlns="http://www.w3.org/2000/svg">
<g clip-path="url(#clip0_938_7513)">
<path d="M48.9443 22.6446H54.9062C55.5102 22.6446 56 22.1549 56 21.5509V15.5915C56 14.9874 55.5102 14.4977 54.9062 14.4977H48.9443C48.3404 14.4977 47.8506 14.9874 47.8506 15.5915V17.4723L34.3771 17.3906L29.0921 14.9008V9.87279C31.5749 9.78507 33.8886 9.39996 35.698 8.76614C38.8147 7.67436 39.469 6.20425 39.469 5.16332C39.469 3.20726 37.1518 1.64867 33.112 0.887198C32.5177 0.775526 31.9465 1.16589 31.8345 1.75946C31.7227 2.35304 32.1132 2.92496 32.7067 3.03685C35.9396 3.64618 37.2815 4.72254 37.2815 5.16332C37.2815 5.44573 36.6552 6.11303 34.9748 6.70168C33.1285 7.34853 30.6509 7.70465 27.9984 7.70465C25.347 7.70465 22.8698 7.34842 21.0231 6.70168C19.3419 6.11292 18.7154 5.44562 18.7154 5.16332C18.7154 4.72276 20.0574 3.64673 23.2902 3.03685C23.8839 2.92485 24.2743 2.35293 24.1623 1.75924C24.0504 1.16578 23.4787 0.775198 22.8848 0.887198C18.8448 1.64932 16.5279 3.20792 16.5279 5.16332C16.5279 6.20425 17.1823 7.67436 20.2999 8.76614C22.1095 9.39996 24.4228 9.78507 26.9046 9.87279V14.901L21.4351 17.4791H8.14625V15.5916C8.14625 14.9875 7.65647 14.4978 7.0525 14.4978H1.09375C0.489781 14.4978 0 14.9875 0 15.5916V21.551C0 22.1551 0.489781 22.6447 1.09375 22.6447H7.0525C7.65647 22.6447 8.14625 22.1551 8.14625 21.551V19.6666H21.4351L26.9046 22.2446V25.0287L21.4351 27.6066H8.54077C7.9368 27.6066 7.44702 28.0963 7.44702 28.7004V36.2746H1.09375C0.489781 36.2746 0 36.7643 0 37.3684V43.3278C0 43.9318 0.489781 44.4215 1.09375 44.4215H7.44702V47.4155H1.09375C0.489781 47.4155 0 47.9052 0 48.5093V54.4687C0 55.0728 0.489781 55.5625 1.09375 55.5625H15.9908C16.5948 55.5625 17.0846 55.0728 17.0846 54.4687V48.5093C17.0846 47.9052 16.5948 47.4155 15.9908 47.4155H9.63452V44.4215H15.9908C16.5948 44.4215 17.0846 43.9318 17.0846 43.3278V37.3684C17.0846 36.7643 16.5948 36.2746 15.9908 36.2746H9.63452V29.7941H21.4351L26.9046 32.3722V36.2746H20.5515C19.9475 36.2746 19.4577 36.7643 19.4577 37.3684V43.3278C19.4577 43.9318 19.9475 44.4215 20.5515 44.4215H26.9046V47.4155H20.5515C19.9475 47.4155 19.4577 47.9052 19.4577 48.5093V54.4687C19.4577 55.0728 19.9475 55.5625 20.5515 55.5625H35.4484C36.0524 55.5625 36.5422 55.0728 36.5422 54.4687V48.5093C36.5422 47.9052 36.0524 47.4155 35.4484 47.4155H29.0921V44.4215H35.4484C36.0524 44.4215 36.5422 43.9318 36.5422 43.3278V37.3684C36.5422 36.7643 36.0524 36.2746 35.4484 36.2746H29.0921V32.3723L34.5647 29.7941H46.3623V36.2746H40.009C39.4051 36.2746 38.9153 36.7643 38.9153 37.3684V43.3278C38.9153 43.9318 39.4051 44.4215 40.009 44.4215H46.3623V47.4155H40.009C39.4051 47.4155 38.9153 47.9052 38.9153 48.5093V54.4687C38.9153 55.0728 39.4051 55.5625 40.009 55.5625H54.9062C55.5102 55.5625 56 55.0728 56 54.4687V48.5093C56 47.9052 55.5102 47.4155 54.9062 47.4155H48.5499V44.4215H54.9062C55.5102 44.4215 56 43.9318 56 43.3278V37.3684C56 36.7643 55.5102 36.2746 54.9062 36.2746H48.5499V28.7004C48.5499 28.0963 48.0601 27.6066 47.4562 27.6066H34.5648L29.0922 25.0285V22.2446L34.7476 19.5804L47.8507 19.6599V21.5509C47.8506 22.1549 48.3404 22.6446 48.9443 22.6446ZM5.95875 20.4571H2.1875V16.6852H5.95875V20.4571ZM14.8971 53.375H2.1875V49.603H14.8971V53.375ZM14.8971 42.234H2.1875V38.4621H14.8971V42.234ZM34.3548 53.375H21.6452V49.603H34.3547V53.375H34.3548ZM34.3548 42.234H21.6452V38.4621H34.3547V42.234H34.3548ZM53.8125 53.375H41.1029V49.603H53.8125V53.375ZM53.8125 42.234H41.1029V38.4621H53.8125V42.234ZM27.9985 30.4694L24.2454 28.7004L27.9985 26.9314L31.7535 28.7004L27.9985 30.4694ZM27.9985 20.3417L24.2453 18.5727L27.9985 16.8037L31.7536 18.5727L27.9985 20.3417ZM50.0381 16.6852H53.8125V20.4571H50.0381V16.6852Z" fill="#A7A7AB"/>
<path d="M27.996 2.625H28.0023C28.6063 2.625 29.093 2.13533 29.093 1.53125C29.093 0.927172 28.6001 0.4375 27.9961 0.4375C27.3921 0.4375 26.9023 0.927172 26.9023 1.53125C26.9023 2.13533 27.392 2.625 27.996 2.625Z" fill="#A7A7AB"/>
</g>
<defs>
<clipPath id="clip0_938_7513">
<rect width="56" height="56" fill="white"/>
</clipPath>
</defs>
</svg>
