<svg width="56" height="56" viewBox="0 0 56 56" fill="none" xmlns="http://www.w3.org/2000/svg">
<g clip-path="url(#clip0_938_7502)">
<path d="M33.5046 47.9111C32.8059 47.7239 32.0864 47.7245 31.4046 47.903L28.383 42.6672C29.6476 41.3816 29.9596 39.3601 29.0163 37.7246C28.4672 36.7726 27.5804 36.0917 26.519 35.8074C25.8201 35.6201 25.1007 35.6208 24.4189 35.7993L21.3952 30.5617C21.6348 30.3187 21.8487 30.0431 22.0272 29.7343C22.0273 29.7341 22.0275 29.7338 22.0276 29.7334C23.1612 27.7684 22.4856 25.2478 20.5227 24.1152C18.5617 22.9811 16.0412 23.6557 14.9037 25.6208C13.9605 27.2561 14.2723 29.2773 15.5371 30.5634L12.5154 35.7993C11.8336 35.6208 11.1142 35.6201 10.4155 35.8074C9.35424 36.0917 8.46732 36.7725 7.91826 37.7246C6.97414 39.3614 7.28607 41.383 8.55121 42.6678L5.52907 47.9044C3.7841 47.4521 1.87803 48.1928 0.932697 49.8283C-0.200756 51.7934 0.474744 54.314 2.43759 55.4467C3.08312 55.82 3.7887 55.9973 4.48596 55.9973C5.9074 55.9973 7.29318 55.2599 8.05585 53.9426C8.05596 53.9424 8.05618 53.9422 8.05629 53.9419C8.23534 53.6322 8.3691 53.3084 8.45999 52.9784H14.5047C14.7822 53.9837 15.4378 54.8853 16.4097 55.4473C17.0437 55.8132 17.7472 56.0001 18.4599 56.0001C18.8172 56.0001 19.1766 55.9532 19.5306 55.8583C20.5915 55.574 21.4781 54.8935 22.0274 53.9419C22.2048 53.635 22.3396 53.3114 22.4319 52.9784H28.4752C28.566 53.308 28.6995 53.6314 28.878 53.9411C29.4271 54.8931 30.3139 55.5739 31.3753 55.8583C31.7293 55.9532 32.0887 56.0001 32.4459 56.0001C33.1585 56.0001 33.8622 55.8132 34.4962 55.4473C36.46 54.314 37.1355 51.7935 36.002 49.8283C35.4528 48.8762 34.5659 48.1954 33.5046 47.9111ZM6.16235 52.8467C5.6297 53.7666 4.45009 54.0836 3.53167 53.5526C2.61237 53.0221 2.29649 51.8416 2.82685 50.922C3.18363 50.3048 3.83278 49.9593 4.49876 49.9593C4.8247 49.9593 5.15457 50.0421 5.45623 50.2161C6.37629 50.7482 6.69304 51.9281 6.16235 52.8467ZM24.4912 38.1131C24.4914 38.113 24.4915 38.1129 24.4917 38.1129C24.4919 38.1128 24.4921 38.1127 24.4922 38.1125C24.9379 37.8555 25.4564 37.787 25.953 37.9202C26.4494 38.0532 26.8644 38.3718 27.1214 38.8174C27.6518 39.737 27.3355 40.9177 26.4171 41.4488C25.4982 41.9791 24.3187 41.6628 23.787 40.744C23.2564 39.8237 23.5721 38.6437 24.4912 38.1131ZM16.7977 26.7151C17.1553 26.0974 17.8042 25.7516 18.4702 25.7516C18.7963 25.7516 19.1265 25.8347 19.4283 26.0091C20.3476 26.5396 20.6635 27.7198 20.1328 28.6403C19.6014 29.559 18.4218 29.8753 17.5038 29.3457C16.5845 28.814 16.2682 27.6333 16.7977 26.7151ZM17.4309 31.658C17.7698 31.7458 18.1146 31.7893 18.4575 31.7893C18.8105 31.7893 19.1611 31.7436 19.5006 31.6552L22.5252 36.8941C22.0267 37.4004 21.676 38.0207 21.4921 38.6872H15.4422C15.2583 38.0206 14.9077 37.4003 14.4091 36.894L17.4309 31.658ZM9.81296 38.8175C10.07 38.3719 10.485 38.0533 10.9814 37.9203C11.1471 37.8759 11.3153 37.854 11.4824 37.854C11.8162 37.854 12.1458 37.9416 12.4428 38.113C13.3621 38.6434 13.6779 39.8239 13.1472 40.7443C12.8901 41.1899 12.4752 41.5085 11.9787 41.6415C11.4825 41.7744 10.9634 41.7062 10.5172 41.4488C9.59804 40.9183 9.28206 39.7379 9.81296 38.8175ZM14.9036 49.8283C14.725 50.1379 14.5917 50.4613 14.5009 50.791H8.45638C8.27242 50.1249 7.92165 49.5048 7.42323 48.9983L10.4446 43.763C10.7809 43.851 11.1263 43.8963 11.474 43.8963C11.8211 43.8963 12.1702 43.851 12.5145 43.7615L15.5369 48.9986C15.2967 49.2419 15.083 49.519 14.9036 49.8283ZM14.4101 42.6694C14.6522 42.4229 14.8649 42.1444 15.0421 41.8372C15.2207 41.5277 15.3541 41.2042 15.4449 40.8746H21.4894C21.5802 41.2041 21.7137 41.5276 21.8923 41.8372C21.8924 41.8375 21.8927 41.8377 21.8928 41.8381C22.0715 42.1474 22.2858 42.4233 22.5256 42.6666L19.5005 47.9042C18.8137 47.7262 18.1018 47.7328 17.4329 47.9072L14.4101 42.6694ZM20.1332 52.8472C20.133 52.8474 20.1328 52.8477 20.1327 52.8481C19.8757 53.2937 19.4607 53.6123 18.9643 53.7453C18.4677 53.8782 17.9487 53.8098 17.5037 53.5531C16.5845 53.0215 16.2682 51.8408 16.7972 50.9235C17.1556 50.3055 17.8054 49.9596 18.4715 49.9596C18.797 49.9596 19.1268 50.0424 19.4279 50.2165L19.428 50.2166C19.4281 50.2166 19.4282 50.2167 19.4282 50.2167C19.8735 50.4738 20.1921 50.8892 20.3251 51.3866C20.4584 51.8839 20.3902 52.4026 20.1332 52.8472ZM28.4777 50.791H22.4296C22.24 50.1034 21.8836 49.4908 21.3954 48.9969L24.4205 43.7592C24.7595 43.8474 25.1096 43.8929 25.462 43.8929C25.8049 43.8929 26.1498 43.8495 26.4887 43.7616L29.5106 48.9979C29.0122 49.504 28.6616 50.1243 28.4777 50.791ZM33.4026 53.5527C32.9567 53.8098 32.4378 53.8784 31.9412 53.7454C31.4447 53.6124 31.0297 53.2938 30.7727 52.8482C30.2418 51.9277 30.5578 50.7473 31.4771 50.2167C31.9229 49.9595 32.4417 49.8909 32.9386 50.024C33.435 50.157 33.85 50.4756 34.107 50.9212C34.6378 51.8416 34.3218 53.0222 33.4026 53.5527Z" fill="#A7A7AB"/>
<path d="M48.7051 15.0151C48.7055 15.6189 49.1952 16.108 49.7988 16.108H49.7997C50.4038 16.1076 50.893 15.6176 50.8926 15.0135C50.8908 12.6879 50.2506 10.538 49.0407 8.79619C47.772 6.96974 45.9298 5.67649 43.7131 5.05612C43.1318 4.89337 42.5279 5.23287 42.365 5.81452C42.2022 6.39629 42.5417 6.99982 43.1235 7.16257C46.5635 8.1254 48.7023 11.1343 48.7051 15.0151Z" fill="#A7A7AB"/>
<path d="M55.6151 15.0349C55.6106 10.7223 54.1033 6.96092 51.2563 4.15753C48.5222 1.46526 44.7727 -0.0493637 40.9637 0.0012769C39.3542 -0.0204887 37.7497 0.236105 36.1951 0.763292C35.6231 0.957324 35.3166 1.57835 35.5106 2.15039C35.7044 2.72242 36.3258 3.02867 36.8977 2.83486C38.2204 2.3862 39.5839 2.16778 40.9478 2.18867C40.9583 2.18878 40.9687 2.18878 40.9794 2.18867C44.2092 2.14262 47.3976 3.42811 49.7213 5.71612C51.4093 7.37829 53.4225 10.3447 53.4275 15.0375C53.4338 19.4343 51.6823 21.8182 49.828 24.342C48.4228 26.2549 46.9749 28.2268 46.3231 31.0511H42.0575V22.7397C43.5753 22.2718 44.6814 20.8571 44.6814 19.1888C44.6814 17.1402 43.0136 15.4737 40.9637 15.4737C38.9156 15.4737 37.2492 17.1402 37.2492 19.1888C37.2492 20.8568 38.3539 22.2712 39.8699 22.7395V31.0511H35.6071C34.9542 28.2269 33.5065 26.2551 32.1013 24.3425C30.2468 21.8183 28.4952 19.4343 28.5 15.0369C28.5027 12.3399 29.1726 9.91875 30.4906 7.84073C30.8142 7.3306 30.663 6.65478 30.1529 6.33136C29.6425 6.00761 28.9669 6.15898 28.6434 6.66911C27.0999 9.10237 26.3157 11.917 26.3125 15.0348C26.3069 20.1503 28.4487 23.0655 30.3384 25.6376C31.6172 27.3782 32.8334 29.0357 33.4153 31.3004C32.0778 31.8268 31.1281 33.1316 31.1281 34.6551C31.1281 36.339 32.2899 37.7562 33.8538 38.1481V40.2346C33.8538 42.5301 35.7209 44.3976 38.0159 44.3976H43.9118C46.2086 44.3976 48.077 42.5301 48.077 40.2346V38.1481C49.641 37.7562 50.8028 36.339 50.8028 34.6551C50.8028 33.1314 49.8527 31.8264 48.515 31.3001C49.096 29.0354 50.3123 27.3777 51.5912 25.6371C53.4807 23.0652 55.6224 20.15 55.6151 15.0349ZM39.4369 19.1889C39.4369 18.3466 40.1219 17.6613 40.9637 17.6613C41.8075 17.6613 42.4939 18.3466 42.4939 19.1889C42.4939 20.0313 41.8075 20.7167 40.9637 20.7167C40.1218 20.7167 39.4369 20.0313 39.4369 19.1889ZM45.8893 40.2346C45.8893 41.3239 45.0021 42.2101 43.9116 42.2101H38.0156C36.9269 42.2101 36.0412 41.3239 36.0412 40.2346V38.2562H45.8893V40.2346ZM48.6151 34.6552C48.6151 35.4346 47.9813 36.0688 47.2024 36.0688H34.7284C34.0612 36.0688 33.4687 35.5803 33.3415 34.9253C33.2127 34.2615 33.5881 33.5799 34.2182 33.3345C34.4909 33.2283 34.7877 33.2282 35.0762 33.2388H46.8541C46.8541 33.2388 47.2339 33.2289 47.4816 33.2669C48.1272 33.3971 48.6151 33.97 48.6151 34.6552Z" fill="#A7A7AB"/>
<path d="M32.693 4.94617C33.2971 4.94617 33.7868 4.4565 33.7868 3.85242C33.7868 3.24834 33.297 2.75867 32.693 2.75867H32.69C32.0859 2.75867 31.5977 3.24834 31.5977 3.85242C31.5977 4.4565 32.0891 4.94617 32.693 4.94617Z" fill="#A7A7AB"/>
</g>
<defs>
<clipPath id="clip0_938_7502">
<rect width="56" height="56" fill="white"/>
</clipPath>
</defs>
</svg>
