<svg width="56" height="56" viewBox="0 0 56 56" fill="none" xmlns="http://www.w3.org/2000/svg">
<g clip-path="url(#clip0_938_7545)">
<path d="M35.2331 10.677C35.2331 10.073 34.7433 9.58348 34.1393 9.58348H33.4286V7.29219C33.4286 6.68822 32.9388 6.19866 32.3348 6.19866C31.7309 6.19866 31.2411 6.68822 31.2411 7.29219V9.58348H29.0942V5.62148C29.0942 5.01752 28.6044 4.52795 28.0004 4.52795C27.3965 4.52795 26.9067 5.01752 26.9067 5.62148V9.58348H24.7597V7.29219C24.7597 6.68822 24.27 6.19866 23.666 6.19866C23.062 6.19866 22.5722 6.68822 22.5722 7.29219V9.58348H21.8585C21.2545 9.58348 20.7647 10.073 20.7647 10.677V11.3875H18.4758C17.8719 11.3875 17.3821 11.8771 17.3821 12.481C17.3821 13.085 17.8719 13.5746 18.4758 13.5746H20.7647V15.7208H16.8047C16.2007 15.7208 15.7109 16.2104 15.7109 16.8144C15.7109 17.4183 16.2007 17.9079 16.8047 17.9079H20.7647V20.0542H18.4758C17.8719 20.0542 17.3821 20.5437 17.3821 21.1477C17.3821 21.7517 17.8719 22.2412 18.4758 22.2412H20.7647V22.9548C20.7647 23.5587 21.2545 24.0483 21.8585 24.0483H22.5722V26.3365C22.5722 26.9405 23.062 27.4301 23.666 27.4301C24.27 27.4301 24.7597 26.9405 24.7597 26.3365V24.0483H26.9067V28.0072C26.9067 28.6112 27.3965 29.1008 28.0004 29.1008C28.6044 29.1008 29.0942 28.6112 29.0942 28.0072V24.0483H31.2411V26.3365C31.2411 26.9405 31.7309 27.4301 32.3348 27.4301C32.9388 27.4301 33.4286 26.9405 33.4286 26.3365V24.0483H34.1393C34.7433 24.0483 35.2331 23.5587 35.2331 22.9548V22.2412H37.525C38.129 22.2412 38.6188 21.7517 38.6188 21.1477C38.6188 20.5437 38.129 20.0542 37.525 20.0542H35.2331V17.9079H39.1962C39.8001 17.9079 40.2899 17.4183 40.2899 16.8144C40.2899 16.2104 39.8001 15.7208 39.1962 15.7208H35.2331V13.5746H37.525C38.129 13.5746 38.6188 13.085 38.6188 12.481C38.6188 11.8771 38.129 11.3875 37.525 11.3875H35.2331V10.677ZM22.9522 21.8614V11.7705H33.0456V21.8614H22.9522Z" fill="#A7A7AB"/>
<path d="M48.7266 47.4461H46.6362V40.034C46.6362 39.4301 46.1464 38.9405 45.5424 38.9405H34.5639L29.0938 36.3592V33.5842C33.1723 33.324 36.9706 31.6125 39.8855 28.6969C45.0331 23.5506 46.2884 15.7309 43.009 9.23864C42.7366 8.69942 42.0789 8.48308 41.5396 8.75542C41.0004 9.02765 40.7841 9.68544 41.0564 10.2244C43.9088 15.8715 42.8167 22.6734 38.3385 27.1504C35.5775 29.9122 31.9058 31.433 28 31.433C24.0942 31.433 20.4225 29.9122 17.6614 27.1503C11.9621 21.4525 11.9622 12.1791 17.6614 6.47834C22.1401 2.00075 28.9438 0.90995 34.5912 3.7642C35.1306 4.03654 35.7882 3.82064 36.0608 3.28153C36.3333 2.74253 36.1173 2.08475 35.5782 1.81229C29.0849 -1.46928 21.2632 -0.215519 16.1145 4.932C9.56266 11.4856 9.56276 22.1464 16.1145 28.6966C19.0295 31.6124 22.8278 33.3239 26.9064 33.5841V36.359L21.4362 38.9405H10.4576C9.85359 38.9405 9.36381 39.4301 9.36381 40.034V47.4461H7.27344C6.66947 47.4461 6.17969 47.9356 6.17969 48.5396V54.9063C6.17969 55.5103 6.66947 55.9998 7.27344 55.9998H13.6418C14.2458 55.9998 14.7355 55.5103 14.7355 54.9063V48.5396C14.7355 47.9356 14.2458 47.4461 13.6418 47.4461H11.5514V41.1276H21.4364L26.9062 43.7063V47.4461H24.8159C24.2119 47.4461 23.7221 47.9356 23.7221 48.5396V54.9063C23.7221 55.5103 24.2119 55.9998 24.8159 55.9998H31.1842C31.7882 55.9998 32.278 55.5103 32.278 54.9063V48.5396C32.278 47.9356 31.7882 47.4461 31.1842 47.4461H29.0938V43.7063L34.5636 41.1277H44.4486V47.4462H42.3582C41.7542 47.4462 41.2645 47.9357 41.2645 48.5397V54.9064C41.2645 55.5104 41.7542 56 42.3582 56H48.7266C49.3305 56 49.8203 55.5104 49.8203 54.9064V48.5397C49.8203 47.9357 49.3305 47.4461 48.7266 47.4461ZM12.548 53.8129H8.36719V49.6332H12.548V53.8129ZM30.0904 53.8129H25.9095V49.6332H30.0904V53.8129ZM28 41.804L24.2447 40.0336L28 38.2615L31.7553 40.0336L28 41.804ZM47.6328 53.8129H43.452V49.6332H47.6328V53.8129Z" fill="#A7A7AB"/>
<path d="M38.1384 6.20046C38.3297 6.58283 38.7139 6.80267 39.1138 6.80267C39.2788 6.80267 39.4465 6.76527 39.6042 6.68641C40.1444 6.41636 40.362 5.75639 40.0918 5.21619C39.8216 4.67599 39.1643 4.45702 38.6244 4.72718C38.0841 4.99722 37.8651 5.65413 38.1352 6.19433L38.1384 6.20046Z" fill="#A7A7AB"/>
</g>
<defs>
<clipPath id="clip0_938_7545">
<rect width="56" height="56" fill="white"/>
</clipPath>
</defs>
</svg>
