<svg width="56" height="56" viewBox="0 0 56 56" fill="none" xmlns="http://www.w3.org/2000/svg">
<g clip-path="url(#clip0_938_7536)">
<path d="M32.2941 29.6496C33.245 28.698 33.245 27.1498 32.2927 26.1973L31.9006 25.8062C32.4895 24.7509 32.952 23.6339 33.2825 22.4692H33.8395C35.1828 22.4692 36.2756 21.376 36.2756 20.0322V16.2632C36.2756 14.9194 35.1828 13.8262 33.8395 13.8262H33.2825C32.952 12.6608 32.4893 11.5444 31.9005 10.4907L32.294 10.097C33.2451 9.1455 33.2451 7.5973 32.2941 6.64584L29.6341 3.9842C29.174 3.52395 28.5612 3.27042 27.9087 3.27042C27.2559 3.27042 26.6432 3.52395 26.1821 3.98541L25.7918 4.37708C24.7375 3.7882 23.6213 3.32566 22.4576 2.99513V2.44016C22.4576 1.09462 21.3648 0 20.0215 0H16.2547C14.9114 0 13.8185 1.09462 13.8185 2.44016V2.99513C12.6549 3.32555 11.5388 3.7882 10.4845 4.37708C10.2145 4.10616 9.95641 3.81741 9.62598 3.61802C9.0708 3.283 8.38819 3.1862 7.76026 3.34589C7.31445 3.4592 6.9265 3.6995 6.60319 4.02292C6.44033 4.18589 6.27747 4.34886 6.11461 4.51172C5.57528 5.05137 5.03606 5.59092 4.49673 6.13058C4.33672 6.2907 4.17659 6.45072 4.01669 6.61084C3.72116 6.90692 3.49573 7.25758 3.37389 7.65975C3.21048 8.19941 3.23925 8.79025 3.4557 9.31098C3.63387 9.73962 3.93827 10.0531 4.25961 10.3747C4.29822 10.4133 4.33672 10.4519 4.37533 10.4905C3.78656 11.5442 3.32402 12.6606 2.99337 13.826H2.4395C1.0943 13.8261 0 14.9193 0 16.2631V20.0321C0 21.3759 1.0943 22.4691 2.43928 22.4691H2.99337C3.32325 23.6299 3.78591 24.7467 4.37566 25.8054L3.98158 26.1984C3.03078 27.1497 3.03078 28.6979 3.98158 29.6496L6.64158 32.3111C7.10161 32.7714 7.71444 33.0249 8.36708 33.0249C9.01972 33.0249 9.63244 32.7714 10.0937 32.3099L10.4839 31.9183C11.5372 32.5066 12.6533 32.9697 13.818 33.302V33.8583C13.818 35.202 14.9109 36.2952 16.2541 36.2952H20.021C21.3642 36.2952 22.4571 35.202 22.4571 33.8583V33.302C23.6219 32.9697 24.738 32.5066 25.7913 31.9183L26.1826 32.311C26.6427 32.7714 27.2555 33.0249 27.9081 33.0249C28.5608 33.0249 29.1735 32.7714 29.6335 32.3111L32.2941 29.6496ZM27.9086 30.8374C27.8604 30.8374 27.7904 30.8248 27.7316 30.7659L26.7395 29.7701C26.3771 29.4067 25.8113 29.344 25.3783 29.6189C24.0729 30.4479 22.6411 31.0426 21.1224 31.3861C20.6239 31.4989 20.27 31.9419 20.27 32.453V33.8583C20.27 33.9935 20.1562 34.1077 20.0214 34.1077H16.2545C16.1198 34.1077 16.0059 33.9935 16.0059 33.8583V32.453C16.0059 31.9419 15.6521 31.4989 15.1536 31.3861C13.6351 31.0426 12.2032 30.4479 10.8977 29.6189C10.7173 29.5042 10.5138 29.4483 10.3117 29.4483C10.0285 29.4483 9.74783 29.558 9.53652 29.77L8.54558 30.7646C8.48553 30.8247 8.41564 30.8373 8.36741 30.8373C8.31917 30.8373 8.24917 30.8247 8.18913 30.7646L5.52923 28.1031C5.432 28.0059 5.432 27.8417 5.52781 27.7458L6.52302 26.7532C6.88548 26.3918 6.94881 25.8272 6.67526 25.3945C5.84303 24.0778 5.24956 22.6451 4.91127 21.136C4.79937 20.6365 4.35586 20.2814 3.84398 20.2814H2.43928C2.30278 20.2814 2.1875 20.1671 2.1875 20.0319V16.2629C2.1875 16.1277 2.30278 16.0134 2.43928 16.0134H3.84377C4.35564 16.0134 4.79905 15.6583 4.91105 15.1588C5.2512 13.6413 5.84412 12.2104 6.67341 10.906C6.95866 10.4575 6.86667 9.89122 6.49994 9.52197C6.2615 9.28189 6.02153 9.04323 5.78233 8.80381C5.61892 8.6403 5.313 8.42341 5.5417 8.17917C5.67787 8.0337 7.94237 5.77708 8.1247 5.59464C8.17567 5.54356 8.22325 5.48789 8.29576 5.46722C8.44605 5.42456 8.53989 5.52475 8.63406 5.61925C8.88781 5.87398 9.14167 6.12872 9.39542 6.38345C9.47986 6.46822 9.56222 6.55889 9.65836 6.63053C9.89319 6.80531 10.1951 6.87903 10.484 6.83288C10.6307 6.80947 10.7721 6.75566 10.8975 6.67603C12.2048 5.84566 13.6361 5.25219 15.1515 4.91225C15.6508 4.80014 16.0058 4.35673 16.0058 3.84497V2.44016C16.0058 2.30322 16.1197 2.1875 16.2544 2.1875H20.0213C20.1561 2.1875 20.2699 2.30322 20.2699 2.44016V3.84541C20.2699 4.35717 20.6248 4.80047 21.1242 4.91269C22.6396 5.25273 24.0709 5.8462 25.3783 6.67647C25.8113 6.95155 26.3774 6.88855 26.7395 6.5252L27.7306 5.53055C27.7905 5.4705 27.8605 5.45792 27.9087 5.45792C27.9568 5.45792 28.0268 5.4705 28.0868 5.53066L30.7468 8.19219C30.8439 8.28931 30.8439 8.45337 30.7467 8.5505L29.7515 9.54625C29.3893 9.90861 29.3273 10.4738 29.6022 10.9062C30.4315 12.2106 31.0244 13.6415 31.3646 15.159C31.4765 15.6585 31.92 16.0136 32.4319 16.0136H33.8394C33.9742 16.0136 34.088 16.1279 34.088 16.2631V20.0321C34.088 20.1673 33.9742 20.2816 33.8394 20.2816H32.4319C31.92 20.2816 31.4766 20.6367 31.3646 21.1362C31.0248 22.6523 30.4316 24.0846 29.6016 25.3932C29.3269 25.826 29.3898 26.3914 29.7528 26.7535L30.7468 27.7448C30.8439 27.842 30.8439 28.0061 30.7467 28.1031L28.0867 30.7647C28.0267 30.8248 27.9567 30.8374 27.9086 30.8374Z" fill="#A7A7AB"/>
<path d="M42.3788 35.4758C38.5772 35.4758 35.4844 38.5702 35.4844 42.3736C35.4844 46.1788 38.5772 49.2746 42.3788 49.2746C46.1821 49.2746 49.2763 46.1788 49.2763 42.3736C49.2765 38.5702 46.1822 35.4758 42.3788 35.4758ZM42.3788 47.0871C39.7835 47.0871 37.6719 44.9726 37.6719 42.3736C37.6719 39.7763 39.7835 37.6633 42.3788 37.6633C44.9759 37.6633 47.0888 39.7763 47.0888 42.3736C47.089 44.9726 44.976 47.0871 42.3788 47.0871Z" fill="#A7A7AB"/>
<path d="M53.9179 38.9099H53.7275C53.5056 38.1806 53.2131 37.4754 52.8527 36.8003L52.9895 36.6633C53.8009 35.8512 53.8009 34.5301 52.9888 33.7173L51.033 31.7634C50.6392 31.3696 50.1125 31.1515 49.5564 31.1546C48.9994 31.1558 48.4778 31.3732 48.0923 31.762L47.9551 31.8987C47.2797 31.5389 46.5748 31.2468 45.847 31.025V30.8339C45.847 29.6851 44.9127 28.7505 43.7643 28.7505H40.9988C39.8521 28.7505 38.9191 29.6851 38.9191 30.8339V31.025C38.1913 31.2468 37.4863 31.5389 36.811 31.8987L36.6755 31.7637C36.283 31.3709 35.7599 31.1547 35.2028 31.1547C34.6456 31.1547 34.1227 31.371 33.7299 31.7637L31.7767 33.7181C30.9654 34.5302 30.9654 35.8513 31.7752 36.6618L31.9125 36.7997C31.5525 37.476 31.2605 38.1815 31.0388 38.91H30.8484C29.7 38.91 28.7656 39.8431 28.7656 40.9902V43.7574C28.7656 44.9062 29.7 45.8407 30.8484 45.8407H31.0388C31.2605 46.5692 31.5525 47.2747 31.9125 47.9509L31.7799 48.0842C31.3866 48.4745 31.1695 48.9961 31.1684 49.553C31.1672 50.1113 31.3833 50.6357 31.7762 51.029L33.73 52.9871C34.1227 53.3798 34.6456 53.596 35.2028 53.596C35.7599 53.596 36.283 53.3797 36.6755 52.987L36.8116 52.8507C37.486 53.2111 38.1906 53.5036 38.9192 53.7255V53.9168C38.9192 55.0656 39.8521 56.0002 40.9989 56.0002H43.7644C44.9128 56.0002 45.8471 55.0656 45.8471 53.9168V53.7255C46.5757 53.5036 47.2804 53.2111 47.9548 52.8507L48.0878 52.9838C48.4779 53.3775 48.9996 53.5949 49.5566 53.5961H49.5611C50.1179 53.5961 50.6406 53.3799 51.0333 52.9871L52.9897 51.0296C53.3832 50.6358 53.5992 50.1114 53.5981 49.5531C53.597 48.9962 53.3799 48.4747 52.9896 48.0873L52.8529 47.9505C53.2133 47.2753 53.5058 46.5702 53.7277 45.8409H53.9181C55.0665 45.8409 56.0008 44.9064 56.0008 43.7576V40.9904C56.0006 39.843 55.0663 38.9099 53.9179 38.9099ZM53.8131 43.6529H52.8855C52.3734 43.6529 51.93 44.0082 51.8181 44.5078C51.5776 45.5831 51.1542 46.6042 50.56 47.543C50.2863 47.9752 50.3489 48.5393 50.7105 48.9012L51.3671 49.5581L49.5619 51.3643L48.9063 50.7083C48.5443 50.346 47.9797 50.2838 47.5472 50.5576C46.6091 51.1521 45.5887 51.5756 44.5142 51.8164C44.0147 51.9283 43.6596 52.3717 43.6596 52.8836V53.8125H41.1067V52.8836C41.1067 52.3717 40.7517 51.9284 40.2522 51.8164C39.1777 51.5756 38.1572 51.1521 37.2191 50.5576C36.7865 50.2835 36.222 50.3461 35.86 50.7083L35.2029 51.3659L33.3991 49.5581L34.0543 48.8996C34.414 48.5382 34.4762 47.9764 34.2045 47.5451C33.6111 46.603 33.1884 45.5811 32.9482 44.5077C32.8364 44.0081 32.3929 43.6529 31.8808 43.6529H30.9532V41.0974H31.8808C32.3929 41.0974 32.8363 40.7423 32.9482 40.2426C33.1884 39.1693 33.6113 38.1474 34.2045 37.2053C34.4762 36.774 34.414 36.2122 34.0543 35.8508L33.3975 35.1908L35.203 33.3843L35.8615 34.0405C36.2231 34.4007 36.7854 34.4628 37.217 34.1908C38.1583 33.5971 39.1795 33.1743 40.2522 32.934C40.7517 32.8221 41.1067 32.3787 41.1067 31.8667V30.9379H43.6596V31.8667C43.6596 32.3787 44.0147 32.822 44.5142 32.934C45.5868 33.1743 46.608 33.5971 47.5493 34.1908C47.9807 34.4628 48.5431 34.4008 48.9048 34.0405L49.5619 33.3858L51.3687 35.1907L50.7106 35.8491C50.349 36.2111 50.2864 36.7751 50.5601 37.2074C51.1543 38.1461 51.5777 39.1673 51.8182 40.2425C51.93 40.7421 52.3735 41.0974 52.8856 41.0974H53.8131V43.6529Z" fill="#A7A7AB"/>
<path d="M23.8212 11.5277H23.1787V8.79651C23.1787 8.19254 22.6889 7.70276 22.085 7.70276C21.481 7.70276 20.9912 8.19254 20.9912 8.79651V11.5277H15.2823V8.79651C15.2823 8.19254 14.7925 7.70276 14.1885 7.70276C13.5845 7.70276 13.0948 8.19254 13.0948 8.79651V11.5277H12.4523C11.085 11.5277 9.97266 12.6404 9.97266 14.0081V24.7259C9.97266 26.0936 11.085 27.2063 12.4523 27.2063H13.2244C13.8283 27.2063 14.3181 26.7165 14.3181 26.1125C14.3181 25.5086 13.8283 25.0188 13.2244 25.0188H12.4523C12.2939 25.0188 12.1602 24.8846 12.1602 24.7259V14.0081C12.1602 13.8494 12.2939 13.7152 12.4523 13.7152H23.8212C23.9795 13.7152 24.1133 13.8494 24.1133 14.0081V24.7259C24.1133 24.8846 23.9795 25.0188 23.8212 25.0188H23.0492C22.4452 25.0188 21.9555 25.5086 21.9555 26.1125C21.9555 26.7165 22.4452 27.2063 23.0492 27.2063H23.8212C25.1885 27.2063 26.3008 26.0936 26.3008 24.7259V14.0081C26.3008 12.6403 25.1885 11.5277 23.8212 11.5277Z" fill="#A7A7AB"/>
<path d="M15.3828 15.765C14.7788 15.765 14.2891 16.2548 14.2891 16.8588C14.2891 17.4627 14.7788 17.9525 15.3828 17.9525H15.389C15.993 17.9525 16.4797 17.4627 16.4797 16.8588C16.4797 16.2548 15.9868 15.765 15.3828 15.765Z" fill="#A7A7AB"/>
<path d="M20.875 15.765C20.271 15.765 19.7812 16.2548 19.7812 16.8588C19.7812 17.4627 20.271 17.9525 20.875 17.9525H20.8812C21.4852 17.9525 21.9719 17.4627 21.9719 16.8588C21.9719 16.2548 21.479 15.765 20.875 15.765Z" fill="#A7A7AB"/>
<path d="M18.1406 25.0187C17.5367 25.0187 17.0469 25.5085 17.0469 26.1124C17.0469 26.7164 17.5367 27.2062 18.1406 27.2062H18.1437C18.7477 27.2062 19.2359 26.7164 19.2359 26.1124C19.2359 25.5085 18.7446 25.0187 18.1406 25.0187Z" fill="#A7A7AB"/>
</g>
<defs>
<clipPath id="clip0_938_7536">
<rect width="56" height="56" fill="white"/>
</clipPath>
</defs>
</svg>
