<svg width="56" height="56" viewBox="0 0 56 56" fill="none" xmlns="http://www.w3.org/2000/svg">
<path d="M38.9615 29.0921C39.5655 29.0921 40.0553 28.6024 40.0553 27.9984C40.0553 27.3944 39.5655 26.9046 38.9615 26.9046H35.104V24.851H37.3245C37.9285 24.851 38.4182 24.3612 38.4182 23.7573C38.4182 23.1533 37.9285 22.6635 37.3245 22.6635H35.104V21.9869C35.104 21.383 34.6142 20.8932 34.0102 20.8932H33.3368V18.6758C33.3368 18.0719 32.847 17.5821 32.243 17.5821C31.6391 17.5821 31.1493 18.0719 31.1493 18.6758V20.8932H29.0924V17.0388C29.0924 16.4348 28.6026 15.9451 27.9986 15.9451C27.3947 15.9451 26.9049 16.4348 26.9049 17.0388V20.8932H24.8513V18.6758C24.8513 18.0719 24.3615 17.5821 23.7575 17.5821C23.1536 17.5821 22.6638 18.0719 22.6638 18.6758V20.8932H21.9872C21.3832 20.8932 20.8934 21.383 20.8934 21.9869V22.6635H18.6761C18.0721 22.6635 17.5823 23.1533 17.5823 23.7573C17.5823 24.3612 18.0721 24.851 18.6761 24.851H20.8934V26.9046H17.0391C16.4351 26.9046 15.9453 27.3944 15.9453 27.9984C15.9453 28.6024 16.4351 29.0921 17.0391 29.0921H20.8934V31.149H18.6761C18.0721 31.149 17.5823 31.6388 17.5823 32.2428C17.5823 32.8468 18.0721 33.3365 18.6761 33.3365H20.8934V34.01C20.8934 34.6139 21.3832 35.1037 21.9872 35.1037H22.6638V37.3242C22.6638 37.9282 23.1536 38.418 23.7575 38.418C24.3615 38.418 24.8513 37.9282 24.8513 37.3242V35.1037H26.9049V38.9613C26.9049 39.5652 27.3947 40.055 27.9986 40.055C28.6026 40.055 29.0924 39.5652 29.0924 38.9613V35.1037H31.1493V37.3242C31.1493 37.9282 31.6391 38.418 32.243 38.418C32.847 38.418 33.3368 37.9282 33.3368 37.3242V35.1037H34.0102C34.6142 35.1037 35.104 34.6139 35.104 34.01V33.3365H37.3245C37.9285 33.3365 38.4182 32.8468 38.4182 32.2428C38.4182 31.6388 37.9285 31.149 37.3245 31.149H35.104V29.0921H38.9615ZM23.0809 32.9162V23.0807H32.9165V32.9162H23.0809Z" fill="#A7A7AB"/>
<path d="M52.2834 24.2849C50.6163 24.2849 49.2025 25.3891 48.7344 26.9046H44.4262C44.4231 26.8585 44.4206 26.8124 44.4172 26.7662C44.372 26.1638 43.8473 25.7127 43.2446 25.7575C42.6423 25.8027 42.1905 26.3277 42.2358 26.9301C42.6985 33.0915 39.1723 38.8198 33.461 41.1844C26.1913 44.1968 17.8254 40.7321 14.8123 33.461C11.7998 26.1913 15.2646 17.8255 22.5356 14.8123C28.2464 12.4465 34.792 14.0042 38.8235 18.6885C39.2176 19.1463 39.9083 19.198 40.366 18.804C40.8239 18.4099 40.8755 17.7194 40.4815 17.2615C40.4508 17.2257 40.4193 17.1907 40.3883 17.1553L43.4326 14.111C43.9618 14.3917 44.5549 14.5407 45.1712 14.5407C46.1641 14.5407 47.0972 14.1545 47.7985 13.4531C48.4999 12.7517 48.8861 11.8192 48.8861 10.8272C48.8861 9.83533 48.4999 8.90269 47.7984 8.20138C47.0971 7.49995 46.164 7.11375 45.1711 7.11375C44.1782 7.11375 43.2451 7.49995 42.5438 8.20138C41.8423 8.90269 41.4561 9.83522 41.4561 10.8272C41.4561 11.4428 41.6052 12.0355 41.8857 12.5643L38.8427 15.6074C36.0886 13.1928 32.6517 11.8021 29.0922 11.5675V7.26567C30.6095 6.79755 31.7151 5.38234 31.7151 3.7135C31.7151 1.66578 30.0478 0 27.9984 0C25.9506 0 24.2849 1.66578 24.2849 3.7135C24.2849 5.38202 25.3891 6.797 26.9046 7.26545V11.5696C25.1494 11.6884 23.392 12.09 21.6984 12.7916C19.9951 13.4974 18.4729 14.458 17.1575 15.6109L14.111 12.5643C14.3916 12.0355 14.5406 11.4429 14.5406 10.8272C14.5406 9.83533 14.1544 8.90269 13.453 8.20138C12.7516 7.49995 11.8191 7.11375 10.8271 7.11375C9.83522 7.11375 8.90269 7.49995 8.20138 8.20138C8.20138 8.20138 8.20138 8.20137 8.20127 8.20148C7.49984 8.9028 7.11364 9.83533 7.11364 10.8272C7.11364 11.8192 7.49984 12.7517 8.20127 13.453C8.90258 14.1545 9.83511 14.5407 10.8271 14.5407C11.4427 14.5407 12.0354 14.3917 12.5642 14.1111L15.6136 17.1604C13.2454 19.8753 11.8223 23.3107 11.577 26.9045H7.26545C6.79711 25.389 5.38212 24.2847 3.7135 24.2847C1.66578 24.2849 0 25.9507 0 27.9984C0 30.0477 1.66578 31.715 3.7135 31.715C5.38234 31.715 6.79755 30.6092 7.26567 29.0921H11.573C11.6878 30.8382 12.0853 32.5944 12.7915 34.2985C13.4974 36.0018 14.4598 37.5221 15.6126 38.8373L12.5643 41.8857C12.0355 41.6052 11.4429 41.4561 10.8272 41.4561C9.83533 41.4561 8.90269 41.8423 8.20138 42.5437C7.49995 43.2451 7.11375 44.1782 7.11375 45.1711C7.11375 46.1639 7.49995 47.097 8.20138 47.7984C8.90269 48.4999 9.83522 48.8861 10.8272 48.8861C11.8191 48.8861 12.7517 48.4999 13.453 47.7985C14.1545 47.0972 14.5408 46.1641 14.5408 45.1712C14.5408 44.5549 14.3917 43.9617 14.111 43.4326L17.1607 40.3828C19.8756 42.7511 23.3105 44.1746 26.9045 44.4196V48.7343C25.389 49.2023 24.2847 50.6161 24.2847 52.2833C24.2847 54.3327 25.9505 55.9999 27.9982 55.9999C30.0476 55.9999 31.7149 54.3327 31.7149 52.2833C31.7149 50.6159 30.6091 49.2018 29.092 48.7341V44.4229C30.838 44.3079 32.5944 43.9114 34.298 43.2054C35.9915 42.5043 37.5178 41.5462 38.8427 40.3896L41.8857 43.4326C41.605 43.9617 41.456 44.5549 41.456 45.1712C41.456 46.1641 41.8422 47.0972 42.5436 47.7985C43.245 48.4999 44.1781 48.8861 45.171 48.8861C46.1638 48.8861 47.0969 48.4999 47.7983 47.7985C47.7983 47.7985 47.7983 47.7985 47.7984 47.7984C48.4998 47.0971 48.886 46.164 48.886 45.1711C48.886 44.1782 48.4998 43.2451 47.7984 42.5438C47.0971 41.8423 46.164 41.4561 45.1711 41.4561C44.5548 41.4561 43.9616 41.6052 43.4325 41.8858L40.3911 38.8444C42.7428 36.1616 44.1896 32.7474 44.4285 29.0921H48.734C49.2017 30.6094 50.6158 31.715 52.2832 31.715C54.3326 31.715 55.9998 30.0477 55.9998 27.9984C56 25.9507 54.3328 24.2849 52.2834 24.2849ZM44.0906 9.74827C44.3789 9.45995 44.7627 9.30125 45.1712 9.30125C45.5797 9.30125 45.9635 9.45995 46.2517 9.74816C46.2517 9.74816 46.2517 9.74827 46.2518 9.74827C46.54 10.0365 46.6987 10.4197 46.6987 10.8272C46.6987 11.2348 46.54 11.6179 46.2517 11.9063C45.9635 12.1945 45.5797 12.3532 45.1712 12.3532C44.7627 12.3532 44.3789 12.1945 44.0906 11.9062C43.8023 11.6179 43.6436 11.2348 43.6436 10.8272C43.6436 10.4197 43.8024 10.0365 44.0906 9.74827ZM26.4724 3.7135C26.4724 2.87208 27.1569 2.1875 27.9984 2.1875C28.8415 2.1875 29.5275 2.87208 29.5275 3.7135C29.5275 4.55667 28.8415 5.24256 27.9984 5.24256C27.1569 5.24267 26.4724 4.55667 26.4724 3.7135ZM11.9062 11.9062C11.6179 12.1945 11.2348 12.3532 10.8272 12.3532C10.4197 12.3532 10.0365 12.1945 9.74827 11.9062C9.45995 11.6179 9.30125 11.2348 9.30125 10.8272C9.30125 10.4197 9.45995 10.0365 9.74816 9.74827H9.74827C10.0365 9.45995 10.4197 9.30125 10.8272 9.30125C11.2348 9.30125 11.6179 9.45995 11.9063 9.74827C12.1945 10.0365 12.3533 10.4197 12.3533 10.8272C12.3533 11.2348 12.1945 11.618 11.9062 11.9062ZM3.7135 29.5276C2.87208 29.5276 2.1875 28.8416 2.1875 27.9985C2.1875 27.157 2.87208 26.4725 3.7135 26.4725C4.55667 26.4725 5.24256 27.157 5.24256 27.9985C5.24267 28.8415 4.55667 29.5276 3.7135 29.5276ZM11.9062 46.2517C11.6179 46.54 11.2348 46.6987 10.8272 46.6987C10.4197 46.6987 10.0365 46.54 9.74827 46.2518C9.74827 46.2518 9.74827 46.2517 9.74816 46.2517C9.45995 45.9635 9.30125 45.5797 9.30125 45.1712C9.30125 44.7627 9.45995 44.3789 9.74827 44.0905C10.0365 43.8023 10.4197 43.6436 10.8272 43.6436C11.2348 43.6436 11.6179 43.8023 11.9062 44.0906C12.1945 44.3789 12.3533 44.7627 12.3533 45.1712C12.3533 45.5797 12.1945 45.9635 11.9062 46.2517ZM29.5276 52.2834C29.5276 53.1266 28.8416 53.8125 27.9985 53.8125C27.157 53.8125 26.4725 53.1266 26.4725 52.2834C26.4725 51.442 27.157 50.7574 27.9985 50.7574C28.8415 50.7573 29.5276 51.4419 29.5276 52.2834ZM44.0906 44.0906C44.3789 43.8023 44.7627 43.6436 45.1712 43.6436C45.5797 43.6436 45.9635 43.8023 46.2517 44.0906C46.54 44.3789 46.6987 44.7627 46.6987 45.1712C46.6987 45.5797 46.54 45.9635 46.2518 46.2517C46.2517 46.2517 46.2517 46.2517 46.2517 46.2517C45.9635 46.54 45.5797 46.6987 45.1712 46.6987C44.7627 46.6987 44.3789 46.54 44.0905 46.2517C43.8023 45.9635 43.6436 45.5797 43.6436 45.1712C43.6436 44.7627 43.8024 44.3789 44.0906 44.0906ZM52.2834 29.5276C51.442 29.5276 50.7574 28.8416 50.7574 27.9985C50.7574 27.157 51.442 26.4725 52.2834 26.4725C53.1266 26.4725 53.8125 27.157 53.8125 27.9985C53.8125 28.8415 53.1266 29.5276 52.2834 29.5276Z" fill="#A7A7AB"/>
<path d="M41.7065 21.1389C41.1661 21.409 40.9472 22.0661 41.2172 22.6063L41.2203 22.6125C41.4116 22.9951 41.7958 23.2149 42.1957 23.2149C42.3607 23.2149 42.5284 23.1775 42.6861 23.0987C43.2263 22.8285 43.4439 22.1684 43.1737 21.6282C42.9036 21.0877 42.2461 20.8685 41.7065 21.1389Z" fill="#A7A7AB"/>
</svg>
