<svg width="56" height="56" viewBox="0 0 56 56" fill="none" xmlns="http://www.w3.org/2000/svg">
<g clip-path="url(#clip0_938_7495)">
<path d="M41.2386 21.695C41.4896 20.9833 41.6198 20.2296 41.6198 19.4695C41.6198 16.1203 39.1137 13.3124 35.8788 12.8468C35.2485 11.0247 33.5074 9.73816 31.5164 9.73816C30.1076 9.73816 28.8442 10.3731 27.9975 11.3717C27.1508 10.3731 25.8875 9.73816 24.4786 9.73816C22.4892 9.73816 20.7493 11.0247 20.1194 12.8468C16.8826 13.3121 14.3753 16.1201 14.3753 19.4695C14.3753 20.2296 14.5056 20.9837 14.7566 21.6955C12.5502 23.0022 11.1758 25.3707 11.1758 27.9985C11.1758 30.6265 12.5503 32.995 14.7567 34.3018C14.5056 35.0142 14.3753 35.7691 14.3753 36.5308C14.3753 39.8802 16.8825 42.6881 20.1194 43.1534C20.7494 44.9755 22.4892 46.2621 24.4786 46.2621C25.8874 46.2621 27.1508 45.6272 27.9975 44.6286C28.8443 45.6272 30.1076 46.2621 31.5164 46.2621C33.5074 46.2621 35.2485 44.9755 35.8788 43.1534C39.1137 42.6878 41.6198 39.8799 41.6198 36.5308C41.6198 35.7693 41.4895 35.0145 41.2385 34.3021C43.4449 32.9963 44.8193 30.6276 44.8193 27.9985C44.8193 25.3695 43.445 23.001 41.2386 21.695ZM39.4031 32.7746C39.1106 32.8918 38.8829 33.1295 38.7782 33.4268C38.6736 33.7241 38.7023 34.052 38.857 34.3266C39.2334 34.995 39.4324 35.7573 39.4324 36.5307C39.4324 38.981 37.4396 41.0008 34.99 41.0331C34.4482 41.0402 33.9933 41.443 33.9205 41.9799C33.7589 43.174 32.7254 44.0744 31.5166 44.0744C30.1794 44.0744 29.0915 42.9865 29.0915 41.6492V29.6293C29.0915 29.0253 28.6018 28.5356 27.9978 28.5356C27.3937 28.5356 26.904 29.0253 26.904 29.6293V41.6493C26.904 42.9866 25.8161 44.0745 24.4788 44.0745C23.2718 44.0745 22.2396 43.1741 22.078 41.98C22.0052 41.4431 21.5503 41.0403 21.0085 41.0332C18.5572 41.0009 16.5629 38.9811 16.5629 36.5308C16.5629 35.7573 16.7619 34.9951 17.1384 34.3268C17.293 34.0522 17.3217 33.7244 17.2172 33.4271C17.1127 33.13 16.885 32.8922 16.5928 32.7749C14.631 31.9877 13.3635 30.1128 13.3635 27.9985C13.3635 25.8939 14.6199 24.027 16.5664 23.2334C17.0795 23.0605 17.6197 22.9723 18.1728 22.9723C19.4119 22.9723 20.602 23.4261 21.5239 24.2504C21.7325 24.437 21.993 24.5287 22.2525 24.5287C22.5531 24.5287 22.8522 24.4056 23.0682 24.164C23.4708 23.7137 23.4321 23.0222 22.9818 22.6196C21.6584 21.4365 19.9505 20.7849 18.1728 20.7849C17.7092 20.7849 17.2512 20.8297 16.8027 20.9157C16.6454 20.4522 16.563 19.9633 16.563 19.4697C16.563 17.0194 18.5573 14.9995 21.0086 14.9673C21.5504 14.9602 22.0053 14.5573 22.0781 14.0204C22.2397 12.8264 23.2719 11.926 24.479 11.926C25.8162 11.926 26.9041 13.0138 26.9041 14.3512V19.8078C26.9041 20.4117 27.3938 20.9015 27.9979 20.9015C28.602 20.9015 29.0916 20.4117 29.0916 19.8078V14.3512C29.0916 13.0138 30.1795 11.926 31.5167 11.926C32.7256 11.926 33.7591 12.8264 33.9206 14.0204C33.9934 14.5573 34.4483 14.9602 34.9901 14.9673C37.4397 14.9995 39.4325 17.0194 39.4325 19.4697C39.4325 19.9632 39.3501 20.4522 39.1928 20.9157C38.7443 20.8298 38.2863 20.7849 37.8227 20.7849C36.0488 20.7849 34.3413 21.4361 33.0148 22.6186C32.5638 23.0205 32.5243 23.7119 32.9261 24.1629C33.1422 24.4052 33.4419 24.5288 33.7429 24.5288C34.0019 24.5288 34.2619 24.4374 34.4704 24.2516C35.3956 23.4268 36.5861 22.9725 37.8226 22.9725C38.3757 22.9725 38.9159 23.0607 39.429 23.2337C41.3755 24.026 42.6318 25.893 42.6318 27.9989C42.6319 30.1137 41.3645 31.9885 39.4031 32.7746Z" fill="#A7A7AB"/>
<path d="M19.2317 28.0986C18.633 28.0189 18.0825 28.4382 18.002 29.037C17.9217 29.6357 18.3418 30.1862 18.9405 30.2666C21.0838 30.5546 22.5933 32.5329 22.3054 34.6765C22.225 35.2752 22.6451 35.8257 23.2438 35.9061C23.2933 35.9128 23.3423 35.9159 23.3908 35.9159C23.9302 35.9159 24.3997 35.517 24.4734 34.9677C24.9219 31.6286 22.5704 28.5472 19.2317 28.0986Z" fill="#A7A7AB"/>
<path d="M36.7659 28.0987C33.429 28.5476 31.0791 31.629 31.5275 34.9679C31.6014 35.5171 32.0708 35.9162 32.6101 35.9162C32.6586 35.9162 32.7078 35.913 32.7571 35.9063C33.3558 35.8259 33.7759 35.2753 33.6956 34.6767C33.4077 32.5331 34.9159 30.5547 37.0575 30.2668C37.6562 30.1863 38.0762 29.6356 37.9957 29.037C37.9152 28.4384 37.3643 28.0179 36.7659 28.0987Z" fill="#A7A7AB"/>
<path d="M52.7825 21.8108H51.4242C50.8689 19.7051 50.0346 17.6938 48.9358 15.8118L49.896 14.8496C50.503 14.2449 50.8378 13.4382 50.8387 12.5783C50.8395 11.717 50.5052 10.908 49.8975 10.3002L45.6965 6.0993C45.091 5.49391 44.2835 5.16042 43.4225 5.16042C42.5615 5.16042 41.754 5.49391 41.1485 6.0993L40.1868 7.06103C38.2983 5.96028 36.2864 5.12652 34.1859 4.57483V3.21442C34.186 1.442 32.7441 0 30.9716 0H25.0283C23.2541 0 21.8108 1.442 21.8108 3.21442V4.57505C19.7115 5.12717 17.7003 5.96083 15.8122 7.06147L14.8482 6.0993C13.5966 4.84772 11.5571 4.84728 10.3002 6.0993L6.09787 10.3018C4.84717 11.5573 4.84783 13.5968 6.0993 14.8483L7.06355 15.8126C5.96181 17.699 5.12739 19.71 4.57494 21.8108H3.21431C1.442 21.8108 0 23.2541 0 25.0283V30.9717C0 32.7441 1.442 34.1861 3.21442 34.1861H4.57483C5.12706 36.288 5.96138 38.2997 7.06322 40.1867L6.0993 41.1486C5.49391 41.754 5.16053 42.5616 5.16053 43.4226C5.16053 44.2836 5.49391 45.0912 6.09941 45.6967L10.3003 49.8975C10.9081 50.5052 11.7206 50.8382 12.5785 50.8386C13.4382 50.8378 14.2449 50.5031 14.8474 49.8982L15.8115 48.936C17.6903 50.0339 19.7017 50.8681 21.8108 51.4241V52.7824C21.8108 54.5566 23.2541 55.9999 25.0283 55.9999H30.9716C32.744 55.9999 34.186 54.5566 34.186 52.7824V51.4243C36.293 50.8692 38.3051 50.035 40.1874 48.9361L41.1472 49.8959C41.7528 50.5038 42.5609 50.8385 43.4226 50.8385C44.2843 50.8385 45.0925 50.5037 45.6965 49.8974L49.8961 45.6979C50.504 45.0924 50.8388 44.2842 50.8388 43.4224C50.8388 42.5607 50.504 41.7525 49.8976 41.1484L48.9359 40.1867C50.036 38.2995 50.8703 36.2877 51.4245 34.1859H52.7826C54.5568 34.1859 56.0001 32.7439 56.0001 30.9715V25.0281C56 23.2541 54.5567 21.8108 52.7825 21.8108ZM53.8125 30.9717C53.8125 31.538 53.3504 31.9986 52.7825 31.9986H50.5658C50.0543 31.9986 49.6111 32.3531 49.4987 32.8522C48.947 35.3033 47.982 37.6306 46.6307 39.7691C46.3575 40.2013 46.4204 40.7652 46.7819 41.1267L48.3521 42.6968C48.5449 42.889 48.6511 43.1467 48.6511 43.4226C48.6511 43.6986 48.5449 43.9563 48.3506 44.1498L44.1482 48.3522C43.9562 48.545 43.6984 48.6511 43.4225 48.6511C43.1467 48.6511 42.8889 48.5449 42.6954 48.3506L41.1266 46.7819C40.7648 46.4199 40.2003 46.3574 39.7681 46.6313C37.6378 47.9804 35.311 48.9451 32.8521 49.4986C32.353 49.611 31.9985 50.0542 31.9985 50.5657V52.7825C31.9985 53.3504 31.5378 53.8125 30.9716 53.8125H25.0283C24.4604 53.8125 23.9983 53.3504 23.9983 52.7825V50.5657C23.9983 50.0543 23.6439 49.6111 23.1451 49.4987C20.6829 48.9438 18.3573 47.9791 16.2325 46.6316C16.0523 46.5173 15.8491 46.4615 15.6471 46.4615C15.3649 46.4615 15.0851 46.5704 14.8741 46.7811L13.3 48.3522C13.1082 48.5448 12.8511 48.6509 12.5765 48.6511C12.5762 48.6511 12.5758 48.6511 12.5755 48.6511C12.2997 48.6511 12.041 48.5444 11.8472 48.3506L7.6463 44.1498C7.25211 43.7556 7.25211 43.0896 7.64553 42.6962L9.21736 41.1274C9.57983 40.7656 9.64283 40.2007 9.36873 39.7681C8.015 37.6304 7.05042 35.304 6.50158 32.8532C6.38969 32.3537 5.94617 31.9985 5.4343 31.9985H3.21442C2.64819 31.9985 2.1875 31.5378 2.1875 30.9716V25.0282C2.1875 24.4603 2.64819 23.9982 3.21442 23.9982H5.43419C5.94606 23.9982 6.38947 23.6432 6.50147 23.1436C7.05064 20.6944 8.01522 18.369 9.36862 16.2317C9.64239 15.7994 9.57983 15.2351 9.21802 14.8731L7.64619 13.3013C7.24598 12.9011 7.24664 12.248 7.64619 11.847L11.8457 7.64739C12.2484 7.24664 12.9014 7.24577 13.3023 7.64673L14.8741 9.2155C15.2358 9.57644 15.7991 9.63911 16.231 9.366C18.371 8.0138 20.6968 7.04998 23.144 6.50136C23.6435 6.38947 23.9985 5.94595 23.9985 5.43408V3.21442C23.9985 2.64819 24.4606 2.1875 25.0285 2.1875H30.9718C31.5381 2.1875 31.9987 2.64819 31.9987 3.21442V5.4343C31.9987 5.94628 32.3539 6.38969 32.8535 6.50169C35.3021 7.04998 37.6289 8.01369 39.7692 9.36622C40.2014 9.63933 40.7654 9.57655 41.1269 9.21495L42.6956 7.64619C43.0897 7.252 43.7557 7.252 44.15 7.64619L48.351 11.8471C48.545 12.041 48.6517 12.3001 48.6514 12.5764C48.6512 12.8511 48.545 13.108 48.3502 13.3022L46.7814 14.874C46.4203 15.236 46.3579 15.7999 46.6316 16.2318C47.9805 18.362 48.9453 20.6878 49.4991 23.1451C49.6115 23.6439 50.0547 23.9983 50.566 23.9983H52.7827C53.3506 23.9983 53.8127 24.4604 53.8127 25.0283V30.9717H53.8125Z" fill="#A7A7AB"/>
<path d="M27.9961 23.6246C27.392 23.6246 26.9023 24.1144 26.9023 24.7184V24.7246C26.9023 25.3286 27.392 25.8153 27.9961 25.8153C28.6002 25.8153 29.0898 25.3225 29.0898 24.7185C29.0898 24.1145 28.6002 23.6246 27.9961 23.6246Z" fill="#A7A7AB"/>
</g>
<defs>
<clipPath id="clip0_938_7495">
<rect width="56" height="56" fill="white"/>
</clipPath>
</defs>
</svg>
