<svg width="56" height="56" viewBox="0 0 56 56" fill="none" xmlns="http://www.w3.org/2000/svg">
<g opacity="0.4">
<path d="M53.2 0H2.8C1.25431 0.00164062 0.00164062 1.25431 0 2.8V53.2C0.00164062 54.7457 1.25431 55.9984 2.8 56H53.2C54.7457 55.9984 55.9984 54.7457 56 53.2V2.8C55.9984 1.25431 54.7457 0.00164062 53.2 0ZM54.1333 53.2C54.133 53.7154 53.7153 54.133 53.2 54.1333H2.8C2.28473 54.133 1.86703 53.7153 1.8667 53.2V9.3333H54.1334V53.2H54.1333ZM54.1333 7.4667H1.8667V2.8C1.86703 2.28473 2.28473 1.86703 2.8 1.8667H53.2C53.7154 1.86703 54.133 2.28473 54.1333 2.8V7.4667Z" fill="black"/>
<path d="M5.17891 3.89189C5.13144 3.85481 5.07773 3.82637 5.02031 3.808C4.67239 3.66581 4.27328 3.7427 4.00313 4.00389C3.83239 4.18261 3.7357 4.4194 3.73242 4.66659C3.73406 4.91411 3.83108 5.15134 4.00313 5.3293C4.0938 5.41176 4.19803 5.47805 4.31123 5.5253C4.53709 5.62494 4.79445 5.62494 5.02031 5.5253C5.13341 5.47783 5.23753 5.41165 5.32842 5.3293C5.41067 5.2384 5.47695 5.13428 5.52442 5.02119C5.57222 4.90897 5.59759 4.78855 5.59913 4.66659C5.59552 4.41951 5.49883 4.18294 5.32842 4.00389C5.28259 3.96167 5.2325 3.92405 5.17891 3.89189Z" fill="black"/>
<path d="M8.75813 3.79927C8.40791 3.65391 8.00453 3.73474 7.73755 4.00402C7.56517 4.18176 7.46827 4.4191 7.46684 4.66672C7.46433 4.91501 7.56189 5.15388 7.73755 5.32943C7.82822 5.4119 7.93245 5.47818 8.04566 5.52543C8.27152 5.62507 8.52888 5.62507 8.75474 5.52543C8.86783 5.47796 8.97195 5.41179 9.06284 5.32943C9.23817 5.15366 9.33563 4.91501 9.33355 4.66672C9.33584 4.28752 9.10834 3.94463 8.75813 3.79927Z" fill="black"/>
<path d="M11.7783 3.80802C11.6629 3.85078 11.5579 3.91761 11.4702 4.00402C11.43 4.0482 11.3926 4.0948 11.358 4.14347C11.3225 4.19564 11.2943 4.2523 11.2742 4.31213C11.2473 4.36495 11.2282 4.4215 11.2176 4.4798C11.207 4.54159 11.201 4.60394 11.1993 4.66661C11.1952 4.91249 11.2932 5.14917 11.47 5.32013C11.5565 5.41025 11.6616 5.48025 11.7782 5.5252C12.004 5.62484 12.2614 5.62484 12.4872 5.5252C12.6025 5.47784 12.7072 5.40817 12.7953 5.32013C12.9719 5.14895 13.0698 4.91249 13.066 4.66661C13.0624 4.41953 12.9658 4.18295 12.7953 4.00391C12.5274 3.73867 12.1258 3.66123 11.7783 3.80802Z" fill="black"/>
<path d="M34.5331 3.73315H21.4665C20.951 3.73315 20.5332 4.15097 20.5332 4.66645C20.5332 5.18194 20.951 5.59975 21.4665 5.59975H34.5332C35.0487 5.59975 35.4665 5.18194 35.4665 4.66645C35.4665 4.15097 35.0486 3.73315 34.5331 3.73315Z" fill="black"/>
<path d="M51.3314 3.73315H50.3981C49.8827 3.73315 49.4648 4.15097 49.4648 4.66645C49.4648 5.18194 49.8828 5.59975 50.3981 5.59975H51.3314C51.8469 5.59975 52.2647 5.18194 52.2647 4.66645C52.2647 4.15097 51.8469 3.73315 51.3314 3.73315Z" fill="black"/>
<path d="M46.6654 3.73315H45.7321C45.2166 3.73315 44.7988 4.15097 44.7988 4.66645C44.7988 5.18194 45.2166 5.59975 45.7321 5.59975H46.6654C47.1809 5.59975 47.5987 5.18194 47.5987 4.66645C47.5987 4.15097 47.1809 3.73315 46.6654 3.73315Z" fill="black"/>
<path d="M6.27857 20.8328C7.66862 21.7638 9.50721 21.6612 10.785 20.5814L16.595 24.7334L10.785 28.8854C10.1197 28.3174 9.27457 28.0037 8.39979 28C6.33796 28 4.66649 29.6715 4.66649 31.7333C4.66649 33.7951 6.33796 35.4666 8.39979 35.4666C9.27359 35.4629 10.1177 35.1499 10.7827 34.5832L13.6368 36.6228L9.69938 42.2463C9.28452 42.0867 8.84429 42.0032 8.39979 41.9999C6.45795 41.9927 4.83471 43.4752 4.66649 45.4099C4.49827 47.3445 5.84129 49.085 7.75524 49.4129C9.6692 49.7409 11.515 48.5467 12.0005 46.6666H24.3989C24.8176 48.3136 26.3004 49.4665 27.9998 49.4665C29.6992 49.4665 31.1818 48.3136 31.6006 46.6666H43.9991C44.4086 48.2892 45.8437 49.4439 47.5163 49.4967C49.1889 49.5494 50.694 48.4872 51.2048 46.8938C51.7156 45.3003 51.1087 43.561 49.7171 42.6315C48.3256 41.7019 46.4865 41.8071 45.2099 42.8891L39.3996 38.737L45.2148 34.5814C45.88 35.1494 46.7251 35.463 47.5998 35.4667C49.6616 35.4667 51.3331 33.7952 51.3331 31.7334C51.3331 29.6716 49.6616 28.0001 47.5998 28.0001C46.724 28.0038 45.878 28.3182 45.2122 28.8871L42.3698 26.8559L46.3129 21.2242C46.724 21.3811 47.1598 21.4631 47.5998 21.4667C49.5416 21.4739 51.1649 19.9913 51.3331 18.0567C51.5013 16.1221 50.1583 14.3816 48.2443 14.0537C46.3304 13.7257 44.4845 14.9198 43.9991 16.8H31.6006C31.1819 15.153 29.6992 14.0001 27.9998 14.0001C26.3004 14.0001 24.8177 15.153 24.3989 16.8H12.0006C11.5914 15.1779 10.1569 14.0232 8.48478 13.9697C6.81265 13.9163 5.30743 14.977 4.79545 16.5698C4.28346 18.1626 4.88852 19.9019 6.27857 20.8328ZM8.39979 33.6001C7.36882 33.6001 6.53309 32.7644 6.53309 31.7334C6.53309 30.7024 7.36882 29.8667 8.39979 29.8667C9.43076 29.8667 10.2665 30.7024 10.2665 31.7334C10.2651 32.7638 9.43021 33.5988 8.39979 33.6001ZM8.39979 47.6001C7.36882 47.6001 6.53309 46.7644 6.53309 45.7334C6.53309 44.7024 7.36882 43.8667 8.39979 43.8667C9.43021 43.868 10.2651 44.703 10.2665 45.7334C10.2665 46.7644 9.43076 47.6001 8.39979 47.6001ZM47.5998 43.8668C48.6308 43.8668 49.4665 44.7025 49.4665 45.7335C49.4665 46.7645 48.6308 47.6001 47.5998 47.6001C46.5688 47.6001 45.7331 46.7644 45.7331 45.7334C45.7345 44.7031 46.5694 43.8681 47.5998 43.8668ZM47.5998 29.8668C48.6308 29.8668 49.4665 30.7025 49.4665 31.7335C49.4665 32.7645 48.6308 33.6001 47.5998 33.6001C46.5688 33.6001 45.7331 32.7644 45.7331 31.7334C45.7345 30.7031 46.5694 29.8681 47.5998 29.8668ZM45.8197 17.1689C46.0649 16.3927 46.7857 15.8654 47.5998 15.8668C48.4 15.8657 49.1118 16.3746 49.3696 17.1322C49.6274 17.8897 49.3736 18.7272 48.7388 19.2143C48.104 19.7015 47.2293 19.7298 46.5643 19.2849C46.5567 19.2791 46.5532 19.2703 46.5452 19.2648C46.5401 19.2612 46.5338 19.261 46.5286 19.2574C45.8615 18.7908 45.5744 17.9452 45.8197 17.1689ZM18.1998 25.8803L20.1719 27.2896L17.7139 30.8001H12.0005C11.9666 30.6644 11.9249 30.5306 11.8759 30.3995L18.1998 25.8803ZM24.3989 30.8001H19.9926L21.6906 28.3749L24.5234 30.3995C24.4745 30.5306 24.433 30.6644 24.3989 30.8001ZM24.5244 33.0703L18.1998 37.5902L16.226 36.1796L18.6856 32.6667H24.3991C24.4332 32.8035 24.4751 32.9383 24.5244 33.0703ZM21.2423 25.7609L19.8045 24.7334L24.1222 21.6478L21.2423 25.7609ZM11.8752 33.0703C11.9246 32.9383 11.9664 32.8035 12.0006 32.6667H16.407L14.7074 35.0943L11.8752 33.0703ZM15.1556 37.7083L16.595 38.737L12.2722 41.8264L15.1556 37.7083ZM24.3989 44.8001H12.0006C11.9668 44.6653 11.9256 44.5327 11.877 44.4025L18.1999 39.8839L24.5226 44.4024C24.474 44.5326 24.4327 44.6653 24.3989 44.8001ZM29.6547 46.6C29.3329 47.2161 28.6949 47.6016 27.9998 47.6001C27.1167 47.6035 26.3521 46.9876 26.1672 46.1241C25.9824 45.2606 26.4281 44.3857 27.2352 44.0274C28.0422 43.6691 28.9901 43.9254 29.5067 44.6416L29.5128 44.6552C29.5176 44.6617 29.5256 44.6638 29.5303 44.6703C29.9286 45.2399 29.9766 45.9839 29.6547 46.6ZM29.3128 42.2508C28.0569 41.7578 26.631 42.0031 25.612 42.8875L19.8045 38.7371L25.6168 34.5834C26.9862 35.7605 29.01 35.7614 30.3803 34.5855L33.246 36.6333L29.3128 42.2508ZM26.1331 31.7334C26.1311 30.9231 26.6534 30.2047 27.4246 29.9564C28.1958 29.7081 29.0391 29.9869 29.5103 30.6461L29.5128 30.6516L29.52 30.6577C29.9853 31.3149 29.9762 32.1967 29.4972 32.8442C29.0184 33.4917 28.178 33.7586 27.4132 33.5061C26.6486 33.2536 26.1323 32.5387 26.1331 31.7334ZM31.6006 32.6668H36.0229L34.3162 35.1046L31.4742 33.0736C31.5241 32.9405 31.5663 32.8046 31.6006 32.6668ZM31.4751 30.3963L37.7948 25.8802L39.7808 27.2993L37.3299 30.8001H31.6005C31.5664 30.6633 31.5245 30.5284 31.4751 30.3963ZM34.7646 37.7185L36.1899 38.7371L31.9102 41.7955L34.7646 37.7185ZM44.1218 44.4053C44.0735 44.5345 44.0325 44.6663 43.9991 44.8001H31.6006C31.5667 44.6643 31.5251 44.5304 31.476 44.3992L37.7948 39.8839L44.1218 44.4053ZM37.7948 37.5902L35.8349 36.1898L38.3015 32.6668H43.999C44.0329 32.8026 44.0745 32.9365 44.1236 33.0677L37.7948 37.5902ZM44.1227 30.4023C44.074 30.5325 44.0327 30.6654 43.999 30.8002H39.6085L41.2995 28.3849L44.1227 30.4023ZM40.8511 25.7707L39.3996 24.7335L43.7581 21.6188L40.8511 25.7707ZM31.6006 18.6668H43.9991C44.0329 18.8017 44.0741 18.9344 44.1228 19.0647L37.7949 23.5867L31.4752 19.0706C31.5246 18.9385 31.5665 18.8036 31.6006 18.6668ZM26.1737 17.3446C26.3564 16.4822 27.1183 15.8657 27.9998 15.8668C28.6973 15.8648 29.3374 16.2529 29.6581 16.8724C29.9788 17.4918 29.9262 18.2386 29.522 18.807L29.5129 18.8154L29.5104 18.8209C28.9952 19.5362 28.0493 19.7929 27.2432 19.4363C26.437 19.0795 25.9908 18.2069 26.1737 17.3446ZM26.7002 21.2204C27.9508 21.7071 29.3681 21.462 30.3826 20.5835L36.19 24.7334L30.3826 28.8834C29.0115 27.7049 26.9847 27.7058 25.6145 28.8855L22.7611 26.8463L26.7002 21.2204ZM12.0006 18.6668H24.3991C24.433 18.8025 24.4746 18.9363 24.5235 19.0673L18.1998 23.5866L11.8761 19.0673C11.9251 18.9363 11.9666 18.8025 12.0006 18.6668ZM8.39979 15.8668C9.43076 15.8668 10.2665 16.7025 10.2665 17.7335C10.2652 18.7639 9.43021 19.5988 8.39979 19.6002C7.36882 19.6002 6.53309 18.7645 6.53309 17.7335C6.53309 16.7025 7.36882 15.8668 8.39979 15.8668Z" fill="black"/>
</g>
</svg>
