<svg width="56" height="56" viewBox="0 0 56 56" fill="none" xmlns="http://www.w3.org/2000/svg">
<g opacity="0.4">
<path d="M19.1706 29.6652C19.2572 29.3718 19.355 29.0831 19.4641 28.7993C19.6468 28.3178 19.4052 27.7793 18.924 27.5957C18.4427 27.4122 17.9038 27.653 17.7195 28.134C17.5946 28.4612 17.4816 28.7948 17.3804 29.1348C17.2965 29.4172 17.351 29.7225 17.5272 29.9586C17.7035 30.1946 17.9809 30.3335 18.2755 30.3333C18.6888 30.3332 19.0528 30.0614 19.1706 29.6652Z" fill="black"/>
<path d="M20.7901 25.6666C21.0661 25.667 21.3281 25.5452 21.5056 25.3339C23.8095 22.5842 27.2136 20.9971 30.8008 20.9998C31.3163 20.9998 31.7341 20.582 31.7341 20.0665C31.7341 19.551 31.3163 19.1332 30.8008 19.1332C26.6622 19.1298 22.7348 20.9606 20.0764 24.1326C19.843 24.4103 19.7915 24.798 19.9445 25.1269C20.0976 25.4558 20.4273 25.6663 20.7901 25.6666Z" fill="black"/>
<path d="M55.9267 14.4717C55.7295 13.5255 55.1479 12.7038 54.3211 12.2032L36.8299 1.5535C35.6598 0.841897 34.3165 0.465749 32.947 0.466187H23.3337C23.0348 0.466187 22.7349 0.466187 22.465 0.475265C15.1223 0.589127 7.81629 1.53644 0.687215 3.29905C0.281427 3.41007 0 3.77889 0 4.19955V6.9996V15.4836C0.00448445 15.5135 0.0103908 15.5432 0.0179378 15.5726C0.022641 15.6628 0.0405788 15.7517 0.0712043 15.8367C0.111455 15.9273 0.166034 16.0107 0.232754 16.0839C0.24741 16.101 0.25277 16.1226 0.268848 16.139C3.92389 19.846 3.70514 25.2638 3.25024 28.1595C3.00546 29.7915 3.90453 31.3801 5.42958 32.0106C5.45058 32.0215 5.47245 32.0306 5.49433 32.0398C6.43037 32.4147 7.47963 32.3871 8.39467 31.9632C9.26159 31.5687 9.92365 30.8293 10.2204 29.9242C15.0038 15.3355 18.6235 13.4977 21.9104 13.0862C23.7837 13.8219 25.8929 13.6419 27.6146 12.5997H33.2369C33.5395 12.5998 33.8401 12.6497 34.1264 12.7474L51.4053 18.5069C52.8304 18.9782 54.3974 18.4875 55.2991 17.2874C55.3219 17.2573 55.3426 17.2256 55.3611 17.1925C55.919 16.4034 56.1239 15.4178 55.9267 14.4717ZM1.86673 7.93302H3.73347V13.5331H1.86673V7.93302ZM8.44663 29.3426C8.30903 29.7559 8.00453 30.0928 7.60716 30.2714C7.18912 30.4683 6.71103 30.4951 6.27364 30.3461C6.23984 30.3271 6.20484 30.3102 6.16885 30.296C5.42531 30.0067 4.97971 29.2426 5.09423 28.453C5.22876 27.5874 5.31276 26.7147 5.34557 25.8393C6.73718 25.4796 8.21617 25.734 9.40772 26.5378C9.09064 27.4234 8.77071 28.3543 8.44663 29.3426ZM10.065 24.7628C8.64033 23.9193 6.95768 23.6225 5.33037 23.9275C5.23762 20.8058 4.10502 17.8045 2.11229 15.3997H8.40014C10.9775 15.3997 13.0669 13.3103 13.0669 10.733C13.0669 8.1556 10.9775 6.06628 8.40014 6.06628H1.86673V4.92516C7.69138 3.54854 13.6305 2.71235 19.6089 2.42699C18.3884 3.66459 17.7135 5.3386 17.7341 7.0766C17.7548 8.8146 18.4695 10.4721 19.7189 11.6803C16.386 12.824 13.3818 16.0995 10.065 24.7628ZM5.60009 13.5331V7.93302H7.46683V13.5331H5.60009ZM9.33345 13.3611V8.10507C10.4513 8.49489 11.2002 9.54917 11.2002 10.7331C11.2002 11.9169 10.4513 12.9711 9.33345 13.3611ZM24.2671 11.6664C21.6898 11.6664 19.6003 9.57706 19.6003 6.9996C19.6034 4.42344 21.691 2.33588 24.2671 2.33281C26.8445 2.33281 28.9339 4.42224 28.9339 6.9996C28.9339 9.57695 26.8445 11.6664 24.2671 11.6664ZM34.7227 10.9792C34.2444 10.816 33.7423 10.7329 33.2369 10.7331H29.6209C31.4548 8.11852 31.1199 4.55951 28.8305 2.33292H32.947C33.9743 2.33216 34.9819 2.61435 35.8592 3.14866L39.812 5.55539L36.757 11.6572L34.7227 10.9792ZM38.5463 12.2536L41.4121 6.52961L49.4708 11.4363L47.5574 15.2573L38.5463 12.2536ZM53.8079 16.1554C53.7924 16.1764 53.777 16.1983 53.7633 16.2211C53.3351 16.7402 52.633 16.9444 51.9933 16.736L49.3473 15.854L51.0715 12.4109L53.3531 13.8002C53.7448 14.0364 54.0179 14.4276 54.1047 14.8766C54.1914 15.3256 54.0836 15.7904 53.8079 16.1554Z" fill="black"/>
<path d="M24.2668 4.19946C22.7205 4.19946 21.4668 5.45314 21.4668 6.99951C21.4684 8.54522 22.7211 9.79792 24.2668 9.79956C25.8132 9.79956 27.0669 8.54599 27.0669 6.99951C27.0669 5.45303 25.8132 4.19946 24.2668 4.19946ZM24.2668 7.93293C23.7514 7.93293 23.3335 7.51511 23.3335 6.99962C23.3339 6.48424 23.7516 6.06664 24.2668 6.06631C24.7823 6.06631 25.2002 6.48413 25.2002 6.99962C25.2002 7.51511 24.7823 7.93293 24.2668 7.93293Z" fill="black"/>
<path d="M8.13159 19.404C7.90802 19.1902 7.59564 19.0963 7.29125 19.1515C7.22967 19.1606 7.16995 19.1797 7.11439 19.2081C7.05467 19.2282 6.9979 19.2564 6.94573 19.292C6.89705 19.3265 6.85046 19.3639 6.80616 19.4041C6.63542 19.5828 6.53874 19.8196 6.53545 20.0668C6.53206 20.1892 6.55766 20.3107 6.61016 20.4214C6.65763 20.5345 6.72391 20.6386 6.80616 20.7295C6.89684 20.812 7.00107 20.8782 7.11428 20.9255C7.22507 20.9775 7.34637 21.0031 7.46877 21.0002C7.78104 21.0035 8.07384 20.8487 8.24698 20.5888C8.42023 20.3289 8.45042 19.9993 8.32737 19.7123C8.28034 19.599 8.21406 19.4947 8.13159 19.404Z" fill="black"/>
<path d="M35.1978 6.33702C35.1069 6.25477 35.0028 6.18849 34.8897 6.14102C34.5422 5.99424 34.1405 6.07168 33.8724 6.33702C33.7879 6.42628 33.7214 6.53084 33.6764 6.64514C33.5274 6.99241 33.6051 7.39535 33.8724 7.66245C33.9632 7.74492 34.0673 7.8112 34.1805 7.85834C34.4064 7.95799 34.6637 7.95799 34.8896 7.85834C35.0027 7.81098 35.1068 7.7447 35.1977 7.66245C35.465 7.39546 35.5427 6.99252 35.3937 6.64525C35.3487 6.53084 35.2822 6.42617 35.1978 6.33702Z" fill="black"/>
<path d="M43.4466 9.9584C43.3991 9.92132 43.3454 9.89288 43.288 9.87451C43.2322 9.84618 43.1721 9.82715 43.1102 9.81796C42.9316 9.78044 42.7456 9.80024 42.5789 9.87451C42.3445 9.95949 42.1599 10.1441 42.0749 10.3785C41.9258 10.7258 42.0035 11.1287 42.2708 11.3958C42.3616 11.4783 42.4657 11.5446 42.5789 11.5917C42.8048 11.6914 43.0621 11.6914 43.288 11.5917C43.4011 11.5443 43.5052 11.478 43.5961 11.3957C43.7714 11.22 43.8689 10.9813 43.8668 10.7331C43.8632 10.486 43.7665 10.2494 43.5961 10.0704C43.5503 10.0281 43.5002 9.99055 43.4466 9.9584Z" fill="black"/>
<path d="M43.0469 30.4456L43.0468 26.7122C43.045 26.1975 42.6282 25.7807 42.1134 25.7789H38.3801C37.8646 25.7789 37.4468 26.1969 37.4468 26.7122C37.4468 27.2276 37.8646 27.6456 38.3801 27.6456H39.8603L31.8465 35.6593L27.5143 31.3271C26.8257 30.6448 25.7306 30.5993 24.9877 31.2223L18.0642 37.0885C17.8099 37.3041 17.6899 37.639 17.7494 37.967C17.8089 38.295 18.0389 38.5664 18.3528 38.6788C18.6667 38.7913 19.0167 38.7277 19.271 38.5122L26.1946 32.6468L30.5268 36.979C31.2564 37.7064 32.4369 37.7064 33.1664 36.979L41.1801 28.9653V30.4455C41.1801 30.961 41.5979 31.3788 42.1134 31.3788C42.6289 31.3788 43.0469 30.961 43.0469 30.4456Z" fill="black"/>
<path d="M41.7457 47.0589C47.8771 42.2455 50.1453 33.9922 47.3353 26.7214C44.5253 19.4506 37.296 14.868 29.5213 15.4291C21.7466 15.9902 15.2504 21.5635 13.5135 29.1625C11.7765 36.7615 15.2066 44.6034 21.9656 48.4864C21.9926 48.5049 22.0206 48.5219 22.0494 48.5374C22.3371 48.7015 22.6319 48.8522 22.9292 49.0004H17.7344C15.6733 49.0025 14.003 50.6728 14.0011 52.7338V54.6005C14.0009 54.8481 14.0992 55.0856 14.2743 55.2606C14.4494 55.4356 14.6868 55.5339 14.9344 55.5338H46.6682C46.9159 55.5339 47.1533 55.4357 47.3283 55.2606C47.5033 55.0855 47.6016 54.848 47.6015 54.6005V52.7338C47.5995 50.6727 45.9292 49.0024 43.8682 49.0004H38.6734C39.69 48.4939 40.6557 47.891 41.557 47.1999C41.6258 47.1611 41.6893 47.1138 41.7457 47.0589ZM43.8684 50.867C44.8988 50.8683 45.7337 51.7033 45.7351 52.7338V53.6671H15.8679V52.7338C15.8692 51.7033 16.7042 50.8683 17.7346 50.867H43.8684ZM40.1349 35V45.9365C39.5411 46.376 38.9173 46.7735 38.2682 47.126V37.8001C38.2682 37.2846 37.8504 36.8668 37.3349 36.8668C36.8194 36.8668 36.4016 37.2846 36.4016 37.8001V47.9606C35.7919 48.1917 35.1684 48.3846 34.5348 48.5383V40.6001C34.5348 40.0847 34.117 39.6668 33.6015 39.6668C33.086 39.6668 32.6682 40.0847 32.6682 40.6001V48.8804C32.0489 48.957 31.4256 48.997 30.8015 49.0003V39.6668C30.8015 39.1513 30.3835 38.7335 29.8681 38.7335C29.3527 38.7335 28.9348 39.1513 28.9348 39.6668V48.8804C28.3062 48.8041 27.6829 48.6898 27.0681 48.5383V36.8668C27.0681 36.3513 26.6503 35.9335 26.1348 35.9335C25.6193 35.9335 25.2015 36.3513 25.2015 36.8668V47.9606C24.5618 47.723 23.9383 47.4442 23.3347 47.126V40.6001C23.3347 40.0847 22.9168 39.6668 22.4014 39.6668C21.886 39.6668 21.4681 40.0847 21.4681 40.6001V45.9365C16.103 42.023 13.7448 35.1808 15.5597 28.7929C17.3745 22.4049 22.9777 17.8245 29.5991 17.3164C36.2204 16.8083 42.457 20.48 45.2252 26.5163C47.9934 32.5526 46.7068 39.6744 42.0017 44.3607V35.0002C42.0017 34.4847 41.5838 34.0668 41.0683 34.0668C40.5529 34.0668 40.1349 34.4846 40.1349 35Z" fill="black"/>
</g>
</svg>
