<svg width="56" height="56" viewBox="0 0 56 56" fill="none" xmlns="http://www.w3.org/2000/svg">
<g opacity="0.4" clip-path="url(#clip0_982_8022)">
<path d="M55.0564 49.467H54.1232V29.8681C54.1215 28.3225 52.8689 27.0699 51.3233 27.0683H41.0572V26.6016C41.0581 25.8288 41.6843 25.2026 42.4571 25.2017H49.9234C51.7274 25.2017 53.1899 23.7392 53.1899 21.9352C53.1899 20.1312 51.7274 18.6687 49.9234 18.6687H47.1236C46.3504 18.6687 45.7236 18.0419 45.7236 17.2688C45.7236 16.4956 46.3504 15.8689 47.1236 15.8689H51.79C53.594 15.8689 55.0565 14.4064 55.0565 12.6023C55.0565 10.7983 53.594 9.33583 51.79 9.33583H37.8254C36.9914 7.32804 35.6333 5.58121 33.8931 4.27797C29.8278 1.11645 26.0235 -0.195531 21.5773 0.0232057C19.251 0.185946 16.9395 0.515802 14.6606 1.01026C13.8095 1.17486 12.9704 1.39677 12.1492 1.67467C10.3604 2.21331 8.733 3.18658 7.41216 4.50775C6.12839 5.86141 5.13773 7.46541 4.50208 9.21935C4.22067 10.031 3.99013 10.8594 3.81175 11.6997L3.7867 11.8072C3.64069 12.3507 3.44099 12.8782 3.19064 13.3821C3.04431 13.7048 2.89808 14.0279 2.75995 14.3883C2.59316 14.7955 2.52765 15.2371 2.56899 15.6753C2.72047 16.3569 3.1131 16.9609 3.67449 17.376C3.87682 17.5605 4.18261 17.8399 4.18721 17.9428C4.15965 18.0146 4.12695 18.0841 4.08921 18.151C3.24981 19.9171 2.21956 21.586 1.01683 23.1278L0.95482 23.2048C0.364885 23.7831 0.0255147 24.5698 0.00976562 25.3957C0.160804 26.0255 0.565577 26.5649 1.12806 26.8859C1.3737 27.0559 1.63301 27.2055 1.90326 27.3329C2.16969 27.4475 2.41872 27.599 2.64281 27.7831C2.68186 27.972 2.66184 28.1683 2.5854 28.3455C2.48237 28.5611 2.37574 28.7474 2.28321 28.9102C2.02433 29.3659 1.48526 30.3143 2.27774 30.9608C2.40669 31.0775 2.60946 31.2402 2.81321 31.3979C2.66677 31.7042 2.60705 32.0448 2.64052 32.3826C2.68689 32.7215 2.87129 33.0261 3.14996 33.2243C3.31543 33.3415 3.49217 33.4435 3.66814 33.5438C4.05323 33.7621 4.16993 33.8454 4.20449 33.9781C4.22975 34.226 4.20307 34.4765 4.12607 34.7136C4.08232 34.9082 4.04 35.1027 4.01484 35.2924C3.93522 35.9746 4.02075 36.6661 4.26409 37.3084C4.62851 38.525 5.73937 39.3652 7.00925 39.3845C7.21453 39.3842 7.41927 39.3632 7.62029 39.3216C9.61856 38.8435 11.5903 38.2603 13.5272 37.5748C15.0241 38.5084 15.9869 41.198 16.2398 42.2232C16.3427 42.6403 16.7167 42.9335 17.1463 42.9341H17.149L22.3914 42.9182V49.467H21.4581C20.9427 49.467 20.5249 49.8849 20.5249 50.4002V52.2668C20.5273 54.3276 22.1973 55.9976 24.258 55.9999H52.2563C54.3171 55.9975 55.9871 54.3276 55.9894 52.2668V50.4002C55.9896 49.8848 55.5717 49.467 55.0564 49.467ZM51.3232 28.9348C51.8383 28.9354 52.2558 29.3529 52.2564 29.868V49.4669H42.9237C42.4082 49.4669 41.9905 49.8848 41.9905 50.4001H34.5242C34.5242 49.8847 34.1064 49.4669 33.591 49.4669H24.2582V29.868C24.2589 29.3529 24.6763 28.9354 25.1914 28.9348H31.712L31.7148 28.9352L31.7181 28.9348H51.3232ZM38.9851 16.5639C39.013 14.7595 38.8169 12.9587 38.4015 11.2025H51.79C52.5631 11.2025 53.1899 11.8293 53.1899 12.6025C53.1899 13.3756 52.5631 14.0024 51.79 14.0024H47.1236C45.3195 14.0024 43.8571 15.4648 43.8571 17.2689C43.8571 19.0729 45.3195 20.5354 47.1236 20.5354H49.9234C50.6965 20.5354 51.3233 21.1622 51.3233 21.9353C51.3233 22.7084 50.6965 23.3352 49.9234 23.3352H42.4571C40.654 23.3374 39.1928 24.7986 39.1906 26.6017V27.0684H34.1259C34.6301 26.1014 35.2266 25.1852 35.9068 24.3329C36.3447 23.7482 36.7973 23.1439 37.2056 22.5018C38.3535 20.7329 38.9711 18.6724 38.9851 16.5639ZM13.3625 3.25724C13.891 3.10029 14.4344 2.95756 15.0247 2.84087C17.2149 2.36501 19.4364 2.04642 21.672 1.8875C25.6484 1.69337 29.0598 2.88363 32.7455 5.75051C34.011 6.70453 35.047 7.92968 35.7776 9.33605H31.64C31.1549 6.46567 28.5512 4.44585 25.6504 4.68931C22.7495 4.93276 20.519 7.35834 20.519 10.2694C20.519 13.1805 22.7495 15.606 25.6504 15.8495C28.5512 16.093 31.1548 14.073 31.64 11.2028H36.4836C36.938 12.9436 37.1517 14.7384 37.1185 16.5372C37.1069 18.2994 36.5907 20.0214 35.6311 21.4994C35.2606 22.0818 34.8487 22.6318 34.4125 23.2142C33.5788 24.2463 32.8671 25.3712 32.2917 26.5667C32.2775 26.6002 32.2668 26.6346 32.2529 26.668C30.0644 20.9496 23.9345 17.9956 19.3847 15.8063C18.8324 15.5406 18.2997 15.2841 17.7948 15.0334C13.5166 12.908 13.3236 5.45248 13.3625 3.25724ZM26.1247 11.2025H29.7253C29.2554 13.0228 27.5052 14.2095 25.6404 13.9726C23.7756 13.7357 22.3777 12.1491 22.3777 10.2693C22.3777 8.38947 23.7756 6.80285 25.6404 6.56596C27.5052 6.32907 29.2554 7.51583 29.7253 9.33605H26.1247C25.6092 9.33605 25.1914 9.75395 25.1914 10.2693C25.1914 10.7846 25.6092 11.2025 26.1247 11.2025ZM17.8505 41.0652C17.3977 39.5224 16.6276 38.0913 15.5893 36.8636C16.2096 36.648 16.6803 36.4844 16.9159 36.4133C18.0869 36.0779 19.1901 35.5399 20.1755 34.8239C20.5776 34.5014 20.6424 33.914 20.32 33.5119C19.9975 33.1097 19.4101 33.045 19.008 33.3674C18.2043 33.9349 17.3101 34.3619 16.3635 34.6302C16.1129 34.7058 15.5674 34.8949 14.8511 35.1438L13.3355 35.6673L13.334 35.6681L13.3327 35.6683C11.3364 36.3831 9.30391 36.9924 7.24362 37.4935C6.68639 37.6001 6.14589 37.2431 6.02504 36.6888C5.88155 36.3257 5.82642 35.9336 5.86416 35.545C5.88286 35.4037 5.91567 35.2634 5.94706 35.1231C6.10269 34.598 6.12445 34.0423 6.01038 33.5067C5.79963 32.8107 5.29675 32.2408 4.63234 31.9451C4.67685 31.8716 4.72519 31.8006 4.77725 31.7322C4.93332 31.5334 5.00211 31.2797 4.96777 31.0292C4.93343 30.7787 4.79891 30.5529 4.59493 30.4034C4.4077 30.2662 4.12826 30.057 3.88634 29.8675L3.90591 29.8333C4.01758 29.6368 4.14565 29.4103 4.26683 29.156C4.51849 28.6177 4.59165 28.0131 4.4755 27.4303C4.29417 26.451 3.3991 25.998 2.74518 25.6676C2.54635 25.5756 2.35616 25.4661 2.1769 25.34C2.10538 25.2871 1.97774 25.1923 1.89441 25.1153C2.04293 24.8521 2.21595 24.6034 2.41117 24.3725L2.46772 24.3018C3.75192 22.6638 4.85151 20.889 5.74648 19.0098C5.94126 18.6873 6.04604 18.3184 6.04997 17.9416C5.97823 17.1622 5.57072 16.4527 4.93365 15.998C4.72355 15.8062 4.43558 15.5433 4.41819 15.423C4.43099 15.2878 4.46293 15.155 4.51302 15.0288C4.62742 14.7321 4.7591 14.4428 4.89034 14.153C5.19406 13.5371 5.43368 12.8916 5.60528 12.2267L5.62945 12.1236C5.79044 11.3598 5.99846 10.6066 6.25231 9.86835C6.79991 8.35305 7.65419 6.96713 8.76188 5.7971C9.54113 5.00494 10.4672 4.37214 11.4883 3.93401C11.5086 7.03297 12.094 14.2859 16.9641 16.7048C17.4754 16.959 18.0159 17.2188 18.5754 17.4881C22.9869 19.611 28.3919 22.2191 30.4009 27.0683H25.1912C23.6456 27.0699 22.393 28.3225 22.3914 29.8681V41.0516L17.8505 41.0652ZM54.123 52.2668C54.1221 53.2973 53.2869 54.1323 52.2564 54.1334H24.2581C23.2276 54.1324 22.3926 53.2973 22.3915 52.2668V51.3336H32.6576C32.6576 51.849 33.0754 52.2668 33.5908 52.2668H42.9236C43.439 52.2668 43.8568 51.849 43.8568 51.3336H54.1229V52.2668H54.123Z" fill="black"/>
<path d="M28.3273 36.9009C28.0665 37.2718 28.1104 37.7764 28.4312 38.0967L29.59 39.2555C29.2909 39.8122 29.048 40.3973 28.865 41.0023H27.2245C26.7725 41.0022 26.3854 41.3261 26.3058 41.771C26.1832 42.463 26.1221 43.1645 26.1231 43.8673C26.127 44.3564 26.1607 44.8448 26.2239 45.3299C26.1597 45.455 26.1252 45.5932 26.1231 45.7338C26.1231 46.2492 26.5408 46.667 27.0563 46.667H42.5366L42.5387 46.6674L42.5418 46.667H49.4549C49.9703 46.667 50.3881 46.2492 50.3881 45.7338C50.386 45.5931 50.3515 45.455 50.2873 45.3299C50.3505 44.8448 50.3842 44.3564 50.3881 43.8673C50.3891 43.1645 50.328 42.463 50.2054 41.771C50.1257 41.326 49.7387 41.0022 49.2867 41.0023H47.6461C47.4632 40.3973 47.2203 39.8122 46.9211 39.2555L48.08 38.0967C48.4008 37.7763 48.4446 37.2717 48.1839 36.9009C47.3765 35.7486 46.3742 34.7463 45.2219 33.9389C44.8509 33.6787 44.3466 33.7225 44.0262 34.0428L42.8673 35.2017C42.3106 34.9026 41.7255 34.6596 41.1206 34.4767V32.8361C41.1207 32.3841 40.7967 31.9971 40.3518 31.9174C38.9648 31.675 37.5463 31.675 36.1594 31.9174C35.7144 31.9971 35.3905 32.3841 35.3906 32.8361V34.4767C34.7857 34.6596 34.2006 34.9026 33.6439 35.2017L32.485 34.0428C32.1645 33.7225 31.6603 33.6787 31.2893 33.9389C30.1371 34.7462 29.1346 35.7486 28.3273 36.9009ZM41.8586 44.8005H34.6529C34.5708 44.496 34.5271 44.1826 34.5227 43.8673C34.5227 41.8056 36.194 40.1342 38.2558 40.1342C40.3175 40.1342 41.9888 41.8056 41.9888 43.8673C41.9845 44.1826 41.9407 44.496 41.8586 44.8005ZM32.836 37.0331C33.147 37.3451 33.6343 37.3964 34.0035 37.1561C34.7742 36.6583 35.6284 36.3035 36.5249 36.1085C36.9525 36.014 37.2571 35.635 37.2572 35.1971V33.6491C37.9213 33.5853 38.59 33.5853 39.2541 33.6491V35.1971C39.2542 35.635 39.5588 36.0141 39.9864 36.1085C40.883 36.3035 41.7371 36.6584 42.5078 37.1561C42.8771 37.3964 43.3643 37.3451 43.6753 37.0331L44.7704 35.9379C45.2873 36.3619 45.7611 36.8356 46.1849 37.3524L45.0898 38.4474C44.7782 38.7587 44.7269 39.2456 44.9667 39.6149C45.4646 40.3856 45.8194 41.2398 46.0144 42.1363C46.1089 42.5639 46.4878 42.8685 46.9257 42.8686H48.4737C48.5056 43.1962 48.5215 43.5302 48.5215 43.8671C48.5215 44.1756 48.5039 44.4875 48.4748 44.8003H43.7714C43.825 44.4921 43.853 44.1799 43.8551 43.8671C43.8551 40.7744 41.348 38.2674 38.2554 38.2674C35.1628 38.2674 32.6558 40.7744 32.6558 43.8671C32.6578 44.18 32.6858 44.4921 32.7394 44.8003H28.036C28.007 44.4875 27.9893 44.1756 27.9893 43.8671C27.9893 43.5303 28.0053 43.1963 28.0372 42.8686H29.5852C30.0231 42.8685 30.4022 42.5639 30.4966 42.1363C30.6916 41.2397 31.0465 40.3856 31.5442 39.6149C31.7841 39.2455 31.7328 38.7587 31.4212 38.4474L30.3261 37.3523C30.75 36.8354 31.2238 36.3616 31.7406 35.9378L32.836 37.0331Z" fill="black"/>
</g>
<defs>
<clipPath id="clip0_982_8022">
<rect width="56" height="56" fill="white"/>
</clipPath>
</defs>
</svg>
