<svg width="56" height="56" viewBox="0 0 56 56" fill="none" xmlns="http://www.w3.org/2000/svg">
<g opacity="0.4" clip-path="url(#clip0_982_8037)">
<path d="M50.2812 49.8055L49.2121 45.4123C49.5297 45.1444 49.8387 44.8726 50.1144 44.5943C50.3723 44.3309 52.6391 41.9548 52.6391 39.8165C52.6391 39.6369 52.6465 39.4219 52.661 39.1876C53.3694 38.9527 53.9163 38.3835 54.123 37.6664C54.1764 37.4537 54.2148 37.2374 54.2379 37.0192C54.2502 36.8967 54.2698 36.775 54.2962 36.6547C54.3778 36.4155 54.5035 36.1938 54.6672 36.0012C54.7883 35.8325 54.9105 35.6621 55.0208 35.4753C55.7555 34.1527 55.4267 32.4929 54.2431 31.5504C54.3568 29.6092 54.4055 24.4656 51.9921 22.0514C49.1155 19.1749 44.0679 21.1718 42.801 21.7416C39.9554 21.2858 37.6932 21.8026 36.0735 23.2856C33.5092 25.6308 33.393 29.702 33.4887 31.55C32.9829 31.9538 32.6155 32.5051 32.4378 33.1275C32.2161 33.9266 32.3231 34.7811 32.735 35.5009C32.8516 35.6945 32.9803 35.8805 33.1205 36.0578C33.2611 36.214 33.3722 36.3944 33.4486 36.5902C33.4842 36.7397 33.5033 36.8882 33.5234 37.0313C33.5393 37.9242 34.0618 38.7303 34.8705 39.1094C34.937 39.1367 35.0036 39.1622 35.0701 39.1851C35.0847 39.4202 35.092 39.6371 35.092 39.8167C35.092 41.955 37.3588 44.3312 37.6213 44.5991C37.8943 44.8747 38.202 45.1454 38.519 45.4127L37.4499 49.8058C36.2776 50.5346 32.7345 52.8424 31.8308 54.6498C31.6863 54.9392 31.7018 55.2826 31.8719 55.5578C32.042 55.8329 32.3422 56.0005 32.6656 56.0007H55.0656C55.389 56.0006 55.6894 55.833 55.8593 55.5579C56.0293 55.2829 56.045 54.9393 55.9005 54.6499C54.9967 52.8419 51.4535 50.5341 50.2812 49.8055ZM37.3331 24.6625C38.5562 23.5423 40.3838 23.195 42.7654 23.6289C42.781 23.6321 42.7963 23.6278 42.8117 23.63C42.8512 23.6411 42.8915 23.6492 42.9322 23.6544H42.9604C42.9905 23.6499 43.0204 23.6439 43.0499 23.6361C43.065 23.6342 43.0791 23.63 43.094 23.6273C43.2107 23.6109 43.3229 23.5713 43.4242 23.5108C44.0494 23.2217 48.5573 21.2558 50.6723 23.3709C51.5926 24.5255 52.1395 25.9329 52.24 27.406C51.0019 27.9162 48.6639 28.6147 46.9608 28.0485C46.2774 27.8179 45.6131 27.5342 44.9738 27.2C43.4932 26.394 41.8144 26.0243 40.1321 26.1336C38.3346 26.1925 36.6526 27.034 35.5276 28.4372C35.7029 27.016 36.3367 25.6909 37.3331 24.6625ZM36.9585 39.8164C36.9585 39.4071 36.9266 38.853 36.8701 38.2942C36.8553 38.0539 36.7446 37.8296 36.5627 37.6719C36.3808 37.5142 36.1431 37.4362 35.9031 37.4557C35.8101 37.4541 35.7178 37.4369 35.6306 37.4046C35.4711 37.329 35.4474 37.3179 35.3727 36.7757C35.3466 36.5661 35.3102 36.3581 35.2633 36.1522C35.135 35.7004 34.9101 35.2818 34.6044 34.9254C34.5124 34.8106 34.4274 34.6904 34.3501 34.5653C34.1897 34.2821 34.1481 33.9468 34.2343 33.633C34.3305 33.3021 34.56 33.0261 34.8678 32.871C34.873 32.8684 34.876 32.8632 34.8812 32.8606C34.9442 32.8234 35.0024 32.7787 35.0546 32.7274C35.0945 32.6997 35.1323 32.669 35.1674 32.6354C35.2018 32.5869 35.2315 32.5353 35.2561 32.4813C35.3272 32.3976 35.3647 32.2906 35.3617 32.1809C35.3645 32.1643 35.3669 32.148 35.3687 32.1314C35.3775 32.113 35.3915 32.0989 35.3991 32.0798C35.4155 32.0396 37.0661 28.0001 40.1323 28.0001C41.5246 27.8918 42.9179 28.1941 44.14 28.8696C44.8577 29.2436 45.6034 29.5608 46.3704 29.8184C48.4824 30.525 50.9595 29.8704 52.4036 29.3429C52.4358 30.2127 52.4159 31.0838 52.344 31.9513C52.3436 31.9563 52.346 31.9604 52.3457 31.9654C52.3445 32.043 52.3532 32.1206 52.3717 32.1959C52.3748 32.24 52.3809 32.2839 52.39 32.3272C52.4466 32.4315 52.505 32.535 52.5652 32.6373C52.5978 32.6677 52.6326 32.6958 52.6691 32.7214C52.7238 32.7757 52.7851 32.823 52.8519 32.8617L52.8637 32.8708C53.1564 33.0172 53.3788 33.2741 53.482 33.5849C53.5851 33.8956 53.5604 34.2345 53.4133 34.5269C53.334 34.6618 53.2429 34.7848 53.1554 34.9061C52.845 35.291 52.6161 35.7352 52.4827 36.2113C52.4395 36.4013 52.4073 36.5937 52.3861 36.7874C52.3737 36.9193 52.3523 37.0502 52.3224 37.1793C52.2307 37.3642 52.0348 37.4739 51.8293 37.4554C51.3382 37.4423 50.9183 37.8061 50.8613 38.294C50.8048 38.8527 50.773 39.4069 50.773 39.8162C50.773 40.7505 49.7467 42.3026 48.7851 43.2842C48.3109 43.7386 47.8142 44.1687 47.2967 44.573C46.7145 45.0273 46.1577 45.5133 45.6287 46.0286C45.3299 46.3651 44.9256 46.5901 44.4822 46.6665H43.2736C42.8217 46.5987 42.4083 46.3737 42.106 46.0313C41.5762 45.5149 41.0185 45.0281 40.4353 44.573C39.9195 44.1701 39.4242 43.7414 38.9514 43.2887C37.9848 42.3028 36.9585 40.7506 36.9585 39.8164ZM48.3535 49.7767C45.4192 50.608 42.3117 50.608 39.3774 49.7767L40.1176 46.7365C40.3549 46.9407 40.5826 47.144 40.7757 47.3413C41.4164 48.0418 42.3022 48.4688 43.2493 48.5335H44.4816C45.43 48.4683 46.3168 48.0404 46.9581 47.3385C47.1504 47.1419 47.3752 46.9391 47.6129 46.7347L48.3535 49.7767ZM34.6789 54.1336C35.8402 53.1347 37.0792 52.2301 38.3842 51.4282C41.9528 52.5465 45.7782 52.5465 49.3467 51.4282C50.6517 52.2302 51.8907 53.1349 53.052 54.1336H34.6789Z" fill="black"/>
<path d="M11.2009 16.8002C11.4485 16.8003 11.6859 16.7021 11.8609 16.527C12.0359 16.3519 12.1343 16.1144 12.1342 15.8669V14.0002C12.1342 13.4847 11.7164 13.0669 11.2009 13.0669C10.6854 13.0669 10.2676 13.4847 10.2676 14.0002V15.8669C10.2675 16.1145 10.3657 16.352 10.5408 16.527C10.7159 16.702 10.9534 16.8004 11.2009 16.8002Z" fill="black"/>
<path d="M18.6657 16.8002C18.9133 16.8003 19.1508 16.7021 19.3258 16.527C19.5008 16.3519 19.5991 16.1144 19.599 15.8669V14.0002C19.599 13.4847 19.1812 13.0669 18.6657 13.0669C18.1502 13.0669 17.7324 13.4847 17.7324 14.0002V15.8669C17.7323 16.1145 17.8305 16.352 18.0056 16.527C18.1807 16.702 18.4181 16.8004 18.6657 16.8002Z" fill="black"/>
<path d="M11.1987 22.4011C12.0805 23.5759 13.4639 24.2671 14.9328 24.2669C16.4017 24.2666 17.7848 23.5752 18.6663 22.4002L19.225 21.6528C19.6489 21.0872 19.7169 20.3308 19.4009 19.6986C19.0848 19.0664 18.4387 18.6671 17.732 18.6669H12.132C11.4245 18.6645 10.7772 19.0647 10.4632 19.6986C10.1439 20.33 10.2118 21.0881 10.6382 21.6528L11.1987 22.4011ZM17.7311 20.5336L17.1724 21.2801C16.6437 21.9851 15.814 22.4001 14.9328 22.4003C14.0515 22.4005 13.2216 21.9859 12.6927 21.281L12.1321 20.5337H17.7311V20.5336Z" fill="black"/>
<path d="M8.39999 27.9992V30.7992C8.40163 32.3449 9.65429 33.5975 11.2 33.5992H18.6667C20.2124 33.5975 21.465 32.3449 21.4667 30.7992V27.9992H23.3334C24.879 27.9976 26.1317 26.7449 26.1334 25.1992V23.2382C28.3061 22.7947 29.8666 20.8835 29.8666 18.6659C29.8666 16.4483 28.3061 14.5371 26.1334 14.0936V12.1326C26.1317 10.5869 24.879 9.33427 23.3334 9.33263H15.866L17.3596 8.21241C17.7422 7.92596 17.8466 7.3967 17.6011 6.98654L16.1529 4.5675C16.5682 4.07159 16.7971 3.44608 16.8 2.79924C16.8 1.61525 16.0552 0.55924 14.9399 0.161772C13.8246 -0.235696 12.58 0.11135 11.8312 1.02857C11.0824 1.94568 10.9915 3.23477 11.604 4.24791C12.2166 5.26115 13.4003 5.77948 14.5603 5.54257L15.5668 7.22345L12.7561 9.33252H6.53339C4.98771 9.33416 3.73504 10.5868 3.7334 12.1325V14.0935C1.56056 14.5371 0 16.4483 0 18.6659C0 20.8835 1.56056 22.7947 3.73329 23.2382V25.1992C3.73493 26.7449 4.9876 27.9976 6.53329 27.9992H8.39999ZM26.1334 16.0254C27.252 16.4212 27.9999 17.4792 27.9999 18.6659C27.9999 19.8526 27.2522 20.9105 26.1334 21.3064V16.0254ZM14 3.73264C13.4845 3.73264 13.0667 3.31472 13.0667 2.79935C13.0667 2.28397 13.4845 1.86605 14 1.86605C14.5155 1.86605 14.9333 2.28386 14.9333 2.79935C14.9329 3.31461 14.5153 3.73231 14 3.73264ZM3.7334 21.3064C2.61471 20.9106 1.86681 19.8526 1.86681 18.6659C1.86681 17.4792 2.6146 16.4213 3.7334 16.0254V21.3064ZM19.6 30.7992C19.5996 31.3145 19.1819 31.7322 18.6667 31.7325H11.2C10.6846 31.7322 10.267 31.3145 10.2667 30.7992V27.9992H19.6V30.7992ZM5.59999 25.1992V12.1326C5.60032 11.6173 6.01802 11.1997 6.53329 11.1993H23.3333C23.8485 11.1997 24.2662 11.6174 24.2665 12.1326V25.1992C24.2662 25.7145 23.8485 26.1322 23.3333 26.1325H6.53329C6.01802 26.1323 5.60032 25.7146 5.59999 25.1992Z" fill="black"/>
<path d="M53.4886 0.000138324H36.1144C34.7338 -0.00478354 33.6098 1.10876 33.6016 2.48929V19.6001C33.6013 19.9646 33.8134 20.2959 34.1446 20.4482C34.4758 20.6004 34.8654 20.5459 35.1419 20.3083L41.4137 14.9334H53.4886C54.8693 14.9383 55.9933 13.8248 56.0015 12.4443V2.4894C55.9934 1.10876 54.8693 -0.00478354 53.4886 0.000138324ZM54.1349 12.4443C54.128 12.7945 53.839 13.0729 53.4887 13.0668H41.0683C40.8455 13.0666 40.63 13.1464 40.4612 13.2919L35.4683 17.5712V2.4894C35.4752 2.13918 35.7642 1.86071 36.1144 1.86684H53.4886C53.8389 1.86071 54.1279 2.13918 54.1348 2.4894V12.4443H54.1349Z" fill="black"/>
<path d="M45.734 4.66663H38.2673C37.7518 4.66663 37.334 5.08444 37.334 5.59992C37.334 6.1154 37.7518 6.53322 38.2673 6.53322H45.734C46.2494 6.53322 46.6673 6.1154 46.6673 5.59992C46.6673 5.08444 46.2493 4.66663 45.734 4.66663Z" fill="black"/>
<path d="M51.3332 4.66663H49.4665C48.951 4.66663 48.5332 5.08444 48.5332 5.59992C48.5332 6.1154 48.9511 6.53322 49.4665 6.53322H51.3332C51.8487 6.53322 52.2665 6.1154 52.2665 5.59992C52.2665 5.08444 51.8486 4.66663 51.3332 4.66663Z" fill="black"/>
<path d="M46.395 8.67088C46.3491 8.62855 46.2991 8.59093 46.2455 8.55877C46.198 8.52169 46.1443 8.49326 46.0869 8.47488C46.0311 8.44655 45.971 8.42752 45.9091 8.41833C45.7895 8.39099 45.6651 8.39099 45.5455 8.41833C45.487 8.42883 45.4306 8.44798 45.3778 8.47488C45.3181 8.49501 45.2613 8.52322 45.2091 8.55877C45.1605 8.59333 45.1139 8.63074 45.0696 8.67088C44.9834 8.76068 44.9136 8.86491 44.8636 8.97899C44.7283 9.32921 44.8087 9.72624 45.0696 9.99628C45.1602 10.0788 45.2645 10.145 45.3777 10.1923C45.6035 10.2919 45.8609 10.2919 46.0868 10.1923C46.2009 10.147 46.3055 10.0805 46.3949 9.99628C46.6622 9.7293 46.7398 9.32636 46.5909 8.9791C46.5481 8.8636 46.4814 8.7586 46.395 8.67088Z" fill="black"/>
<path d="M42.0006 8.40015H38.2673C37.7518 8.40015 37.334 8.81796 37.334 9.33344C37.334 9.84892 37.7518 10.2667 38.2673 10.2667H42.0006C42.516 10.2667 42.9339 9.84882 42.9339 9.33344C42.9339 8.81807 42.516 8.40015 42.0006 8.40015Z" fill="black"/>
<path d="M32.5971 41.6429C32.4526 41.2941 32.1124 41.0667 31.7349 41.0667H8.11445C6.73381 41.0617 5.60977 42.1753 5.60156 43.5558V53.5108C5.60977 54.8914 6.73381 56.0049 8.11445 56H25.4886C26.8693 56.0049 27.9933 54.8913 28.0015 53.5108V47.0531L32.3947 42.6599C32.6616 42.3929 32.7415 41.9915 32.5971 41.6429ZM26.4084 46.0068C26.2333 46.1818 26.1349 46.4191 26.1349 46.6667V53.5108C26.128 53.861 25.839 54.1395 25.4887 54.1334H8.11445C7.76423 54.1395 7.47515 53.861 7.46826 53.5108V43.5558C7.47515 43.2056 7.76423 42.9271 8.11445 42.9333L29.4817 42.9332L26.4084 46.0068Z" fill="black"/>
<path d="M15.8688 51.3335H23.3355C23.851 51.3335 24.2688 50.9157 24.2688 50.4002C24.2688 49.8847 23.8509 49.4669 23.3355 49.4669H15.8688C15.3534 49.4669 14.9355 49.8848 14.9355 50.4002C14.9355 50.9156 15.3534 51.3335 15.8688 51.3335Z" fill="black"/>
<path d="M10.2673 51.3335H12.134C12.6495 51.3335 13.0673 50.9157 13.0673 50.4002C13.0673 49.8847 12.6495 49.4669 12.134 49.4669H10.2673C9.7518 49.4669 9.33398 49.8848 9.33398 50.4002C9.33398 50.9156 9.7518 51.3335 10.2673 51.3335Z" fill="black"/>
<path d="M15.8649 47.5999C15.9868 47.5984 16.1073 47.573 16.2195 47.5252C16.3326 47.4777 16.4367 47.4115 16.5276 47.3292C16.7949 47.0622 16.8726 46.6593 16.7236 46.312C16.6763 46.1988 16.6101 46.0947 16.5276 46.0039C16.3034 45.7849 15.9855 45.6904 15.6781 45.7515C15.6197 45.762 15.5632 45.781 15.5104 45.808C15.4507 45.8282 15.3939 45.8564 15.3417 45.8919C15.2931 45.9265 15.2465 45.9639 15.2023 46.004C15.1198 46.0947 15.0535 46.1989 15.0063 46.3121C14.8834 46.5991 14.9137 46.9288 15.0869 47.1887C15.2601 47.4485 15.5526 47.6031 15.8649 47.5999Z" fill="black"/>
<path d="M19.5993 47.6002H23.3326C23.8481 47.6002 24.2659 47.1824 24.2659 46.6669C24.2659 46.1515 23.848 45.7336 23.3326 45.7336H19.5993C19.0838 45.7336 18.666 46.1515 18.666 46.6669C18.666 47.1824 19.0838 47.6002 19.5993 47.6002Z" fill="black"/>
</g>
<defs>
<clipPath id="clip0_982_8037">
<rect width="56" height="56" fill="white"/>
</clipPath>
</defs>
</svg>
