<svg width="56" height="56" viewBox="0 0 56 56" fill="none" xmlns="http://www.w3.org/2000/svg">
<g opacity="0.4">
<path d="M52.2667 0H3.7333C1.67245 0.00240625 0.00240625 1.67245 0 3.7333V44.8C0.00514062 46.6421 1.35483 48.2044 3.17669 48.4771L1.48028 50.1735C0.7525 50.903 0.7525 52.0839 1.48028 52.8136L4.11983 55.4531C4.84925 56.1811 6.03039 56.1811 6.75992 55.4531L13.6797 48.5333H22.4V50.4H21.4667C18.8906 50.4031 16.8031 52.4906 16.8 55.0667C16.8 55.5822 17.2178 56 17.7333 56H38.2666C38.7821 56 39.1999 55.5822 39.1999 55.0667C39.1968 52.4906 37.1093 50.4031 34.5332 50.4H33.6V48.5333H52.2667C54.3275 48.5309 55.9977 46.8608 56 44.8V3.7333C55.9976 1.67245 54.3275 0.00240625 52.2667 0ZM1.8667 44.8V42.9333H8.72036L4.98706 46.6666H3.7333C2.70287 46.6656 1.86769 45.8305 1.8667 44.8ZM12.6376 46.9355L12.6265 46.9467L5.43966 54.1333L2.8 51.4937L11.6298 42.6639L11.6398 42.654L14.7071 39.5866L17.3469 42.2264L12.6376 46.9355ZM24.599 21.684C24.9374 21.4025 25.4259 21.3932 25.7748 21.6617L32.8677 27.187C33.2393 27.4759 33.7677 27.4432 34.1009 27.1109L40.9523 20.2682C40.9902 20.3539 41.0254 20.4414 41.0613 20.5284C41.1365 20.7094 41.2101 20.8915 41.2767 21.0775C41.3228 21.2065 41.3644 21.338 41.4063 21.4692C41.4649 21.6528 41.5207 21.8377 41.5711 22.0254C41.5889 22.0913 41.6042 22.1585 41.6209 22.2251L34.2518 29.5942C33.9211 29.9264 33.3945 29.9596 33.0249 29.6712L25.8194 24.0713C25.4709 23.8004 24.9804 23.8106 24.6436 24.0959L18.4605 29.3277C18.4274 29.2365 18.3985 29.1446 18.3678 29.053C18.3031 28.8609 18.2398 28.6685 18.1855 28.475C18.1487 28.3441 18.1178 28.2123 18.0858 28.0807C18.0403 27.8939 17.9975 27.7069 17.9618 27.5192C17.95 27.4573 17.941 27.395 17.9302 27.333L24.599 21.684ZM17.7484 25.0402C17.7668 19.6821 21.3128 14.9765 26.4584 13.4822C31.6039 11.9879 37.1189 14.0621 40.0043 18.577L33.3648 25.2079L26.919 20.1871C25.872 19.3816 24.4057 19.4117 23.3926 20.2595L17.7484 25.0402ZM41.9673 24.5182C42.2968 30.1664 38.6742 35.2912 33.2396 36.8647C27.805 38.4383 22.0047 36.0419 19.2654 31.0914L25.2715 26.0094L31.8801 31.146C32.9948 32.0124 34.5809 31.9109 35.5761 30.9094L41.9673 24.5182ZM20.2576 35.3636C20.7095 35.7909 21.1892 36.1879 21.6934 36.552L20.4494 37.7963L19.137 36.4839L20.2576 35.3636ZM19.7933 39.7801L18.6667 40.9067L16.0269 38.2669L17.1537 37.1401L19.7933 39.7801ZM34.5333 52.2667C35.7195 52.268 36.7766 53.0155 37.1733 54.1334H18.8266C19.2233 53.0155 20.2804 52.2681 21.4666 52.2667H34.5333ZM24.2667 50.4V48.5333H31.7334V50.4H24.2667ZM54.1333 44.8C54.1323 45.8305 53.2971 46.6656 52.2666 46.6667H15.5463L19.2796 42.9334H54.1333V44.8ZM54.1333 41.0667H21.1402C21.5883 40.5958 21.758 39.925 21.5877 39.2978L23.3089 37.5762C28.1096 40.118 33.9472 39.6542 38.2864 36.3864C42.6256 33.1186 44.6837 27.6363 43.5669 22.3204C43.4506 21.7814 43.3033 21.2496 43.1258 20.7275L47.6 16.2531V18.6667C47.6 19.1822 48.0178 19.6 48.5333 19.6C49.0488 19.6 49.4666 19.1822 49.4666 18.6667V14C49.4646 13.8882 49.4423 13.7778 49.4007 13.6741C49.3884 13.6439 49.3744 13.6142 49.3587 13.5856C49.3235 13.5154 49.2795 13.4501 49.2277 13.391C49.2076 13.3662 49.1862 13.3424 49.1635 13.3199C49.0903 13.2508 49.0062 13.1941 48.9148 13.1522C48.907 13.1487 48.9012 13.1426 48.8934 13.1393L48.8906 13.1378C48.7879 13.0974 48.6789 13.0758 48.5685 13.0738C48.5562 13.0733 48.5458 13.0667 48.5333 13.0667H43.8666C43.3511 13.0667 42.9333 13.4845 42.9333 14C42.9333 14.5155 43.3512 14.9333 43.8666 14.9333H46.2802L42.3475 18.866C42.2581 18.6907 42.1737 18.512 42.0769 18.3417L42.076 18.3401L42.0743 18.3367L42.0732 18.3355C38.7791 12.4779 31.7879 9.78688 25.4166 11.9242C19.0452 14.0615 15.091 20.424 15.9957 27.0831C16.0403 27.4302 16.099 27.7759 16.1716 28.1204C16.2122 28.3128 16.2673 28.5032 16.3166 28.6944L13.042 31.4649L5.2395 25.3963C4.97623 25.1917 4.62372 25.143 4.31484 25.2687C4.00597 25.3944 3.78755 25.6752 3.74205 26.0055C3.69644 26.3359 3.83053 26.6654 4.0938 26.8702L12.4938 33.4035C12.8423 33.6742 13.3326 33.6641 13.6696 33.3793L16.9578 30.5974C17.0362 30.7847 17.1091 30.9732 17.196 31.1585C17.6749 32.1736 18.2756 33.1267 18.9849 33.9966L17.6362 35.3451C16.9936 35.169 16.3058 35.3502 15.8335 35.8201L10.5871 41.0665H1.8667V3.7333C1.86769 2.70277 2.70287 1.86769 3.73341 1.86659H52.2667C53.2972 1.86758 54.1323 2.70277 54.1334 3.7333V41.0667H54.1333Z" fill="black"/>
<path d="M11.2007 3.73316C7.82308 3.73009 4.86394 5.99492 3.98467 9.25605C3.10541 12.5173 4.52488 15.9626 7.44628 17.6578C10.3677 19.3531 14.0634 18.876 16.4585 16.4946C16.4652 16.4883 16.4741 16.4864 16.4807 16.4798C16.4872 16.4733 16.4891 16.4643 16.4954 16.4576C18.6221 14.3199 19.2531 11.1123 18.0946 8.32833C16.9362 5.54441 14.216 3.7313 11.2007 3.73316ZM11.2007 16.7999C8.29 16.8015 5.86384 14.5719 5.62038 11.6714C5.3768 8.77086 7.39717 6.16784 10.2674 5.68419V11.1999C10.2682 11.4474 10.3665 11.6846 10.5412 11.86L14.4405 15.7593C13.4956 16.436 12.3628 16.7999 11.2007 16.7999ZM15.7601 14.4395L13.4538 12.1332H16.7164C16.5765 12.9645 16.2495 13.7531 15.7601 14.4395ZM12.134 10.2666V5.68419C14.4791 6.08439 16.3162 7.92145 16.7164 10.2666H12.134Z" fill="black"/>
<path d="M43.8688 34.5334C43.3534 34.5334 42.9355 34.9513 42.9355 35.4667V38.2667C42.9355 38.7822 43.3535 39.2 43.8688 39.2C44.3842 39.2 44.8021 38.7822 44.8021 38.2667V35.4667C44.8021 34.9514 44.3843 34.5334 43.8688 34.5334Z" fill="black"/>
<path d="M47.5993 30.7999C47.0838 30.7999 46.666 31.2177 46.666 31.7332V38.2665C46.666 38.782 47.0838 39.1998 47.5993 39.1998C48.1148 39.1998 48.5326 38.782 48.5326 38.2665V31.7332C48.5326 31.2178 48.1148 30.7999 47.5993 30.7999Z" fill="black"/>
<path d="M51.3317 32.6666C50.8163 32.6666 50.3984 33.0844 50.3984 33.5999V38.2666C50.3984 38.7821 50.8163 39.1999 51.3317 39.1999C51.8472 39.1999 52.265 38.7821 52.265 38.2666V33.5999C52.2651 33.0844 51.8472 32.6666 51.3317 32.6666Z" fill="black"/>
</g>
</svg>
