<svg width="65" height="62" viewBox="0 0 65 62" fill="none" xmlns="http://www.w3.org/2000/svg">
<path fill-rule="evenodd" clip-rule="evenodd" d="M33.3847 1.49038C33.3847 1.63717 33.3634 1.77899 33.3239 1.91296L51.3055 11.3004C51.5481 11.1293 51.8441 11.0288 52.1635 11.0288C52.9866 11.0288 53.6539 11.696 53.6539 12.5191C53.6539 12.8631 53.5374 13.1798 53.3417 13.432L61.86 29.7039C62.0771 29.5803 62.3284 29.5097 62.5962 29.5097C63.4193 29.5097 64.0865 30.177 64.0865 31.0001C64.0865 31.8232 63.4193 32.4905 62.5962 32.4905C62.3796 32.4905 62.1738 32.4442 61.9881 32.3612L53.4301 48.9442C53.7495 49.2175 53.9519 49.6236 53.9519 50.0769C53.9519 50.9001 53.2846 51.5673 52.4615 51.5673C51.8808 51.5673 51.3777 51.2353 51.1317 50.7507L33.3652 60.2685C33.378 60.347 33.3847 60.4276 33.3847 60.5097C33.3847 61.3329 32.7174 62.0001 31.8943 62.0001C31.0712 62.0001 30.4039 61.3329 30.4039 60.5097C30.4039 60.3002 30.4472 60.1007 30.5252 59.9197L12.5848 50.8766C12.3203 51.2919 11.8558 51.5673 11.3269 51.5673C10.5038 51.5673 9.83656 50.9001 9.83656 50.0769C9.83656 49.5894 10.0707 49.1565 10.4327 48.8846V48.3352L1.83878 32.4495C1.72701 32.4763 1.61035 32.4905 1.49038 32.4905C0.667268 32.4905 0 31.8232 0 31.0001C0 30.177 0.667268 29.5097 1.49038 29.5097C1.62201 29.5097 1.74965 29.5267 1.87121 29.5588L10.4327 14.1222V13.7115C10.0707 13.4396 9.83656 13.0067 9.83656 12.5191C9.83656 11.696 10.5038 11.0288 11.3269 11.0288C11.682 11.0288 12.0081 11.1529 12.2641 11.3602L30.5174 2.16698L30.5399 2.11317C30.4526 1.92366 30.4039 1.71271 30.4039 1.49038C30.4039 0.667268 31.0712 0 31.8943 0C32.7174 0 33.3847 0.667268 33.3847 1.49038ZM31 59.3174C30.9504 59.3546 30.9033 59.3948 30.8588 59.4378L22.0647 50.817L22.0653 50.3749H27.8613L31 57.7062V59.3174ZM33.2852 59.9732C33.2696 59.9328 33.2523 59.8933 33.2334 59.8547L42.1778 51.1289V55.2093L33.2852 59.9732ZM33.2106 2.19004C33.2002 2.20959 33.1893 2.22889 33.1781 2.24791L42.1778 11.0697V6.87148L33.2106 2.19004ZM32.9995 2.49027C32.9355 2.56097 32.8648 2.62551 32.7884 2.68287V2.9684L36.5617 11.923H42.1778V11.4871L32.9995 2.49027ZM28.3761 11.923L31 5.64857V11.923H28.3761ZM26.4376 11.923H22.1241L22.1251 11.2251L29.7463 4.01089L26.4376 11.923ZM30.0304 3.33152L22.1258 10.814L22.132 6.724L30.3406 2.58978L30.0304 3.33152ZM12.719 50.6104L21.7599 55.1677L21.7664 50.942L21.1879 50.3749H12.7875C12.7711 50.456 12.748 50.5347 12.719 50.6104ZM12.8173 50.0768H20.8839L18.4326 47.6738L12.7864 49.7735C12.8067 49.8715 12.8173 49.9729 12.8173 50.0768ZM12.6968 49.4888L18.1974 47.4433L16.5336 45.8123L12.6921 49.4283L12.6813 49.454L12.687 49.4665L12.6968 49.4888ZM51.0118 50.4243C51.0079 50.4079 51.0042 50.3915 51.0009 50.3749H42.9507L42.4759 50.8381V55.0496L51.0236 50.4705C51.0217 50.4634 51.0198 50.4563 51.018 50.4492C51.0158 50.4409 51.0138 50.4326 51.0118 50.4243ZM50.9711 50.0768C50.9711 49.9449 50.9883 49.817 51.0204 49.6952L45.7023 47.6906L43.2562 50.0768H50.9711ZM51.1252 49.4162C51.1832 49.2991 51.2562 49.1907 51.3416 49.0935C51.0666 48.8468 50.7178 48.5336 50.3036 48.1612C49.5986 47.5273 48.7039 46.7217 47.6609 45.7798L45.9378 47.4608L51.1252 49.4162ZM2.12364 32.3496L10.4327 47.7087V39.8316L2.52145 32.0762C2.40524 32.1876 2.27104 32.2803 2.12364 32.3496ZM2.71549 31.8491C2.78022 31.7558 2.83458 31.6548 2.8769 31.5478L10.4327 34.3959V39.4142L2.71549 31.8491ZM2.98077 30.9978C2.9805 30.8206 2.94933 30.6507 2.89235 30.4932L10.4327 27.7152V30.9983L2.98077 30.9978ZM2.7626 30.2233L10.4327 27.3975V22.2932L2.44435 29.8549C2.56945 29.9593 2.67719 30.0837 2.7626 30.2233ZM2.19102 29.6843L10.4327 21.8827V14.7368L2.15324 29.6648C2.16594 29.6711 2.17853 29.6776 2.19102 29.6843ZM61.7293 32.2126C61.6985 32.1905 61.6685 32.1672 61.6394 32.1429L53.2067 40.3695V48.7271L61.7293 32.2126ZM61.4311 31.9296C61.3818 31.8679 61.3373 31.8022 61.2982 31.733L53.2067 34.7421V39.9531L61.4311 31.9296ZM61.178 31.4597C61.1607 31.4063 61.1464 31.3517 61.1351 31.2959L53.2067 31.2965V34.424L61.178 31.4597ZM61.1058 30.9978C61.1059 30.9304 61.1105 30.864 61.1192 30.799L53.2067 27.7761V30.9984L61.1058 30.9978ZM61.1894 30.5067C61.2218 30.4143 61.263 30.326 61.3121 30.243L53.2067 22.2978V27.457L61.1894 30.5067ZM61.4906 30.0005C61.5296 29.9574 61.5711 29.9166 61.6148 29.8783L53.2067 13.8169V21.8804L61.4906 30.0005ZM51.0655 11.5114L42.4759 7.02709V11.3619L43.0484 11.923H50.7971C50.8636 11.7709 50.9547 11.632 51.0655 11.5114ZM50.7029 12.2211H43.3524L45.6126 14.4365L50.674 12.5717C50.6734 12.5543 50.6731 12.5367 50.6731 12.5191C50.6731 12.4171 50.6834 12.3174 50.7029 12.2211ZM50.7156 12.8741L45.8481 14.6674L47.5965 16.3812L50.7678 13.4397L50.8548 13.2328C50.7937 13.1211 50.7466 13.0007 50.7156 12.8741ZM21.8337 6.87424L12.486 11.5822C12.5695 11.6853 12.6395 11.7998 12.6933 11.923H20.9543L21.8273 11.0966L21.8337 6.87424ZM12.8173 12.5191C12.8173 12.6313 12.8049 12.7405 12.7815 12.8455C12.8396 12.9004 12.9053 12.9627 12.9785 13.0322C13.2806 13.3191 13.71 13.7293 14.2489 14.2447L14.9673 14.9319L14.9702 14.9347C15.3905 15.3368 15.8569 15.783 16.3642 16.268L18.2965 14.4388L12.8068 12.3415C12.8138 12.3997 12.8173 12.459 12.8173 12.5191ZM12.6751 13.1553C12.6085 13.2963 12.5204 13.4251 12.415 13.5377L14.3857 18.1408L16.1474 16.4731C15.6431 15.9909 15.1792 15.5471 14.7611 15.1471L14.0429 14.4602C13.5039 13.9447 13.0749 13.5348 12.7733 13.2484L12.6751 13.1553ZM32.7884 3.73601V11.923H36.2383L32.7884 3.73601ZM31 12.2211H28.2515L26.1955 17.1375L31 18.973V12.2211ZM32.7884 19.1612V12.2211H36.3639L38.4148 17.0883L32.7884 19.1612ZM32.7884 19.6563V19.4788L38.5307 17.3632L40.7808 22.703L40.7757 22.7078L32.7884 19.6563ZM31 19.2921V19.8201L23.9944 22.4011L26.0805 17.4126L31 19.2921ZM24.524 16.4989L22.1185 15.5799L22.1236 12.2211H26.3129L24.524 16.4989ZM24.409 16.774L22.2681 21.8934L22.1091 21.7424L22.118 15.8988L24.409 16.774ZM22.1451 22.1876L22.1084 22.1528L22.1083 22.2757L22.1451 22.1876ZM21.8091 22.9911L21.8108 21.8703C20.6125 20.7327 19.4846 19.6588 18.453 18.6749C17.702 17.9587 17.0021 17.2901 16.3632 16.6794L14.5107 18.4329L17.2702 24.8784L21.7028 23.2454L21.8091 22.9911ZM21.5457 23.6209L17.3876 25.1528L19.167 29.3091L21.5457 23.6209ZM20.1477 31.5997L20.2742 31.2971L21.7964 31.2972L21.7901 35.4361L20.1477 31.5997ZM19.0068 29.6923L18.4604 30.9989L12.2211 30.9985V27.0563L17.1076 25.256L19.0068 29.6923ZM12.2211 26.7386L16.9901 24.9816L14.28 18.6513L12.2211 20.6002V26.7386ZM12.2211 20.1898L14.1549 18.3592L12.2211 13.8422V20.1898ZM12.2211 31.2965L18.3357 31.297L16.2552 36.2721L12.2211 34.7515V31.2965ZM10.4327 31.2964L3.05361 31.2959L10.4327 34.0773V31.2964ZM12.2211 41.5848V45.9189L13.5066 42.8449L12.2211 41.5848ZM13.6304 42.5489L12.2211 41.1674V35.07L16.1401 36.5473L13.6304 42.5489ZM14.8815 44.1927L12.9744 48.7532L16.3206 45.6035L14.8815 44.1927ZM15.0053 43.8967L17.8147 37.1785L21.7851 38.6751L21.7824 40.4624L16.5378 45.399L15.0053 43.8967ZM17.9298 36.9033L21.7856 38.3568L21.7889 36.1908L19.9874 31.9829L17.9298 36.9033ZM20.3989 30.9991L21.802 27.6438L21.7969 30.9992L20.3989 30.9991ZM22.1012 26.9283L22.0949 30.9992L31 30.9998V30.5202C28.4204 28.1163 25.8759 25.7208 23.5334 23.5033L22.1012 26.9283ZM23.6564 23.2093C25.9595 25.3899 28.4606 27.7451 31 30.1127V20.1377L23.8373 22.7766L23.6564 23.2093ZM32.7884 30.1162V19.9753L40.532 22.9338L32.7884 30.1162ZM32.7884 30.9998V30.5228L40.8425 23.0524L40.9444 23.0913L42.1778 26.0183V30.9992L32.7884 30.9998ZM32.7884 31.7762V31.2979L42.1778 31.2972V33.88L40.1961 38.5956C37.8409 36.4428 35.3152 34.1211 32.7884 31.7762ZM31 31.2979V31.786L23.3806 38.958L23.2819 38.9208L22.0871 36.1299L22.0945 31.2973L31 31.2979ZM31 32.1953V41.8301L23.6911 39.075L31 32.1953ZM32.7884 42.0172V32.1828C35.2762 34.4903 37.7584 36.7715 40.0735 38.8873L39.864 39.3859L32.7884 42.0172ZM32.7884 42.5042V42.3352L39.7056 39.7628L37.7652 44.3802L32.7884 42.5042ZM31 42.1486V42.6823L25.7311 44.6416L23.4465 39.3053L23.4495 39.3025L31 42.1486ZM31 43.0003V50.0768H28.058L25.8485 44.916L31 43.0003ZM32.7884 50.0768V42.8228L37.6496 44.6552L35.3712 50.0768H32.7884ZM31 50.3749H28.1856L31 56.9488V50.3749ZM33.4769 59.2008L37.1859 50.3749H42.1778V50.7124L33.4769 59.2008ZM35.2459 50.3749L32.7884 56.2227V50.3749H35.2459ZM37.3112 50.0768H42.1778V46.3621L39.3243 45.2864L37.3112 50.0768ZM39.4399 45.0115L42.1778 46.0435V40.8072L41.4756 40.1673L39.4399 45.0115ZM41.5982 39.8756L42.1778 40.404V38.8435L42.0049 38.9078L41.5982 39.8756ZM42.1633 38.5308L42.1778 38.5254V38.4963L42.1633 38.5308ZM42.4759 37.787V38.4146L46.7341 36.8311L44.8033 32.2489L42.4759 37.787ZM43.832 29.9439L43.3885 30.9991L42.4759 30.9991V26.7257L43.832 29.9439ZM44.9648 31.8645L45.2033 31.297L51.4182 31.2966V35.0891L47.0138 36.7271L44.9648 31.8645ZM51.4182 35.4072L47.1296 37.002L49.7813 43.2948L51.4182 41.6979V35.4072ZM51.4182 42.1143L49.9057 43.5899L51.4182 47.1794V42.1143ZM51.4182 47.947L49.6764 43.8135L47.8747 45.5712C48.9115 46.5075 49.8012 47.3086 50.5029 47.9396C50.8578 48.2586 51.1647 48.5342 51.4182 48.7618V47.947ZM51.4182 20.5447V26.7737L47.701 25.3535L50.2168 19.3671L51.4182 20.5447ZM50.4878 14.106L48.9671 17.7246L47.8096 16.5901L50.4878 14.106ZM50.341 19.0714L51.4182 16.5082V20.1273L50.341 19.0714ZM48.8428 18.0203L47.5908 16.793L42.4759 21.5373V23.3573L46.0294 24.7149L48.8428 18.0203ZM45.9139 24.9899L42.4759 23.6764V25.9581L43.9935 29.5595L45.9139 24.9899ZM47.5855 25.6285L45.3286 30.9989L51.4182 30.9985V27.0928L47.5855 25.6285ZM43.2633 31.2972L42.4759 33.1707V31.2972L43.2633 31.2972ZM16.5799 16.4742L18.6055 14.5568L21.8201 15.7849L21.8114 21.4599C20.6894 20.3944 19.6313 19.3868 18.6587 18.4592C17.9121 17.7471 17.2159 17.0821 16.5799 16.4742ZM18.8456 14.3295L21.8206 15.466L21.8255 12.2211H21.073L18.8456 14.3295ZM42.1778 25.2507L41.33 23.2386L42.1778 23.5625V25.2507ZM46.85 37.106L42.4759 38.7326V40.6755C43.6872 41.7785 44.8312 42.8171 45.8807 43.7677C46.5071 44.3351 47.0999 44.8712 47.6531 45.371L49.5521 43.5184L46.85 37.106ZM23.2154 39.5228L25.4514 44.7457L22.072 46.0024L22.0803 40.5913L23.2154 39.5228ZM25.5688 45.02L22.0715 46.3206L22.0658 50.0768H27.7337L25.5688 45.02ZM21.7818 40.8723L21.7738 46.1133L18.5061 47.3285L16.7508 45.6078L21.7818 40.8723ZM21.7733 46.4315L18.7413 47.559L21.3097 50.0768H21.7677L21.7733 46.4315ZM21.767 50.5252L21.6137 50.3749H21.7673L21.767 50.5252ZM42.4759 50.4216V50.3749H42.5238L42.4759 50.4216ZM45.6806 43.9886C46.3019 44.5514 46.89 45.0833 47.4393 45.5796L45.6299 47.3447L42.4759 46.1559V41.0786C43.6132 42.1139 44.6891 43.0905 45.6806 43.9886ZM42.8294 50.0768L45.3944 47.5745L42.4759 46.4744V50.0768H42.8294ZM47.3777 16.5841L45.5386 14.7814L42.4759 15.9098V21.1307L47.3777 16.5841ZM45.3031 14.5505L42.9266 12.2211H42.4759V15.5921L45.3031 14.5505ZM42.6225 11.923L42.4759 11.7793V11.923H42.6225ZM21.8266 11.5076L21.3879 11.923H21.826L21.8266 11.5076ZM38.6948 16.9851L36.6873 12.2211H42.1778V15.7019L38.6948 16.9851ZM38.8107 17.2601L42.1778 16.0196V21.4072L41.0134 22.4873L38.8107 17.2601ZM42.1778 23.2434V21.8138L41.1365 22.7796L41.1697 22.8583L42.1778 23.2434ZM18.5367 14.2114L20.6394 12.2211H13.3269L18.5367 14.2114ZM22.0578 55.3178L22.064 51.2337L30.6464 59.647L22.0578 55.3178ZM22.0809 40.1814L22.083 38.7874L23.0579 39.1549L23.0905 39.2311L22.0809 40.1814ZM22.0835 38.4691L22.8953 38.7751L22.0859 36.8846L22.0835 38.4691Z" fill="url(#paint0_linear_373:5167)"/>
<defs>
<linearGradient id="paint0_linear_373:5167" x1="9.38942" y1="12.8173" x2="53.6539" y2="49.9279" gradientUnits="userSpaceOnUse">
<stop stop-color="#0030D9"/>
<stop offset="1"/>
</linearGradient>
</defs>
</svg>
