<svg width="80" height="80" viewBox="0 0 80 80" fill="none" xmlns="http://www.w3.org/2000/svg">
<path fill-rule="evenodd" clip-rule="evenodd" d="M25.6458 26.5399C26.8751 25.4621 28.6433 25.4867 29.6578 25.7999C28.9931 24.9838 27.4455 24.3147 26.9892 24.2335C26.6418 24.3637 25.6459 25.3873 25.6459 26.5398L25.6458 26.5399ZM21.7205 22.0767C22.529 17.7519 32.5801 20.6174 37.6418 18.7804C37.7389 20.0412 36.0836 22.0613 34.5002 22.809C37.2068 25.1578 39.6366 29.8903 40.1269 35.672C40.6156 29.8903 43.0456 25.1578 45.752 22.809C44.1688 22.0613 42.5121 20.0412 42.6104 18.7804C47.6721 20.6174 57.7234 17.7519 58.5333 22.0767C58.7037 22.992 58.2633 24.387 57.7874 24.7879C57.7025 24.4978 57.258 23.549 55.857 23.3363C48.7756 22.2663 42.8634 33.1802 48.2001 37.5929C48.2814 37.6599 48.2358 37.7838 48.1256 37.7838H32.1257C32.0168 37.7838 31.9709 37.6599 32.0508 37.5929C37.3891 33.1802 31.4768 22.2663 24.3955 23.3363C22.9931 23.549 22.5503 24.4978 22.4649 24.7878C21.9892 24.387 21.5488 22.9921 21.7205 22.0766V22.0767ZM19.9982 12.1504C20.1254 11.7418 15.9733 11.7316 15.9733 14.3303C15.9733 16.0721 18.4569 16.897 18.4569 18.7044C18.4569 19.5462 17.5513 20.1637 17.2734 20.1637C17.913 17.2619 15.268 18.7804 14.5538 19.3232C15.9732 15.4208 12.7778 15.4455 13.0924 13.6561C13.3113 12.4056 16.0885 12.7834 17.0938 12.1504C18.8774 11.0276 20.9875 6.65865 22.3782 11.0276C19.7857 13.4345 21.2942 16.977 24.5852 16.977C24.5852 16.977 24.6037 17.4964 24.5735 17.5377C20.6481 17.3455 19.2798 14.4606 19.9981 12.1504H19.9982ZM65.7942 19.3232C65.0797 18.7804 62.435 17.2619 63.0731 20.1637C62.7967 20.1637 61.8911 19.5462 61.8911 18.7044C61.8911 16.897 64.3748 16.0721 64.3748 14.3303C64.3748 11.7315 60.2226 11.7418 60.3498 12.1504C61.0668 14.4605 59.6982 17.3456 55.7731 17.5377C55.7443 17.4964 55.7626 16.977 55.7626 16.977C59.0523 16.977 60.5609 13.4343 57.9696 11.0276C59.3603 6.65865 61.4704 11.0276 63.2541 12.1504C64.2592 12.7835 67.0366 12.4056 67.2554 13.6561C67.5688 15.4455 64.3749 15.4209 65.7943 19.3232H65.7942ZM54.6486 26.5398C53.418 25.462 51.6499 25.4866 50.6366 25.7997C51.2986 24.9837 52.8489 24.3146 53.3038 24.2334C53.6512 24.3636 54.6484 25.3872 54.6484 26.5397L54.6486 26.5398ZM38.2592 2.34635L40.174 0.0117188L42.0887 2.34635L40.1739 4.80343L38.259 2.34635H38.2592ZM27.3286 9.40581L28.6903 7.74657L30.0507 9.40581L28.6903 11.0275L27.3286 9.40569V9.40581ZM16.2839 57.3643L18.01 55.5375L19.7361 57.3643L18.01 58.9666L16.2839 57.364V57.3643ZM50.296 9.40556L51.6579 7.74632L53.0183 9.40556L51.6579 11.0274L50.2961 9.40556H50.296ZM54.1965 17.5374H49.1178C44.8479 17.5374 42.9264 14.9166 42.3458 12.6438H38.001C37.4203 14.9168 35.5005 17.5375 31.2289 17.5375H26.1502C26.1502 17.5375 25.2618 16.3322 25.0391 15.7354C24.2369 13.5877 25.2618 12.586 26.7573 12.586L28.6904 14.3379L30.6236 12.586C32.119 12.586 33.1439 13.5877 32.3418 15.7354C32.2395 16.0101 31.9944 16.4134 31.7626 16.7679C33.5647 16.5203 35.8648 15.2868 36.3695 12.6438C36.3695 12.6438 35.0379 10.5285 34.7036 9.67249C33.503 6.59422 35.0364 5.33581 37.2789 5.33581L40.1742 8.73928L43.0691 5.33581C45.3116 5.33581 46.8451 6.5941 45.6432 9.67249C45.3102 10.5286 43.9773 12.644 43.9773 12.644C44.4832 15.2869 46.7834 16.5204 48.5855 16.768C48.3522 16.4135 48.1084 16.0101 48.0062 15.7355C47.2055 13.5878 48.2277 12.5861 49.7246 12.5861L51.6576 14.3381L53.5907 12.5861C55.0873 12.5861 56.1097 13.5878 55.3088 15.7355C55.0861 16.3324 54.1961 17.5377 54.1961 17.5377L54.1965 17.5374ZM1.68886 33.2805C2.66937 33.7769 8.42028 36.4711 15.7873 35.4746C15.711 35.1231 15.6463 34.7693 15.5933 34.4136C10.6902 33.827 6.70463 32.9955 4.16466 31.5827C1.26942 29.9712 0.00337982 26.1246 1.46479 23.2626C1.50261 23.1904 1.60743 23.1776 1.6599 23.238C2.46058 24.1598 7.49619 29.6374 15.4294 31.3403C15.4497 30.9294 15.4873 30.5195 15.5421 30.1118C11.689 27.9266 7.92731 25.4088 6.13566 23.1065C3.42779 19.6257 3.67699 15.186 6.25355 12.9222C6.2803 12.8993 6.31565 12.889 6.35055 12.8939C6.38545 12.8989 6.41653 12.9186 6.43585 12.9481C7.25094 14.2926 14.8813 26.6258 23.2589 31.9499C23.3612 32.0153 23.4642 32.0793 23.5681 32.142C23.8081 32.2878 23.8342 32.5997 23.6297 32.7853C22.664 33.6606 22.0636 34.8789 22.0636 36.2312C22.0636 38.5825 23.8762 40.5381 26.272 40.9622C27.4897 41.1981 29.2473 41.1298 30.9354 40.5717C31.0114 40.5471 31.09 40.5974 31.09 40.6735V48.121C31.09 48.2407 30.9077 48.2704 30.8646 48.1555C29.8385 45.4369 26.7664 44.8592 25.4228 44.8592C24.9392 47.765 24.0756 50.1719 22.9537 51.4674C21.1269 53.5726 18.1438 53.543 16.8501 52.0875C16.8288 52.0634 16.8196 52.0309 16.8253 51.9992C16.8309 51.9675 16.8507 51.9401 16.8791 51.9249C17.6391 51.4881 21.9878 48.8183 22.8582 44.4429C22.5146 44.3243 22.1793 44.1902 21.858 44.0315C20.4544 46.3547 18.4112 48.4237 16.7664 49.2139C14.0034 50.5394 11.474 49.8946 10.3521 47.9545C10.3115 47.8862 10.3612 47.8011 10.4439 47.7934C12.1529 47.6567 17.398 46.1535 19.6314 42.4911C19.3757 42.2564 19.1254 42.0115 18.8921 41.7511C16.5554 43.53 13.251 45.1028 10.8854 45.4238C8.11751 45.8003 4.98109 44.9172 4.90497 41.6982C4.90374 41.6337 4.96138 41.5808 5.02938 41.5849C6.01383 41.644 12.529 41.9277 17.1712 39.263C17.01 38.9564 16.8596 38.6442 16.7204 38.327C16.7204 38.327 9.7058 39.985 6.38215 39.4357C3.07932 38.8905 1.14477 36.4282 1.51838 33.3653C1.52885 33.289 1.6179 33.244 1.68874 33.2801L1.68886 33.2805ZM63.6278 38.3274C63.4882 38.6446 63.3374 38.9568 63.1757 39.2633C67.8165 41.9267 74.3291 41.6456 75.3172 41.5853C75.3867 41.5812 75.4443 41.6366 75.4431 41.6998C75.3655 44.9175 72.2306 45.8005 69.4627 45.4242C67.0981 45.1032 63.7927 43.5304 61.456 41.7514C61.2213 42.0118 60.9723 42.2567 60.7169 42.4914C62.9514 46.1535 68.1952 47.6568 69.9043 47.7936C69.9868 47.8012 70.0354 47.8863 69.996 47.9547C68.874 49.8948 66.3445 50.5394 63.5804 49.2141C61.9368 48.4239 59.8936 46.3548 58.4898 44.0319C58.1676 44.1903 57.832 44.3244 57.49 44.4431C58.3602 48.8184 62.7089 51.4882 63.4691 51.925C63.4972 51.9405 63.5168 51.9679 63.5224 51.9994C63.528 52.031 63.519 52.0634 63.498 52.0876C62.2043 53.5431 59.2199 53.5727 57.3931 51.4675C56.271 50.1719 55.4087 47.7651 54.9251 44.8594C53.5805 44.8594 50.5097 45.4371 49.4835 48.1557C49.4389 48.2705 49.2569 48.2407 49.2569 48.121V40.6735C49.2569 40.5975 49.3367 40.5472 49.4127 40.5717C51.1007 41.1298 52.8583 41.1982 54.0746 40.9622C56.4716 40.5382 58.2842 38.5826 58.2842 36.2312C58.2842 34.8787 57.6827 33.6592 56.7181 32.7839C56.5124 32.5995 56.5399 32.2875 56.7785 32.1419C56.8832 32.0792 56.9872 32.0151 57.0904 31.9498C65.4627 26.6284 73.0893 14.3042 73.911 12.9504C73.9492 12.8872 74.0408 12.8744 74.0972 12.9233C76.67 15.1884 76.9203 19.6268 74.2125 23.1063C72.4209 25.4085 68.6596 27.9263 64.8075 30.1115C64.8618 30.5192 64.899 30.9291 64.9188 31.3399C72.8455 29.6383 77.877 24.1696 78.6857 23.2415C78.7394 23.1783 78.8471 23.1913 78.8837 23.2635C80.3421 26.1267 79.0762 29.9709 76.1835 31.5823C73.6436 32.9952 69.658 33.8266 64.7549 34.4132C64.7019 34.7689 64.6373 35.1228 64.561 35.4742C71.9202 36.4695 77.6686 33.7817 78.6568 33.2813C78.7302 33.244 78.8194 33.2904 78.8285 33.3678C79.2005 36.4308 77.2675 38.8905 73.9647 39.4357C70.6423 39.985 63.6278 38.327 63.6278 38.327V38.3274ZM18.0101 61.3192L20.5658 59.3082C21.5855 59.9155 22.3352 60.88 22.6262 62.0104C24.1634 62.2257 28.355 61.295 27.9475 60.6776C23.3537 54.2163 26.8675 50.3695 31.0902 50.5835V54.9228C31.0902 56.3164 32.3065 57.4456 33.8046 57.4456H36.7206C38.8124 57.4456 40.1742 59.5483 40.1742 59.5483C40.1742 59.5483 41.5357 57.4456 43.6275 57.4456H46.5437C48.0428 57.4456 49.2565 56.3164 49.2565 54.9228V50.5836C53.4793 50.3697 56.9959 54.2165 52.4007 60.6777C51.997 61.2887 56.3051 62.2672 58.326 62.0196C58.8581 61.4678 59.6263 61.1198 60.4861 61.1198C60.8516 61.1199 61.2142 61.185 61.5569 61.312C61.5569 61.312 69.4978 53.7937 69.6433 53.7201L69.5778 53.568C69.1257 52.7224 69.8176 51.8006 70.2553 51.8652C69.7469 51.2554 69.7231 48.5855 72.5437 47.968C72.4612 48.5043 72.4193 49.5989 72.4193 49.5989C72.4193 49.5989 74.5961 48.4218 75.6892 49.4375C76.6498 50.5747 75.3168 52.6372 75.3168 52.6372C75.3168 52.6372 76.4309 52.6643 76.98 52.6179C76.1726 55.3483 73.4648 55.1549 72.879 54.6161C72.9172 55.0506 71.9379 55.6693 71.1084 55.1729L70.744 54.9964C70.6797 55.0826 62.9457 62.3897 62.9457 62.3897C63.301 62.9169 63.47 63.5641 63.3535 64.2538C63.1699 65.3316 62.2719 66.2249 61.1251 66.4568C60.3154 66.6194 59.5539 66.462 58.9431 66.1049L56.8959 68.0052C56.7136 68.1703 56.4672 68.2732 56.1921 68.254C55.6914 68.2204 55.3166 67.8143 55.3545 67.349C55.3703 67.1389 55.4777 66.9585 55.6259 66.8218C55.6586 66.7856 57.7111 64.8802 57.7111 64.8802C56.018 63.6928 52.8632 62.8564 50.2446 62.8564C49.7846 62.8564 49.5684 62.4671 49.7269 62.0853C50.9131 59.2324 48.3626 57.1661 45.7243 58.8484C44.5734 59.5819 43.4043 61.027 42.5236 63.4377C46.8526 64.4859 52.2877 67.3733 53.3873 70.5255C53.8107 71.7425 52.4122 73.4015 50.7137 73.7355C50.6836 73.7422 50.6522 73.7365 50.6263 73.7198C50.6004 73.703 50.5824 73.6766 50.5761 73.6465C49.6887 68.941 44.6285 65.4344 41.9954 64.8389C41.863 65.1934 41.9063 65.0787 41.7739 65.4318C44.6415 66.7881 47.4227 69.6487 48.217 73.0493C48.5813 74.6067 46.8447 76.0106 45.4109 76.3949C45.3389 76.4141 45.268 76.3638 45.2641 76.2942C44.9915 71.9937 43.0924 68.3415 41.3913 66.6798C41.3447 67.0046 41.3097 67.3309 41.2864 67.6582C41.2864 67.6582 43.0281 72.5119 43.0281 76.0532C43.0281 77.7006 40.5799 78.8506 40.2181 79.0117C39.7661 78.8506 37.3191 77.7006 37.3191 76.0532C37.3191 72.5117 39.0609 67.6582 39.0609 67.6582C39.0371 67.3309 39.0017 67.0046 38.9547 66.6798C37.2548 68.3415 35.3545 71.9923 35.0831 76.2928C35.0792 76.3625 35.0071 76.4141 34.9365 76.3948C33.5012 76.0107 31.7659 74.6068 32.129 73.0496C32.9248 69.6488 35.7044 66.7883 38.5722 65.4321C38.4411 65.0788 38.4844 65.1935 38.352 64.839C35.7175 65.4346 30.6585 68.9409 29.7712 73.6464C29.7648 73.6765 29.7467 73.7028 29.7209 73.7195C29.695 73.7362 29.6636 73.7419 29.6335 73.7354C27.9363 73.4016 26.5353 71.7424 26.9612 70.5256C28.0582 67.3734 33.4947 64.4861 37.8236 63.4378C36.9417 61.0272 35.7727 59.582 34.6219 58.8485C31.9849 57.1662 29.4345 59.2328 30.6206 62.0857C30.7792 62.4671 30.5643 62.8564 30.1028 62.8564C27.141 62.8564 23.4922 63.9265 22.0481 65.3613C21.1252 66.7458 19.4201 67.6315 17.4961 67.4418C15.31 67.2279 13.5275 65.5854 13.2811 63.5552C13.0661 61.7761 13.9862 60.1788 15.4528 59.3087L18.01 61.3198L18.0101 61.3192ZM36.8478 48.3594C35.9369 48.0219 34.5096 48.2951 34.5581 49.61C34.5698 49.9077 34.1516 49.9077 34.1216 49.6034C33.849 47.635 35.1793 47.0676 36.5711 47.2985C36.7441 46.6216 36.8856 46.03 37.0469 45.4434C37.1752 44.9692 37.2225 44.0782 36.6733 44.0782C36.377 44.0782 36.4962 44.9072 36.5237 45.2642C36.5487 45.5774 36.436 45.767 36.1816 45.776C36.023 45.7824 35.825 45.5801 35.7072 45.4459C34.9102 44.5448 34.7254 43.15 35.6586 42.4772C36.4396 41.9124 38.3952 42.3327 38.9328 43.1371C39.0138 42.8341 39.4018 42.334 39.5881 42.1159C39.7688 41.9035 39.816 41.7577 39.5657 41.5709C39.4476 41.4806 39.0912 41.1262 39.0912 40.76C39.0912 40.5434 39.2589 40.1437 39.7923 40.1437C40.2131 40.1437 40.6809 40.4351 40.6809 41.0848C40.6809 41.2293 40.6456 41.3841 40.5526 41.5504C40.8186 41.5064 41.5407 41.5245 41.9116 41.6161L36.7831 55.6896C35.3152 54.9651 34.2392 53.8178 34.2392 52.5867C34.2392 51.5372 35.7846 51.8853 36.5355 52.704C36.7767 51.3737 36.9917 50.1451 37.2262 48.9203C37.2903 48.5825 37.1187 48.4614 36.8474 48.3596L36.8478 48.3594ZM44.0994 38.7994L43.0221 41.7927C43.9447 42.012 45.4283 42.6848 45.4283 43.5755C45.4283 44.7617 43.33 45.5338 42.1163 45.4409C42.1767 45.7117 42.1071 45.9527 41.9184 46.1731C42.3588 46.1731 43.1896 46.3781 43.4623 46.672C44.1058 46.0726 45.1125 45.8547 45.5909 46.2196C46.0718 46.587 46.0861 47.2097 45.5842 47.9135C45.2344 48.4008 45.1032 48.8817 45.4964 49.4463C44.0338 49.4463 44.5726 47.5449 43.9998 47.5449C44.0744 47.9135 44.0286 48.3402 43.8621 48.8134C43.7519 49.1278 43.7519 49.3509 43.9406 49.6538C44.4124 50.4081 45.1463 52.1406 45.0468 53.7069C45.5265 53.7042 45.7702 53.5868 45.6011 52.9321C45.5383 52.6882 45.6889 52.5143 45.8881 52.8147C46.1084 53.1461 46.2145 53.712 46.2145 53.9542C46.2145 55.3492 44.5528 55.6301 43.9185 55.335C42.0835 57.1107 38.4792 56.637 37.2722 56.0415L43.6182 38.629C43.748 38.3003 44.2131 38.4575 44.0992 38.7992L44.0994 38.7994ZM44.3197 53.1423C44.4507 52.4254 43.4533 51.1441 42.1846 49.9078C42.4546 50.7134 42.2868 52.1019 41.7574 52.5802C42.6776 52.5802 43.7705 52.7529 44.3195 53.1423H44.3197Z" fill="url(#paint0_linear_2090_17570)"/>
<defs>
<linearGradient id="paint0_linear_2090_17570" x1="-60.1455" y1="44.0117" x2="112.037" y2="10.7352" gradientUnits="userSpaceOnUse">
<stop stop-color="#3A66FF"/>
<stop offset="1" stop-color="#5D60F4"/>
</linearGradient>
</defs>
</svg>
