<svg width="25" height="24" viewBox="0 0 25 24" fill="none" xmlns="http://www.w3.org/2000/svg">
<path fill-rule="evenodd" clip-rule="evenodd" d="M8.06623 8.0592C8.44142 7.73176 8.98104 7.73924 9.29067 7.83437C9.08781 7.58645 8.61548 7.38318 8.47623 7.35852C8.37021 7.39807 8.06626 7.70904 8.06626 8.05916L8.06623 8.0592ZM6.86825 6.7033C7.11498 5.38942 10.1826 6.25996 11.7274 5.70189C11.757 6.0849 11.2518 6.69862 10.7686 6.92577C11.5946 7.63933 12.3362 9.07704 12.4858 10.8335C12.635 9.07704 13.3766 7.63933 14.2026 6.92577C13.7194 6.69862 13.2138 6.0849 13.2438 5.70189C14.7886 6.25996 17.8562 5.38942 18.1034 6.7033C18.1554 6.98134 18.021 7.40514 17.8758 7.52695C17.8498 7.43882 17.7142 7.15056 17.2866 7.08593C15.1254 6.76089 13.321 10.0765 14.9497 11.4171C14.9745 11.4374 14.9606 11.4751 14.927 11.4751H10.0439C10.0106 11.4751 9.99662 11.4374 10.021 11.4171C11.6502 10.0765 9.84583 6.76089 7.68464 7.08593C7.25663 7.15056 7.12148 7.43882 7.09543 7.52691C6.95024 7.40514 6.81584 6.98138 6.86825 6.70326V6.7033ZM6.3426 3.6877C6.3814 3.56357 5.11421 3.56046 5.11421 4.34995C5.11421 4.87909 5.87219 5.12971 5.87219 5.6788C5.87219 5.93454 5.59579 6.12214 5.51098 6.12214C5.70621 5.24055 4.89895 5.70189 4.68098 5.86677C5.11417 4.68125 4.13894 4.68873 4.23496 4.14514C4.30176 3.76523 5.14936 3.88001 5.45617 3.6877C6.00053 3.3466 6.64452 2.01932 7.06896 3.3466C6.27775 4.07782 6.73813 5.154 7.74254 5.154C7.74254 5.154 7.74818 5.3118 7.73897 5.32434C6.54095 5.26596 6.12335 4.38954 6.34257 3.6877H6.3426ZM20.3194 5.86677C20.1014 5.70189 19.2942 5.24055 19.4889 6.12214C19.4046 6.12214 19.1282 5.93454 19.1282 5.6788C19.1282 5.12971 19.8862 4.87909 19.8862 4.34995C19.8862 3.56042 18.619 3.56357 18.6578 3.6877C18.8766 4.38951 18.4589 5.266 17.261 5.32434C17.2522 5.3118 17.2578 5.154 17.2578 5.154C18.2618 5.154 18.7222 4.07774 17.9314 3.3466C18.3558 2.01932 18.9998 3.3466 19.5442 3.6877C19.8509 3.88004 20.6986 3.76523 20.7654 4.14514C20.861 4.68873 19.8862 4.68128 20.3194 5.86677H20.3194ZM16.9178 8.05916C16.5422 7.73172 16.0026 7.73921 15.6933 7.83433C15.8954 7.58641 16.3685 7.38314 16.5074 7.35848C16.6134 7.39803 16.9178 7.70901 16.9178 8.05913L16.9178 8.05916ZM11.9158 0.709256L12.5002 0L13.0846 0.709256L12.5002 1.45571L11.9157 0.709256H11.9158ZM8.5798 2.8539L8.99541 2.34983L9.4106 2.8539L8.99541 3.34656L8.5798 2.85386V2.8539ZM5.20899 17.4236L5.7358 16.8686L6.2626 17.4236L5.7358 17.9103L5.20899 17.4235V17.4236ZM15.5894 2.85383L16.005 2.34975L16.4202 2.85383L16.005 3.34652L15.5894 2.85383H15.5894ZM16.7798 5.32427H15.2298C13.9266 5.32427 13.3402 4.52808 13.163 3.83761H11.837C11.6598 4.52812 11.0738 5.3243 9.77019 5.3243H8.22017C8.22017 5.3243 7.94905 4.95813 7.88107 4.77682C7.63622 4.12433 7.94905 3.82002 8.40544 3.82002L8.99544 4.35227L9.58545 3.82002C10.0418 3.82002 10.3546 4.12433 10.1098 4.77682C10.0786 4.86027 10.0038 4.98279 9.93304 5.09049C10.483 5.01527 11.185 4.64053 11.3391 3.83761C11.3391 3.83761 10.9327 3.19496 10.8306 2.93492C10.4642 1.99975 10.9322 1.61745 11.6166 1.61745L12.5002 2.65141L13.3838 1.61745C14.0682 1.61745 14.5362 1.99971 14.1694 2.93492C14.0677 3.195 13.661 3.83765 13.661 3.83765C13.8154 4.64057 14.5174 5.01531 15.0674 5.09053C14.9962 4.98283 14.9218 4.86027 14.8906 4.77686C14.6462 4.12437 14.9582 3.82006 15.415 3.82006L16.005 4.35231L16.5949 3.82006C17.0517 3.82006 17.3637 4.12437 17.1193 4.77686C17.0513 4.95817 16.7797 5.32434 16.7797 5.32434L16.7798 5.32427ZM0.754631 10.107C1.05388 10.2578 2.80904 11.0763 5.05744 10.7735C5.03416 10.6668 5.01441 10.5593 4.99823 10.4512C3.50183 10.273 2.28543 10.0204 1.51024 9.59118C0.626623 9.10162 0.240229 7.93301 0.686247 7.06356C0.697788 7.04163 0.72978 7.03773 0.745794 7.05607C0.990158 7.33614 2.52701 9.00021 4.9482 9.51753C4.95439 9.3927 4.96587 9.26819 4.9826 9.14432C3.80665 8.48046 2.65859 7.71556 2.11178 7.01614C1.28535 5.95868 1.3614 4.60992 2.14776 3.92218C2.15593 3.91521 2.16672 3.91208 2.17737 3.91358C2.18802 3.91509 2.19751 3.92108 2.2034 3.93004C2.45216 4.3385 4.78094 8.08528 7.33776 9.70273C7.36896 9.7226 7.40042 9.74206 7.43212 9.76111C7.50536 9.80538 7.51333 9.90013 7.45092 9.95652C7.15618 10.2224 6.97295 10.5925 6.97295 11.0034C6.97295 11.7177 7.52615 12.3118 8.25735 12.4407C8.62897 12.5123 9.16541 12.4916 9.6806 12.322C9.70379 12.3145 9.72778 12.3298 9.72778 12.3529V14.6155C9.72778 14.6518 9.67214 14.6609 9.65898 14.6259C9.34582 13.8 8.40822 13.6245 7.99818 13.6245C7.85059 14.5073 7.58701 15.2385 7.2446 15.6321C6.68708 16.2716 5.77662 16.2627 5.38181 15.8205C5.37529 15.8132 5.3725 15.8033 5.37422 15.7937C5.37594 15.784 5.38199 15.7757 5.39064 15.7711C5.6226 15.6384 6.94983 14.8273 7.21547 13.4981C7.11058 13.4621 7.00825 13.4213 6.9102 13.3731C6.48182 14.0789 5.85824 14.7074 5.35624 14.9475C4.513 15.3502 3.74104 15.1543 3.39864 14.5649C3.38623 14.5441 3.40142 14.5183 3.42664 14.516C3.94823 14.4744 5.54903 14.0178 6.23065 12.9051C6.1526 12.8338 6.07621 12.7594 6.00501 12.6803C5.29185 13.2208 4.28338 13.6986 3.56138 13.7961C2.71664 13.9104 1.75941 13.6422 1.73618 12.6643C1.7358 12.6446 1.7534 12.6286 1.77415 12.6298C2.0746 12.6478 4.063 12.734 5.47982 11.9244C5.4306 11.8313 5.38471 11.7365 5.34222 11.6401C5.34222 11.6401 3.20138 12.1438 2.18701 11.9769C1.179 11.8113 0.588579 11.0632 0.702602 10.1327C0.705797 10.1095 0.732977 10.0959 0.754595 10.1068L0.754631 10.107ZM19.6582 11.6402C19.6156 11.7366 19.5696 11.8314 19.5203 11.9245C20.9366 12.7337 22.9242 12.6483 23.2258 12.6299C23.247 12.6287 23.2646 12.6455 23.2642 12.6647C23.2405 13.6423 22.2838 13.9105 21.439 13.7962C20.7174 13.6987 19.7086 13.2209 18.9954 12.6804C18.9238 12.7595 18.8478 12.8339 18.7698 12.9052C19.4518 14.0178 21.0522 14.4745 21.5738 14.516C21.599 14.5183 21.6138 14.5442 21.6018 14.5649C21.2594 15.1543 20.4874 15.3502 19.6438 14.9475C19.1421 14.7075 18.5186 14.0789 18.0901 13.3732C17.9918 13.4213 17.8894 13.4621 17.785 13.4981C18.0506 14.8273 19.3778 15.6384 19.6098 15.7711C19.6184 15.7758 19.6243 15.7841 19.6261 15.7937C19.6278 15.8033 19.625 15.8132 19.6186 15.8205C19.2238 16.2627 18.313 16.2717 17.7554 15.6321C17.4129 15.2385 17.1498 14.5074 17.0022 13.6246C16.5918 13.6246 15.6546 13.8001 15.3414 14.626C15.3278 14.6609 15.2723 14.6518 15.2723 14.6155V12.3529C15.2723 12.3299 15.2966 12.3146 15.3198 12.322C15.835 12.4916 16.3714 12.5124 16.7426 12.4407C17.4742 12.3119 18.0274 11.7177 18.0274 11.0034C18.0274 10.5925 17.8438 10.222 17.5494 9.95611C17.4866 9.90009 17.495 9.8053 17.5678 9.76107C17.5998 9.74201 17.6315 9.72255 17.663 9.70269C20.2182 8.08607 22.5458 4.34202 22.7966 3.93075C22.8083 3.91155 22.8363 3.90766 22.8535 3.92252C23.6387 4.61063 23.7151 5.95901 22.8887 7.01607C22.3419 7.71548 21.1939 8.48038 20.0183 9.14425C20.0349 9.26811 20.0462 9.39261 20.0523 9.51742C22.4714 9.00047 24.0071 7.33909 24.2539 7.05716C24.2703 7.03796 24.3031 7.04189 24.3143 7.06382C24.7594 7.93365 24.373 9.10151 23.4902 9.59106C22.715 10.0203 21.4986 10.2729 20.0022 10.4511C19.986 10.5591 19.9663 10.6666 19.943 10.7734C22.189 11.0758 23.9434 10.2592 24.245 10.1072C24.2674 10.0959 24.2947 10.11 24.2974 10.1335C24.411 11.064 23.821 11.8113 22.813 11.9769C21.799 12.1438 19.6582 11.6401 19.6582 11.6401V11.6402ZM5.73583 18.6251L6.51584 18.0141C6.82704 18.1986 7.05584 18.4916 7.14464 18.835C7.61382 18.9005 8.89307 18.6177 8.76871 18.4301C7.36667 16.4672 8.43909 15.2986 9.72785 15.3636V16.6819C9.72785 17.1052 10.0991 17.4483 10.5563 17.4483H11.4462C12.0846 17.4483 12.5002 18.0871 12.5002 18.0871C12.5002 18.0871 12.9158 17.4483 13.5542 17.4483H14.4442C14.9017 17.4483 15.2721 17.1052 15.2721 16.6819V15.3636C16.561 15.2986 17.6342 16.4673 16.2317 18.4302C16.1085 18.6158 17.4234 18.9131 18.0401 18.8378C18.2025 18.6702 18.437 18.5645 18.6994 18.5645C18.8109 18.5645 18.9216 18.5843 19.0262 18.6229C19.0262 18.6229 21.4497 16.3388 21.4941 16.3165L21.4741 16.2703C21.3362 16.0134 21.5473 15.7333 21.6809 15.7529C21.5258 15.5677 21.5185 14.7566 22.3793 14.569C22.3541 14.7319 22.3414 15.0645 22.3414 15.0645C22.3414 15.0645 23.0057 14.7069 23.3393 15.0154C23.6325 15.3609 23.2257 15.9875 23.2257 15.9875C23.2257 15.9875 23.5657 15.9957 23.7333 15.9816C23.4869 16.8111 22.6605 16.7524 22.4817 16.5887C22.4933 16.7207 22.1944 16.9086 21.9413 16.7578L21.8301 16.7042C21.8105 16.7304 19.4501 18.9503 19.4501 18.9503C19.5585 19.1104 19.6101 19.307 19.5745 19.5166C19.5185 19.844 19.2444 20.1154 18.8944 20.1859C18.6473 20.2353 18.4149 20.1874 18.2285 20.0789L17.6037 20.6562C17.548 20.7064 17.4728 20.7377 17.3889 20.7318C17.2361 20.7216 17.1217 20.5982 17.1332 20.4569C17.1381 20.3931 17.1708 20.3383 17.2161 20.2967C17.2261 20.2857 17.8525 19.7069 17.8525 19.7069C17.3357 19.3461 16.3729 19.0921 15.5737 19.0921C15.4333 19.0921 15.3673 18.9738 15.4157 18.8578C15.7777 17.9911 14.9993 17.3634 14.1941 17.8744C13.8429 18.0973 13.4861 18.5363 13.2173 19.2686C14.5385 19.5871 16.1973 20.4643 16.5329 21.4219C16.6621 21.7916 16.2353 22.2956 15.7169 22.3971C15.7077 22.3991 15.6981 22.3974 15.6902 22.3923C15.6823 22.3872 15.6768 22.3792 15.6749 22.3701C15.4041 20.9405 13.8597 19.8753 13.0561 19.6943C13.0157 19.802 13.0289 19.7672 12.9885 19.8745C13.8637 20.2865 14.7125 21.1555 14.9549 22.1886C15.0661 22.6618 14.5361 23.0883 14.0985 23.205C14.0765 23.2108 14.0549 23.1956 14.0537 23.1744C13.9705 21.8679 13.3909 20.7584 12.8717 20.2536C12.8575 20.3523 12.8468 20.4514 12.8397 20.5508C12.8397 20.5508 13.3713 22.0254 13.3713 23.1012C13.3713 23.6017 12.6241 23.9511 12.5137 24C12.3757 23.9511 11.6289 23.6017 11.6289 23.1012C11.6289 22.0253 12.1605 20.5508 12.1605 20.5508C12.1532 20.4514 12.1424 20.3523 12.1281 20.2536C11.6093 20.7584 11.0293 21.8675 10.9465 23.174C10.9453 23.1952 10.9233 23.2108 10.9017 23.205C10.4637 23.0883 9.93406 22.6618 10.0449 22.1887C10.2877 21.1556 11.1361 20.2866 12.0113 19.8745C11.9713 19.7672 11.9845 19.8021 11.9441 19.6944C11.1401 19.8753 9.59609 20.9405 9.3253 22.37C9.32334 22.3792 9.31781 22.3872 9.30992 22.3922C9.30204 22.3973 9.29244 22.399 9.28327 22.3971C8.76529 22.2957 8.33769 21.7916 8.4677 21.4219C8.80247 20.4643 10.4617 19.5871 11.7829 19.2687C11.5137 18.5363 11.1569 18.0973 10.8057 17.8745C10.0009 17.3634 9.22251 17.9912 9.58451 18.8579C9.63293 18.9738 9.56733 19.0921 9.4265 19.0921C8.52255 19.0921 7.40897 19.4171 6.96821 19.853C6.68655 20.2736 6.16617 20.5427 5.57895 20.4851C4.91177 20.4201 4.36774 19.9211 4.29255 19.3043C4.22695 18.7639 4.50774 18.2786 4.95534 18.0143L5.7358 18.6253L5.73583 18.6251ZM11.485 14.6879C11.207 14.5854 10.7714 14.6684 10.7862 15.0678C10.7898 15.1583 10.6622 15.1583 10.653 15.0658C10.5698 14.4678 10.9758 14.2955 11.4006 14.3656C11.4534 14.16 11.4966 13.9802 11.5458 13.802C11.585 13.658 11.5994 13.3873 11.4318 13.3873C11.3414 13.3873 11.3778 13.6391 11.3861 13.7476C11.3938 13.8427 11.3594 13.9003 11.2817 13.9031C11.2333 13.905 11.1729 13.8436 11.1369 13.8028C10.8937 13.529 10.8373 13.1053 11.1221 12.9009C11.3605 12.7293 11.9573 12.857 12.1214 13.1014C12.1461 13.0093 12.2645 12.8574 12.3214 12.7912C12.3765 12.7266 12.3909 12.6823 12.3145 12.6256C12.2785 12.5981 12.1697 12.4905 12.1697 12.3792C12.1697 12.3134 12.2209 12.192 12.3837 12.192C12.5121 12.192 12.6549 12.2805 12.6549 12.4779C12.6549 12.5218 12.6441 12.5688 12.6157 12.6194C12.6969 12.606 12.9173 12.6115 13.0305 12.6393L11.4653 16.9148C11.0173 16.6947 10.6889 16.3462 10.6889 15.9722C10.6889 15.6533 11.1606 15.7591 11.3897 16.0078C11.4634 15.6036 11.529 15.2304 11.6005 14.8583C11.6201 14.7557 11.5677 14.7189 11.4849 14.688L11.485 14.6879ZM13.6982 11.7836L13.3694 12.693C13.651 12.7596 14.1038 12.964 14.1038 13.2346C14.1038 13.5949 13.4634 13.8295 13.093 13.8013C13.1114 13.8835 13.0902 13.9568 13.0326 14.0237C13.167 14.0237 13.4206 14.086 13.5038 14.1753C13.7002 13.9932 14.0074 13.927 14.1534 14.0378C14.3002 14.1495 14.3045 14.3386 14.1514 14.5524C14.0446 14.7005 14.0046 14.8466 14.1246 15.0181C13.6782 15.0181 13.8426 14.4404 13.6678 14.4404C13.6906 14.5524 13.6766 14.6821 13.6258 14.8258C13.5922 14.9214 13.5922 14.9891 13.6498 15.0811C13.7937 15.3103 14.0177 15.8366 13.9874 16.3125C14.1338 16.3116 14.2082 16.276 14.1565 16.0771C14.1374 16.003 14.1833 15.9502 14.2441 16.0414C14.3113 16.1421 14.3438 16.314 14.3438 16.3876C14.3438 16.8114 13.8366 16.8967 13.643 16.8071C13.083 17.3465 11.9829 17.2026 11.6146 17.0217L13.5513 11.7318C13.591 11.632 13.7329 11.6797 13.6981 11.7835L13.6982 11.7836ZM13.7654 16.1409C13.8054 15.9231 13.501 15.5339 13.1138 15.1583C13.1962 15.403 13.145 15.8249 12.9834 15.9702C13.2643 15.9702 13.5978 16.0226 13.7654 16.1409H13.7654Z" fill="white"/>
</svg>
