<svg width="706" height="432" viewBox="0 0 706 432" fill="none" xmlns="http://www.w3.org/2000/svg">
<path opacity="0.1" fill-rule="evenodd" clip-rule="evenodd" d="M427.712 -266.058L808.282 -283.56L954.791 -185.092L951.45 -180.122L809.128 -275.775L744.218 -60.4863L759.89 -33.3415L1102.89 -88.3781L1028.49 190.24L1127.16 265.614L921.241 588.76L696.351 528.511L735.638 596.559L537.181 605.457L604.654 381.665L589.004 354.557L263.799 406.43L417.838 447.697L416.289 453.482L246.611 408.024L234.511 230.762L240.486 230.354L251.222 387.643L320.363 131.553L221.534 56.1356L327.924 -109.623L367.139 -41.701L427.712 -266.058ZM364.936 -33.5401L327.654 -98.1145L234.723 46.6733L363.325 -27.5752L364.936 -33.5401ZM361.114 -19.3833L230.934 55.7759L322.049 125.307L361.114 -19.3833ZM325.506 135.478L253.549 402L585.798 349.004L570.427 322.381L325.506 135.478ZM562.652 308.915L327.192 129.232L368.462 -23.6259L370.11 -24.5776L562.652 308.915ZM582.788 331.814L592.13 347.994L601.94 346.429L582.788 331.814ZM610.105 345.127L575.013 318.348L375.296 -27.5718L579.313 -145.361L729.062 -30.964L728.249 -28.2644L661.702 -17.5867L662.651 -11.6737L726.327 -21.8909L615.952 344.194L610.105 345.127ZM608.513 351.445L595.336 353.547L607.027 373.797L612.783 354.704L608.513 351.445ZM617.868 358.584L611.136 380.914L655.169 457.182L690.319 413.873L617.868 358.584ZM695.082 417.508L658.375 462.735L688.024 514.089L764.093 470.171L695.082 417.508ZM769.713 466.926L698.858 412.856L769.545 325.759L944.217 297.898L973.782 349.107L769.713 466.926ZM769.252 474.107L691.019 519.275L692.117 521.177L906.03 578.485L769.252 474.107ZM919.122 580.943L774.871 470.863L976.776 354.293L977.944 356.316L961.731 417.03L967.517 418.575L982.182 363.657L1018.02 425.735L919.122 580.943ZM1021.65 420.042L1114.05 275.037L986.124 348.896L984.369 355.467L1021.65 420.042ZM988.307 340.721L1107.62 271.833L1002.21 288.647L988.307 340.721ZM995.739 289.68L980.979 344.952L978.968 346.113L950.548 296.888L995.739 289.68ZM1003.9 282.313L1115.79 264.466L1026.82 196.499L1003.9 282.313ZM1021.67 192.567L997.43 283.346L947.342 291.335L823.882 77.4961L850.741 61.9892L1021.67 192.567ZM1023.34 186.308L1094.05 -78.4871L856.36 58.7454L1023.34 186.308ZM851.204 54.8069L1083.24 -79.1597L763.095 -27.7905L778.887 -0.437524L851.204 54.8069ZM766.516 -9.8883L756.766 -26.7751L746.556 -25.1366L766.516 -9.8883ZM738.403 -23.8285L774.3 3.59411L815.702 75.3042L679.583 153.893L732.9 -22.9455L738.403 -23.8285ZM739.994 -30.149L753.562 -32.3259L741.846 -52.618L735.993 -33.2055L739.994 -30.149ZM730.909 -37.0892L737.737 -59.7351L661.054 -192.554L584.932 -148.605L730.909 -37.0892ZM579.776 -152.543L658.06 -197.74L617.05 -268.77L438.386 -260.554L579.776 -152.543ZM431.761 -258.079L371.365 -34.3804L372.302 -32.7581L574.158 -149.299L431.761 -258.079ZM623.787 -269.08L663.246 -200.735L795.284 -276.967L623.787 -269.08ZM802.384 -274.151L666.24 -195.548L740.109 -67.6033L802.384 -274.151ZM677.059 162.265L622.523 343.146L766.339 320.207L817.713 256.906L822.363 260.68L775.198 318.793L941.011 292.345L818.696 80.4904L677.059 162.265ZM760.685 327.173L694.095 409.221L619.714 352.46L620.602 349.517L760.685 327.173ZM820.888 72.3099L786.672 13.0449L845.586 58.0508L820.888 72.3099ZM682.838 517.083L654.335 467.714L625.441 503.315L680.936 518.182L682.838 517.083ZM673.601 522.416L621.308 508.407L553.804 591.581L673.601 522.416ZM548.522 588.586L614.973 506.71L583.899 498.385L585.449 492.601L619.106 501.617L651.129 462.161L608.763 388.782L548.522 588.586ZM553.388 598.736L725.524 591.018L688.171 526.32L681.782 524.608L553.388 598.736Z" stroke="black"/>
<path d="M427.711 -266.059L367.138 -41.702L327.923 -109.624M604.653 381.664L589.002 354.556M585.796 349.003L570.426 322.38M592.128 347.993L601.939 346.428M579.312 -145.362L375.295 -27.5728L575.012 318.347L610.104 345.126L615.951 344.193M661.701 -17.5876L662.65 -11.6747M611.134 380.913L617.867 358.583M815.701 75.3032L679.582 153.892M661.053 -192.555L584.93 -148.606M663.245 -200.736L623.785 -269.081M622.521 343.145L677.057 162.264M619.713 352.459L620.601 349.516M595.334 353.546L608.512 351.444L612.782 354.703L607.025 373.796L595.334 353.546ZM658.058 -197.741L579.775 -152.544L438.385 -260.555L617.049 -268.771L658.058 -197.741ZM371.364 -34.3814L431.76 -258.08L574.156 -149.3L372.301 -32.7591L371.364 -34.3814Z" stroke="#E52E2E"/>
</svg>
