<svg width="236" height="40" viewBox="0 0 236 40" fill="none" xmlns="http://www.w3.org/2000/svg">
<path d="M40.5656 30.4141H20.4691C19.9108 30.5524 19.3526 30.6907 18.7944 30.9674C18.2361 31.244 17.6779 31.7973 17.3988 32.2123L13.3516 39.1286H45.7293L40.5656 30.4141Z" fill="white"/>
<path d="M29.2613 27.6468C29.8196 27.9234 30.5174 28.2001 31.2152 28.2001H39.3096L23.1207 0.396484L17.957 9.24937L27.8657 26.1252C28.1448 26.6785 28.7031 27.2318 29.2613 27.6468Z" fill="white"/>
<path d="M21.1665 20.3158C21.1665 19.6241 21.0269 18.9325 20.7478 18.3792L16.7006 11.4629L0.511719 39.1282H10.8391L20.6082 22.3907C20.8874 21.8374 21.1665 21.0074 21.1665 20.3158Z" fill="white"/>
<path d="M68.8924 18.6538C68.8924 18.2389 69.1715 5.09787 69.1715 5.09787L65.5429 18.6538H62.7517L59.1232 5.09787C59.1232 5.09787 59.4023 18.1005 59.4023 18.6538H56.332V2.05469H60.7979L64.0078 14.3657L67.2176 2.05469H71.6835V18.5155H68.8924V18.6538Z" fill="white"/>
<path d="M89.2677 18.6538H86.1974V7.86439L78.8008 16.7173V18.6538H75.7305V2.05469H78.8008V12.8441L86.1974 3.99126V2.05469H89.2677V18.6538Z" fill="white"/>
<path d="M103.364 18.6538V11.0459H96.2461V18.5155H93.1758V2.05469H96.2461V8.27937H103.364V2.05469H106.573V18.5155H103.364V18.6538Z" fill="white"/>
<path d="M123.458 2.05469V18.5155H120.388V4.95954H113.41V18.6538H110.34V2.05469H123.458Z" fill="white"/>
<path d="M133.79 2.05469C137.279 2.05469 139.651 4.12958 139.651 7.58774C139.651 10.6309 137.837 12.9825 133.511 12.9825H130.301V18.6538H127.23V2.05469H133.79ZM130.44 10.4926H133.231C135.464 10.4926 136.581 9.52431 136.581 7.44941C136.581 4.82121 134.348 4.68289 132.952 4.68289H130.58V10.4926H130.44Z" fill="white"/>
<path d="M149.278 1.64062C154.302 1.64062 157.233 5.79041 157.233 10.2169C157.233 13.9517 155.14 18.9314 149.138 18.9314C144.254 18.9314 141.184 14.9199 141.184 10.2169C141.184 5.51376 144.393 1.64062 149.278 1.64062ZM149.278 16.1649C151.79 16.1649 154.023 14.2283 154.023 10.4935C154.023 7.58866 152.488 4.54548 149.138 4.54548C146.347 4.54548 144.393 6.62037 144.393 10.3552C144.393 12.8451 145.649 16.1649 149.278 16.1649Z" fill="white"/>
<path d="M172.584 18.6538C172.584 18.2389 172.863 5.09787 172.863 5.09787L169.234 18.6538H166.443L162.815 5.09787C162.815 5.09787 163.094 18.1005 163.094 18.6538H160.023V2.05469H164.489L167.699 14.3657L170.909 2.05469H175.375V18.5155H172.584V18.6538Z" fill="white"/>
<path d="M185.564 4.82121V18.5155H182.493V4.82121H178.027V2.05469H190.309V4.82121H185.564Z" fill="white"/>
<path d="M199.801 1.64062C204.826 1.64062 207.756 5.79041 207.756 10.2169C207.756 13.9517 205.663 18.9314 199.662 18.9314C194.777 18.9314 191.707 14.9199 191.707 10.2169C191.847 5.51376 194.917 1.64062 199.801 1.64062ZM199.801 16.1649C202.314 16.1649 204.546 14.2283 204.546 10.4935C204.546 7.58866 203.011 4.54548 199.662 4.54548C196.871 4.54548 194.917 6.62037 194.917 10.3552C195.056 12.8451 196.312 16.1649 199.801 16.1649Z" fill="white"/>
<path d="M217.243 2.05469C220.732 2.05469 223.104 4.12958 223.104 7.58774C223.104 10.6309 221.43 12.9825 216.964 12.9825H213.754V18.6538H210.684V2.05469H217.243ZM213.893 10.4926H216.685C218.918 10.4926 220.034 9.52431 220.034 7.44941C220.034 4.82121 217.801 4.68289 216.406 4.68289H214.033V10.4926H213.893Z" fill="white"/>
<path d="M235.389 2.05469V4.82121H228.551V18.5155H225.48V2.05469H235.389Z" fill="white"/>
<path d="M62.8913 22.666C66.3803 22.666 68.7528 24.7409 68.7528 28.1991C68.7528 31.2422 67.0781 33.5938 62.6122 33.5938H59.4023V39.1268H56.332V22.666H62.8913ZM59.5419 31.1039H62.3331C64.566 31.1039 65.6825 30.1356 65.6825 28.1991C65.6825 25.5709 63.4495 25.4325 62.054 25.4325H59.6815V31.1039H59.5419Z" fill="white"/>
<path d="M78.3796 22.252C83.4037 22.252 86.3345 26.4017 86.3345 30.8282C86.3345 34.563 84.2411 39.5427 78.24 39.5427C73.3555 39.5427 70.2852 35.5313 70.2852 30.8282C70.2852 26.1251 73.495 22.252 78.3796 22.252ZM78.3796 36.7762C80.8916 36.7762 83.1246 34.8396 83.1246 31.1048C83.1246 28.2 81.5894 25.1568 78.24 25.1568C75.4488 25.1568 73.495 27.2317 73.495 30.9665C73.495 33.4564 74.751 36.7762 78.3796 36.7762Z" fill="white"/>
<path d="M103.226 34.5626C102.668 35.9459 100.853 39.5424 96.1083 39.5424C92.2006 39.5424 88.293 36.9142 88.293 30.6895C88.293 26.9547 90.3864 22.1133 96.2478 22.1133C100.574 22.1133 102.249 24.8798 103.086 27.2314L100.016 28.0613C99.8764 26.2631 98.3412 25.0181 96.3874 25.0181C93.7358 25.0181 91.7819 27.093 91.7819 30.6895C91.7819 32.9027 92.7589 36.4992 96.3874 36.4992C98.4808 36.4992 99.8764 34.8393 100.435 33.1794L103.226 34.5626Z" fill="white"/>
<path d="M119.971 34.5626C119.413 35.9459 117.598 39.5424 112.714 39.5424C108.806 39.5424 104.898 36.9142 104.898 30.6895C104.898 26.9547 106.992 22.1133 112.853 22.1133C117.18 22.1133 118.854 24.8798 119.552 27.2314L116.482 28.0613C116.342 26.2631 114.807 25.0181 112.853 25.0181C110.202 25.0181 108.248 27.093 108.248 30.6895C108.248 32.9027 109.225 36.4992 112.853 36.4992C114.947 36.4992 116.342 34.8393 116.901 33.1794L119.971 34.5626Z" fill="white"/>
<path d="M135.881 39.1265H132.811V28.337L125.414 37.1899V39.1265H122.344V22.6657H125.414V33.3168L132.811 24.4639V22.5273H135.881V39.1265Z" fill="white"/>
<path d="M153.322 39.1265H150.252V28.337L142.855 37.1899V39.1265H139.785V22.6657H142.855V33.3168L150.252 24.4639V22.5273H153.322V39.1265Z" fill="white"/>
</svg>
