<svg width="91" height="64" viewBox="0 0 91 64" fill="none" xmlns="http://www.w3.org/2000/svg">
<path fill-rule="evenodd" clip-rule="evenodd" d="M0 0H90.5103V63.939H0V0ZM12.7045 45.8032C14.3148 45.8032 14.623 46.8861 14.7772 47.4485H16.7276C16.6213 46.0871 15.4893 44.1738 12.6886 44.1738C10.2758 44.1738 8.39453 45.819 8.39453 49.057C8.39453 52.2424 10.1749 53.9139 12.662 53.9139C15.011 53.9139 16.3396 52.5105 16.7276 50.4973H14.7772C14.5487 51.6273 13.7886 52.2791 12.7045 52.2791C11.0518 52.2791 10.3449 50.7338 10.3449 49.0781C10.3449 46.4655 11.7639 45.8032 12.7045 45.8032ZM19.1183 49.4104L21.4142 46.8086H23.6463L21.207 49.463L23.7048 53.6733H21.5259L19.8784 50.7246L19.1183 51.5025V53.6733H17.3008V46.8086H19.1183V49.4104ZM26.8222 53.8518C28.6822 53.8518 30.3562 52.7059 30.3562 50.2302C30.3562 47.7543 28.6822 46.6348 26.8222 46.6348C24.9674 46.6348 23.2773 47.7702 23.2773 50.2407C23.2773 52.7164 24.9674 53.8518 26.8222 53.8518ZM26.8222 52.3328C25.4191 52.3328 25.1481 51.1132 25.1481 50.2302C25.1481 49.3471 25.4191 48.1486 26.8222 48.1486C28.2251 48.1486 28.4856 49.3628 28.4856 50.2407C28.4856 51.1237 28.2251 52.3328 26.8222 52.3328ZM37.1973 46.8138V53.6681H35.3798V48.254H33.4293V50.3724C33.4293 52.9953 32.6322 53.8259 31.3514 53.8259C31.0325 53.8259 30.5118 53.7732 30.2461 53.6735V52.333C30.2832 52.3593 30.517 52.3856 30.7881 52.3856C31.3301 52.3856 31.6119 52.1174 31.6119 50.0255V46.8138H37.1973ZM42.2383 46.8086L39.9424 49.4104V46.8086H38.125V53.6733H39.9424V51.5025L40.7025 50.7246L42.3552 53.6733H44.5342L42.0311 49.463L44.4651 46.8086H42.2383ZM51.1882 50.2302C51.1882 52.7059 49.5141 53.8518 47.6541 53.8518C45.7994 53.8518 44.1094 52.7164 44.1094 50.2407C44.1094 47.7702 45.7994 46.6348 47.6541 46.6348C49.5089 46.6348 51.1882 47.7543 51.1882 50.2302ZM45.9801 50.2302C45.9801 51.1132 46.2511 52.3328 47.6541 52.3328C49.0625 52.3328 49.3175 51.1237 49.3175 50.2407C49.3175 49.3628 49.0625 48.1486 47.6541 48.1486C46.2511 48.1486 45.9801 49.3471 45.9801 50.2302ZM54.9076 46.8086H51.7773V53.6681H55.2583C56.8313 53.6681 57.7986 53.0636 57.7986 51.7916C57.7986 50.6667 57.0068 50.22 56.2999 50.057C57.0227 49.8783 57.5913 49.3685 57.5913 48.58C57.5913 47.434 56.454 46.8086 54.9076 46.8086ZM54.7799 49.5892H53.5949V48.0438H54.7959C55.4018 48.0438 55.8109 48.2488 55.8109 48.8112C55.8109 49.3474 55.3858 49.5892 54.7799 49.5892ZM54.9341 52.4329H53.5949V50.672H54.9076C55.5824 50.672 56.0182 50.9506 56.0182 51.5498C56.0182 52.2279 55.6037 52.4329 54.9341 52.4329ZM65.0802 50.2302C65.0802 52.7059 63.4008 53.8518 61.5462 53.8518C59.6914 53.8518 57.9961 52.7164 57.9961 50.2407C57.9961 47.7702 59.686 46.6348 61.5462 46.6348C63.4008 46.6348 65.0802 47.7543 65.0802 50.2302ZM59.8721 50.2302C59.8721 51.1132 60.1431 52.3328 61.5514 52.3328C62.9545 52.3328 63.2148 51.1237 63.2148 50.2407C63.2148 49.3628 62.9545 48.1486 61.5514 48.1486C60.1431 48.1486 59.8721 49.3471 59.8721 50.2302ZM29.84 40.2962C26.9914 42.3567 23.1704 42.6249 21.6238 42.6249C10.8408 42.6249 8.96484 36.4432 8.96484 32.8059H14.8851C14.8851 34.4616 15.7832 37.5734 21.1774 37.5734C24.1164 37.5734 27.3847 36.848 27.3847 33.7783C27.3847 31.476 25.1366 30.9083 21.9905 30.1409L16.0278 28.6848C11.824 27.6755 9.41126 25.2103 9.41126 20.7633C9.41126 17.5307 11.2075 11.7539 20.8055 11.7539C25.2376 11.7539 28.081 13.1679 29.84 15.0287V12.5266H35.6009V28.3642L42.8656 20.1169H49.9339L42.2173 28.5218L50.1411 41.8573H43.2377L38.0083 32.5272L35.6009 34.9925V41.8626H29.84V40.2962ZM18.3183 23.3916L25.5459 25.1315C27.0871 25.5152 28.5805 25.9936 29.84 26.7136V21.247H26.4015C26.2421 19.9172 25.7479 16.8053 20.359 16.8053C17.9888 16.8053 15.1721 17.6989 15.1721 20.3219C15.1721 22.6242 17.0907 23.1077 18.3183 23.3916Z" fill="white"/>
</svg>
