<svg width="55" height="68" viewBox="0 0 55 68" fill="none" xmlns="http://www.w3.org/2000/svg">
<path d="M17.5188 43.1027H21.7612V35.5419H23.0652V38.4096H33.4937V35.5419H34.7976V43.1027H39.04L42.2494 34.8292C42.9538 33.0116 42.5993 30.9686 41.3228 29.4958L36.362 23.7716V15.9471C36.362 12.237 35.2741 8.64365 33.2162 5.55624L30.5521 1.55979C30.0435 0.798539 29.1944 0.34375 28.2786 0.34375C27.3638 0.34375 26.5147 0.798023 26.0062 1.55979L23.342 5.55624C21.2835 8.64365 20.1957 12.237 20.1957 15.9471V23.7711L15.2339 29.4958C13.9574 30.9687 13.6023 33.0126 14.3078 34.8292L17.5188 43.1027ZM40.1412 30.5205C41.0368 31.5541 41.2859 32.9882 40.7919 34.2642L37.9696 41.5393H36.3618V26.1591L40.1412 30.5205ZM21.7605 15.9474C21.7605 12.5468 22.7579 9.25316 24.6442 6.42428L27.3084 2.42783C27.5255 2.10276 27.8888 1.90843 28.279 1.90843C28.6702 1.90843 29.0325 2.10276 29.2495 2.42783L31.9137 6.42428C33.8001 9.25382 34.7975 12.5468 34.7975 15.9474V33.9775H31.9297V36.8453H24.6282V33.9775H21.7604L21.7605 15.9474ZM16.4161 30.5205L20.1954 26.1597V41.5398H18.5886L15.7664 34.2648C15.2713 32.9893 15.5204 31.5552 16.416 30.521L16.4161 30.5205ZM25.8979 64.3435C27.1879 64.3435 28.237 63.2944 28.237 62.0055C28.237 60.9905 27.5859 60.1264 26.6804 59.8044V56.6079H25.1166V59.8044C24.2111 60.1274 23.5604 60.9904 23.5604 62.0055C23.5594 63.2954 24.6085 64.3435 25.8979 64.3435ZM25.8979 62.7797C25.4711 62.7797 25.1238 62.4324 25.1238 62.0055C25.1238 61.5786 25.4711 61.2314 25.8979 61.2314C26.3248 61.2314 26.6721 61.5786 26.6721 62.0055C26.6726 62.4324 26.3248 62.7797 25.8979 62.7797ZM26.6799 55.0441H25.1161V50.3691L25.9657 44.8444V39.9844H27.5295L27.5212 45.0238L26.6788 50.4886V55.0443L26.6799 55.0441ZM32.0505 52.7071C32.0505 51.6921 31.3994 50.8281 30.4939 50.506V45.1731H28.9301V50.506C28.0246 50.829 27.3734 51.6921 27.3734 52.7071C27.3734 53.9961 28.4225 55.0452 29.7125 55.0452C31.0024 55.0457 32.0505 53.9966 32.0505 52.7071ZM28.9384 52.7071C28.9384 52.2803 29.2857 51.933 29.7126 51.933C30.1395 51.933 30.4868 52.2803 30.4868 52.7071C30.4868 53.134 30.1395 53.4813 29.7126 53.4813C29.2857 53.4813 28.9384 53.134 28.9384 52.7071ZM30.494 43.6083H28.9302V39.9839H30.494V43.6083ZM24.6283 43.5711V39.9741H23.0644V43.2909L20.1967 51.0445V55.01C19.2912 55.333 18.64 56.196 18.64 57.2111C18.64 58.5 19.6891 59.5502 20.9791 59.5502C22.2691 59.5502 23.3182 58.5011 23.3182 57.2111C23.3182 56.1961 22.667 55.333 21.7615 55.01L21.761 51.3247L24.6283 43.5711ZM20.978 57.9854C20.5512 57.9854 20.2039 57.6381 20.2039 57.2113C20.2039 56.7844 20.5512 56.4371 20.978 56.4371C21.4049 56.4371 21.7522 56.7844 21.7522 57.2113C21.7522 57.6381 21.4049 57.9854 20.978 57.9854ZM33.493 43.2906V39.9738H31.9292V43.5709L34.797 51.3244V54.9643C33.8916 55.2873 33.2403 56.1504 33.2403 57.1654C33.2403 58.4543 34.2895 59.5045 35.5794 59.5045C36.8694 59.5045 37.9185 58.4554 37.9185 57.1654C37.9185 56.1504 37.2674 55.2874 36.3619 54.9643V51.0443L33.493 43.2906ZM35.5789 57.9405C35.152 57.9405 34.8047 57.5932 34.8047 57.1663C34.8047 56.7683 35.1076 56.4433 35.4947 56.4009H35.6637C36.0502 56.4438 36.3536 56.7683 36.3536 57.1663C36.3531 57.5937 36.0058 57.9405 35.5789 57.9405H35.5789ZM28.2779 18.8558C30.5783 18.8558 32.4501 16.9843 32.4501 14.6836C32.4501 12.3833 30.5787 10.5115 28.2779 10.5115C25.9776 10.5115 24.1058 12.3829 24.1058 14.6836C24.1063 16.9845 25.9781 18.8558 28.2779 18.8558ZM28.2779 12.0763C29.7151 12.0763 30.8852 13.2464 30.8852 14.6836C30.8852 16.1208 29.7152 17.2909 28.2779 17.2909C26.8407 17.2909 25.6707 16.1208 25.6707 14.6836C25.6707 13.2464 26.8407 12.0763 28.2779 12.0763ZM28.2779 20.4196C26.6971 20.4196 25.4102 21.7064 25.4102 23.2873C25.4102 24.8683 26.697 26.1551 28.2779 26.1551C29.8588 26.1551 31.1457 24.8683 31.1457 23.2873C31.1462 21.7065 29.8599 20.4196 28.2779 20.4196ZM28.2779 24.5917C27.5591 24.5917 26.974 24.0072 26.974 23.2878C26.974 22.5689 27.5586 21.9839 28.2779 21.9839C28.9968 21.9839 29.5819 22.5684 29.5819 23.2878C29.5819 24.0062 28.9973 24.5917 28.2779 24.5917ZM54.8654 61.0687C54.8468 64.3535 52.1041 67.0239 48.7485 67.0239H7.29297C3.61127 67.0239 0.511427 64.0989 0.383226 60.5034C0.318108 58.6466 0.990995 56.8895 2.27832 55.557C3.5662 54.2221 5.29547 53.4872 7.14863 53.4872C7.31813 53.4872 7.48507 53.4954 7.65148 53.5058C7.62771 53.3047 7.61737 53.099 7.61737 52.8903C7.61737 49.8504 10.0918 47.3734 13.1342 47.3734C16.1772 47.3734 18.6511 49.8505 18.6511 52.8903H17.0873C17.0873 50.7103 15.3142 48.9377 13.1348 48.9377C10.9548 48.9377 9.18225 50.7108 9.18225 52.8903C9.18225 53.3311 9.25253 53.7554 9.39103 54.1569C9.48509 54.436 9.46597 54.7704 9.27268 54.9874C8.97913 55.3167 8.57758 55.2474 8.41841 55.2107C7.98481 55.1099 7.58118 55.0515 7.14861 55.0515C5.7253 55.0515 4.39553 55.6174 3.40486 56.6422C2.41414 57.6696 1.8978 59.0195 1.94742 60.4489C2.04354 63.2123 4.4425 65.4604 7.29216 65.4604H48.7477C51.2455 65.4604 53.2873 63.4867 53.2997 61.0619C53.31 58.8665 51.7462 57.0231 49.5818 56.6789C49.05 56.5931 48.6536 56.1341 48.6381 55.5889C48.5264 51.6519 45.3527 48.5676 41.4132 48.5676C40.0235 48.5676 38.6942 48.9558 37.5341 49.6969L36.9816 48.2033C38.3242 47.4157 39.8364 47.0038 41.4137 47.0038C46.0909 47.0038 49.8821 50.5786 50.1875 55.2008C52.9328 55.8076 54.8775 58.2189 54.865 61.0687L54.8654 61.0687Z" fill="white"/>
</svg>
