<svg width="66" height="55" viewBox="0 0 66 55" fill="none" xmlns="http://www.w3.org/2000/svg">
<path d="M58.5149 13.4484C60.0859 13.4484 61.3637 12.1707 61.3637 10.5996C61.3637 9.02963 60.0855 7.75082 58.5149 7.75082C57.227 7.75082 56.1368 8.61057 55.7862 9.7859H51.382V11.3205H55.7623C56.083 12.5435 57.1935 13.4483 58.5149 13.4483V13.4484ZM58.5149 9.28592C59.2389 9.28592 59.8286 9.87513 59.8286 10.5996C59.8286 11.3246 59.2389 11.9133 58.5149 11.9133C57.7909 11.9133 57.2012 11.3241 57.2012 10.5996C57.2012 9.87513 57.7899 9.28592 58.5149 9.28592ZM11.9599 20.8478C13.2646 20.8478 14.3649 19.9653 14.7003 18.7671H22.2754V17.2325H14.7003C14.3639 16.0343 13.2646 15.1517 11.9599 15.1517C10.3889 15.1517 9.11113 16.4295 9.11113 18.0006C9.11163 19.5705 10.3889 20.8478 11.9599 20.8478ZM11.9599 16.6853C12.6839 16.6853 13.2736 17.2745 13.2736 17.999C13.2736 18.723 12.6839 19.3127 11.9599 19.3127C11.2359 19.3127 10.6462 18.7235 10.6462 17.999C10.6462 17.274 11.2349 16.6853 11.9599 16.6853ZM19.4226 7.59375V11.321H28.2035V13.5086H23.8749V15.0432H28.2035V17.2308H23.8749V18.7654H28.2035V20.953H23.8749V22.4876H28.2035V24.6149H30.3308V28.8994H31.8654V24.6149H34.053V28.8994H35.5876V24.6149H37.7752V28.8994H39.3098V24.6149H41.4974V28.8994H43.032V24.6149H45.1593V22.4876H49.3992V20.953H45.1593V18.7654H49.3992V17.2308H45.1593V15.0432H49.3992V13.5086H45.1593V11.321H49.3992V9.78642H45.1593V7.65912H43.032V3.37456H41.4974V7.65912H39.3098V3.37456H37.7752V7.65912H35.5876V3.37456H34.053V7.65912H31.8654V3.37456H30.3308V7.65912H28.204V9.78642H20.9577V7.59375C22.1559 7.25734 23.0384 6.158 23.0384 4.85337C23.0384 3.28339 21.7607 2.00457 20.1896 2.00457C18.6186 2.00457 17.3408 3.2823 17.3408 4.85337C17.3413 6.158 18.2239 7.25732 19.4226 7.59375ZM29.7386 9.19474H43.6253V23.0815H29.7386V9.19474ZM20.1896 3.53967C20.9136 3.53967 21.5033 4.12888 21.5033 4.85337C21.5033 5.57836 20.9141 6.16708 20.1896 6.16708C19.4657 6.16708 18.8759 5.57786 18.8759 4.85337C18.8759 4.12839 19.4656 3.53967 20.1896 3.53967ZM65.3685 31.7502C65.3685 32.809 64.9536 33.802 64.2048 34.5509L49.1417 49.566C48.1213 50.5812 46.7651 51.1411 45.3247 51.1411H24.8792L21.9761 54.0218H19.7941L24.2469 49.6065H45.324C46.3545 49.6065 47.3242 49.2048 48.0557 48.4788L63.1214 33.4637C63.5789 33.0062 63.8322 32.3967 63.8322 31.7473C63.8352 31.1003 63.5814 30.4914 63.1234 30.0309C62.1791 29.0896 60.6445 29.0865 59.6981 30.0278L48.7676 40.9158C47.655 42.0233 46.1762 42.6348 44.6087 42.6348H29.6961V41.1002H44.1146C45.4495 41.1002 46.5368 40.013 46.5368 38.675C46.5368 37.34 45.4496 36.2528 44.1146 36.2528H24.7507C21.7068 36.2528 18.8423 37.4343 16.6831 39.5829L2.17646 54.0234H0L15.6013 38.4973C18.0468 36.062 21.2979 34.7189 24.7511 34.7189H44.1149C46.297 34.7189 48.0718 36.4942 48.0718 38.6757C48.0718 38.97 48.0383 39.2588 47.9775 39.5349C47.9775 39.5364 47.977 39.5369 47.977 39.5385L47.9775 39.538V39.5349L58.6188 28.9423C60.1616 27.4047 62.6708 27.4077 64.2105 28.9473C64.9583 29.6971 65.3712 30.6922 65.3681 31.751L65.3685 31.7502ZM32.4577 19.8302H40.3738V11.9141H32.4577V19.8302ZM33.9923 13.4487H38.8387V18.2951L33.9923 18.2956V13.4487ZM41.4975 30.4015H43.0321V32.128H41.4975V30.4015ZM31.8649 1.74997H30.3303V0.0234375H31.8649V1.74997Z" fill="white"/>
</svg>
