<svg width="40" height="40" viewBox="0 0 40 40" fill="none" xmlns="http://www.w3.org/2000/svg">
<g clip-path="url(#clip0_938_7348)">
<path d="M20.0861 7.96476C21.986 7.92677 23.5318 6.34898 23.5318 4.44763V2.5043C23.5317 1.12344 22.4083 0 21.0275 0H19.0004C17.6195 0 16.4961 1.12344 16.4961 2.5043V4.36148C16.4961 5.33022 16.8956 6.27745 17.5923 6.96038C18.272 7.62658 19.1572 7.9836 20.0861 7.96476Z" fill="#A7A7AB"/>
<path d="M30.8404 18.4212C31.1515 18.4212 31.4497 18.2976 31.6696 18.0777C31.8895 17.8578 32.013 17.5595 32.013 17.2485L32.013 15.288H34.2089C34.8565 15.288 35.3816 14.763 35.3816 14.1154C35.3816 13.4678 34.8565 12.9428 34.2089 12.9428H32.013L32.013 10.0688C32.013 9.75778 31.8895 9.45955 31.6696 9.23957L31.0674 8.63724C30.6094 8.17929 29.867 8.17929 29.4091 8.63724C28.9511 9.09518 28.9511 9.8376 29.4091 10.2955L29.6679 10.5544L29.6678 12.9428H26.9184V12.0652C26.9184 10.5446 26.0872 9.16092 24.747 8.44649L24.4549 8.27474C24.3728 8.3698 24.2885 8.46353 24.1997 8.55398C23.119 9.65522 21.6751 10.2787 20.1339 10.3095C20.0949 10.3102 20.0557 10.3106 20.0167 10.3106C18.4962 10.3106 17.0567 9.71831 15.9517 8.63513C15.8257 8.51161 15.7066 8.38192 15.5927 8.24832L15.2557 8.44641C13.9155 9.16085 13.0843 10.5445 13.0843 12.0652V12.9427H10.3349L10.3348 10.5543L10.5937 10.2955C11.0516 9.83752 11.0515 9.0951 10.5937 8.63716C10.1357 8.17929 9.39323 8.17929 8.93536 8.63716L8.33311 9.23949C8.11321 9.45939 7.98969 9.75771 7.98969 10.0687L7.98977 12.9427H5.7937C5.14611 12.9427 4.62109 13.4678 4.62109 14.1154C4.62109 14.763 5.14611 15.288 5.7937 15.288H7.98969L7.98961 17.2484C7.98961 17.5594 8.11313 17.8576 8.33303 18.0776C8.55293 18.2975 8.85117 18.4211 9.16222 18.4211H30.8404V18.4212Z" fill="#A7A7AB"/>
<path d="M28.6148 32.1763L30.0295 20.7665H9.97266L11.3874 32.1763H28.6148ZM20.0146 22.385C22.1718 22.385 23.9267 24.14 23.9267 26.2971C23.9267 28.4543 22.1717 30.2093 20.0146 30.2093C17.8574 30.2093 16.1024 28.4543 16.1024 26.2971C16.1024 24.14 17.8574 22.385 20.0146 22.385Z" fill="#A7A7AB"/>
<path d="M35.5372 37.6548H34.3396C34.1459 35.8952 32.6509 34.5216 30.8406 34.5216H9.1622C7.35192 34.5216 5.85692 35.8952 5.66321 37.6548H4.46558C3.81799 37.6548 3.29297 38.1798 3.29297 38.8274C3.29297 39.475 3.81799 40 4.46558 40H35.5372C36.1848 40 36.7099 39.475 36.7099 38.8274C36.7099 38.1798 36.1848 37.6548 35.5372 37.6548Z" fill="#A7A7AB"/>
<path d="M20.0161 27.8641C20.8802 27.8641 21.583 27.1612 21.583 26.2972C21.583 25.4332 20.8801 24.7303 20.0161 24.7303C19.1522 24.7303 18.4492 25.4332 18.4492 26.2972C18.4492 27.1612 19.1522 27.8641 20.0161 27.8641Z" fill="#A7A7AB"/>
</g>
<defs>
<clipPath id="clip0_938_7348">
<rect width="40" height="40" fill="white"/>
</clipPath>
</defs>
</svg>
