<svg width="40" height="40" viewBox="0 0 40 40" fill="none" xmlns="http://www.w3.org/2000/svg">
<path d="M37.2137 34.4762H34.596V32.2837H5.65242V34.4762H3.11879V36.5846H1.17969V38.7796H39.0713V36.5846H37.2137V34.4762Z" fill="#A7A7AB"/>
<path d="M11.8986 30.5102V19.5378H13.1641V18.0966C13.1641 17.2149 12.4504 16.4999 11.5674 16.4999H5.98215C5.1004 16.4999 4.38672 17.2149 4.38672 18.0966V19.5378H5.73757V30.5102H11.8986Z" fill="#A7A7AB"/>
<path d="M34.5973 30.5102V19.5378H35.9469V18.0991C35.9469 17.2174 35.2332 16.5024 34.3527 16.5024H28.77C27.8882 16.5024 27.1758 17.2174 27.1758 18.0991V19.539H28.5254V30.5102H34.5973Z" fill="#A7A7AB"/>
<path d="M23.2053 30.5102V19.5378H24.5561V18.0966C24.5561 17.2149 23.8425 16.4999 22.962 16.4999H17.3767C16.4949 16.4999 15.7812 17.2149 15.7812 18.0966V19.5378H17.0456V30.5102H23.2053Z" fill="#A7A7AB"/>
<path d="M21.4593 1.59667C20.5462 1.09371 19.4475 1.09371 18.5381 1.59667L1.75347 10.8846C0.671036 11.4816 0 12.6205 0 13.8584V14.8995H40V13.8584C40 12.6217 39.329 11.4803 38.249 10.8833L21.4593 1.59667ZM13.6339 10.3415C13.4671 10.3415 13.3229 10.2298 13.2815 10.068C13.2401 9.90748 13.3116 9.73941 13.4583 9.65788L18.5306 6.84706C19.4412 6.34535 20.545 6.34535 21.4556 6.84706L26.5254 9.65788C26.6721 9.73816 26.7474 9.90623 26.706 10.068C26.6646 10.2298 26.5216 10.3415 26.3548 10.3415H13.6339Z" fill="#A7A7AB"/>
</svg>
