<svg width="40" height="40" viewBox="0 0 40 40" fill="none" xmlns="http://www.w3.org/2000/svg">
<g clip-path="url(#clip0_938_7359)">
<path d="M39.1812 0.00498644C31.3729 -0.135014 22.4679 3.94665 16.8312 10.2783C11.4446 10.38 6.19957 12.5883 2.3379 16.45C2.1129 16.6717 2.0329 17.0033 2.13124 17.3033C2.23124 17.605 2.49124 17.8233 2.80457 17.8683L9.2279 18.7883L8.43457 19.6767C8.13957 20.0067 8.15457 20.5083 8.4679 20.8217L19.1796 31.5333C19.3412 31.695 19.5546 31.7767 19.7696 31.7767C19.9679 31.7767 20.1662 31.7066 20.3246 31.565L21.2129 30.7717L22.1329 37.195C22.1779 37.5083 22.4246 37.7383 22.7229 37.8383C22.7996 37.8633 22.8796 37.875 22.9612 37.875C23.1979 37.875 23.4396 37.7716 23.6062 37.6067C27.4146 33.7983 29.6229 28.5533 29.7246 23.1667C36.0629 17.5183 40.1779 8.61665 39.9962 0.81832C39.9846 0.374986 39.6262 0.0166531 39.1812 0.00498644ZM31.5012 14.3917C30.6896 15.2033 29.6229 15.61 28.5546 15.61C27.4862 15.61 26.4196 15.2033 25.6079 14.3917C23.9846 12.7667 23.9846 10.1233 25.6079 8.49832C27.2329 6.87332 29.8762 6.87332 31.5012 8.49832C33.1262 10.1233 33.1262 12.7683 31.5012 14.3917Z" fill="#A7A7AB"/>
<path d="M4.5401 28.175C2.75676 29.9583 0.308429 38.015 0.0350957 38.9267C-0.0532377 39.22 0.028429 39.5383 0.243429 39.755C0.403429 39.915 0.615096 40 0.833429 40C0.913429 40 0.993429 39.9883 1.07343 39.965C1.9851 39.6917 10.0418 37.2433 11.8251 35.46C13.8334 33.4516 13.8334 30.1833 11.8251 28.175C9.8151 26.1666 6.54843 26.1683 4.5401 28.175Z" fill="#A7A7AB"/>
</g>
<defs>
<clipPath id="clip0_938_7359">
<rect width="40" height="40" fill="white"/>
</clipPath>
</defs>
</svg>
