<svg width="40" height="40" viewBox="0 0 40 40" fill="none" xmlns="http://www.w3.org/2000/svg">
<path d="M20.0861 7.96476C21.986 7.92677 23.5318 6.34898 23.5318 4.44763V2.5043C23.5317 1.12344 22.4083 0 21.0275 0H19.0004C17.6195 0 16.4961 1.12344 16.4961 2.5043V4.36148C16.4961 5.33022 16.8956 6.27745 17.5923 6.96038C18.272 7.62658 19.1572 7.9836 20.0861 7.96476Z" fill="#0030D9"/>
<path d="M30.8404 18.4209C31.1515 18.4209 31.4497 18.2973 31.6696 18.0774C31.8895 17.8575 32.013 17.5592 32.013 17.2482L32.013 15.2878H34.2089C34.8565 15.2878 35.3816 14.7628 35.3816 14.1152C35.3816 13.4676 34.8565 12.9426 34.2089 12.9426H32.013L32.013 10.0685C32.013 9.75751 31.8895 9.45928 31.6696 9.23929L31.0674 8.63696C30.6094 8.17902 29.867 8.17902 29.4091 8.63696C28.9511 9.09491 28.9511 9.83732 29.4091 10.2953L29.6679 10.5541L29.6678 12.9426H26.9184V12.065C26.9184 10.5443 26.0872 9.16065 24.747 8.44622L24.4549 8.27447C24.3728 8.36953 24.2885 8.46326 24.1997 8.55371C23.119 9.65494 21.6751 10.2784 20.1339 10.3092C20.0949 10.31 20.0557 10.3104 20.0167 10.3104C18.4962 10.3104 17.0567 9.71803 15.9517 8.63485C15.8257 8.51134 15.7066 8.38165 15.5927 8.24805L15.2557 8.44614C13.9155 9.16057 13.0843 10.5443 13.0843 12.0649V12.9425H10.3349L10.3348 10.554L10.5937 10.2952C11.0516 9.83725 11.0515 9.09483 10.5937 8.63688C10.1357 8.17902 9.39323 8.17902 8.93536 8.63688L8.33311 9.23922C8.11321 9.45912 7.98969 9.75743 7.98969 10.0684L7.98977 12.9425H5.7937C5.14611 12.9425 4.62109 13.4675 4.62109 14.1151C4.62109 14.7627 5.14611 15.2877 5.7937 15.2877H7.98969L7.98961 17.2481C7.98961 17.5591 8.11313 17.8574 8.33303 18.0773C8.55293 18.2972 8.85117 18.4208 9.16222 18.4208H30.8404V18.4209Z" fill="#0030D9"/>
<path d="M28.6148 32.1754L30.0295 20.7656H9.97266L11.3874 32.1754H28.6148ZM20.0146 22.3841C22.1718 22.3841 23.9267 24.1391 23.9267 26.2962C23.9267 28.4533 22.1717 30.2084 20.0146 30.2084C17.8574 30.2084 16.1024 28.4533 16.1024 26.2962C16.1024 24.1391 17.8574 22.3841 20.0146 22.3841Z" fill="#0030D9"/>
<path d="M35.5372 37.6546H34.3396C34.1459 35.8951 32.6509 34.5215 30.8406 34.5215H9.1622C7.35192 34.5215 5.85692 35.8951 5.66321 37.6546H4.46558C3.81799 37.6546 3.29297 38.1797 3.29297 38.8272C3.29297 39.4748 3.81799 39.9999 4.46558 39.9999H35.5372C36.1848 39.9999 36.7099 39.4748 36.7099 38.8272C36.7099 38.1797 36.1848 37.6546 35.5372 37.6546Z" fill="#0030D9"/>
<path d="M20.0161 27.8643C20.8802 27.8643 21.583 27.1614 21.583 26.2974C21.583 25.4334 20.8801 24.7305 20.0161 24.7305C19.1522 24.7305 18.4492 25.4334 18.4492 26.2974C18.4492 27.1614 19.1522 27.8643 20.0161 27.8643Z" fill="#0030D9"/>
</svg>
