<svg width="40" height="40" viewBox="0 0 40 40" fill="none" xmlns="http://www.w3.org/2000/svg">
<path d="M37.2137 34.4757H34.596V32.2832H5.65242V34.4757H3.11879V36.5841H1.17969V38.7791H39.0713V36.5841H37.2137V34.4757Z" fill="#0030D9"/>
<path d="M11.8986 30.5102V19.5378H13.1641V18.0967C13.1641 17.2149 12.4504 16.5 11.5674 16.5H5.98215C5.1004 16.5 4.38672 17.2149 4.38672 18.0967V19.5378H5.73757V30.5102H11.8986Z" fill="#0030D9"/>
<path d="M34.5973 30.5097V19.5373H35.9469V18.0986C35.9469 17.2169 35.2332 16.502 34.3527 16.502H28.77C27.8882 16.502 27.1758 17.2169 27.1758 18.0986V19.5385H28.5254V30.5097H34.5973Z" fill="#0030D9"/>
<path d="M23.2053 30.5102V19.5378H24.5561V18.0967C24.5561 17.2149 23.8425 16.5 22.962 16.5H17.3767C16.4949 16.5 15.7812 17.2149 15.7812 18.0967V19.5378H17.0456V30.5102H23.2053Z" fill="#0030D9"/>
<path d="M21.4593 1.59597C20.5462 1.09301 19.4475 1.09301 18.5381 1.59597L1.75347 10.8839C0.671036 11.4809 0 12.6198 0 13.8577V14.8988H40V13.8577C40 12.621 39.329 11.4796 38.249 10.8826L21.4593 1.59597ZM13.6339 10.3408C13.4671 10.3408 13.3229 10.2291 13.2815 10.0673C13.2401 9.90678 13.3116 9.73871 13.4583 9.65718L18.5306 6.84636C19.4412 6.34465 20.545 6.34465 21.4556 6.84636L26.5254 9.65718C26.6721 9.73745 26.7474 9.90553 26.706 10.0673C26.6646 10.2291 26.5216 10.3408 26.3548 10.3408H13.6339Z" fill="#0030D9"/>
</svg>
