<svg width="40" height="40" viewBox="0 0 40 40" fill="none" xmlns="http://www.w3.org/2000/svg">
<g clip-path="url(#clip0_938_7428)">
<path d="M37.4909 26.5517V14.1103L35.1471 14.8915V26.5517C33.6897 27.0424 32.6367 28.4209 32.6367 30.0416V36.3176C32.6367 36.9648 33.1614 37.4895 33.8086 37.4895H38.8294C39.4766 37.4895 40.0013 36.9648 40.0013 36.3176V30.0416C40.0013 28.4209 38.9483 27.0424 37.4909 26.5517Z" fill="#A7A7AB"/>
<path d="M18.8887 19.5697L7.53125 15.7839V23.7656C7.53125 24.0765 7.65477 24.3745 7.87453 24.5943C11.1137 27.8331 15.4202 29.6169 20.0005 29.6169C24.5809 29.6169 28.887 27.8331 32.1255 24.5941C32.3453 24.3744 32.4688 24.0763 32.4688 23.7656V15.7839L21.1117 19.5696C20.3354 19.8281 19.5539 19.7913 18.8887 19.5697Z" fill="#A7A7AB"/>
<path d="M20 17.4062C20.1252 17.4062 20.2503 17.3862 20.3705 17.3461L39.1987 11.0701C39.6772 10.9105 40 10.4627 40 9.95835C40 9.45398 39.6773 9.00617 39.1987 8.84663L20.3705 2.57062C20.1301 2.49054 19.8699 2.49054 19.6295 2.57062L0.801328 8.84663C0.322734 9.00609 0 9.4539 0 9.95835C0 10.4628 0.322734 10.9105 0.801328 11.0701L19.6295 17.3461C19.7497 17.3862 19.8748 17.4062 20 17.4062Z" fill="#A7A7AB"/>
</g>
<defs>
<clipPath id="clip0_938_7428">
<rect width="40" height="40" fill="white"/>
</clipPath>
</defs>
</svg>
