<svg width="40" height="40" viewBox="0 0 40 40" fill="none" xmlns="http://www.w3.org/2000/svg">
<path d="M37.2137 34.4766H34.596V32.2842H5.65242V34.4766H3.11879V36.5851H1.17969V38.7801H39.0713V36.5851H37.2137V34.4766Z" fill="white"/>
<path d="M11.8986 30.5102V19.5378H13.1641V18.0967C13.1641 17.2149 12.4504 16.5 11.5674 16.5H5.98215C5.1004 16.5 4.38672 17.2149 4.38672 18.0967V19.5378H5.73757V30.5102H11.8986Z" fill="white"/>
<path d="M34.5973 30.5106V19.5383H35.9469V18.0996C35.9469 17.2179 35.2332 16.5029 34.3527 16.5029H28.77C27.8882 16.5029 27.1758 17.2179 27.1758 18.0996V19.5395H28.5254V30.5106H34.5973Z" fill="white"/>
<path d="M23.2053 30.5102V19.5378H24.5561V18.0967C24.5561 17.2149 23.8425 16.5 22.962 16.5H17.3767C16.4949 16.5 15.7812 17.2149 15.7812 18.0967V19.5378H17.0456V30.5102H23.2053Z" fill="white"/>
<path d="M21.4593 1.59695C20.5462 1.09399 19.4475 1.09399 18.5381 1.59695L1.75347 10.8848C0.671036 11.4819 0 12.6207 0 13.8587V14.8998H40V13.8587C40 12.622 39.329 11.4806 38.249 10.8836L21.4593 1.59695ZM13.6339 10.3417C13.4671 10.3417 13.3229 10.2301 13.2815 10.0683C13.2401 9.90776 13.3116 9.73969 13.4583 9.65816L18.5306 6.84733C19.4412 6.34562 20.545 6.34562 21.4556 6.84733L26.5254 9.65816C26.6721 9.73843 26.7474 9.9065 26.706 10.0683C26.6646 10.2301 26.5216 10.3417 26.3548 10.3417H13.6339Z" fill="white"/>
</svg>
