<svg width="261" height="67" viewBox="0 0 261 67" fill="none" xmlns="http://www.w3.org/2000/svg">
<path d="M80.6895 9.93118H84.2031V20.8235L91.3475 9.93118H94.744V26.3282H91.2304V15.4359L84.0626 26.3282H80.6895V9.93118Z" fill="#010B23"/>
<path d="M103.523 26.6093C102.664 26.6093 101.86 26.4765 101.11 26.2111C100.376 25.9456 99.7357 25.5474 99.1892 25.0164C98.6426 24.4855 98.2131 23.8218 97.9008 23.0254C97.5885 22.2289 97.4323 21.2998 97.4323 20.2379V19.7694C97.4323 18.7699 97.5963 17.8876 97.9242 17.1224C98.2522 16.3572 98.6894 15.717 99.236 15.2016C99.7982 14.6863 100.446 14.2959 101.18 14.0304C101.914 13.765 102.695 13.6322 103.523 13.6322C104.397 13.6322 105.17 13.7493 105.842 13.9836C106.529 14.2178 107.107 14.538 107.575 14.944C108.044 15.35 108.411 15.8263 108.676 16.3729C108.941 16.9194 109.098 17.505 109.144 18.1297H106.006C105.881 17.5519 105.623 17.099 105.233 16.7711C104.858 16.4275 104.288 16.2557 103.523 16.2557C103.117 16.2557 102.734 16.326 102.375 16.4666C102.031 16.6071 101.719 16.8257 101.438 17.1224C101.172 17.4035 100.962 17.7627 100.805 18.2C100.649 18.6372 100.571 19.1603 100.571 19.7694V20.2379C100.571 20.8937 100.641 21.4637 100.782 21.9478C100.938 22.4163 101.149 22.8067 101.414 23.1191C101.68 23.4158 101.992 23.6344 102.351 23.7749C102.711 23.9155 103.101 23.9858 103.523 23.9858C104.132 23.9858 104.655 23.8296 105.092 23.5173C105.545 23.1893 105.849 22.7208 106.006 22.1118H109.144C109.066 22.7989 108.871 23.4236 108.559 23.9858C108.262 24.5323 107.864 25.0008 107.364 25.3912C106.88 25.7816 106.31 26.0861 105.654 26.3048C104.998 26.5078 104.288 26.6093 103.523 26.6093Z" fill="#010B23"/>
<path d="M111.263 13.9133H114.355V18.7856H115.526L119.321 13.9133H122.741L118.056 19.7928L122.975 26.3282H119.274L115.526 21.2217H114.355V26.3282H111.263V13.9133Z" fill="#010B23"/>
<path d="M127.073 31.2941C126.839 31.2941 126.605 31.2707 126.37 31.2239V28.6003C126.605 28.6472 126.839 28.6706 127.073 28.6706C127.542 28.6706 127.901 28.491 128.151 28.1319C128.416 27.7883 128.713 27.1871 129.041 26.3282L123.794 13.9133H127.261L130.634 22.4866L133.726 13.9133H136.911L132.133 26.3282C131.789 27.2027 131.461 27.9523 131.149 28.5769C130.852 29.2172 130.517 29.7325 130.142 30.1229C129.767 30.5289 129.338 30.8256 128.853 31.013C128.369 31.2004 127.776 31.2941 127.073 31.2941Z" fill="#010B23"/>
<path d="M143.6 26.6093C142.741 26.6093 141.937 26.4765 141.187 26.2111C140.453 25.9456 139.813 25.5474 139.267 25.0164C138.72 24.4855 138.291 23.8218 137.978 23.0254C137.666 22.2289 137.51 21.2998 137.51 20.2379V19.7694C137.51 18.7699 137.674 17.8876 138.002 17.1224C138.33 16.3572 138.767 15.717 139.313 15.2016C139.876 14.6863 140.524 14.2959 141.258 14.0304C141.992 13.765 142.772 13.6322 143.6 13.6322C144.475 13.6322 145.248 13.7493 145.919 13.9836C146.606 14.2178 147.184 14.538 147.653 14.944C148.121 15.35 148.488 15.8263 148.753 16.3729C149.019 16.9194 149.175 17.505 149.222 18.1297H146.083C145.958 17.5519 145.701 17.099 145.31 16.7711C144.935 16.4275 144.365 16.2557 143.6 16.2557C143.194 16.2557 142.812 16.326 142.452 16.4666C142.109 16.6071 141.796 16.8257 141.515 17.1224C141.25 17.4035 141.039 17.7627 140.883 18.2C140.727 18.6372 140.649 19.1603 140.649 19.7694V20.2379C140.649 20.8937 140.719 21.4637 140.859 21.9478C141.016 22.4163 141.226 22.8067 141.492 23.1191C141.757 23.4158 142.07 23.6344 142.429 23.7749C142.788 23.9155 143.178 23.9858 143.6 23.9858C144.209 23.9858 144.732 23.8296 145.17 23.5173C145.622 23.1893 145.927 22.7208 146.083 22.1118H149.222C149.144 22.7989 148.949 23.4236 148.636 23.9858C148.34 24.5323 147.941 25.0008 147.442 25.3912C146.958 25.7816 146.388 26.0861 145.732 26.3048C145.076 26.5078 144.365 26.6093 143.6 26.6093Z" fill="#010B23"/>
<path d="M156.845 26.6093C155.986 26.6093 155.182 26.4765 154.432 26.2111C153.698 25.9456 153.058 25.5474 152.511 25.0164C151.965 24.4855 151.535 23.8218 151.223 23.0254C150.911 22.2289 150.755 21.2998 150.755 20.2379V19.7694C150.755 18.7699 150.919 17.8876 151.247 17.1224C151.574 16.3572 152.012 15.717 152.558 15.2016C153.12 14.6863 153.769 14.2959 154.502 14.0304C155.236 13.765 156.017 13.6322 156.845 13.6322C157.719 13.6322 158.492 13.7493 159.164 13.9836C159.851 14.2178 160.429 14.538 160.897 14.944C161.366 15.35 161.733 15.8263 161.998 16.3729C162.264 16.9194 162.42 17.505 162.467 18.1297H159.328C159.203 17.5519 158.945 17.099 158.555 16.7711C158.18 16.4275 157.61 16.2557 156.845 16.2557C156.439 16.2557 156.056 16.326 155.697 16.4666C155.354 16.6071 155.041 16.8257 154.76 17.1224C154.495 17.4035 154.284 17.7627 154.128 18.2C153.972 18.6372 153.893 19.1603 153.893 19.7694V20.2379C153.893 20.8937 153.964 21.4637 154.104 21.9478C154.26 22.4163 154.471 22.8067 154.737 23.1191C155.002 23.4158 155.315 23.6344 155.674 23.7749C156.033 23.9155 156.423 23.9858 156.845 23.9858C157.454 23.9858 157.977 23.8296 158.414 23.5173C158.867 23.1893 159.172 22.7208 159.328 22.1118H162.467C162.389 22.7989 162.193 23.4236 161.881 23.9858C161.584 24.5323 161.186 25.0008 160.687 25.3912C160.202 25.7816 159.632 26.0861 158.977 26.3048C158.321 26.5078 157.61 26.6093 156.845 26.6093Z" fill="#010B23"/>
<path d="M167.607 16.49H163.648V13.9133H174.657V16.49H170.699V26.3282H167.607V16.49Z" fill="#010B23"/>
<path d="M176.526 13.9133H182.757C183.553 13.9133 184.232 13.9992 184.795 14.171C185.372 14.3271 185.849 14.5536 186.224 14.8503C186.598 15.147 186.872 15.4984 187.043 15.9044C187.215 16.3104 187.301 16.7555 187.301 17.2396C187.301 17.8174 187.121 18.3639 186.762 18.8793C186.419 19.379 185.942 19.7147 185.333 19.8865C186.099 20.0739 186.692 20.4331 187.114 20.964C187.551 21.4794 187.77 22.0884 187.77 22.7911C187.77 23.8686 187.395 24.7275 186.645 25.3678C185.896 26.008 184.756 26.3282 183.225 26.3282H176.526V13.9133ZM182.616 23.8452C183.319 23.8452 183.834 23.7437 184.162 23.5407C184.506 23.3221 184.678 22.9785 184.678 22.51C184.678 22.0415 184.514 21.7058 184.186 21.5028C183.873 21.2842 183.35 21.1748 182.616 21.1748H179.618V23.8452H182.616ZM182.312 18.8793C183.03 18.8793 183.522 18.7778 183.787 18.5747C184.069 18.3717 184.209 18.0594 184.209 17.6378C184.209 17.2317 184.069 16.9272 183.787 16.7242C183.506 16.5056 183.014 16.3963 182.312 16.3963H179.618V18.8793H182.312Z" fill="#010B23"/>
<path d="M195.621 26.6093C194.778 26.6093 193.974 26.4843 193.209 26.2345C192.459 25.969 191.803 25.5786 191.241 25.0633C190.679 24.5323 190.234 23.8686 189.906 23.0722C189.578 22.2602 189.414 21.3154 189.414 20.2379V19.7694C189.414 18.7387 189.57 17.8408 189.882 17.0756C190.195 16.3104 190.624 15.6779 191.171 15.1782C191.717 14.6629 192.35 14.2803 193.068 14.0304C193.786 13.765 194.559 13.6322 195.387 13.6322C197.339 13.6322 198.823 14.1475 199.838 15.1782C200.853 16.2089 201.36 17.7002 201.36 19.6523V20.964H192.576C192.592 21.5106 192.685 21.9869 192.857 22.3929C193.029 22.7833 193.255 23.1034 193.537 23.3533C193.818 23.6032 194.138 23.7905 194.497 23.9155C194.872 24.0248 195.246 24.0794 195.621 24.0794C196.418 24.0794 197.019 23.9623 197.425 23.7281C197.831 23.4938 198.12 23.1503 198.292 22.6974H201.126C200.876 23.9936 200.259 24.9696 199.275 25.6255C198.292 26.2813 197.074 26.6093 195.621 26.6093ZM195.504 16.162C195.145 16.162 194.786 16.2089 194.427 16.3026C194.083 16.3963 193.779 16.5446 193.513 16.7476C193.248 16.9507 193.029 17.2239 192.857 17.5675C192.685 17.9111 192.592 18.3249 192.576 18.809H198.362C198.346 18.2936 198.26 17.8642 198.104 17.5206C197.964 17.1771 197.761 16.9038 197.495 16.7008C197.245 16.4978 196.949 16.3572 196.605 16.2792C196.262 16.2011 195.895 16.162 195.504 16.162Z" fill="#010B23"/>
<path d="M203.587 13.9133H206.679V18.7153H211.973V13.9133H215.065V26.3282H211.973V21.292H206.679V26.3282H203.587V13.9133Z" fill="#010B23"/>
<path d="M217.884 13.9133H220.976V18.7153H226.27V13.9133H229.362V26.3282H226.27V21.292H220.976V26.3282H217.884V13.9133Z" fill="#010B23"/>
<path d="M232.181 13.9133H235.273V18.0828H237.452C240.653 18.0828 242.254 19.4571 242.254 22.2055C242.254 22.8145 242.16 23.3767 241.973 23.8921C241.801 24.3918 241.52 24.8212 241.13 25.1804C240.739 25.5396 240.239 25.8207 239.63 26.0237C239.021 26.2267 238.295 26.3282 237.452 26.3282H232.181V13.9133ZM237.101 23.8452C237.85 23.8452 238.381 23.7125 238.693 23.447C239.006 23.1659 239.162 22.7521 239.162 22.2055C239.162 21.6589 238.998 21.2529 238.67 20.9874C238.358 20.7064 237.835 20.5658 237.101 20.5658H235.273V23.8452H237.101ZM243.613 13.9133H246.705V26.3282H243.613V13.9133Z" fill="#010B23"/>
<path d="M249.521 13.9133H252.613V21.8776L258.141 13.9133H260.999V26.3282H257.907V18.3639L252.379 26.3282H249.521V13.9133ZM255.26 12.625C253.87 12.625 252.855 12.3283 252.215 11.7348C251.59 11.1414 251.278 10.2669 251.278 9.11133H254.018C254.018 9.72036 254.12 10.1498 254.323 10.3997C254.542 10.6339 254.854 10.751 255.26 10.751C255.697 10.751 256.017 10.6339 256.22 10.3997C256.439 10.1498 256.548 9.72036 256.548 9.11133H259.242C259.242 10.2669 258.922 11.1414 258.282 11.7348C257.657 12.3283 256.65 12.625 255.26 12.625Z" fill="#010B23"/>
<path d="M80.6895 40.9303H84.2031V51.8226L91.3475 40.9303H94.744V57.3273H91.2304V46.435L84.0626 57.3273H80.6895V40.9303Z" fill="#010B23"/>
<path d="M98.0179 44.9124H101.11V49.7144H106.404V44.9124H109.496V57.3273H106.404V52.291H101.11V57.3273H98.0179V44.9124Z" fill="#010B23"/>
<path d="M115.337 47.4891H111.378V44.9124H122.387V47.4891H118.429V57.3273H115.337V47.4891Z" fill="#010B23"/>
<path d="M129.649 57.6084C128.806 57.6084 128.001 57.4834 127.236 57.2336C126.487 56.9681 125.831 56.5777 125.269 56.0624C124.706 55.5314 124.261 54.8677 123.933 54.0713C123.605 53.2592 123.442 52.3145 123.442 51.2369V50.7685C123.442 49.7378 123.598 48.8399 123.91 48.0747C124.222 47.3095 124.652 46.677 125.198 46.1773C125.745 45.662 126.377 45.2794 127.096 45.0295C127.814 44.764 128.587 44.6313 129.415 44.6313C131.367 44.6313 132.85 45.1466 133.865 46.1773C134.88 47.208 135.388 48.6993 135.388 50.6513V51.9631H126.604C126.619 52.5097 126.713 52.986 126.885 53.392C127.057 53.7824 127.283 54.1025 127.564 54.3524C127.845 54.6022 128.165 54.7896 128.525 54.9146C128.899 55.0239 129.274 55.0785 129.649 55.0785C130.445 55.0785 131.047 54.9614 131.453 54.7272C131.859 54.4929 132.148 54.1494 132.319 53.6965H135.154C134.904 54.9926 134.287 55.9687 133.303 56.6245C132.319 57.2804 131.101 57.6084 129.649 57.6084ZM129.532 47.1611C129.173 47.1611 128.813 47.208 128.454 47.3017C128.111 47.3954 127.806 47.5437 127.541 47.7467C127.275 47.9497 127.057 48.223 126.885 48.5666C126.713 48.9101 126.619 49.324 126.604 49.8081H132.39C132.374 49.2927 132.288 48.8633 132.132 48.5197C131.991 48.1762 131.788 47.9029 131.523 47.6999C131.273 47.4969 130.976 47.3563 130.633 47.2782C130.289 47.2002 129.922 47.1611 129.532 47.1611Z" fill="#010B23"/>
<path d="M137.503 57.6084C137.378 57.6084 137.222 57.6005 137.035 57.5849C136.848 57.5849 136.691 57.5693 136.566 57.5381V54.7506C136.645 54.7662 136.762 54.774 136.918 54.774C137.215 54.774 137.472 54.6881 137.691 54.5164C137.909 54.329 138.089 54.0166 138.23 53.5794C138.386 53.1421 138.495 52.5643 138.558 51.846C138.636 51.112 138.675 50.2063 138.675 49.1288V44.9124H148.513V57.3273H145.421V47.4891H141.532V49.5972C141.532 51.2057 141.447 52.5331 141.275 53.5794C141.119 54.61 140.869 55.4221 140.525 56.0155C140.197 56.6089 139.776 57.0227 139.26 57.257C138.761 57.4912 138.175 57.6084 137.503 57.6084Z" fill="#010B23"/>
<path d="M151.434 57.6084C151.31 57.6084 151.153 57.6005 150.966 57.5849C150.779 57.5849 150.622 57.5693 150.497 57.5381V54.7506C150.576 54.7662 150.693 54.774 150.849 54.774C151.146 54.774 151.403 54.6881 151.622 54.5164C151.84 54.329 152.02 54.0166 152.161 53.5794C152.317 53.1421 152.426 52.5643 152.489 51.846C152.567 51.112 152.606 50.2063 152.606 49.1288V44.9124H162.444V57.3273H159.352V47.4891H155.463V49.5972C155.463 51.2057 155.378 52.5331 155.206 53.5794C155.05 54.61 154.8 55.4221 154.456 56.0155C154.128 56.6089 153.707 57.0227 153.191 57.257C152.692 57.4912 152.106 57.6084 151.434 57.6084Z" fill="#010B23"/>
<path d="M170.87 57.6084C170.027 57.6084 169.223 57.4834 168.458 57.2336C167.708 56.9681 167.052 56.5777 166.49 56.0624C165.928 55.5314 165.483 54.8677 165.155 54.0713C164.827 53.2592 164.663 52.3145 164.663 51.2369V50.7685C164.663 49.7378 164.819 48.8399 165.131 48.0747C165.444 47.3095 165.873 46.677 166.42 46.1773C166.966 45.662 167.599 45.2794 168.317 45.0295C169.035 44.764 169.808 44.6313 170.636 44.6313C172.588 44.6313 174.072 45.1466 175.087 46.1773C176.102 47.208 176.609 48.6993 176.609 50.6513V51.9631H167.825C167.841 52.5097 167.934 52.986 168.106 53.392C168.278 53.7824 168.504 54.1025 168.785 54.3524C169.067 54.6022 169.387 54.7896 169.746 54.9146C170.121 55.0239 170.495 55.0785 170.87 55.0785C171.667 55.0785 172.268 54.9614 172.674 54.7272C173.08 54.4929 173.369 54.1494 173.541 53.6965H176.375C176.125 54.9926 175.508 55.9687 174.524 56.6245C173.541 57.2804 172.323 57.6084 170.87 57.6084ZM170.753 47.1611C170.394 47.1611 170.035 47.208 169.676 47.3017C169.332 47.3954 169.028 47.5437 168.762 47.7467C168.497 47.9497 168.278 48.223 168.106 48.5666C167.934 48.9101 167.841 49.324 167.825 49.8081H173.611C173.595 49.2927 173.509 48.8633 173.353 48.5197C173.213 48.1762 173.01 47.9029 172.744 47.6999C172.494 47.4969 172.198 47.3563 171.854 47.2782C171.51 47.2002 171.144 47.1611 170.753 47.1611Z" fill="#010B23"/>
<path d="M178.836 44.9124H181.928V49.7846H183.1L186.894 44.9124H190.314L185.629 50.7919L190.548 57.3273H186.847L183.1 52.2208H181.928V57.3273H178.836V44.9124Z" fill="#010B23"/>
<path d="M195.332 47.4891H191.373V44.9124H202.382V47.4891H198.424V57.3273H195.332V47.4891Z" fill="#010B23"/>
<path d="M13.1113 52.19C13.1113 50.9102 12.4268 49.7282 11.3168 49.0913L5.37352 45.6812C2.99187 44.3147 0.0231018 46.0341 0.0231018 48.7799V57.2781C0.0231018 58.5579 0.707651 59.7399 1.81767 60.3768L7.76092 63.7868C10.1426 65.1534 13.1113 63.434 13.1113 60.6882V52.19Z" fill="#D51A1A"/>
<path d="M56.4785 17.0878C56.4785 15.8081 55.794 14.6261 54.6839 13.9892L53.4001 13.2525C51.0184 11.886 48.0497 13.6053 48.0497 16.3512V18.8915C48.0497 20.1712 48.7342 21.3532 49.8443 21.9901L51.1281 22.7268C53.5098 24.0933 56.4785 22.374 56.4785 19.6281V17.0878Z" fill="url(#paint0_linear_2018_12712)"/>
<path fill-rule="evenodd" clip-rule="evenodd" d="M31.2397 19.7086C31.2397 17.235 29.9703 14.9345 27.8776 13.6157C23.0818 10.5934 16.8359 14.0399 16.8359 19.7086V23.7601C16.8359 25.7063 17.8347 27.5163 19.4812 28.5539L21.4949 29.823C21.888 30.0707 22.1265 30.5028 22.1265 30.9675C22.1265 32.0322 20.9533 32.6796 20.0524 32.1119L19.4812 31.7519C18.3323 31.0279 16.8359 31.8535 16.8359 33.2116V46.3405C16.8359 48.8141 18.1054 51.1146 20.198 52.4334C24.9938 55.4558 31.2397 52.0092 31.2397 46.3405V42.2894C31.2397 40.343 30.2408 38.5328 28.5941 37.495L26.5801 36.2257C26.187 35.978 25.9485 35.5459 25.9485 35.0812C25.9485 34.0165 27.1217 33.3691 28.0226 33.9368L28.5941 34.297C29.7432 35.0212 31.2397 34.1954 31.2397 32.8372V19.7086Z" fill="url(#paint1_linear_2018_12712)"/>
<path d="M27.1055 19.7254C27.1055 18.6261 26.5175 17.6108 25.564 17.0637C23.5182 15.8899 20.9681 17.3668 20.9681 19.7254V20.4973C20.9681 21.5966 21.5561 22.6119 22.5096 23.159C24.5554 24.3328 27.1055 22.8559 27.1055 20.4973V19.7254Z" fill="#D51A1A"/>
<path fill-rule="evenodd" clip-rule="evenodd" d="M14.4272 7.2135C14.4272 4.73993 13.1578 2.43943 11.0651 1.12061C6.26934 -1.90176 0.0234375 1.54476 0.0234375 7.21349V11.265C0.0234375 13.2112 1.02221 15.0212 2.6687 16.0588L4.68244 17.3279C5.07552 17.5756 5.31396 18.0077 5.31396 18.4723C5.31396 19.5371 4.14076 20.1845 3.23994 19.6168L2.6687 19.2568C1.51977 18.5327 0.0234426 19.3584 0.0234426 20.7165V33.8454C0.0234426 36.319 1.29287 38.6195 3.38553 39.9383C8.18134 42.9607 14.4272 39.5141 14.4272 33.8454V29.7943C14.4272 27.8479 13.4283 26.0377 11.7816 24.9999L9.76756 23.7306C9.37449 23.4829 9.13604 23.0508 9.13604 22.5861C9.13604 21.5213 10.3092 20.874 11.2101 21.4417L11.7816 21.8019C12.9307 22.5261 14.4272 21.7003 14.4272 20.342V7.2135Z" fill="url(#paint2_linear_2018_12712)"/>
<path fill-rule="evenodd" clip-rule="evenodd" d="M48.0503 33.0104C48.0503 30.5368 46.7809 28.2363 44.6882 26.9175C39.8924 23.8951 33.6465 27.3416 33.6465 33.0104V37.0619C33.6465 39.008 34.6453 40.818 36.2917 41.8557L38.3055 43.1248C38.6986 43.3725 38.937 43.8046 38.937 44.2692C38.937 45.334 37.7638 45.9814 36.863 45.4137L36.2917 45.0537C35.1428 44.3296 33.6465 45.1553 33.6465 46.5133V59.6423C33.6465 62.1159 34.9159 64.4163 37.0086 65.7352C41.8044 68.7575 48.0503 65.311 48.0503 59.6423V55.5912C48.0503 53.6448 47.0514 51.8345 45.4047 50.7968L43.3906 49.5275C42.9975 49.2797 42.7591 48.8476 42.7591 48.383C42.7591 47.3182 43.9323 46.6708 44.8331 47.2386L45.4047 47.5988C46.5538 48.3229 48.0503 47.4971 48.0503 46.1389V33.0104Z" fill="url(#paint3_linear_2018_12712)"/>
<defs>
<linearGradient id="paint0_linear_2018_12712" x1="56.4785" y1="10.1826" x2="45.9373" y2="11.8675" gradientUnits="userSpaceOnUse">
<stop stop-color="#0030D9"/>
<stop offset="1" stop-color="#001F8C"/>
</linearGradient>
<linearGradient id="paint1_linear_2018_12712" x1="16.8359" y1="12.4951" x2="35.1125" y2="14.3935" gradientUnits="userSpaceOnUse">
<stop stop-color="#0030D9"/>
<stop offset="1" stop-color="#001F8C"/>
</linearGradient>
<linearGradient id="paint2_linear_2018_12712" x1="0.0234375" y1="0" x2="18.3" y2="1.89842" gradientUnits="userSpaceOnUse">
<stop stop-color="#0030D9"/>
<stop offset="1" stop-color="#001F8C"/>
</linearGradient>
<linearGradient id="paint3_linear_2018_12712" x1="33.6465" y1="25.7969" x2="51.9231" y2="27.6953" gradientUnits="userSpaceOnUse">
<stop stop-color="#0030D9"/>
<stop offset="1" stop-color="#001F8C"/>
</linearGradient>
</defs>
</svg>
