<svg width="65" height="65" viewBox="0 0 65 65" fill="none" xmlns="http://www.w3.org/2000/svg">
<path d="M64.1302 43.8546C64.0938 43.541 63.8622 42.9276 63.7761 42.7544L57.2187 29.7105C56.8367 28.9511 55.9034 28.641 55.1374 29.0204L54.9147 29.1312C53.9938 29.5878 53.2752 30.3283 52.8483 31.2425V24.4584C52.8483 24.4584 54.3057 24.4599 54.3201 24.4599C56.7669 24.4599 59.1452 23.4997 60.9063 21.7501C63.0549 19.6159 64.0222 16.5667 63.4931 13.5932L63.4015 13.0797L62.8845 12.9882C59.8908 12.4603 56.8193 13.42 54.6691 15.5555C53.9081 16.3114 53.298 17.184 52.8483 18.1254V15.5581C55.1453 13.8147 56.5074 11.0994 56.5074 8.21242C56.5074 5.19332 55.0202 2.35822 52.5295 0.62692L52.0982 0.328125L51.6679 0.62692C49.1746 2.35683 47.6864 5.19192 47.6864 8.21242C47.6864 11.0974 49.0486 13.8123 51.3456 15.556V17.8029C50.9137 16.9837 50.3559 16.2233 49.682 15.554C47.533 13.4195 44.462 12.4612 41.4681 12.989L40.9512 13.0801L40.8595 13.5936C40.3281 16.5652 41.2948 19.6139 43.4449 21.7489C45.2064 23.4991 47.5866 24.4593 50.0371 24.4593H51.345V30.6618C51.2852 30.5717 51.221 30.4837 51.1512 30.3981C50.0525 29.0427 48.1166 28.732 46.6443 29.6798L31.0981 39.6805C30.4596 39.5558 29.8006 39.488 29.1252 39.488C26.3058 39.488 23.7517 40.6332 21.9065 42.4794L21.906 42.4789L0.367188 64.1547H28.2173L33.536 59.2919H51.1427C53.9717 59.2919 56.2752 57.004 56.2752 54.1941V54.1467C56.2752 54.0032 56.2672 53.8632 56.2557 53.7227L63.2215 46.804C63.5856 46.4423 63.8486 46.007 63.9975 45.5326C64.1225 45.2007 64.1937 44.8435 64.1937 44.4695C64.1932 44.2583 64.1718 44.053 64.1305 43.8541L64.1302 43.8546ZM55.7305 16.6118C57.4065 14.9471 59.7503 14.1339 62.0881 14.3836C62.3367 16.7062 61.5179 19.0332 59.8425 20.6969C58.3707 22.1587 56.3855 22.9626 54.3429 22.969L58.9818 18.3614L57.9195 17.3062L53.4549 21.7407C53.5435 19.8297 54.3409 17.9919 55.7305 16.6118ZM49.1891 8.21297C49.1891 5.85822 50.2674 3.63809 52.0976 2.17134C53.927 3.6386 55.0043 5.85974 55.0043 8.21297C55.0043 10.2234 54.2159 12.1339 52.8472 13.5615V9.56144H51.3451V13.5585C49.9765 12.1312 49.1891 10.2222 49.1891 8.21284V8.21297ZM44.5068 20.6949C42.8308 19.0302 42.0127 16.7042 42.2626 14.3836C44.6028 14.1338 46.9443 14.9461 48.6188 16.6097C50.0004 17.982 50.7972 19.8054 50.8949 21.7045L46.4672 17.3066L45.4048 18.3618L50.0407 22.9663C47.9857 22.9673 45.9855 22.1634 44.5068 20.6946V20.6949ZM54.0804 32.1885C54.3339 31.4341 54.8688 30.8227 55.5856 30.4675L55.8082 30.3567C55.8152 30.3532 55.8226 30.3517 55.8296 30.3517C55.8475 30.3517 55.8655 30.3616 55.8739 30.3784L61.4297 41.4298C61.3261 41.4189 61.221 41.414 61.1154 41.414C59.9988 41.414 59.0211 42.0106 58.4828 42.8976L54.2428 34.4622C53.8847 33.7503 53.827 32.943 54.0805 32.1886L54.0804 32.1885ZM51.3456 34.3676V39.0979H52.8477V35.0137C52.8657 35.0518 52.8801 35.0909 52.8985 35.1285L57.2834 43.8514L51.9796 49.1193C51.7067 49.0748 51.4278 49.0501 51.1414 49.0501H39.2853C39.2405 48.219 39.0941 47.4141 38.8575 46.6478L50.8815 34.9321C51.0603 34.758 51.2132 34.568 51.3457 34.3677L51.3456 34.3676ZM53.2443 53.8525C53.2443 54.7147 52.538 55.4162 51.6699 55.4162C51.6415 55.4162 51.6126 55.4133 51.5847 55.4118C51.2206 55.3762 50.8665 55.2208 50.5886 54.9443L50.5707 54.9265C50.2928 54.65 50.1359 54.2983 50.1 53.9371C50.0985 53.9089 50.0955 53.8812 50.0955 53.8525C50.0955 52.9903 50.8018 52.2888 51.6699 52.2888C52.5385 52.2888 53.2443 52.9898 53.2443 53.8525L53.2443 53.8525ZM47.4639 30.9306C48.2851 30.4037 49.3669 30.5754 49.98 31.3333C50.5961 32.0941 50.5303 33.1834 49.83 33.8671L46.6769 36.9401C46.6814 36.8664 46.6884 36.7927 46.6884 36.718C46.6884 35.0361 45.5588 33.6119 44.0138 33.1508L47.4639 30.9306ZM42.937 34.4844C44.1772 34.4844 45.1863 35.4866 45.1863 36.7174C45.1863 37.9492 44.1772 38.9515 42.937 38.9515C41.6969 38.9515 40.6878 37.9492 40.6878 36.7174C40.6878 35.4866 41.6968 34.4844 42.937 34.4844ZM39.221 36.234C39.2001 36.3928 39.1852 36.5541 39.1852 36.7178C39.1852 38.7723 40.868 40.4439 42.9365 40.4439C42.9878 40.4439 43.0381 40.4384 43.0884 40.4359L38.2567 45.1434C37.163 42.9386 35.2834 41.1864 32.9839 40.246L39.221 36.234ZM27.6263 62.6639H3.95948L19.2176 47.3062C19.0447 48.0423 18.9506 48.809 18.9506 49.5961C18.9506 55.1688 23.5153 59.7026 29.1253 59.7026C29.7753 59.7026 30.4098 59.6393 31.0254 59.5231L27.6263 62.6639ZM29.126 58.2102C24.3441 58.2102 20.4533 54.3456 20.4533 49.5957C20.4533 44.8462 24.3441 40.9817 29.126 40.9817C33.9078 40.9817 37.7986 44.8462 37.7986 49.5957C37.7981 54.3458 33.9078 58.2102 29.126 58.2102ZM51.1429 57.8011H35.167L35.9579 57.0778C35.9624 57.0734 35.9673 57.0694 35.9713 57.065L36.0769 56.968L36.0774 56.9636C37.8405 55.3212 39.0164 53.0655 39.2535 50.541H50.5463L49.5073 51.5729C48.9147 52.1616 48.5884 52.9437 48.5884 53.7762C48.5884 54.6088 48.9147 55.3919 49.5073 55.9805L49.5253 55.9983C50.1179 56.587 50.9053 56.911 51.7446 56.911C52.5828 56.911 53.3702 56.587 53.9628 55.9983L54.5535 55.4116C54.049 56.8021 52.7118 57.8009 51.1423 57.8009L51.1429 57.8011ZM54.6716 53.1876C54.4132 52.0359 53.4992 51.1286 52.3403 50.8719L58.1157 45.1355C58.3742 46.2872 59.2876 47.1944 60.4471 47.4511L54.6716 53.1876ZM61.117 46.0334C60.2489 46.0334 59.5426 45.3319 59.5426 44.4696C59.5426 43.6074 60.2488 42.9059 61.117 42.9059C61.9851 42.9059 62.6913 43.6074 62.6913 44.4696C62.6913 45.3319 61.9846 46.0334 61.117 46.0334ZM29.1269 45.0603C26.6092 45.0603 24.5608 47.095 24.5608 49.5956C24.5608 52.0962 26.6092 54.1308 29.1269 54.1308C31.6445 54.1308 33.6929 52.0962 33.6929 49.5956C33.6929 47.095 31.6445 45.0603 29.1269 45.0603ZM29.1269 52.6385C27.4375 52.6385 26.0629 51.2732 26.0629 49.5952C26.0629 47.9172 27.4375 46.5519 29.1269 46.5519C30.8162 46.5519 32.1908 47.9172 32.1908 49.5952C32.1903 51.2737 30.8162 52.6385 29.1269 52.6385Z" fill="#D9D9DE"/>
</svg>
