<svg width="16" height="17" viewBox="0 0 16 17" fill="none" xmlns="http://www.w3.org/2000/svg">
<path d="M6.4395 13.4865C7.8696 13.4865 9.2588 13.0094 10.387 12.1306L14.6436 16.3871C14.9615 16.6942 15.4682 16.6854 15.7753 16.3674C16.0749 16.0573 16.0749 15.5655 15.7753 15.2554L11.5188 10.9989C13.6994 8.19185 13.1916 4.14858 10.3846 1.96798C7.57756 -0.212627 3.53433 0.295161 1.35372 3.10219C-0.826884 5.90922 -0.319097 9.95248 2.48793 12.1331C3.61801 13.011 5.00846 13.4872 6.4395 13.4865ZM3.01943 3.63123C4.9083 1.74232 7.97076 1.74229 9.85967 3.63116C11.7486 5.52003 11.7486 8.58249 9.85974 10.4714C7.97087 12.3603 4.90841 12.3603 3.0195 10.4715C3.01947 10.4714 3.01947 10.4714 3.01943 10.4714C1.13056 8.59629 1.11943 5.54499 2.99454 3.65612C3.00282 3.6478 3.01111 3.63951 3.01943 3.63123Z" fill="#0988D0"/>
</svg>
