<svg width="16" height="17" viewBox="0 0 16 17" fill="none" xmlns="http://www.w3.org/2000/svg">
<g clip-path="url(#clip0_1688_12351)">
<path d="M15.6211 14.5985L11.9426 10.9197C12.5676 9.92471 12.9303 8.74865 12.9303 7.48652C12.9303 3.91577 10.0356 1.02148 6.46503 1.02148C2.89442 1.02148 0 3.91577 0 7.48652C0 11.0574 2.89429 13.9514 6.46503 13.9514C7.83856 13.9514 9.1108 13.522 10.1577 12.7923L13.7924 16.4273C14.045 16.6796 14.3761 16.8053 14.7067 16.8053C15.0378 16.8053 15.3685 16.6796 15.6215 16.4273C16.1262 15.9221 16.1262 15.1036 15.6211 14.5985ZM6.46503 11.8568C4.05162 11.8568 2.09498 9.90033 2.09498 7.48679C2.09498 5.07324 4.05162 3.1166 6.46503 3.1166C8.87858 3.1166 10.8351 5.07324 10.8351 7.48679C10.8351 9.90033 8.87858 11.8568 6.46503 11.8568Z" fill="#5D60F4"/>
</g>
<defs>
<clipPath id="clip0_1688_12351">
<rect width="16" height="16" fill="white" transform="translate(0 0.914062)"/>
</clipPath>
</defs>
</svg>
