<svg width="159" height="159" viewBox="0 0 159 159" fill="none" xmlns="http://www.w3.org/2000/svg">
<path fill-rule="evenodd" clip-rule="evenodd" d="M79.7402 148.505L22.4601 130.314C36.5045 146.092 56.9622 156.024 79.7402 156.024C102.518 156.024 122.976 146.092 137.02 130.314L79.7402 148.505ZM140.121 126.603C140.416 126.227 140.707 125.848 140.995 125.465C150.668 112.635 156.401 96.6722 156.401 79.363C156.401 37.0243 122.079 2.70195 79.7402 2.70195C37.4015 2.70195 3.07915 37.0243 3.07915 79.363C3.07915 96.6722 8.81263 112.635 18.4852 125.465C18.7732 125.848 19.0647 126.227 19.3596 126.603L79.7402 145.778L140.121 126.603ZM143.07 127.03C142.61 127.64 142.142 128.243 141.665 128.839C127.141 146.994 104.798 158.623 79.7402 158.623C54.6821 158.623 32.3399 146.994 17.8156 128.839C17.3386 128.243 16.87 127.64 16.4101 127.03C6.4095 113.764 0.480469 97.2559 0.480469 79.363C0.480469 35.5891 35.9663 0.103271 79.7402 0.103271C123.514 0.103271 159 35.5891 159 79.363C159 97.2559 153.071 113.764 143.07 127.03Z" fill="white"/>
<path d="M79.7402 156.024C56.9622 156.024 36.5045 146.092 22.4601 130.314L79.7402 148.505L137.02 130.314C122.976 146.092 102.518 156.024 79.7402 156.024Z" fill="white"/>
<path fill-rule="evenodd" clip-rule="evenodd" d="M79.7409 138.034L31.1353 122.598C43.0528 135.987 60.4123 144.415 79.7409 144.415C99.0694 144.415 116.429 135.987 128.346 122.598L79.7409 138.034ZM130.977 119.449C131.228 119.13 131.475 118.808 131.719 118.484C139.927 107.596 144.792 94.051 144.792 79.3632C144.792 43.4363 115.668 14.3118 79.7409 14.3118C43.814 14.3118 14.6895 43.4363 14.6895 79.3632C14.6895 94.051 19.5547 107.596 27.7624 118.484C28.0068 118.808 28.2541 119.13 28.5044 119.449L79.7409 135.72L130.977 119.449ZM133.48 119.811C133.09 120.329 132.692 120.841 132.287 121.347C119.963 136.752 101.004 146.62 79.7409 146.62C58.4776 146.62 39.519 136.752 27.1942 121.347C26.7895 120.841 26.3919 120.329 26.0016 119.811C17.5155 108.554 12.4844 94.5463 12.4844 79.3632C12.4844 42.2184 42.5961 12.1067 79.7409 12.1067C116.886 12.1067 146.997 42.2184 146.997 79.3632C146.997 94.5463 141.966 108.554 133.48 119.811Z" fill="white"/>
<path d="M79.7409 144.415C60.4123 144.415 43.0528 135.987 31.1353 122.598L79.7409 138.034L128.346 122.598C116.429 135.987 99.0694 144.415 79.7409 144.415Z" fill="white"/>
<path fill-rule="evenodd" clip-rule="evenodd" d="M79.7421 129.848L37.9179 116.566C48.1727 128.087 63.1102 135.339 79.7421 135.339C96.3739 135.339 111.311 128.087 121.566 116.566L79.7421 129.848ZM123.83 113.856C124.045 113.582 124.258 113.305 124.469 113.026C131.531 103.657 135.717 92.0018 135.717 79.3631C135.717 48.4488 110.656 23.3877 79.7421 23.3877C48.8277 23.3877 23.7666 48.4488 23.7666 79.3631C23.7666 92.0018 27.953 103.657 35.0156 113.026C35.2259 113.305 35.4387 113.582 35.6541 113.856L79.7421 127.857L123.83 113.856ZM125.984 114.168C125.648 114.613 125.306 115.054 124.957 115.489C114.352 128.745 98.0387 137.236 79.7421 137.236C61.4454 137.236 45.1319 128.745 34.5267 115.489C34.1784 115.054 33.8363 114.613 33.5004 114.168C26.1983 104.482 21.8691 92.4279 21.8691 79.3631C21.8691 47.4008 47.7797 21.4902 79.7421 21.4902C111.704 21.4902 137.615 47.4008 137.615 79.3631C137.615 92.4279 133.286 104.482 125.984 114.168Z" fill="white"/>
<path d="M79.7421 135.339C63.1102 135.339 48.1727 128.087 37.9179 116.566L79.7421 129.848L121.566 116.566C111.311 128.087 96.3739 135.339 79.7421 135.339Z" fill="white"/>
</svg>
