<svg width="159" height="159" viewBox="0 0 159 159" fill="none" xmlns="http://www.w3.org/2000/svg">
<path fill-rule="evenodd" clip-rule="evenodd" d="M79.7402 148.505L22.4601 130.314C36.5045 146.092 56.9622 156.024 79.7402 156.024C102.518 156.024 122.976 146.092 137.02 130.314L79.7402 148.505ZM140.121 126.603C140.416 126.227 140.707 125.848 140.995 125.465C150.668 112.635 156.401 96.6722 156.401 79.363C156.401 37.0243 122.079 2.70195 79.7402 2.70195C37.4015 2.70195 3.07915 37.0243 3.07915 79.363C3.07915 96.6722 8.81263 112.635 18.4852 125.465C18.7732 125.848 19.0647 126.227 19.3596 126.603L79.7402 145.778L140.121 126.603ZM143.07 127.03C142.61 127.64 142.142 128.243 141.665 128.839C127.141 146.994 104.798 158.623 79.7402 158.623C54.6821 158.623 32.3399 146.994 17.8156 128.839C17.3386 128.243 16.87 127.64 16.4101 127.03C6.4095 113.764 0.480469 97.2559 0.480469 79.363C0.480469 35.5891 35.9663 0.103271 79.7402 0.103271C123.514 0.103271 159 35.5891 159 79.363C159 97.2559 153.071 113.764 143.07 127.03Z" fill="white"/>
<path d="M79.7402 156.024C56.9622 156.024 36.5045 146.092 22.4601 130.314L79.7402 148.505L137.02 130.314C122.976 146.092 102.518 156.024 79.7402 156.024Z" fill="white"/>
</svg>
