<svg width="208" height="209" viewBox="0 0 208 209" fill="none" xmlns="http://www.w3.org/2000/svg">
<path d="M0 94.5864L118.857 114.396H0V94.5864Z" fill="white"/>
<path d="M0 114.396H208" stroke="white" stroke-width="3"/>
<path d="M37.4676 23.9492L107.505 122.001L23.4602 37.9567L37.4676 23.9492Z" fill="white"/>
<path d="M23.4589 37.9561L170.537 185.034" stroke="white" stroke-width="3"/>
<path d="M113.904 0.491211L94.0948 119.348L94.0948 0.49121L113.904 0.491211Z" fill="white"/>
<path d="M94.0952 0.491211L94.0952 208.491" stroke="white" stroke-width="3"/>
<path d="M184.543 37.9556L86.4908 107.993L170.536 23.9481L184.543 37.9556Z" fill="white"/>
<path d="M170.536 23.9482L23.4573 171.026" stroke="white" stroke-width="3"/>
<path d="M201.896 140.976L92.2164 91.0786L207.024 121.841L201.896 140.976Z" fill="white"/>
<path d="M207.023 121.841L6.11049 68.0069" stroke="white" stroke-width="3"/>
<path d="M121.353 207.511L109.726 87.5765L140.488 202.384L121.353 207.511Z" fill="white"/>
<path d="M140.488 202.384L86.6532 1.47121" stroke="white" stroke-width="3"/>
<path d="M43.4259 189.605L120.01 96.5769L60.5815 199.51L43.4259 189.605Z" fill="white"/>
<path d="M60.5807 199.51L164.581 19.3765" stroke="white" stroke-width="3"/>
</svg>
