<svg width="24" height="25" viewBox="0 0 24 25" fill="none" xmlns="http://www.w3.org/2000/svg">
<path d="M21.8906 3.58984H2.10938C0.948656 3.58984 0 4.53433 0 5.69922V18.3555C0 19.5208 0.949266 20.4648 2.10938 20.4648H21.8906C23.0513 20.4648 24 19.5204 24 18.3555V5.69922C24 4.53405 23.0509 3.58984 21.8906 3.58984ZM21.5667 4.99609C20.8847 5.68033 12.874 13.7172 12.5449 14.0474C12.27 14.3231 11.7301 14.3233 11.4551 14.0474L2.43328 4.99609H21.5667ZM1.40625 18.097V5.95773L7.45617 12.0273L1.40625 18.097ZM2.43328 19.0586L8.44894 13.0233L10.4592 15.0401C11.283 15.8666 12.7174 15.8663 13.5409 15.0401L15.5511 13.0234L21.5667 19.0586H2.43328ZM22.5938 18.097L16.5438 12.0273L22.5938 5.95773V18.097Z" fill="#5D60F4"/>
</svg>
