<svg width="32" height="33" viewBox="0 0 32 33" fill="none" xmlns="http://www.w3.org/2000/svg">
<path d="M30.035 23.1C29.953 23.035 24 18.744 22.366 19.052C21.586 19.19 21.14 19.722 20.245 20.787C20.101 20.959 19.755 21.371 19.486 21.664C18.9204 21.4795 18.3687 21.255 17.835 20.992C15.0805 19.651 12.855 17.4255 11.514 14.671C11.2509 14.1374 11.0263 13.5857 10.842 13.02C11.136 12.75 11.548 12.404 11.724 12.256C12.784 11.366 13.317 10.92 13.455 10.138C13.738 8.518 9.45 2.524 9.405 2.47C9.21045 2.19207 8.95655 1.96086 8.66167 1.7931C8.3668 1.62534 8.03832 1.52523 7.7 1.5C5.962 1.5 1 7.937 1 9.021C1 9.084 1.091 15.488 8.988 23.521C17.013 31.409 23.416 31.5 23.479 31.5C24.564 31.5 31 26.538 31 24.8C30.975 24.4629 30.8755 24.1355 30.7087 23.8415C30.5418 23.5475 30.3117 23.2942 30.035 23.1Z" fill="#0030D9"/>
</svg>
