<svg width="16" height="17" viewBox="0 0 16 17" fill="none" xmlns="http://www.w3.org/2000/svg">
<path d="M7.99969 7.74602L14.3064 4.04602C14.1248 3.77739 13.8807 3.55692 13.595 3.40362C13.3093 3.25032 12.9906 3.16878 12.6664 3.16602H3.33302C3.00714 3.16587 2.68616 3.24536 2.39801 3.39757C2.10986 3.54978 1.86327 3.7701 1.67969 4.03935L7.99969 7.74602Z" fill="#5D60F4"/>
<path d="M8.66732 8.89339C8.46476 9.01089 8.23482 9.07297 8.00065 9.07339C7.76708 9.075 7.53719 9.01523 7.33398 8.90005L1.33398 5.38672V11.8334C1.33398 12.3638 1.5447 12.8725 1.91977 13.2476C2.29484 13.6227 2.80355 13.8334 3.33398 13.8334H12.6673C13.1978 13.8334 13.7065 13.6227 14.0815 13.2476C14.4566 12.8725 14.6673 12.3638 14.6673 11.8334V5.38672L8.66732 8.89339Z" fill="#5D60F4"/>
</svg>
