<svg width="247" height="73" viewBox="0 0 247 73" fill="none" xmlns="http://www.w3.org/2000/svg">
<path d="M105.287 6.72702C105.287 10.4357 102.613 13.3203 98.9119 13.3203C96.8555 13.3203 95.2104 12.7021 93.9766 11.4659L94.7991 10.4357C95.8273 11.4659 97.2668 12.084 98.7063 12.084C101.38 12.084 103.642 10.0236 103.847 7.1391H97.2668V6.1089H103.847C103.642 3.4304 101.38 1.37002 98.7063 1.37002C97.0612 1.37002 95.8273 1.7821 94.7991 3.01833L93.9766 2.19417C95.0048 0.751904 96.8555 0.133789 98.7063 0.133789C102.408 0.133789 105.287 3.01833 105.287 6.72702Z" fill="#2E2E40"/>
<path d="M114.742 4.66689H111.041V13.3205H109.807V4.66689H106.105V3.43066H114.742V4.66689Z" fill="#2E2E40"/>
<path d="M116.598 3.43066H117.831V11.2601L124.412 3.43066H125.646V13.1145H124.412V5.49105L118.037 13.3205H116.803V3.43066H116.598Z" fill="#2E2E40"/>
<path d="M132.844 8.78766H130.581V13.1145H129.348V3.43066H130.581V7.75747H132.844L136.339 3.43066H137.779L133.872 8.16955L137.985 13.1145H136.339L132.844 8.78766Z" fill="#2E2E40"/>
<path d="M147.235 7.13906V13.1142H146.001V11.6719C145.384 12.7021 144.356 13.3202 142.711 13.3202C140.449 13.3202 139.215 12.084 139.215 10.4357C139.215 8.99341 140.243 7.75718 142.916 7.75718H146.001V7.13906C146.001 5.49076 144.973 4.6666 143.328 4.6666C142.094 4.6666 140.86 5.07868 140.037 5.90283L139.42 4.87264C140.449 4.04849 141.888 3.63641 143.328 3.63641C145.795 3.43037 147.235 4.6666 147.235 7.13906ZM145.795 10.2296V8.78737H142.711C140.86 8.78737 140.243 9.61153 140.243 10.4357C140.243 11.4659 141.066 12.29 142.711 12.29C144.15 12.29 145.384 11.4659 145.795 10.2296Z" fill="#2E2E40"/>
<path d="M95.418 19.0889H96.8574V29.8029L105.083 19.0889H106.317V32.0693H104.877V21.3553L96.6518 32.0693H95.418V19.0889Z" fill="#2E2E40"/>
<path d="M109.398 27.1246C109.398 24.2401 111.455 22.1797 114.334 22.1797C115.979 22.1797 117.418 22.7978 118.241 24.034L117.213 24.8582C116.596 23.828 115.568 23.4159 114.334 23.4159C112.277 23.4159 110.632 24.8582 110.632 27.1246C110.632 29.391 112.277 30.8333 114.334 30.8333C115.362 30.8333 116.596 30.4212 117.213 29.391L118.241 30.0091C117.418 31.2454 115.979 31.8635 114.334 31.8635C111.455 32.0695 109.398 30.0091 109.398 27.1246Z" fill="#2E2E40"/>
<path d="M124.203 27.7427H121.941V32.0695H120.707V22.3857H121.941V26.7125H124.203L127.699 22.3857H129.138L125.231 26.9186L129.344 31.8635H127.699L124.203 27.7427Z" fill="#2E2E40"/>
<path d="M139.221 22.1797L134.285 33.0997C133.463 34.9541 132.435 35.5722 130.995 35.5722C130.172 35.5722 129.144 35.3661 128.527 34.748L129.144 33.7178C129.556 34.1299 130.172 34.542 130.995 34.542C131.818 34.542 132.434 34.1299 133.051 32.8937L133.463 31.8635L129.144 22.1797H130.584L134.285 30.4212L137.987 22.1797H139.221Z" fill="#2E2E40"/>
<path d="M140.039 27.1246C140.039 24.2401 142.095 22.1797 144.974 22.1797C146.62 22.1797 148.059 22.7978 148.882 24.034L147.853 24.8582C147.236 23.828 146.208 23.4159 144.974 23.4159C142.918 23.4159 141.273 24.8582 141.273 27.1246C141.273 29.391 142.918 30.8333 144.974 30.8333C146.003 30.8333 147.236 30.4212 147.853 29.391L148.882 30.0091C148.059 31.2454 146.62 31.8635 144.974 31.8635C142.095 32.0695 140.039 30.0091 140.039 27.1246Z" fill="#2E2E40"/>
<path d="M150.32 27.1246C150.32 24.2401 152.377 22.1797 155.256 22.1797C156.901 22.1797 158.34 22.7978 159.163 24.034L158.135 24.8582C157.518 23.828 156.49 23.4159 155.256 23.4159C153.199 23.4159 151.554 24.8582 151.554 27.1246C151.554 29.391 153.199 30.8333 155.256 30.8333C156.284 30.8333 157.518 30.4212 158.135 29.391L159.163 30.0091C158.34 31.2454 156.901 31.8635 155.256 31.8635C152.377 32.0695 150.32 30.0091 150.32 27.1246Z" fill="#2E2E40"/>
<path d="M168.211 23.4159H164.51V32.0695H163.276V23.4159H159.574V22.1797H168.211V23.4159Z" fill="#2E2E40"/>
<path d="M178.289 29.391C178.289 31.0394 177.056 32.0695 174.588 32.0695H170.27V22.3857H174.588C176.85 22.3857 178.084 23.2099 178.084 24.8582C178.084 25.8884 177.467 26.7126 176.439 27.1246C177.673 27.3307 178.289 28.1548 178.289 29.391ZM171.503 26.5065H174.382C175.822 26.5065 176.644 25.8884 176.644 24.8582C176.644 23.828 175.822 23.2099 174.382 23.2099H171.503V26.5065ZM177.056 29.185C177.056 27.9488 176.233 27.5367 174.588 27.5367H171.298V31.0394H174.382C176.233 31.0394 177.056 30.4212 177.056 29.185Z" fill="#2E2E40"/>
<path d="M189.803 27.5367H181.578C181.783 29.5971 183.223 30.8333 185.485 30.8333C186.719 30.8333 187.747 30.4212 188.364 29.5971L189.186 30.4212C188.364 31.4514 186.924 32.0695 185.485 32.0695C182.4 32.0695 180.344 30.0092 180.344 27.1246C180.344 24.2401 182.4 22.1797 185.073 22.1797C187.747 22.1797 189.803 24.2401 189.803 27.1246C189.803 27.3307 189.803 27.3307 189.803 27.5367ZM181.783 26.5065H188.775C188.569 24.6522 187.13 23.2099 185.279 23.2099C183.223 23.4159 181.989 24.6522 181.783 26.5065Z" fill="#2E2E40"/>
<path d="M192.891 22.1797H194.124V26.5065H200.294V22.1797H201.528V31.8635H200.294V27.5367H194.124V31.8635H192.891V22.1797Z" fill="#2E2E40"/>
<path d="M205.23 22.1797H206.464V26.5065H212.634V22.1797H213.867V31.8635H212.634V27.5367H206.464V31.8635H205.23V22.1797Z" fill="#2E2E40"/>
<path d="M216.742 27.1246C216.742 24.2401 218.799 22.1797 221.678 22.1797C224.557 22.1797 226.613 24.2401 226.613 27.1246C226.613 30.0092 224.557 32.0695 221.678 32.0695C219.004 32.0695 216.742 30.0092 216.742 27.1246ZM225.379 27.1246C225.379 24.8582 223.94 23.4159 221.678 23.4159C219.621 23.4159 217.976 24.8582 217.976 27.1246C217.976 29.391 219.621 30.8333 221.678 30.8333C223.734 30.8333 225.379 29.391 225.379 27.1246Z" fill="#2E2E40"/>
<path d="M236.278 23.4159H230.726V32.0695H229.492V22.3857H236.278V23.4159Z" fill="#2E2E40"/>
<path d="M236.898 27.1246C236.898 24.2401 238.955 22.1797 241.834 22.1797C244.713 22.1797 246.769 24.2401 246.769 27.1246C246.769 30.0092 244.713 32.0695 241.834 32.0695C238.955 32.0695 236.898 30.0092 236.898 27.1246ZM245.535 27.1246C245.535 24.8582 244.096 23.4159 241.834 23.4159C239.572 23.4159 238.132 24.8582 238.132 27.1246C238.132 29.391 239.777 30.8333 241.834 30.8333C243.89 30.8333 245.535 29.391 245.535 27.1246Z" fill="#2E2E40"/>
<path d="M95.2109 41.1357H96.4448V48.9652L103.025 41.1357H104.259V50.8196H102.82V42.9901L96.4448 50.8196H95.2109V41.1357Z" fill="#2E2E40"/>
<path d="M107.754 41.1357H108.988V45.4626H115.157V41.1357H116.391V50.8196H115.157V46.4927H108.988V50.8196H107.754V41.1357Z" fill="#2E2E40"/>
<path d="M127.082 42.1659H123.381V50.8195H122.147V42.1659H118.445V40.9297H127.082V42.1659Z" fill="#2E2E40"/>
<path d="M137.159 46.2867H128.933C129.139 48.3471 130.578 49.5833 132.84 49.5833C134.074 49.5833 135.102 49.1712 135.719 48.3471L136.542 49.1712C135.719 50.2014 134.28 50.8195 132.84 50.8195C129.756 50.8195 127.699 48.7592 127.699 45.8746C127.699 42.9901 129.756 40.9297 132.429 40.9297C135.102 40.9297 137.159 42.9901 137.159 45.8746C137.159 46.0807 137.159 46.2867 137.159 46.2867ZM128.933 45.4625H135.925C135.719 43.6082 134.28 42.1659 132.429 42.1659C130.578 42.1659 129.139 43.4022 128.933 45.4625Z" fill="#2E2E40"/>
<path d="M147.855 41.1357V50.8196H146.621V42.1659H141.892L141.686 44.6384C141.48 48.1411 141.069 51.0256 139.013 51.0256C138.807 51.0256 138.396 51.0256 137.984 50.8196V49.7894C138.19 49.7894 138.396 49.7894 138.396 49.7894C140.041 49.7894 140.246 47.1109 140.246 44.6384L140.452 41.1357H147.855Z" fill="#2E2E40"/>
<path d="M159.371 41.1357V50.8196H158.137V42.1659H153.407L153.202 44.6384C152.996 48.1411 152.585 51.0256 150.528 51.0256C150.323 51.0256 149.911 51.0256 149.5 50.8196V49.7894C149.706 49.7894 149.911 49.7894 149.911 49.7894C151.556 49.7894 151.762 47.1109 151.762 44.6384L151.968 41.1357H159.371Z" fill="#2E2E40"/>
<path d="M171.709 46.2867H163.484C163.689 48.3471 165.129 49.5833 167.391 49.5833C168.625 49.5833 169.653 49.1712 170.27 48.3471L171.093 49.1712C170.27 50.2014 168.83 50.8195 167.391 50.8195C164.306 50.8195 162.25 48.7592 162.25 45.8746C162.25 42.9901 164.306 40.9297 166.98 40.9297C169.653 40.9297 171.709 42.9901 171.709 45.8746C171.709 46.0807 171.709 46.2867 171.709 46.2867ZM163.484 45.4625H170.476C170.27 43.6082 168.83 42.1659 166.98 42.1659C165.129 42.1659 163.689 43.4022 163.484 45.4625Z" fill="#2E2E40"/>
<path d="M178.082 46.4927H175.82V50.8196H174.586V41.1357H175.82V45.4626H178.082L181.578 41.1357H183.017L179.11 45.8746L183.223 50.8196H181.578L178.082 46.4927Z" fill="#2E2E40"/>
<path d="M191.86 42.1659H188.158V50.8195H186.924V42.1659H183.223V40.9297H191.86V42.1659Z" fill="#2E2E40"/>
<path d="M201.114 44.845V50.8201H199.88V49.3779C199.263 50.4081 198.235 51.0262 196.59 51.0262C194.328 51.0262 193.094 49.79 193.094 48.1416C193.094 46.6994 194.122 45.4631 196.795 45.4631H199.88V44.845C199.88 43.1967 198.852 42.3726 197.207 42.3726C195.973 42.3726 194.739 42.7846 193.916 43.6088L193.299 42.3726C194.328 41.5484 195.767 41.1363 197.207 41.1363C199.674 40.9303 201.114 42.1665 201.114 44.845ZM199.88 47.9356V46.2873H196.795C194.945 46.2873 194.328 47.1115 194.328 47.9356C194.328 48.9658 195.15 49.79 196.795 49.79C198.235 49.79 199.263 49.1718 199.88 47.9356Z" fill="#2E2E40"/>
<path d="M203.789 41.9599C203.789 41.3418 204.2 40.9297 204.817 40.9297C205.434 40.9297 205.845 41.3418 205.845 41.9599C205.845 42.578 205.434 42.9901 204.817 42.9901C204.2 42.9901 203.789 42.578 203.789 41.9599ZM203.789 49.7893C203.789 49.1712 204.2 48.7592 204.817 48.7592C205.434 48.7592 205.845 49.1712 205.845 49.7893C205.845 50.4075 205.434 50.8195 204.817 50.8195C204.2 50.8195 203.789 50.4075 203.789 49.7893Z" fill="#2E2E40"/>
<path d="M15.6301 29.8027H12.3398V40.1047H15.6301V29.8027Z" fill="#2E2E40"/>
<path d="M9.04816 34.9537L0 29.8027V40.1047L9.04816 34.9537Z" fill="#2E2E40"/>
<path d="M24.2649 33.9229V35.5712L19.5352 34.747L24.2649 33.9229Z" fill="#2E2E40"/>
<path d="M77.528 45.2552L73.0039 44.4311V25.4755L77.7336 24.6514L77.528 45.2552Z" fill="#2E2E40"/>
<path d="M69.711 43.8131L63.9531 42.7829V27.1239L69.711 26.0938V43.8131Z" fill="#2E2E40"/>
<path d="M60.4585 42.1639L54.9062 41.1337V28.5653L60.4585 27.5352V42.1639Z" fill="#2E2E40"/>
<path d="M51.4077 40.5167L45.8555 39.4865V30.2148L51.4077 29.1846V40.5167Z" fill="#2E2E40"/>
<path d="M42.3595 38.8675L36.6016 37.8373V31.6562L42.3595 30.832V38.8675Z" fill="#2E2E40"/>
<path d="M33.3126 37.2203L27.5547 36.1901V33.3056L33.3126 32.2754V37.2203Z" fill="#2E2E40"/>
<path d="M73.0039 15.9998V4.04959L77.9393 1.37109V14.3515L73.0039 15.9998Z" fill="#2E2E40"/>
<path d="M63.9531 19.0908V9.20091L69.711 5.9043V17.2364L63.9531 19.0908Z" fill="#2E2E40"/>
<path d="M54.9062 22.3868V14.3513L60.6642 11.2607V20.3264L54.9062 22.3868Z" fill="#2E2E40"/>
<path d="M45.8555 25.4778V19.7087L51.6134 16.4121V23.4174L45.8555 25.4778Z" fill="#2E2E40"/>
<path d="M36.8086 28.5688V24.8601L42.5665 21.5635V26.7144L36.8086 28.5688Z" fill="#2E2E40"/>
<path d="M27.7578 31.8648V30.0105L33.3101 26.7139V29.8044L27.7578 31.8648Z" fill="#2E2E40"/>
<path d="M19.5352 34.5428L24.2649 31.8643V32.8945L19.5352 34.5428Z" fill="#2E2E40"/>
<path d="M77.7336 55.7635L77.528 68.744L73.0039 66.0655V54.1152L77.7336 55.7635Z" fill="#2E2E40"/>
<path d="M69.711 52.8797V64.2118L63.9531 60.9152V50.8193L69.711 52.8797Z" fill="#2E2E40"/>
<path d="M60.6642 49.5828V58.8546L54.9062 55.558V47.5225L60.6642 49.5828Z" fill="#2E2E40"/>
<path d="M51.6134 46.2869V53.4983L45.8555 50.2017V44.2266L51.6134 46.2869Z" fill="#2E2E40"/>
<path d="M42.5665 42.9891V48.1401L36.8086 44.8434V40.9287L42.5665 42.9891Z" fill="#2E2E40"/>
<path d="M33.3101 39.6922V42.9888L27.7578 39.4862V37.6318L33.3101 39.6922Z" fill="#2E2E40"/>
<path d="M19.5352 34.748L24.2649 36.6024V37.6326L19.5352 34.748Z" fill="#2E2E40"/>
<path d="M94.5898 63.1816H95.618V66.2722H100.142V63.1816H101.17V70.1869H100.142V67.0964H95.618V70.1869H94.5898V63.1816Z" fill="#2E2E40"/>
<path d="M108.987 65.8591V70.1859H108.164V69.1558C107.753 69.9799 106.931 70.392 105.697 70.392C104.052 70.392 103.023 69.5678 103.023 68.3316C103.023 67.3014 103.64 66.2712 105.697 66.2712H107.959V65.8591C107.959 64.6229 107.342 64.0048 105.902 64.0048C105.08 64.0048 104.052 64.4169 103.435 64.829L103.229 64.0048C103.846 63.3867 105.08 62.9746 106.108 62.9746C107.959 62.9746 108.987 64.0048 108.987 65.8591ZM108.164 68.1256V66.8893H105.902C104.463 66.8893 104.052 67.5074 104.052 68.1256C104.052 68.9497 104.669 69.5678 105.902 69.5678C106.931 69.5678 107.753 68.9497 108.164 68.1256Z" fill="#2E2E40"/>
<path d="M117.005 63.1816V70.1869H115.977V67.3024C115.154 67.7145 114.332 67.9205 113.509 67.9205C111.864 67.9205 110.836 67.0964 110.836 65.6541V63.3877H111.864V65.6541C111.864 66.6843 112.687 67.3024 113.715 67.3024C114.332 67.3024 115.154 67.0964 115.977 66.6843V63.3877H117.005V63.1816Z" fill="#2E2E40"/>
<path d="M125.022 65.8591V70.1859H124.2V69.1558C123.788 69.9799 122.966 70.392 121.732 70.392C120.087 70.392 119.059 69.5678 119.059 68.3316C119.059 67.3014 119.676 66.2712 121.732 66.2712H123.994V65.8591C123.994 64.6229 123.377 64.0048 121.938 64.0048C121.115 64.0048 120.087 64.4169 119.47 64.829L119.264 64.0048C119.881 63.3867 121.115 62.9746 122.143 62.9746C123.994 62.9746 125.022 64.0048 125.022 65.8591ZM123.994 68.1256V66.8893H121.732C120.292 66.8893 119.881 67.5074 119.881 68.1256C119.881 68.9497 120.498 69.5678 121.732 69.5678C122.966 69.5678 123.788 68.9497 123.994 68.1256Z" fill="#2E2E40"/>
<path d="M133.455 63.1816V70.1869H132.427V64.0058H128.931V65.8601C128.725 68.3326 128.52 70.393 126.875 70.393C126.669 70.393 126.463 70.393 126.258 70.1869V69.3628C126.463 69.3628 126.463 69.3628 126.669 69.3628C127.903 69.3628 127.903 67.5084 128.109 65.6541L128.314 63.1816H133.455Z" fill="#2E2E40"/>
<path d="M135.512 66.6833C135.512 64.6229 136.951 62.9746 139.213 62.9746C141.475 62.9746 142.915 64.4169 142.915 66.6833C142.915 68.7437 141.475 70.392 139.213 70.392C136.951 70.392 135.512 68.7437 135.512 66.6833ZM141.681 66.6833C141.681 65.035 140.653 64.0048 139.008 64.0048C137.568 64.0048 136.334 65.035 136.334 66.6833C136.334 68.3316 137.568 69.3618 139.008 69.3618C140.653 69.5678 141.681 68.3316 141.681 66.6833Z" fill="#2E2E40"/>
<path d="M155.253 69.3618V71.8343H154.225V70.186H147.85V71.8343H147.027V69.3618H147.439C148.467 69.3618 148.672 67.3014 148.672 65.4471V62.9746H154.019V69.3618H155.253ZM148.672 69.3618H153.197V64.0048H149.701V65.6531C149.495 67.0954 149.495 68.9497 148.672 69.3618Z" fill="#2E2E40"/>
<path d="M156.488 66.6833C156.488 64.6229 157.928 62.9746 160.19 62.9746C162.452 62.9746 163.891 64.4169 163.891 66.6833C163.891 68.7437 162.452 70.392 160.19 70.392C157.928 70.392 156.488 68.7437 156.488 66.6833ZM162.657 66.6833C162.657 65.035 161.629 64.0048 159.984 64.0048C158.545 64.0048 157.311 65.035 157.311 66.6833C157.311 68.3316 158.545 69.3618 159.984 69.3618C161.629 69.5678 162.657 68.3316 162.657 66.6833Z" fill="#2E2E40"/>
<path d="M171.706 68.3316C171.706 69.5678 170.883 70.1859 169.032 70.1859H165.742V62.9746H168.827C170.472 62.9746 171.5 63.5927 171.5 64.829C171.5 65.6531 171.089 66.2712 170.266 66.4773C171.294 66.8893 171.706 67.3014 171.706 68.3316ZM166.565 66.2712H168.621C169.649 66.2712 170.266 65.8591 170.266 65.035C170.266 64.2108 169.649 63.7988 168.621 63.7988H166.565V66.2712ZM170.678 68.3316C170.678 67.5074 170.061 67.0954 169.032 67.0954H166.565V69.5678H168.827C170.061 69.5678 170.678 69.1558 170.678 68.3316Z" fill="#2E2E40"/>
<path d="M180.135 66.8903H174.172C174.377 68.3326 175.405 69.3628 177.051 69.3628C177.873 69.3628 178.696 68.9507 179.313 68.3326L179.93 68.9507C179.313 69.7748 178.284 70.1869 177.256 70.1869C174.994 70.1869 173.555 68.7446 173.555 66.4782C173.555 64.4178 174.994 62.7695 177.051 62.7695C179.107 62.7695 180.546 64.2118 180.546 66.4782C180.135 66.6843 180.135 66.8903 180.135 66.8903ZM174.172 66.2722H179.313C179.107 64.8299 178.079 63.7997 176.845 63.7997C175.405 63.7997 174.377 64.8299 174.172 66.2722Z" fill="#2E2E40"/>
<path d="M189.389 66.6841C189.389 68.9506 187.949 70.3928 185.893 70.3928C184.659 70.3928 183.837 69.9808 183.22 68.9506V72.8653H182.191V63.1815H183.014V64.6238C183.631 63.5936 184.659 63.1815 185.687 63.1815C187.949 62.9754 189.389 64.6238 189.389 66.6841ZM188.566 66.6841C188.566 65.0358 187.332 64.0056 185.893 64.0056C184.453 64.0056 183.22 65.0358 183.22 66.6841C183.22 68.3324 184.453 69.3626 185.893 69.3626C187.332 69.5687 188.566 68.3324 188.566 66.6841Z" fill="#2E2E40"/>
<path d="M191.445 63.1816H192.474V68.7447L197.203 63.1816H198.026V70.1869H196.998V64.6239L192.474 70.1869H191.651V63.1816H191.445Z" fill="#2E2E40"/>
<path d="M206.253 63.1806V70.1859H205.43V67.9195H203.168H202.962L201.317 70.1859H200.289L202.14 67.7135C201.112 67.5075 200.495 66.6833 200.495 65.4471C200.495 63.7988 201.729 62.9746 203.579 62.9746H206.253V63.1806ZM203.374 67.0954H205.43V64.0048H203.374C202.14 64.0048 201.317 64.4169 201.317 65.6531C201.317 66.6833 201.934 67.0954 203.374 67.0954Z" fill="#2E2E40"/>
</svg>
