<svg width="48" height="57" viewBox="0 0 48 57" fill="none" xmlns="http://www.w3.org/2000/svg">
<path d="M29.6554 45.2962C29.3554 45.2962 29.1554 44.9962 29.1554 44.7962C29.3554 41.1962 31.0554 37.6962 33.7555 35.0962C36.5555 32.3962 38.0555 28.7962 38.0555 24.9961C38.0555 21.0961 36.4555 17.3961 33.5555 14.6961C30.6554 11.996 26.9554 10.696 22.9554 10.996C15.8553 11.496 10.2553 17.1961 9.95531 24.2961C9.75531 28.3961 11.3553 32.3962 14.3553 35.1962C17.0553 37.7962 18.6554 41.0962 18.8554 44.6963C18.8554 44.9963 18.6554 45.1963 18.3554 45.1963C18.0554 45.1963 17.8554 44.9963 17.8554 44.6963C17.6554 41.3962 16.1553 38.2962 13.6553 35.8962C10.4553 32.8962 8.7553 28.5961 8.9553 24.1961C9.3553 16.5961 15.3553 10.496 22.9554 9.99602C27.1554 9.69602 31.1554 11.096 34.2555 13.996C37.2555 16.7961 39.0555 20.7961 39.0555 24.9961C39.0555 29.0962 37.4555 32.9962 34.4555 35.7962C31.8554 38.2962 30.3554 41.4962 30.1554 44.8962C30.1554 45.0962 29.9554 45.2962 29.6554 45.2962Z" fill="#A9C9FF"/>
<path d="M5.36214 25.1962H0.662113C0.362111 25.1962 0.162109 24.9962 0.162109 24.6962C0.162109 24.3962 0.362111 24.1962 0.662113 24.1962H5.36214C5.66214 24.1962 5.86214 24.3962 5.86214 24.6962C5.86214 24.8962 5.56214 25.1962 5.36214 25.1962Z" fill="#A9C9FF"/>
<path d="M47.1629 25.1962H42.4629C42.1629 25.1962 41.9629 24.9962 41.9629 24.6962C41.9629 24.3962 42.1629 24.1962 42.4629 24.1962H47.1629C47.4629 24.1962 47.6629 24.3962 47.6629 24.6962C47.6629 24.8962 47.4629 25.1962 47.1629 25.1962Z" fill="#A9C9FF"/>
<path d="M24.7559 6.69633C24.4559 6.69633 24.2559 6.49633 24.2559 6.19632V1.19629C24.2559 0.89629 24.4559 0.696289 24.7559 0.696289C25.0559 0.696289 25.2559 0.89629 25.2559 1.19629V6.19632C25.2559 6.49633 25.0559 6.69633 24.7559 6.69633Z" fill="#A9C9FF"/>
<path d="M9.56369 12.6964C9.46369 12.6964 9.2637 12.6964 9.1637 12.5964L5.66367 9.09634C5.46367 8.89634 5.46367 8.59634 5.66367 8.39634C5.86367 8.19634 6.16367 8.19634 6.36367 8.39634L9.8637 11.8964C10.0637 12.0964 10.0637 12.3964 9.8637 12.5964C9.8637 12.5964 9.66369 12.6964 9.56369 12.6964Z" fill="#A9C9FF"/>
<path d="M38.257 12.6964C38.157 12.6964 37.957 12.6964 37.857 12.5964C37.657 12.3964 37.657 12.0964 37.857 11.8964L41.3571 8.39634C41.5571 8.19634 41.857 8.19634 42.057 8.39634C42.257 8.59634 42.257 8.89634 42.057 9.09634L38.557 12.5964C38.557 12.5964 38.457 12.6964 38.257 12.6964Z" fill="#A9C9FF"/>
<path d="M41.8578 39.996C41.7578 39.996 41.5578 39.996 41.4578 39.896L38.1578 36.596C37.9578 36.396 37.9578 36.096 38.1578 35.896C38.3578 35.696 38.6578 35.696 38.8578 35.896L42.1578 39.196C42.3578 39.396 42.3578 39.696 42.1578 39.896C42.0578 39.996 41.9579 39.996 41.8578 39.996Z" fill="#A9C9FF"/>
<path d="M6.06367 39.9959C5.96367 39.9959 5.76367 39.9959 5.66367 39.8959C5.46367 39.6959 5.46367 39.3959 5.66367 39.1959L8.9637 35.8959C9.1637 35.6958 9.4637 35.6958 9.6637 35.8959C9.8637 36.0959 9.8637 36.3959 9.6637 36.5959L6.36367 39.8959C6.26367 39.9959 6.16367 39.9959 6.06367 39.9959Z" fill="#A9C9FF"/>
<path d="M24.0616 56.6963C22.1616 56.6963 20.4616 55.3963 19.9616 53.4963C19.8616 53.1963 20.0616 52.9963 20.3616 52.8963C20.6616 52.7963 20.8616 52.9962 20.9616 53.2962C21.3616 54.6963 22.6616 55.6963 24.1616 55.6963C25.5616 55.6963 26.8616 54.7963 27.2616 53.3963C27.3616 53.0963 27.6616 52.9963 27.8616 53.0963C28.1616 53.1963 28.2616 53.4963 28.1616 53.6963C27.5616 55.4963 25.9616 56.6963 24.0616 56.6963Z" fill="#A9C9FF"/>
<path d="M29.0602 53.8967H19.1602C18.0602 53.8967 17.1602 52.9967 17.1602 51.8967V46.5967C17.1602 45.6967 17.9601 44.5967 18.4602 44.5967H28.3602C30.4603 44.5967 31.1602 45.6967 31.1602 46.5967V51.8967C31.0602 52.9967 30.1602 53.8967 29.0602 53.8967ZM18.5602 45.4967C18.3602 45.6967 18.1602 46.0967 18.1602 46.4967V51.7967C18.1602 52.3967 18.6602 52.7967 19.1602 52.7967H29.0602C29.6602 52.7967 30.0602 52.2967 30.0602 51.7967V46.4967C30.0602 45.5967 28.7602 45.4967 28.2602 45.4967H18.5602Z" fill="#A9C9FF"/>
<path d="M27.6575 49.5963H20.3574C20.0574 49.5963 19.8574 49.3963 19.8574 49.0963C19.8574 48.7963 20.0574 48.5963 20.3574 48.5963H27.6575C27.9575 48.5963 28.1575 48.7963 28.1575 49.0963C28.1575 49.3963 27.9575 49.5963 27.6575 49.5963Z" fill="#A9C9FF"/>
<path d="M22.5622 36.8966H20.4621C20.3621 36.8966 20.1621 36.7966 20.0621 36.6966C19.9621 36.5966 19.9621 36.3966 19.9621 36.2966L20.2622 33.7966C18.4621 33.4966 17.1621 32.3966 17.0621 30.9966C15.3621 30.4966 14.1621 28.8966 14.1621 27.0965C14.1621 25.8965 14.6621 24.8965 15.4621 24.0965C15.4621 23.8965 15.4621 23.6965 15.4621 23.4965C15.4621 21.2965 17.3621 19.3965 19.9621 19.0965C20.7621 17.9965 22.1622 17.3965 23.7622 17.3965C25.0622 17.3965 26.3622 17.8965 27.1622 18.7965C27.6622 18.5965 28.1622 18.4965 28.6622 18.4965C30.1622 18.4965 31.4622 19.2965 32.1622 20.4965C33.8622 20.9965 34.9622 22.5965 34.9622 24.2965C34.9622 25.7965 34.0622 27.1965 32.6622 27.8966C32.0622 29.8966 29.9622 31.3966 27.5622 31.3966C27.3622 31.3966 27.0622 31.3966 26.8622 31.3966C26.6622 31.4966 26.5622 31.5966 26.4622 31.6966C26.3622 31.7966 26.1622 31.8966 25.9622 31.9966C23.7622 33.6966 22.9622 36.6966 22.8622 36.6966C22.9622 36.6966 22.7622 36.8966 22.5622 36.8966ZM20.9621 35.8966H22.1622C22.4622 34.9966 23.4622 32.4966 25.4622 30.9966C25.6622 30.8966 25.7622 30.7966 25.9622 30.6966C26.2622 30.4966 26.4622 30.3966 26.6622 30.2966C26.7622 30.2966 26.8622 30.1966 26.9622 30.2966C27.1622 30.2966 27.4622 30.2966 27.6622 30.2966C29.6622 30.2966 31.4622 29.0966 31.8622 27.2965C31.8622 27.0965 31.9622 26.9965 32.1622 26.8965C33.2622 26.3965 34.0622 25.2965 34.0622 24.0965C34.0622 22.6965 33.1622 21.5965 31.7622 21.1965C31.6622 21.1965 31.4622 21.0965 31.4622 20.8965C30.9622 19.8965 29.8622 19.2965 28.7622 19.2965C28.2622 19.2965 27.7622 19.3965 27.3622 19.5965C27.1622 19.6965 26.8622 19.5965 26.7622 19.4965C26.0622 18.6965 25.0622 18.1965 23.8622 18.1965C22.5622 18.1965 21.4622 18.7965 20.7622 19.6965C20.6622 19.7965 20.5622 19.8965 20.3622 19.8965C18.2621 19.9965 16.5621 21.4965 16.5621 23.2965C16.5621 23.4965 16.5621 23.6965 16.6621 23.9965C16.6621 24.1965 16.6621 24.3965 16.4621 24.4965C15.7621 25.0965 15.2621 25.9965 15.2621 26.8965C15.2621 28.3966 16.3621 29.6966 17.7621 29.9966C18.0621 30.0966 18.1621 30.2966 18.1621 30.5966C18.1621 30.6966 18.1621 30.6966 18.1621 30.7966C18.1621 31.7966 19.3621 32.5966 20.9621 32.7966C21.0621 32.7966 21.2622 32.8966 21.3622 32.9966C21.4622 33.0966 21.4621 33.1966 21.4621 33.3966L20.9621 35.8966Z" fill="#A9C9FF"/>
</svg>
