<svg width="24" height="24" viewBox="0 0 24 24" fill="none" xmlns="http://www.w3.org/2000/svg">
<path d="M0 11.52C0 6.0894 0 3.37413 1.68707 1.68707C3.37413 0 6.0894 0 11.52 0H12.48C17.9106 0 20.6259 0 22.313 1.68707C24 3.37413 24 6.0894 24 11.52V12.48C24 17.9106 24 20.6259 22.313 22.313C20.6259 24 17.9106 24 12.48 24H11.52C6.0894 24 3.37413 24 1.68707 22.313C0 20.6259 0 17.9106 0 12.48V11.52Z" fill="white"/>
<path d="M5.24728 11.75L8.47316 12.954L9.72177 16.9695C9.80167 17.2267 10.1162 17.3218 10.3249 17.1511L12.1231 15.6852C12.3115 15.5316 12.58 15.524 12.777 15.667L16.0202 18.0216C16.2435 18.1839 16.5599 18.0616 16.6159 17.7918L18.9917 6.36351C19.0529 6.06877 18.7632 5.82288 18.4826 5.93143L5.2435 11.0387C4.91679 11.1647 4.91963 11.6272 5.24728 11.75ZM9.52055 12.3131L15.8251 8.4301C15.9384 8.36052 16.055 8.51373 15.9577 8.60398L10.7546 13.4405C10.5717 13.6108 10.4537 13.8386 10.4203 14.0859L10.2431 15.3993C10.2196 15.5747 9.97326 15.5921 9.92487 15.4224L9.24321 13.0272C9.16513 12.754 9.27891 12.4622 9.52055 12.3131Z" fill="#5D60F4"/>
</svg>
