<svg width="24" height="24" viewBox="0 0 24 24" fill="none" xmlns="http://www.w3.org/2000/svg">
<path fill-rule="evenodd" clip-rule="evenodd" d="M18 24H6C5.21204 24.0001 4.43179 23.845 3.70379 23.5435C2.9758 23.242 2.31433 22.8 1.75716 22.2428C1.19999 21.6857 0.758039 21.0242 0.456542 20.2962C0.155045 19.5682 -8.86221e-05 18.788 3.79808e-08 18V6C-8.86221e-05 5.21204 0.155045 4.43179 0.456542 3.70379C0.758039 2.9758 1.19999 2.31433 1.75716 1.75716C2.31433 1.19999 2.9758 0.758039 3.70379 0.456542C4.43179 0.155045 5.21204 -8.86221e-05 6 3.79808e-08H18C18.788 -8.86221e-05 19.5682 0.155045 20.2962 0.456542C21.0242 0.758039 21.6857 1.19999 22.2428 1.75716C22.8 2.31433 23.242 2.9758 23.5435 3.70379C23.845 4.43179 24.0001 5.21204 24 6V18C24.0001 18.788 23.845 19.5682 23.5435 20.2962C23.242 21.0242 22.8 21.6857 22.2428 22.2428C21.6857 22.8 21.0242 23.242 20.2962 23.5435C19.5682 23.845 18.788 24.0001 18 24Z" fill="#7387DC"/>
<path fill-rule="evenodd" clip-rule="evenodd" d="M11.25 6.75H18C18.8652 6.74995 19.6974 6.41762 20.3246 5.82165C20.9519 5.22569 21.3263 4.41159 21.3706 3.5475C21.4149 2.68341 21.1256 1.83531 20.5626 1.17835C19.9995 0.521389 19.2057 0.105743 18.345 0.01725C18.2288 0.010875 18.1162 3.79808e-08 18 3.79808e-08H6C5.21204 -8.86221e-05 4.43179 0.155045 3.70379 0.456542C2.9758 0.758039 2.31433 1.19999 1.75716 1.75716C1.19999 2.31433 0.758039 2.9758 0.456542 3.70379C0.155045 4.43179 -8.86221e-05 5.21204 3.79808e-08 6V18C3.79808e-08 15.0163 1.18526 12.1548 3.29505 10.045C5.40483 7.93526 8.26631 6.75 11.25 6.75Z" fill="#8CA0F5"/>
<path fill-rule="evenodd" clip-rule="evenodd" d="M18 12C16.8133 12 15.6533 12.3519 14.6666 13.0112C13.6799 13.6705 12.9108 14.6075 12.4567 15.7039C12.0026 16.8003 11.8838 18.0067 12.1153 19.1705C12.3468 20.3344 12.9182 21.4035 13.7574 22.2426C14.5965 23.0818 15.6656 23.6532 16.8295 23.8847C17.9933 24.1162 19.1997 23.9974 20.2961 23.5433C21.3924 23.0892 22.3295 22.3201 22.9888 21.3334C23.6481 20.3467 24 19.1867 24 18V6C24.0001 6.78796 23.8449 7.56821 23.5434 8.29621C23.2419 9.0242 22.8 9.68567 22.2428 10.2428C21.6857 10.8 21.0242 11.242 20.2962 11.5435C19.5682 11.845 18.7879 12.0001 18 12Z" fill="#5A6EC3"/>
<path d="M10.4363 11.7984C10.2447 11.782 10.0526 11.824 9.88522 11.9186C9.71782 12.0133 9.58291 12.1563 9.49815 12.3289C9.41338 12.5015 9.38272 12.6957 9.41017 12.886C9.43761 13.0764 9.5219 13.254 9.65198 13.3956C9.78205 13.5372 9.95187 13.6363 10.1392 13.6798C10.3265 13.7233 10.5226 13.7092 10.7018 13.6394C10.881 13.5696 11.0349 13.4474 11.1435 13.2886C11.252 13.1299 11.3101 12.942 11.3101 12.7497C11.3203 12.5077 11.234 12.2715 11.0702 12.0931C10.9063 11.9147 10.6783 11.8087 10.4363 11.7984Z" fill="white"/>
<path d="M13.5632 11.7984C13.3716 11.782 13.1796 11.824 13.0122 11.9186C12.8448 12.0133 12.7099 12.1563 12.6251 12.3289C12.5403 12.5015 12.5097 12.6957 12.5371 12.886C12.5646 13.0764 12.6488 13.254 12.7789 13.3956C12.909 13.5372 13.0788 13.6363 13.2661 13.6798C13.4535 13.7233 13.6496 13.7092 13.8287 13.6394C14.0079 13.5696 14.1619 13.4474 14.2704 13.2886C14.3789 13.1299 14.437 12.942 14.437 12.7497C14.4473 12.5077 14.361 12.2715 14.1971 12.0931C14.0333 11.9147 13.8053 11.8087 13.5632 11.7984Z" fill="white"/>
<path d="M19.5 6.37292C19.5006 6.14148 19.4556 5.91218 19.3675 5.69815C19.2794 5.48413 19.15 5.28956 18.9866 5.12559C18.8233 4.96162 18.6292 4.83146 18.4155 4.74255C18.2018 4.65363 17.9727 4.60772 17.7413 4.60742H6.25876C6.02731 4.60772 5.79819 4.65363 5.5845 4.74255C5.37081 4.83146 5.17675 4.96162 5.0134 5.12559C4.85006 5.28956 4.72064 5.48413 4.63255 5.69815C4.54445 5.91218 4.49941 6.14148 4.50001 6.37292V17.7343C4.49938 17.9658 4.54439 18.1951 4.63247 18.4092C4.72054 18.6232 4.84996 18.8178 5.0133 18.9818C5.17665 19.1459 5.37073 19.2761 5.58443 19.365C5.79814 19.4539 6.02728 19.4999 6.25876 19.5002H15.4463C15.5044 19.5004 15.5617 19.487 15.6137 19.4612C15.6658 19.4353 15.7111 19.3977 15.746 19.3513C15.781 19.3049 15.8046 19.2509 15.8151 19.1938C15.8255 19.1366 15.8225 19.0778 15.8063 19.0221C15.6788 18.5829 15.5138 18.0002 15.5138 18.0002C15.5138 18.0002 17.745 20.0983 18.8663 21.1558C18.9196 21.2063 18.9866 21.24 19.0588 21.2528C19.1311 21.2656 19.2056 21.257 19.273 21.2279C19.3405 21.1989 19.3979 21.1507 19.4382 21.0894C19.4786 21.028 19.5001 20.9562 19.5 20.8828V6.37292ZM14.505 15.7959C14.4672 15.7977 14.4295 15.7905 14.395 15.775C14.3605 15.7595 14.3301 15.7361 14.3063 15.7067L14.04 15.3793C14.0158 15.3495 13.999 15.3143 13.9909 15.2767C13.9828 15.2391 13.9838 15.2002 13.9937 15.163C14.0035 15.1259 14.022 15.0916 14.0477 15.063C14.0734 15.0343 14.1054 15.0122 14.1413 14.9983C14.633 14.8259 15.0606 14.5081 15.3675 14.0871C14.3593 14.7226 13.1918 15.0598 12 15.0598C10.8082 15.0598 9.64074 14.7226 8.63251 14.0871C8.93939 14.5081 9.36706 14.8259 9.85876 14.9983C9.89462 15.0122 9.92668 15.0343 9.95233 15.063C9.97799 15.0916 9.99651 15.1259 10.0064 15.163C10.0163 15.2002 10.0172 15.2391 10.0091 15.2767C10.0011 15.3143 9.98425 15.3495 9.96001 15.3793L9.69376 15.7067C9.66995 15.7361 9.63955 15.7595 9.60503 15.775C9.5705 15.7905 9.53282 15.7977 9.49501 15.7959C9.00538 15.7921 8.52357 15.6726 8.0889 15.4472C7.65422 15.2218 7.27897 14.8968 6.99376 14.4988C7.02157 12.7612 7.44342 11.0525 8.22751 9.50155C8.90888 8.97238 9.73294 8.65908 10.5938 8.60192C10.6072 8.60167 10.6206 8.60436 10.6329 8.6098C10.6452 8.61524 10.6561 8.6233 10.665 8.63342C10.6753 8.64475 10.6825 8.6585 10.686 8.67338C10.6895 8.68826 10.6892 8.70378 10.6851 8.7185C10.681 8.73322 10.6732 8.74666 10.6625 8.75755C10.6517 8.76845 10.6384 8.77645 10.6238 8.7808C9.89218 8.99022 9.21085 9.34632 8.62126 9.82743C9.65682 9.25936 10.8189 8.96155 12 8.96155C13.1812 8.96155 14.3432 9.25936 15.3788 9.82743C14.7892 9.34632 14.1079 8.99022 13.3763 8.7808C13.3616 8.77645 13.3483 8.76845 13.3376 8.75755C13.3269 8.74666 13.3191 8.73322 13.315 8.7185C13.3108 8.70378 13.3105 8.68826 13.314 8.67338C13.3175 8.6585 13.3248 8.64475 13.335 8.63342C13.3439 8.6233 13.3549 8.61524 13.3672 8.6098C13.3795 8.60436 13.3928 8.60167 13.4063 8.60192C14.2671 8.65908 15.0912 8.97238 15.7725 9.50155C16.5566 11.0525 16.9785 12.7612 17.0063 14.4988C16.7211 14.8968 16.3458 15.2218 15.9111 15.4472C15.4765 15.6726 14.9947 15.7921 14.505 15.7959Z" fill="white"/>
</svg>
