<svg width="24" height="24" viewBox="0 0 24 24" fill="none" xmlns="http://www.w3.org/2000/svg">
<path fill-rule="evenodd" clip-rule="evenodd" d="M18 24H6C4.40872 23.9999 2.88264 23.3678 1.75744 22.2426C0.632233 21.1174 6.96138e-05 19.5913 0 18L0 6C6.96138e-05 4.40872 0.632233 2.88264 1.75744 1.75744C2.88264 0.632233 4.40872 6.96138e-05 6 0L18 0C19.5913 0 21.1174 0.632141 22.2426 1.75736C23.3679 2.88258 24 4.4087 24 6V18C24 19.5913 23.3679 21.1174 22.2426 22.2426C21.1174 23.3679 19.5913 24 18 24Z" fill="#199BDF"/>
<path fill-rule="evenodd" clip-rule="evenodd" d="M11.25 6.75H18C18.8652 6.74995 19.6974 6.41762 20.3246 5.82165C20.9519 5.22569 21.3263 4.41159 21.3706 3.5475C21.4149 2.68341 21.1256 1.83531 20.5626 1.17835C19.9995 0.521389 19.2057 0.105743 18.345 0.01725C18.2302 0.010875 18.1166 0 18 0H6C4.40872 6.96138e-05 2.88264 0.632233 1.75744 1.75744C0.632233 2.88264 6.96138e-05 4.40872 0 6L0 18C6.96164e-05 15.0163 1.18536 12.1549 3.29513 10.0451C5.40489 7.93536 8.26634 6.75007 11.25 6.75Z" fill="#32B4FF"/>
<path fill-rule="evenodd" clip-rule="evenodd" d="M18 12C16.8133 12 15.6533 12.3519 14.6666 13.0112C13.6799 13.6705 12.9108 14.6075 12.4567 15.7039C12.0026 16.8003 11.8838 18.0067 12.1153 19.1705C12.3468 20.3344 12.9182 21.4035 13.7574 22.2426C14.5965 23.0818 15.6656 23.6532 16.8295 23.8847C17.9933 24.1162 19.1997 23.9974 20.2961 23.5433C21.3924 23.0892 22.3295 22.3201 22.9888 21.3334C23.6481 20.3467 24 19.1867 24 18V6C24 7.5913 23.3678 9.11742 22.2426 10.2426C21.1174 11.3679 19.5913 12 18 12Z" fill="#0082BE"/>
<path fill-rule="evenodd" clip-rule="evenodd" d="M16.9059 6.3869C17.0903 6.31079 17.2916 6.28505 17.4891 6.31233C17.6867 6.3396 17.8735 6.41891 18.0303 6.54212C18.1871 6.66533 18.3084 6.82802 18.3816 7.01352C18.4549 7.19901 18.4775 7.40065 18.4472 7.59777C18.0102 10.4399 17.2089 15.6479 16.7836 18.4124C16.7542 18.6037 16.6759 18.7842 16.5563 18.9364C16.4368 19.0886 16.2799 19.2073 16.101 19.2812C15.9221 19.3551 15.7272 19.3815 15.5351 19.358C15.343 19.3345 15.1602 19.2618 15.0044 19.147C13.4998 18.0385 11.244 16.3765 10.0987 15.5324C10.0103 15.4673 9.93733 15.3835 9.88485 15.2871C9.83238 15.1906 9.80172 15.0839 9.79504 14.9743C9.78836 14.8647 9.80582 14.755 9.84619 14.6529C9.88656 14.5508 9.94885 14.4588 10.0287 14.3834C11.0781 13.3923 13.1683 11.4183 14.6064 10.06C14.6402 10.0278 14.6609 9.98415 14.6642 9.93754C14.6676 9.89093 14.6534 9.84475 14.6244 9.80805C14.5955 9.77135 14.5539 9.74677 14.5078 9.73914C14.4617 9.7315 14.4144 9.74136 14.3752 9.76677C12.5313 10.9694 9.70733 12.811 8.32328 13.7136C8.06389 13.8828 7.77238 13.9966 7.46698 14.0479C7.16159 14.0992 6.84889 14.0869 6.54847 14.0118C5.78636 13.8213 4.68708 13.5464 3.70882 13.3019C3.55566 13.2636 3.41848 13.178 3.31682 13.0572C3.21517 12.9364 3.15421 12.7867 3.14264 12.6292C3.13107 12.4718 3.16948 12.3147 3.2524 12.1804C3.33531 12.046 3.4585 11.9413 3.60442 11.881C7.00987 10.4744 13.6743 7.7219 16.9059 6.3869Z" fill="white"/>
</svg>
