<svg width="24" height="24" viewBox="0 0 24 24" fill="none" xmlns="http://www.w3.org/2000/svg">
<path fill-rule="evenodd" clip-rule="evenodd" d="M18 24H6C4.40872 23.9999 2.88264 23.3678 1.75744 22.2426C0.632233 21.1174 6.96138e-05 19.5913 0 18L0 6C6.96138e-05 4.40872 0.632233 2.88264 1.75744 1.75744C2.88264 0.632233 4.40872 6.96138e-05 6 0L18 0C19.5913 0 21.1174 0.632141 22.2426 1.75736C23.3679 2.88258 24 4.4087 24 6V18C24 19.5913 23.3679 21.1174 22.2426 22.2426C21.1174 23.3679 19.5913 24 18 24Z" fill="#0F9DFF"/>
<path fill-rule="evenodd" clip-rule="evenodd" d="M11.25 6.75H18C18.8652 6.74995 19.6974 6.41762 20.3246 5.82165C20.9519 5.22569 21.3263 4.41159 21.3706 3.5475C21.4149 2.68341 21.1256 1.83531 20.5626 1.17835C19.9995 0.521389 19.2057 0.105743 18.345 0.01725C18.2302 0.010875 18.1166 0 18 0H6C4.40872 6.96138e-05 2.88264 0.632233 1.75744 1.75744C0.632233 2.88264 6.96138e-05 4.40872 0 6L0 18C6.96164e-05 15.0163 1.18536 12.1549 3.29513 10.0451C5.40489 7.93536 8.26634 6.75007 11.25 6.75Z" fill="#00B7FF"/>
<path fill-rule="evenodd" clip-rule="evenodd" d="M18 12C16.8133 12 15.6533 12.3519 14.6666 13.0112C13.6799 13.6705 12.9108 14.6075 12.4567 15.7039C12.0026 16.8003 11.8838 18.0067 12.1153 19.1705C12.3468 20.3344 12.9182 21.4035 13.7574 22.2426C14.5965 23.0818 15.6656 23.6532 16.8295 23.8847C17.9933 24.1162 19.1997 23.9974 20.2961 23.5433C21.3924 23.0892 22.3295 22.3201 22.9888 21.3334C23.6481 20.3467 24 19.1867 24 18V6C24 7.5913 23.3678 9.11742 22.2426 10.2426C21.1174 11.3679 19.5913 12 18 12Z" fill="#1D83FF"/>
<path d="M9.21528 18.0963C14.967 18.0963 18.1571 13.2123 17.9633 8.94631C18.3894 8.63839 18.7746 8.27749 19.1096 7.87231C19.135 7.84096 19.1496 7.80224 19.1511 7.76193C19.1527 7.72162 19.1411 7.68189 19.1182 7.6487C19.0953 7.61551 19.0622 7.59065 19.0239 7.57782C18.9857 7.565 18.9443 7.5649 18.906 7.57756C18.6531 7.65881 18.3954 7.72406 18.1343 7.77293C18.1136 7.7766 18.0923 7.7732 18.0738 7.7633C18.0553 7.7534 18.0407 7.73756 18.0323 7.71834C18.0239 7.69911 18.0222 7.67762 18.0275 7.65733C18.0328 7.63703 18.0448 7.6191 18.0615 7.60644C18.3976 7.34057 18.6746 7.00762 18.8749 6.62881C18.8922 6.59429 18.8982 6.55519 18.8921 6.51705C18.886 6.47891 18.8681 6.44366 18.8409 6.41626C18.8136 6.38887 18.7785 6.37072 18.7404 6.36438C18.7023 6.35804 18.6632 6.36383 18.6285 6.38094C18.1515 6.60822 17.6478 6.77465 17.1293 6.87631C16.7071 6.42624 16.1594 6.11349 15.5572 5.97866C14.955 5.84382 14.3262 5.89314 13.7524 6.1202C13.1786 6.34726 12.6863 6.74158 12.3394 7.25196C11.9926 7.76235 11.8072 8.36522 11.8073 8.98231C11.8081 9.17844 11.8266 9.3741 11.8624 9.56693C11.8651 9.58096 11.8645 9.5954 11.8607 9.60917C11.8569 9.62293 11.85 9.63566 11.8406 9.64636C11.8312 9.65707 11.8194 9.66548 11.8062 9.67095C11.793 9.67642 11.7788 9.67881 11.7645 9.67793C9.53802 9.53554 7.45057 8.5459 5.93103 6.91231C5.88712 6.86359 5.83113 6.82731 5.76872 6.80716C5.7063 6.78701 5.63967 6.78369 5.57556 6.79754C5.51145 6.81139 5.45213 6.84192 5.40359 6.88604C5.35506 6.93016 5.31904 6.98631 5.29916 7.04881C5.08918 7.63309 5.06638 8.26825 5.23392 8.86609C5.40145 9.46392 5.75101 9.99473 6.23403 10.3848C6.2497 10.3973 6.26083 10.4147 6.26571 10.4341C6.27058 10.4536 6.26893 10.4741 6.26101 10.4926C6.25309 10.511 6.23934 10.5263 6.22186 10.5362C6.20439 10.5461 6.18416 10.5499 6.16428 10.5472C5.98846 10.5232 5.81514 10.4836 5.64641 10.4287C5.58482 10.4081 5.51891 10.404 5.45527 10.4169C5.39162 10.4298 5.33249 10.4592 5.28378 10.5022C5.23382 10.5442 5.19638 10.5991 5.17554 10.6609C5.15471 10.7228 5.15129 10.7891 5.16566 10.8528C5.81741 13.3623 7.58253 13.0424 7.58253 13.2325C7.58253 13.3612 7.23341 13.3612 6.76541 13.3623C6.70207 13.3626 6.63986 13.3792 6.58477 13.4104C6.52968 13.4417 6.48354 13.4866 6.45078 13.5408C6.41803 13.595 6.39976 13.6567 6.39772 13.72C6.39569 13.7833 6.40995 13.8461 6.43916 13.9023C6.68546 14.3258 7.02849 14.685 7.44021 14.9505C7.85193 15.216 8.32064 15.3804 8.80803 15.43C8.82697 15.4315 8.84501 15.4387 8.85971 15.4508C8.87441 15.4628 8.88506 15.4791 8.89021 15.4974C8.89537 15.5156 8.89478 15.5351 8.88853 15.553C8.88228 15.5709 8.87068 15.5865 8.85528 15.5977C8.00394 16.2134 7.00883 16.6004 5.96516 16.7215C5.88436 16.7279 5.80802 16.7612 5.74829 16.816C5.68857 16.8707 5.64888 16.9439 5.63556 17.0239C5.62223 17.1038 5.63604 17.1859 5.67476 17.2571C5.71349 17.3283 5.77493 17.3845 5.84928 17.4168C6.91423 17.8671 8.05902 18.0982 9.21528 18.0963Z" fill="white"/>
</svg>
