<svg width="24" height="24" viewBox="0 0 24 24" fill="none" xmlns="http://www.w3.org/2000/svg">
<path fill-rule="evenodd" clip-rule="evenodd" d="M18 24H6C4.40872 23.9999 2.88264 23.3678 1.75744 22.2426C0.632233 21.1174 6.96138e-05 19.5913 0 18L0 6C6.96138e-05 4.40872 0.632233 2.88264 1.75744 1.75744C2.88264 0.632233 4.40872 6.96138e-05 6 0L18 0C19.5913 0 21.1174 0.632141 22.2426 1.75736C23.3679 2.88258 24 4.4087 24 6V18C24 19.5913 23.3679 21.1174 22.2426 22.2426C21.1174 23.3679 19.5913 24 18 24Z" fill="#00D264"/>
<path fill-rule="evenodd" clip-rule="evenodd" d="M11.25 6.75H18C18.8652 6.74995 19.6974 6.41762 20.3246 5.82165C20.9519 5.22569 21.3263 4.41159 21.3706 3.5475C21.4149 2.68341 21.1256 1.83531 20.5626 1.17835C19.9995 0.521389 19.2057 0.105743 18.345 0.01725C18.2302 0.010875 18.1166 0 18 0H6C4.40872 6.96138e-05 2.88264 0.632233 1.75744 1.75744C0.632233 2.88264 6.96138e-05 4.40872 0 6L0 18C6.96164e-05 15.0163 1.18536 12.1549 3.29513 10.0451C5.40489 7.93536 8.26634 6.75007 11.25 6.75Z" fill="#00EB78"/>
<path fill-rule="evenodd" clip-rule="evenodd" d="M18 12C16.8133 12 15.6533 12.3519 14.6666 13.0112C13.6799 13.6705 12.9108 14.6075 12.4567 15.7039C12.0026 16.8003 11.8838 18.0067 12.1153 19.1705C12.3468 20.3344 12.9182 21.4035 13.7574 22.2426C14.5965 23.0818 15.6656 23.6532 16.8295 23.8847C17.9933 24.1162 19.1997 23.9974 20.2961 23.5433C21.3924 23.0892 22.3295 22.3201 22.9888 21.3334C23.6481 20.3467 24 19.1867 24 18V6C24 7.5913 23.3678 9.11742 22.2426 10.2426C21.1174 11.3679 19.5913 12 18 12Z" fill="#00B950"/>
<path fill-rule="evenodd" clip-rule="evenodd" d="M8.1274 17.66C8.22722 17.6316 8.33184 17.6242 8.43466 17.6383C8.53747 17.6524 8.63626 17.6876 8.72478 17.7418C10.2158 18.6301 11.98 18.943 13.6856 18.6217C15.3912 18.3004 16.9206 17.367 17.9862 15.9971C19.0518 14.6272 19.5802 12.9151 19.4719 11.1829C19.3637 9.45067 18.6262 7.81771 17.3983 6.59112C16.1704 5.36453 14.5367 4.62884 12.8044 4.52242C11.072 4.41599 9.36053 4.94617 7.99172 6.01324C6.62291 7.0803 5.69114 8.61072 5.37166 10.3166C5.05217 12.0226 5.36699 13.7864 6.2569 15.2765C6.31086 15.3648 6.34592 15.4633 6.35987 15.5658C6.37381 15.6683 6.36633 15.7726 6.3379 15.872C6.12902 16.6111 5.62502 18.3751 5.62502 18.3751C5.62502 18.3751 7.38903 17.8711 8.1274 17.66ZM4.95715 16.0254C3.88499 14.2181 3.5095 12.0815 3.90117 10.0169C4.29284 7.95233 5.42474 6.10173 7.08431 4.81264C8.74388 3.52355 10.817 2.88463 12.9143 3.01587C15.0116 3.14711 16.9889 4.03948 18.4748 5.5254C19.9607 7.01132 20.8531 8.98859 20.9843 11.0859C21.1156 13.1832 20.4767 15.2563 19.1876 16.9159C17.8985 18.5754 16.0479 19.7073 13.9833 20.099C11.9187 20.4907 9.78211 20.1152 7.97478 19.043C7.97478 19.043 5.5834 19.7263 4.39915 20.0649C4.33481 20.0832 4.26676 20.084 4.20202 20.0672C4.13727 20.0504 4.0782 20.0166 4.0309 19.9693C3.98361 19.922 3.9498 19.8629 3.93299 19.7981C3.91618 19.7334 3.91696 19.6653 3.93527 19.601C4.2739 18.4168 4.95715 16.0254 4.95715 16.0254Z" fill="white"/>
<path fill-rule="evenodd" clip-rule="evenodd" d="M8.24255 9.29531C8.35922 10.9745 9.07586 12.5557 10.2617 13.7503C11.4475 14.9449 13.0233 15.6732 14.7016 15.8023H14.7023C14.9703 15.8231 15.2395 15.7855 15.4916 15.6923C15.7437 15.5991 15.9726 15.4524 16.1626 15.2623L16.4243 15.0006C16.5479 14.8769 16.6173 14.7093 16.6174 14.5344V13.9787C16.6174 13.909 16.598 13.8407 16.5614 13.7814C16.5248 13.7222 16.4724 13.6743 16.4101 13.6431C16.0152 13.4458 15.1579 13.0172 14.7379 12.8072C14.6675 12.772 14.5878 12.7598 14.5101 12.7724C14.4323 12.785 14.3605 12.8217 14.3048 12.8773C14.0956 13.0866 13.7648 13.4177 13.5773 13.6048C13.5337 13.6485 13.4799 13.6807 13.4209 13.6986C13.3618 13.7165 13.2992 13.7196 13.2387 13.7076L13.2353 13.7068C12.5093 13.5616 11.8425 13.2048 11.319 12.6812C10.7955 12.1577 10.4386 11.4909 10.2934 10.7649L10.2927 10.7616C10.2806 10.701 10.2837 10.6384 10.3016 10.5794C10.3196 10.5203 10.3518 10.4666 10.3954 10.4229C10.5826 10.2354 10.9137 9.90469 11.1229 9.69544C11.1786 9.63972 11.2153 9.56792 11.2279 9.49019C11.2405 9.41246 11.2283 9.33274 11.1931 9.26231C10.9831 8.84231 10.5544 7.98506 10.3572 7.59019C10.326 7.52788 10.2781 7.47548 10.2188 7.43886C10.1595 7.40223 10.0912 7.38283 10.0216 7.38281H9.54905C9.43685 7.38285 9.32591 7.40643 9.2234 7.45203C9.12088 7.49764 9.02908 7.56425 8.95393 7.64756C8.87855 7.73156 8.79193 7.82756 8.70493 7.92431C8.54119 8.10602 8.41571 8.31882 8.33595 8.55004C8.25619 8.78127 8.22379 9.02618 8.24068 9.27019C8.24143 9.27844 8.2418 9.28669 8.24255 9.29531Z" fill="white"/>
</svg>
