<svg width="25" height="24" viewBox="0 0 25 24" fill="none" xmlns="http://www.w3.org/2000/svg">
<path d="M19.708 23.5907C14.5862 24.1371 9.42074 24.1371 4.29892 23.5907C3.3043 23.4856 2.37574 23.0428 1.66804 22.3361C0.960337 21.6294 0.516254 20.7015 0.409826 19.707C-0.136609 14.5852 -0.136609 9.41977 0.409826 4.29794C0.514858 3.30333 0.957639 2.37477 1.66435 1.66706C2.37106 0.959361 3.299 0.515278 4.29346 0.408849C9.41529 -0.137585 14.5807 -0.137585 19.7025 0.408849C20.6972 0.513882 21.6257 0.956662 22.3334 1.66337C23.0411 2.37008 23.4852 3.29802 23.5916 4.29248C24.1381 9.41431 24.1381 14.5797 23.5916 19.7016C23.4866 20.6962 23.0438 21.6247 22.3371 22.3324C21.6304 23.0401 20.7025 23.4842 19.708 23.5907Z" fill="#E60000"/>
<path d="M19.1499 8.39181C18.8499 7.46863 17.8571 6.90953 16.9435 6.78135C13.6573 6.43226 10.3434 6.43226 7.05715 6.78135C6.14352 6.90953 5.14806 7.46317 4.85079 8.39181C4.38307 10.775 4.38307 13.2264 4.85079 15.6095C5.15079 16.5314 6.14352 17.0918 7.05715 17.22C10.3434 17.5691 13.6573 17.5691 16.9435 17.22C17.8571 17.0918 18.8526 16.5382 19.1499 15.6095C19.6176 13.2264 19.6176 10.775 19.1499 8.39181ZM10.2058 14.8745V9.12544L14.8858 12C13.3081 12.9695 11.7767 13.9091 10.2058 14.8745Z" fill="white"/>
</svg>
