<svg width="24" height="25" viewBox="0 0 24 25" fill="none" xmlns="http://www.w3.org/2000/svg">
<path d="M13.0718 19.146C4.87196 19.146 0.194878 13.8465 0 5.02832H4.10743C4.24235 11.5007 7.27046 14.2422 9.66896 14.8075V5.02832H13.5365V10.6104C15.9051 10.3701 18.3935 7.82641 19.233 5.02832H23.1006C22.7842 6.47949 22.1537 7.85352 21.2483 9.06446C20.3429 10.2754 19.1823 11.2972 17.8389 12.0659C19.3384 12.7684 20.6629 13.7626 21.7249 14.983C22.7869 16.2034 23.5624 17.6223 24 19.146H19.7427C19.3498 17.8225 18.5513 16.6379 17.4473 15.7404C16.3433 14.843 14.9829 14.2726 13.5365 14.1009V19.146H13.0718Z" fill="#2E2E40"/>
</svg>
