<svg width="24" height="15" viewBox="0 0 24 15" fill="none" xmlns="http://www.w3.org/2000/svg">
<path d="M13.0718 14.6176C4.87196 14.6176 0.194878 9.31823 0 0.5H4.10743C4.24235 6.97235 7.27046 9.71392 9.66896 10.2792V0.5H13.5365V6.08205C15.9051 5.84181 18.3935 3.29809 19.233 0.5H23.1006C22.7842 1.95117 22.1537 3.3252 21.2483 4.53614C20.3429 5.74707 19.1823 6.76888 17.8389 7.53763C19.3384 8.24006 20.6629 9.23429 21.7249 10.4547C22.7869 11.6751 23.5624 13.094 24 14.6176H19.7427C19.3498 13.2942 18.5513 12.1096 17.4473 11.2121C16.3433 10.3146 14.9829 9.74431 13.5365 9.5726V14.6176H13.0718V14.6176Z" fill="#0030D9"/>
</svg>
