<svg version="1.2" xmlns="http://www.w3.org/2000/svg" viewBox="0 0 896 264" width="896" height="264">
	<title>404-svg</title>
	<style>
		.s0 { opacity: .5;fill: #2f32dc } 
		.s1 { fill: #5d60f4 } 
		.s2 { opacity: .2;fill: none;stroke: #2f32dc;stroke-width: 1.1 } 
		.s3 { fill: #2f32dc } 
	</style>
	<path id="Layer" fill-rule="evenodd" class="s0" d="m306.3 174.3v28.3h-24.7v49.3h-30.4v-49.3h-120.3v-8.4l0.1-0.3 82.6-178.1 0.3-0.6h32.7l-0.7 1.6-72.7 157.5h78.4l4.5-71.3 1.1 0.1-1.1-0.1 0.1-1h25.4v72.3zm-26.9 2.2v-72.3h-21.1l-4.6 71.2v1.1h-83.9l0.7-1.6 72.7-157.5h-27.9l-82.2 177.3v5.7h120.3v49.3h26v-49.3h24.7v-23.9zm78.2 46.4c-16.4-22.1-24.6-52-24.6-89.5 0-37.5 8.2-67.3 24.6-89.2 16.4-22.1 38.9-33.2 67.2-33.2 28.3 0 50.7 11.1 67.2 33.2 16.4 21.9 24.5 51.7 24.5 89.2 0 37.5-8.3 67.4-24.9 89.5-16.4 22.2-38.7 33.3-66.8 33.3-28.1 0-50.5-11.1-67.2-33.3l0.9-0.6zm133.1-0.7l-0.9-0.6c16.3-21.7 24.5-51 24.5-88.3 0-37.2-8.1-66.4-24.1-87.8l0.8-0.6 0.1-0.1-0.9 0.7c-16.1-21.6-37.8-32.4-65.5-32.4-27.6 0-49.4 10.8-65.4 32.4l-0.9-0.7 0.9 0.7c-16 21.4-24.1 50.6-24.1 87.8 0 37.3 8.1 66.6 24.1 88.3 16.3 21.5 38 32.3 65.4 32.3 27.4 0 49.1-10.8 65.1-32.3l0.9 0.6zm-131.3-176.7l-0.9-0.6zm109.3 156.4v-0.1c10.9-16.4 16.4-39.2 16.4-68.5 0-29-5.5-51.6-16.4-67.8l0.9-0.6-0.9 0.6c-10.7-16.4-25.2-24.5-43.9-24.5q-18.3 0-32.1 11l-0.7-0.8-0.1-0.1 0.8 0.9c-9 7.1-15.9 17.6-20.8 31.6q-7.4 20.9-7.4 49.7c0 29.3 5.4 52.1 16.1 68.6 10.8 16.1 25.5 24.1 44.2 24.1 18.7 0 33.3-8 43.9-24.1l0.9 0.6-0.2-0.1zm-89 0.6l-0.9 0.6c-11-17-16.4-40.3-16.4-69.8q0-29 7.5-50.4c5-14.3 12.1-25.2 21.5-32.6q14.4-11.5 33.5-11.5c19.4 0 34.7 8.5 45.7 25.5 11.2 16.7 16.7 39.8 16.7 69 0 29.5-5.5 52.8-16.7 69.8-11 16.7-26.3 25.1-45.7 25.1-19.5 0-34.8-8.4-46.1-25.1l0.9-0.6zm336.2-28.3v28.3h-24.7v49.3h-30.4v-49.3h-120.2v-8.4l0.1-0.2 1 0.4-1-0.4 82.5-178.1 0.3-0.7h32.7l-0.7 1.6-72.6 157.5h78.4l4.5-71.3 1.1 0.1-1.1-0.1v-1h25.4v72.3zm-26.8 2.2v-72.3h-21.2l-4.5 71.2-0.1 1.1h-83.8l0.7-1.6 72.6-157.5h-27.9l-82.1 177.3v5.7h120.2v49.4h26.1v-49.4h24.6v-23.9z"/>
	<path id="Layer" fill-rule="evenodd" class="s1" d="m300.8 171.5v26.1h-24.7v49.4h-28.2v-49.4h-120.3v-7l82.6-178.1h30.3l-73.4 159h81.2l4.5-72.3h23.3v72.3zm119.6 79.7q-41.6 0-66.3-32.8-24.3-32.8-24.3-88.8 0-56.1 24.3-88.6 24.3-32.8 66.3-32.8 42 0 66.3 32.8 24.3 32.5 24.3 88.6 0 56-24.7 88.8-24.3 32.8-65.9 32.8zm0-27.8q28.6 0 44.8-24.7 16.6-25.1 16.6-69.1 0-43.8-16.6-68.5-16.2-25-44.8-25-18.7 0-32.8 11.3-13.8 10.9-21.2 32.1-7.4 21.1-7.4 50.1 0 44 16.3 69.1 16.5 24.7 45.1 24.7zm289.9-51.9v26.1h-24.7v49.4h-28.2v-49.4h-120.2v-7l82.5-178.1h30.3l-73.3 159h81.1l4.6-72.3h23.2v72.3z"/>
	<path id="Layer" class="s2" d="m26.8 202.2l158-114 114 87.7m482.6-131.6l-210.6 201.8-500.1-228.1m228.1 157.9l77.9 52.7m115.2-8.8l114-131.6 210.6 122.8 79-96.5m-403.6 105.3l36.7 43.8m-115.7-87.7l105.3-79 131.6 131.7m-649.3-149.2l149.2 96.5 149.1-114.1 114.1 114.1m-114.1 0l87.8-87.7 105.3 131.6m-228.2 8.8l-193-210.6m342.2 157.9l-32.8 23.6m-309.4-181.5l-27.4-17.6"/>
	<circle id="Layer" class="s3" cx="517.1" cy="96.9" r="2.7"/>
	<circle id="Layer" class="s3" cx="491.4" cy="219.9" r="2.7"/>
	<circle id="Layer" class="s3" cx="560.9" cy="140.1" r="2.7"/>
	<circle id="Layer" class="s3" cx="605.5" cy="88.2" r="2.7"/>
	<circle id="Layer" class="s3" cx="619.7" cy="198.9" r="2.7"/>
	<circle id="Layer" class="s3" cx="686.5" cy="134.7" r="2.7"/>
	<circle id="Layer" class="s3" cx="815.4" cy="211" r="2.7"/>
	<circle id="Layer" class="s3" cx="411.8" cy="175.9" r="2.7"/>
	<circle id="Layer" class="s3" cx="298.3" cy="175.9" r="2.7"/>
	<circle id="Layer" class="s3" cx="298.3" cy="62.4" r="2.7"/>
	<circle id="Layer" class="s3" cx="250.1" cy="99.6" r="2.7"/>
	<circle id="Layer" class="s3" cx="224.8" cy="118.3" r="2.7"/>
	<circle id="Layer" class="s3" cx="154.6" cy="109.3" r="2.7"/>
	<circle id="Layer" class="s3" cx="186.4" cy="146.9" r="2.7"/>
	<circle id="Layer" class="s3" cx="102" cy="146.9" r="2.7"/>
	<circle id="Layer" class="s3" cx="69.6" cy="18" r="2.7"/>
</svg>