<svg width="896" height="266" viewBox="0 0 896 266" fill="none" xmlns="http://www.w3.org/2000/svg">
<path opacity="0.2" d="M26.8308 203.229L184.769 89.1631L298.835 176.906M298.835 176.906L386.578 89.1631L491.87 220.778M298.835 176.906L376.685 229.552M491.87 220.778L605.936 89.1631L816.519 212.004L895.488 115.486M491.87 220.778L528.646 264.649M649.807 229.552L518.193 97.9374L412.901 176.906M412.901 176.906L298.835 62.8402L149.671 176.906L0.507812 80.3888M412.901 176.906L380.146 200.473M263.737 229.552L70.7024 18.9686M70.7024 18.9686L570.839 247.101L781.422 45.2915M70.7024 18.9686L43.2612 1.41992" stroke="#2F32DC" stroke-width="1.09679"/>
<circle cx="517.073" cy="97.9358" r="2.70924" fill="#2F32DC"/>
<circle cx="491.397" cy="220.908" r="2.70924" fill="#2F32DC"/>
<circle cx="560.944" cy="141.112" r="2.70924" fill="#2F32DC"/>
<circle cx="605.51" cy="89.1624" r="2.70924" fill="#2F32DC"/>
<circle cx="619.658" cy="199.887" r="2.70924" fill="#2F32DC"/>
<circle cx="686.494" cy="135.694" r="2.70924" fill="#2F32DC"/>
<circle cx="815.401" cy="212.002" r="2.70924" fill="#2F32DC"/>
<circle cx="411.783" cy="176.907" r="2.70924" fill="#2F32DC"/>
<circle cx="298.268" cy="176.907" r="2.70924" fill="#2F32DC"/>
<circle cx="298.268" cy="63.3948" r="2.70924" fill="#2F32DC"/>
<circle cx="250.073" cy="100.645" r="2.70924" fill="#2F32DC"/>
<circle cx="224.815" cy="119.291" r="2.70924" fill="#2F32DC"/>
<circle cx="154.619" cy="110.282" r="2.70924" fill="#2F32DC"/>
<circle cx="186.358" cy="147.875" r="2.70924" fill="#2F32DC"/>
<circle cx="101.975" cy="147.875" r="2.70924" fill="#2F32DC"/>
<circle cx="69.5842" cy="18.9671" r="2.70924" fill="#2F32DC"/>
</svg>
