<svg width="810" height="575" viewBox="0 0 810 575" fill="none" xmlns="http://www.w3.org/2000/svg">
<path opacity="0.1" d="M3.45898 47.7549L795.747 47.7549" stroke="black" stroke-width="0.846462" stroke-dasharray="10 10"/>
<path opacity="0.1" d="M3.45898 111.239L795.747 111.239" stroke="black" stroke-width="0.846462" stroke-dasharray="10 10"/>
<path opacity="0.1" d="M3.45898 174.725L795.747 174.725" stroke="black" stroke-width="0.846462" stroke-dasharray="10 10"/>
<path opacity="0.1" d="M3.45898 238.209L795.747 238.209" stroke="black" stroke-width="0.846462" stroke-dasharray="10 10"/>
<path opacity="0.1" d="M3.45898 301.693L795.747 301.693" stroke="black" stroke-width="0.846462" stroke-dasharray="10 10"/>
<path opacity="0.1" d="M3.45898 365.178L795.747 365.178" stroke="black" stroke-width="0.846462" stroke-dasharray="10 10"/>
<path opacity="0.1" d="M3.45898 428.663L795.747 428.663" stroke="black" stroke-width="0.846462" stroke-dasharray="10 10"/>
<rect opacity="0.2" x="45.0508" y="313.544" width="157.817" height="176.911" fill="#AFD9FF"/>
<rect opacity="0.2" x="242.855" y="47.7549" width="157.284" height="442.7" fill="#AFD9FF"/>
<rect opacity="0.2" x="440.66" y="148.483" width="157.284" height="341.971" fill="#AFD9FF"/>
<rect opacity="0.2" x="637.93" y="148.483" width="157.817" height="341.971" fill="#AFD9FF"/>
<rect x="242.855" y="47.7549" width="1.69292" height="442.7" fill="#2E2E40"/>
<rect x="440.66" y="148.483" width="1.69292" height="341.971" fill="#2E2E40"/>
<rect x="637.93" y="148.483" width="1.69292" height="341.971" fill="#2E2E40"/>
<rect opacity="0.1" x="242.857" y="47.7549" width="33" height="442.7" fill="#2E2E40"/>
<rect opacity="0.1" x="46.1191" y="313.544" width="33" height="176.911" fill="#2E2E40"/>
<rect opacity="0.1" x="440.66" y="148.483" width="33" height="341.971" fill="#2E2E40"/>
<rect opacity="0.1" x="637.932" y="148.483" width="33" height="341.971" fill="#2E2E40"/>
<path opacity="0.8" d="M104.234 557.372H107.642V558.32H102.278V557.996C103.518 556.7 104.418 555.724 104.978 555.068C105.538 554.404 105.906 553.9 106.082 553.556C106.258 553.212 106.346 552.86 106.346 552.5C106.346 552.3 106.31 552.116 106.238 551.948C106.174 551.78 106.078 551.636 105.95 551.516C105.83 551.396 105.682 551.304 105.506 551.24C105.33 551.176 105.138 551.144 104.93 551.144C104.634 551.144 104.374 551.204 104.15 551.324C103.926 551.436 103.754 551.596 103.634 551.804C103.514 552.012 103.454 552.248 103.454 552.512V552.704H102.47V552.512C102.47 552.056 102.57 551.652 102.77 551.3C102.978 550.948 103.266 550.676 103.634 550.484C104.01 550.292 104.442 550.196 104.93 550.196C105.642 550.196 106.222 550.412 106.67 550.844C107.118 551.268 107.342 551.82 107.342 552.5C107.342 552.892 107.27 553.264 107.126 553.616C106.982 553.968 106.686 554.44 106.238 555.032C105.798 555.616 105.13 556.396 104.234 557.372ZM111.882 558.464C110.938 558.464 110.186 558.092 109.626 557.348C109.074 556.604 108.798 555.596 108.798 554.324C108.798 553.052 109.074 552.048 109.626 551.312C110.178 550.568 110.93 550.196 111.882 550.196C112.834 550.196 113.586 550.568 114.138 551.312C114.69 552.048 114.966 553.052 114.966 554.324C114.966 555.596 114.686 556.604 114.126 557.348C113.574 558.092 112.826 558.464 111.882 558.464ZM111.882 557.516C112.53 557.516 113.038 557.236 113.406 556.676C113.782 556.108 113.97 555.324 113.97 554.324C113.97 553.332 113.782 552.556 113.406 551.996C113.038 551.428 112.53 551.144 111.882 551.144C111.458 551.144 111.086 551.272 110.766 551.528C110.454 551.776 110.214 552.14 110.046 552.62C109.878 553.1 109.794 553.668 109.794 554.324C109.794 555.324 109.978 556.108 110.346 556.676C110.722 557.236 111.234 557.516 111.882 557.516ZM118.003 557.372H121.411V558.32H116.047V557.996C117.287 556.7 118.187 555.724 118.747 555.068C119.307 554.404 119.675 553.9 119.851 553.556C120.027 553.212 120.115 552.86 120.115 552.5C120.115 552.3 120.079 552.116 120.007 551.948C119.943 551.78 119.847 551.636 119.719 551.516C119.599 551.396 119.451 551.304 119.275 551.24C119.099 551.176 118.907 551.144 118.699 551.144C118.403 551.144 118.143 551.204 117.919 551.324C117.695 551.436 117.523 551.596 117.403 551.804C117.283 552.012 117.223 552.248 117.223 552.512V552.704H116.239V552.512C116.239 552.056 116.339 551.652 116.539 551.3C116.747 550.948 117.035 550.676 117.403 550.484C117.779 550.292 118.211 550.196 118.699 550.196C119.411 550.196 119.991 550.412 120.439 550.844C120.887 551.268 121.111 551.82 121.111 552.5C121.111 552.892 121.039 553.264 120.895 553.616C120.751 553.968 120.455 554.44 120.007 555.032C119.567 555.616 118.899 556.396 118.003 557.372ZM122.22 550.34H124.728V558.32H123.744V551.252H122.22V550.34ZM134.085 551.84V552.752H131.049V558.32H130.053V551.84H134.085ZM134.162 558.32V557.048H135.338V558.32H134.162Z" fill="#2E2E40"/>
<rect x="44.5195" y="488.762" width="751.229" height="2.53939" fill="#2E2E40"/>
<rect x="44.5195" y="30.8252" width="1.59949" height="460.475" fill="#2E2E40"/>
<path d="M71.2052 516.339H75.2372V528.309H73.3112V518.085H71.2052V516.339ZM78.8691 530.901V529.857C79.6131 529.677 79.9851 529.161 79.9851 528.309H78.7611V526.023H81.0291V528.147C81.0291 528.915 80.8371 529.533 80.4531 530.001C80.0691 530.469 79.5411 530.769 78.8691 530.901ZM92.2577 524.169V525.879H91.1057V528.309H89.2337V525.879H83.2757V525.483L87.3617 516.339H89.3417L85.8497 524.169H89.2697L89.5937 520.839H91.1057V524.169H92.2577ZM112.505 528.309H110.579L109.409 521.685L106.151 528.201H105.737L102.497 521.685L101.327 528.309H99.4006L101.147 518.589H102.839L105.953 524.799L109.085 518.589H110.759L112.505 528.309ZM117.001 518.589H123.607V528.309H121.645V520.317H118.639L118.207 524.619C118.075 525.987 117.721 526.953 117.145 527.517C116.581 528.081 115.723 528.363 114.571 528.363H114.229V526.527H114.697C115.645 526.527 116.179 525.933 116.299 524.745L117.001 518.589ZM132.393 518.355C133.353 518.355 134.217 518.577 134.985 519.021C135.753 519.453 136.353 520.059 136.785 520.839C137.217 521.619 137.433 522.489 137.433 523.449C137.433 524.913 136.953 526.131 135.993 527.103C135.045 528.063 133.845 528.543 132.393 528.543C131.145 528.543 130.071 528.153 129.171 527.373V531.801H127.173V518.589H128.523L128.901 519.777C129.837 518.829 131.001 518.355 132.393 518.355ZM129.963 525.735C130.563 526.335 131.319 526.635 132.231 526.635C133.155 526.635 133.917 526.335 134.517 525.735C135.117 525.123 135.417 524.361 135.417 523.449C135.417 522.537 135.117 521.781 134.517 521.181C133.917 520.569 133.161 520.263 132.249 520.263C131.649 520.263 131.103 520.401 130.611 520.677C130.119 520.953 129.735 521.337 129.459 521.829C129.195 522.309 129.063 522.849 129.063 523.449C129.063 524.361 129.363 525.123 129.963 525.735ZM148.552 526.419H149.812V530.757H147.994V528.309H140.902V530.757H139.084V526.419H140.11C140.386 526.191 140.596 525.843 140.74 525.375C140.896 524.907 141.034 524.199 141.154 523.251C141.274 522.291 141.43 520.737 141.622 518.589H148.552V526.419ZM143.386 520.353C143.254 522.309 143.104 523.713 142.936 524.565C142.768 525.417 142.522 526.035 142.198 526.419H146.59V520.353H143.386ZM163.135 523.377H160.741V524.619H164.251V526.041H160.741V528.309H158.797V526.041H157.501V524.619H158.797V523.305H157.501V521.739H158.797V516.339H163.135C164.203 516.339 165.073 516.669 165.745 517.329C166.417 517.977 166.753 518.823 166.753 519.867C166.753 520.899 166.417 521.745 165.745 522.405C165.073 523.053 164.203 523.377 163.135 523.377ZM164.827 519.867C164.827 519.519 164.743 519.207 164.575 518.931C164.419 518.655 164.197 518.439 163.909 518.283C163.621 518.127 163.297 518.049 162.937 518.049H160.741V521.667H162.937C163.477 521.667 163.927 521.499 164.287 521.163C164.647 520.815 164.827 520.383 164.827 519.867Z" fill="#2E2E40"/>
<path d="M13.9215 485.841C12.829 485.841 11.9622 485.421 11.3212 484.582C10.6801 483.742 10.3596 482.604 10.3596 481.169C10.3596 479.733 10.6756 478.6 11.3077 477.769C11.9487 476.93 12.82 476.51 13.9215 476.51C15.014 476.51 15.8763 476.93 16.5083 477.769C17.1494 478.6 17.4699 479.733 17.4699 481.169C17.4699 482.604 17.1494 483.742 16.5083 484.582C15.8673 485.421 15.005 485.841 13.9215 485.841ZM13.9215 484.46C14.5716 484.46 15.0772 484.171 15.4384 483.593C15.8086 483.015 15.9937 482.207 15.9937 481.169C15.9937 480.483 15.9079 479.896 15.7363 479.408C15.5738 478.912 15.3346 478.537 15.0185 478.284C14.7116 478.022 14.3459 477.891 13.9215 477.891C13.4881 477.891 13.1134 478.022 12.7974 478.284C12.4814 478.537 12.2421 478.912 12.0796 479.408C11.9171 479.896 11.8358 480.483 11.8358 481.169C11.8358 482.207 12.0164 483.015 12.3776 483.593C12.7478 484.171 13.2624 484.46 13.9215 484.46ZM18.8309 487.629V486.843C19.3907 486.708 19.6706 486.32 19.6706 485.679H18.7496V483.959H20.4561V485.557C20.4561 486.135 20.3116 486.6 20.0227 486.952C19.7338 487.304 19.3365 487.53 18.8309 487.629ZM24.8687 479.909C25.7897 479.909 26.5436 480.189 27.1305 480.749C27.7264 481.309 28.0243 482.008 28.0243 482.848C28.0243 483.706 27.7309 484.419 27.144 484.988C26.5571 485.557 25.8258 485.841 24.95 485.841C24.0832 485.841 23.3609 485.57 22.783 485.029C22.2142 484.487 21.9163 483.796 21.8892 482.956H23.3519C23.3699 483.399 23.5279 483.76 23.8259 484.04C24.1238 484.32 24.4985 484.46 24.95 484.46C25.4104 484.46 25.7897 484.306 26.0876 483.999C26.3946 483.692 26.5481 483.309 26.5481 482.848C26.5481 482.695 26.5255 482.546 26.4804 482.401C26.4443 482.257 26.3901 482.126 26.3179 482.008C26.2456 481.882 26.1553 481.769 26.047 481.67C25.9477 481.571 25.8348 481.485 25.7084 481.413C25.582 481.34 25.442 481.286 25.2886 481.25C25.1441 481.214 24.9861 481.196 24.8145 481.196H22.4309L22.2548 480.993L22.7424 476.672H27.4013V478H23.9207L23.7175 479.909H24.8687Z" fill="#A7A7AB"/>
<path d="M16.3443 412.341H19.378L19.378 421.348H17.9289L17.9289 413.655H16.3443L16.3443 412.341Z" fill="#A7A7AB"/>
<path d="M11.8348 348.857H14.8685L14.8685 357.863H13.4194L13.4194 350.171H11.8348V348.857ZM17.0595 359.814V359.028C17.6193 358.893 17.8992 358.504 17.8992 357.863H16.9782V356.143H18.6847V357.741C18.6847 358.319 18.5402 358.784 18.2513 359.136C17.9624 359.488 17.5651 359.714 17.0595 359.814ZM23.0973 352.094C24.0183 352.094 24.7722 352.374 25.359 352.933C25.955 353.493 26.2529 354.193 26.2529 355.033C26.2529 355.89 25.9595 356.604 25.3726 357.173C24.7857 357.741 24.0544 358.026 23.1786 358.026C22.3118 358.026 21.5895 357.755 21.0116 357.213C20.4428 356.671 20.1448 355.981 20.1178 355.141H21.5804C21.5985 355.583 21.7565 355.945 22.0545 356.225C22.3524 356.504 22.7271 356.644 23.1786 356.644C23.639 356.644 24.0183 356.491 24.3162 356.184C24.6232 355.877 24.7767 355.493 24.7767 355.033C24.7767 354.879 24.7541 354.73 24.709 354.586C24.6729 354.441 24.6187 354.31 24.5464 354.193C24.4742 354.067 24.3839 353.954 24.2756 353.854C24.1763 353.755 24.0634 353.669 23.937 353.597C23.8106 353.525 23.6706 353.471 23.5171 353.435C23.3727 353.398 23.2147 353.38 23.0431 353.38H20.6595L20.4834 353.177L20.971 348.857H25.6299L25.6299 350.184H22.1493L21.9461 352.094H23.0973Z" fill="#A7A7AB"/>
<path d="M18.7723 294.69H22.1311V296.071H15.9689V295.679C17.3142 294.207 18.2848 293.11 18.8807 292.387C19.4856 291.656 19.8874 291.101 20.086 290.722C20.2847 290.342 20.384 289.968 20.384 289.598C20.384 289.336 20.3253 289.105 20.2079 288.907C20.0996 288.708 19.9416 288.555 19.7339 288.446C19.5353 288.329 19.3005 288.27 19.0297 288.27C18.6053 288.27 18.2622 288.397 18.0004 288.65C17.7476 288.893 17.6212 289.214 17.6212 289.611V289.814H16.1585V289.611C16.1585 288.798 16.4203 288.144 16.944 287.647C17.4677 287.142 18.1584 286.889 19.0161 286.889C19.8558 286.889 20.5375 287.142 21.0612 287.647C21.5939 288.153 21.8602 288.803 21.8602 289.598C21.8602 290.013 21.7835 290.415 21.63 290.803C21.4855 291.191 21.1876 291.692 20.7361 292.306C20.2937 292.911 19.6391 293.706 18.7723 294.69Z" fill="#A7A7AB"/>
<path d="M12.5695 230.359H15.9282V231.74H9.76598V231.347C11.1113 229.876 12.0819 228.779 12.6778 228.056C13.2827 227.325 13.6845 226.77 13.8832 226.391C14.0818 226.011 14.1811 225.637 14.1811 225.266C14.1811 225.005 14.1224 224.774 14.0051 224.576C13.8967 224.377 13.7387 224.224 13.531 224.115C13.3324 223.998 13.0977 223.939 12.8268 223.939C12.4024 223.939 12.0593 224.066 11.7975 224.318C11.5447 224.562 11.4183 224.883 11.4183 225.28V225.483H9.95559V225.28C9.95559 224.467 10.2174 223.813 10.7411 223.316C11.2648 222.811 11.9555 222.558 12.8132 222.558C13.6529 222.558 14.3346 222.811 14.8583 223.316C15.391 223.822 15.6574 224.472 15.6574 225.266C15.6574 225.682 15.5806 226.084 15.4271 226.472C15.2827 226.86 14.9847 227.361 14.5333 227.975C14.0908 228.58 13.4362 229.375 12.5695 230.359ZM17.5149 233.69V232.905C18.0747 232.77 18.3546 232.381 18.3546 231.74H17.4337V230.02H19.1401V231.618C19.1401 232.196 18.9957 232.661 18.7067 233.013C18.4178 233.365 18.0205 233.591 17.5149 233.69ZM23.5527 225.971C24.4737 225.971 25.2276 226.251 25.8145 226.81C26.4104 227.37 26.7083 228.07 26.7083 228.91C26.7083 229.767 26.4149 230.481 25.828 231.05C25.2411 231.618 24.5098 231.903 23.634 231.903C22.7672 231.903 22.0449 231.632 21.467 231.09C20.8982 230.548 20.6003 229.858 20.5732 229.018H22.0359C22.0539 229.46 22.2119 229.822 22.5099 230.101C22.8078 230.381 23.1825 230.521 23.634 230.521C24.0945 230.521 24.4737 230.368 24.7716 230.061C25.0786 229.754 25.2321 229.37 25.2321 228.91C25.2321 228.756 25.2095 228.607 25.1644 228.463C25.1283 228.318 25.0741 228.187 25.0019 228.07C24.9296 227.944 24.8394 227.831 24.731 227.731C24.6317 227.632 24.5188 227.546 24.3924 227.474C24.266 227.402 24.1261 227.348 23.9726 227.312C23.8281 227.275 23.6701 227.257 23.4986 227.257H21.1149L20.9389 227.054L21.4264 222.734H26.0853V224.061H22.6047L22.4015 225.971H23.5527Z" fill="#A7A7AB"/>
<path d="M19.8095 161.775C20.5138 161.902 21.0781 162.222 21.5024 162.737C21.9358 163.251 22.1525 163.865 22.1525 164.579C22.1525 165.445 21.8546 166.163 21.2587 166.732C20.6718 167.292 19.9359 167.572 19.0511 167.572C18.1933 167.572 17.4801 167.305 16.9112 166.773C16.3514 166.231 16.0535 165.536 16.0174 164.687H17.4801C17.5071 165.138 17.6652 165.504 17.9541 165.784C18.243 166.055 18.6087 166.19 19.0511 166.19C19.5206 166.19 19.9088 166.037 20.2158 165.73C20.5228 165.414 20.6763 165.017 20.6763 164.538C20.6763 164.303 20.6312 164.087 20.5409 163.888C20.4506 163.68 20.3287 163.504 20.1752 163.36C20.0217 163.215 19.8366 163.107 19.6199 163.035C19.4032 162.953 19.1685 162.913 18.9157 162.913H17.778V162.628L19.647 159.73H16.2882V158.403H21.8004V158.701L19.8095 161.775Z" fill="#A7A7AB"/>
<path d="M13.6066 98.2898C14.3109 98.4162 14.8752 98.7367 15.2996 99.2514C15.733 99.766 15.9496 100.38 15.9496 101.093C15.9496 101.96 15.6517 102.678 15.0558 103.247C14.4689 103.806 13.733 104.086 12.8482 104.086C11.9905 104.086 11.2772 103.82 10.7084 103.287C10.1486 102.746 9.85061 102.05 9.81449 101.202H11.2772C11.3043 101.653 11.4623 102.019 11.7512 102.299C12.0401 102.569 12.4058 102.705 12.8482 102.705C13.3177 102.705 13.706 102.551 14.0129 102.244C14.3199 101.928 14.4734 101.531 14.4734 101.053C14.4734 100.818 14.4283 100.601 14.338 100.403C14.2477 100.195 14.1258 100.019 13.9723 99.8744C13.8188 99.7299 13.6337 99.6215 13.417 99.5493C13.2003 99.4681 12.9656 99.4274 12.7128 99.4274H11.5751V99.143L13.4441 96.2447H10.0854V94.9175H15.5975V95.2154L13.6066 98.2898ZM17.5612 105.874V105.089C18.121 104.953 18.4009 104.565 18.4009 103.924H17.4799V102.204H19.1864V103.802C19.1864 104.38 19.0419 104.845 18.753 105.197C18.4641 105.549 18.0668 105.775 17.5612 105.874ZM23.599 98.1543C24.52 98.1543 25.2739 98.4342 25.8608 98.994C26.4567 99.5538 26.7546 100.254 26.7546 101.093C26.7546 101.951 26.4612 102.664 25.8743 103.233C25.2874 103.802 24.5561 104.086 23.6803 104.086C22.8135 104.086 22.0912 103.815 21.5133 103.274C20.9445 102.732 20.6466 102.041 20.6195 101.202H22.0822C22.1002 101.644 22.2582 102.005 22.5562 102.285C22.8541 102.565 23.2288 102.705 23.6803 102.705C24.1408 102.705 24.52 102.551 24.8179 102.244C25.1249 101.937 25.2784 101.554 25.2784 101.093C25.2784 100.94 25.2558 100.791 25.2107 100.646C25.1746 100.502 25.1204 100.371 25.0482 100.254C24.9759 100.127 24.8856 100.014 24.7773 99.915C24.678 99.8157 24.5651 99.7299 24.4387 99.6577C24.3123 99.5854 24.1724 99.5313 24.0189 99.4951C23.8744 99.459 23.7164 99.441 23.5448 99.441H21.1612L20.9851 99.2378L21.4727 94.9175H26.1316V96.2447H22.651L22.4478 98.1543H23.599Z" fill="#A7A7AB"/>
<path d="M22.431 37.3245V38.6111H21.5642L21.5642 40.4395H20.1557L20.1557 38.6111H15.6728V38.3131L18.7472 31.4331H20.2369L17.6095 37.3245H20.1828L20.4265 34.8189H21.5642V37.3245H22.431Z" fill="#A7A7AB"/>
<path d="M31.9707 12.5889H30.9867L30.0627 7.77687L27.7707 12.4569H27.5427L25.2627 7.77687L24.3387 12.5889H23.3547L24.5907 6.10887H25.4427L27.6627 10.6449L29.8707 6.10887H30.7227L31.9707 12.5889ZM34.5735 6.10887H38.8215V12.5889H37.8015V6.99687H35.4255L35.0895 10.2729C35.0015 11.1289 34.7815 11.7369 34.4295 12.0969C34.0775 12.4489 33.5495 12.6249 32.8455 12.6249H32.6655V11.6649H32.8935C33.2615 11.6649 33.5415 11.5609 33.7335 11.3529C33.9255 11.1369 34.0455 10.7969 34.0935 10.3329L34.5735 6.10887ZM44.3078 5.96487C45.2758 5.96487 46.0718 6.28487 46.6958 6.92487C47.3278 7.56487 47.6438 8.37287 47.6438 9.34887C47.6438 10.3169 47.3278 11.1249 46.6958 11.7729C46.0718 12.4129 45.2758 12.7329 44.3078 12.7329C43.3318 12.7329 42.5278 12.3969 41.8958 11.7249V14.9049H40.8758V6.10887H41.5718L41.7758 7.10487C42.0798 6.74487 42.4478 6.46487 42.8798 6.26487C43.3198 6.06487 43.7958 5.96487 44.3078 5.96487ZM44.2358 11.7489C44.9238 11.7489 45.4918 11.5209 45.9398 11.0649C46.3878 10.6089 46.6118 10.0369 46.6118 9.34887C46.6118 8.66087 46.3878 8.08887 45.9398 7.63287C45.4918 7.17687 44.9238 6.94887 44.2358 6.94887C43.5478 6.94887 42.9758 7.18087 42.5198 7.64487C42.0718 8.10087 41.8478 8.66887 41.8478 9.34887C41.8478 9.79687 41.9478 10.2049 42.1478 10.5729C42.3558 10.9409 42.6438 11.2289 43.0117 11.4369C43.3798 11.6449 43.7878 11.7489 44.2358 11.7489ZM54.4794 11.6289H55.3554V14.3049H54.4194V12.5889H49.1994V14.3049H48.2634V11.6289H48.9594C49.1514 11.4529 49.2994 11.2049 49.4034 10.8849C49.5074 10.5569 49.5994 10.0609 49.6794 9.39687C49.7674 8.72487 49.8714 7.62887 49.9914 6.10887H54.4794V11.6289ZM50.9034 7.00887C50.8314 8.08087 50.7554 8.91687 50.6754 9.51687C50.6034 10.1089 50.5194 10.5649 50.4234 10.8849C50.3274 11.1969 50.2034 11.4449 50.0514 11.6289H53.4834V7.00887H50.9034ZM63.3248 9.30087H61.5008V10.2609H64.1408V10.9929H61.5008V12.5889H60.5048V10.9929H59.6048V10.2609H60.5048V9.26487H59.6048V8.46087H60.5048V4.60887L63.3248 4.60887C64.0368 4.60887 64.6208 4.82887 65.0768 5.26887C65.5328 5.70887 65.7608 6.27287 65.7608 6.96087C65.7608 7.64087 65.5328 8.20087 65.0768 8.64087C64.6208 9.08087 64.0368 9.30087 63.3248 9.30087ZM64.7648 6.96087C64.7648 6.53687 64.6168 6.18487 64.3208 5.90487C64.0328 5.62487 63.6688 5.48487 63.2288 5.48487L61.5008 5.48487V8.42487L63.2288 8.42487C63.6688 8.42487 64.0328 8.28487 64.3208 8.00487C64.6168 7.72487 64.7648 7.37687 64.7648 6.96087Z" fill="#55556A"/>
<path opacity="0.8" d="M304.943 557.372H308.351V558.32H302.987V557.996C304.227 556.7 305.127 555.724 305.687 555.068C306.247 554.404 306.615 553.9 306.791 553.556C306.967 553.212 307.055 552.86 307.055 552.5C307.055 552.3 307.019 552.116 306.947 551.948C306.883 551.78 306.787 551.636 306.659 551.516C306.539 551.396 306.391 551.304 306.215 551.24C306.039 551.176 305.847 551.144 305.639 551.144C305.343 551.144 305.083 551.204 304.859 551.324C304.635 551.436 304.463 551.596 304.343 551.804C304.223 552.012 304.163 552.248 304.163 552.512V552.704H303.179V552.512C303.179 552.056 303.279 551.652 303.479 551.3C303.687 550.948 303.975 550.676 304.343 550.484C304.719 550.292 305.151 550.196 305.639 550.196C306.351 550.196 306.931 550.412 307.379 550.844C307.827 551.268 308.051 551.82 308.051 552.5C308.051 552.892 307.979 553.264 307.835 553.616C307.691 553.968 307.395 554.44 306.947 555.032C306.507 555.616 305.839 556.396 304.943 557.372ZM312.592 558.464C311.648 558.464 310.896 558.092 310.336 557.348C309.784 556.604 309.508 555.596 309.508 554.324C309.508 553.052 309.784 552.048 310.336 551.312C310.888 550.568 311.64 550.196 312.592 550.196C313.544 550.196 314.296 550.568 314.848 551.312C315.4 552.048 315.676 553.052 315.676 554.324C315.676 555.596 315.396 556.604 314.836 557.348C314.284 558.092 313.536 558.464 312.592 558.464ZM312.592 557.516C313.24 557.516 313.748 557.236 314.116 556.676C314.492 556.108 314.68 555.324 314.68 554.324C314.68 553.332 314.492 552.556 314.116 551.996C313.748 551.428 313.24 551.144 312.592 551.144C312.168 551.144 311.796 551.272 311.476 551.528C311.164 551.776 310.924 552.14 310.756 552.62C310.588 553.1 310.504 553.668 310.504 554.324C310.504 555.324 310.688 556.108 311.056 556.676C311.432 557.236 311.944 557.516 312.592 557.516ZM318.713 557.372H322.121V558.32H316.757V557.996C317.997 556.7 318.897 555.724 319.457 555.068C320.017 554.404 320.385 553.9 320.561 553.556C320.737 553.212 320.825 552.86 320.825 552.5C320.825 552.3 320.789 552.116 320.717 551.948C320.653 551.78 320.557 551.636 320.429 551.516C320.309 551.396 320.161 551.304 319.985 551.24C319.809 551.176 319.617 551.144 319.409 551.144C319.113 551.144 318.853 551.204 318.629 551.324C318.405 551.436 318.233 551.596 318.113 551.804C317.993 552.012 317.933 552.248 317.933 552.512V552.704H316.949V552.512C316.949 552.056 317.049 551.652 317.249 551.3C317.457 550.948 317.745 550.676 318.113 550.484C318.489 550.292 318.921 550.196 319.409 550.196C320.121 550.196 320.701 550.412 321.149 550.844C321.597 551.268 321.821 551.82 321.821 552.5C321.821 552.892 321.749 553.264 321.605 553.616C321.461 553.968 321.165 554.44 320.717 555.032C320.277 555.616 319.609 556.396 318.713 557.372ZM325.017 557.372H328.425V558.32H323.061V557.996C324.301 556.7 325.201 555.724 325.761 555.068C326.321 554.404 326.689 553.9 326.865 553.556C327.041 553.212 327.129 552.86 327.129 552.5C327.129 552.3 327.093 552.116 327.021 551.948C326.957 551.78 326.861 551.636 326.733 551.516C326.613 551.396 326.465 551.304 326.289 551.24C326.113 551.176 325.921 551.144 325.713 551.144C325.417 551.144 325.157 551.204 324.933 551.324C324.709 551.436 324.537 551.596 324.417 551.804C324.297 552.012 324.237 552.248 324.237 552.512V552.704H323.253V552.512C323.253 552.056 323.353 551.652 323.553 551.3C323.761 550.948 324.049 550.676 324.417 550.484C324.793 550.292 325.225 550.196 325.713 550.196C326.425 550.196 327.005 550.412 327.453 550.844C327.901 551.268 328.125 551.82 328.125 552.5C328.125 552.892 328.053 553.264 327.909 553.616C327.765 553.968 327.469 554.44 327.021 555.032C326.581 555.616 325.913 556.396 325.017 557.372ZM337.139 551.84V552.752H334.103V558.32H333.107V551.84H337.139ZM337.215 558.32V557.048H338.391V558.32H337.215Z" fill="#2E2E40"/>
<path d="M276.267 520.821C277.203 520.989 277.953 521.415 278.517 522.099C279.093 522.783 279.381 523.599 279.381 524.547C279.381 525.699 278.985 526.653 278.193 527.409C277.413 528.153 276.435 528.525 275.259 528.525C274.119 528.525 273.171 528.171 272.415 527.463C271.671 526.743 271.275 525.819 271.227 524.691H273.171C273.207 525.291 273.417 525.777 273.801 526.149C274.185 526.509 274.671 526.689 275.259 526.689C275.883 526.689 276.399 526.485 276.807 526.077C277.215 525.657 277.419 525.129 277.419 524.493C277.419 524.181 277.359 523.893 277.239 523.629C277.119 523.353 276.957 523.119 276.753 522.927C276.549 522.735 276.303 522.591 276.015 522.495C275.727 522.387 275.415 522.333 275.079 522.333H273.567V521.955L276.051 518.103H271.587V516.339H278.913V516.735L276.267 520.821ZM282.243 530.901V529.857C282.987 529.677 283.359 529.161 283.359 528.309H282.135V526.023H284.403V528.147C284.403 528.915 284.211 529.533 283.827 530.001C283.443 530.469 282.915 530.769 282.243 530.901ZM290.987 520.641C292.211 520.641 293.213 521.013 293.993 521.757C294.785 522.501 295.181 523.431 295.181 524.547C295.181 525.687 294.791 526.635 294.011 527.391C293.231 528.147 292.259 528.525 291.095 528.525C289.943 528.525 288.983 528.165 288.215 527.445C287.459 526.725 287.063 525.807 287.027 524.691H288.971C288.995 525.279 289.205 525.759 289.601 526.131C289.997 526.503 290.495 526.689 291.095 526.689C291.707 526.689 292.211 526.485 292.607 526.077C293.015 525.669 293.219 525.159 293.219 524.547C293.219 524.343 293.189 524.145 293.129 523.953C293.081 523.761 293.009 523.587 292.913 523.431C292.817 523.263 292.697 523.113 292.553 522.981C292.421 522.849 292.271 522.735 292.103 522.639C291.935 522.543 291.749 522.471 291.545 522.423C291.353 522.375 291.143 522.351 290.915 522.351H287.747L287.513 522.081L288.161 516.339H294.353V518.103H289.727L289.457 520.641H290.987ZM315.632 528.309H313.706L312.536 521.685L309.278 528.201H308.864L305.624 521.685L304.454 528.309H302.528L304.274 518.589H305.966L309.08 524.799L312.212 518.589H313.886L315.632 528.309ZM320.129 518.589H326.735V528.309H324.773V520.317H321.767L321.335 524.619C321.203 525.987 320.849 526.953 320.273 527.517C319.709 528.081 318.851 528.363 317.699 528.363H317.357V526.527H317.825C318.773 526.527 319.307 525.933 319.427 524.745L320.129 518.589ZM335.521 518.355C336.481 518.355 337.345 518.577 338.113 519.021C338.881 519.453 339.481 520.059 339.913 520.839C340.345 521.619 340.561 522.489 340.561 523.449C340.561 524.913 340.081 526.131 339.121 527.103C338.173 528.063 336.973 528.543 335.521 528.543C334.273 528.543 333.199 528.153 332.299 527.373V531.801H330.301V518.589H331.651L332.029 519.777C332.965 518.829 334.129 518.355 335.521 518.355ZM333.091 525.735C333.691 526.335 334.447 526.635 335.359 526.635C336.283 526.635 337.045 526.335 337.645 525.735C338.245 525.123 338.545 524.361 338.545 523.449C338.545 522.537 338.245 521.781 337.645 521.181C337.045 520.569 336.289 520.263 335.377 520.263C334.777 520.263 334.231 520.401 333.739 520.677C333.247 520.953 332.863 521.337 332.587 521.829C332.323 522.309 332.191 522.849 332.191 523.449C332.191 524.361 332.491 525.123 333.091 525.735ZM351.68 526.419H352.94V530.757H351.122V528.309H344.03V530.757H342.212V526.419H343.238C343.514 526.191 343.724 525.843 343.868 525.375C344.024 524.907 344.162 524.199 344.282 523.251C344.402 522.291 344.558 520.737 344.75 518.589H351.68V526.419ZM346.514 520.353C346.382 522.309 346.232 523.713 346.064 524.565C345.896 525.417 345.65 526.035 345.326 526.419H349.718V520.353H346.514ZM366.262 523.377H363.868V524.619H367.378V526.041H363.868V528.309H361.924V526.041H360.628V524.619H361.924V523.305H360.628V521.739H361.924V516.339H366.262C367.33 516.339 368.2 516.669 368.872 517.329C369.544 517.977 369.88 518.823 369.88 519.867C369.88 520.899 369.544 521.745 368.872 522.405C368.2 523.053 367.33 523.377 366.262 523.377ZM367.954 519.867C367.954 519.519 367.87 519.207 367.702 518.931C367.546 518.655 367.324 518.439 367.036 518.283C366.748 518.127 366.424 518.049 366.064 518.049H363.868V521.667H366.064C366.604 521.667 367.054 521.499 367.414 521.163C367.774 520.815 367.954 520.383 367.954 519.867Z" fill="#2E2E40"/>
<path opacity="0.8" d="M506.771 557.372H510.179V558.32H504.815V557.996C506.055 556.7 506.955 555.724 507.515 555.068C508.075 554.404 508.443 553.9 508.619 553.556C508.795 553.212 508.883 552.86 508.883 552.5C508.883 552.3 508.847 552.116 508.775 551.948C508.711 551.78 508.615 551.636 508.487 551.516C508.367 551.396 508.219 551.304 508.043 551.24C507.867 551.176 507.675 551.144 507.467 551.144C507.171 551.144 506.911 551.204 506.687 551.324C506.463 551.436 506.291 551.596 506.171 551.804C506.051 552.012 505.991 552.248 505.991 552.512V552.704H505.007V552.512C505.007 552.056 505.107 551.652 505.307 551.3C505.515 550.948 505.803 550.676 506.171 550.484C506.547 550.292 506.979 550.196 507.467 550.196C508.179 550.196 508.759 550.412 509.207 550.844C509.655 551.268 509.879 551.82 509.879 552.5C509.879 552.892 509.807 553.264 509.663 553.616C509.519 553.968 509.223 554.44 508.775 555.032C508.335 555.616 507.667 556.396 506.771 557.372ZM514.42 558.464C513.476 558.464 512.724 558.092 512.164 557.348C511.612 556.604 511.336 555.596 511.336 554.324C511.336 553.052 511.612 552.048 512.164 551.312C512.716 550.568 513.468 550.196 514.42 550.196C515.372 550.196 516.124 550.568 516.676 551.312C517.228 552.048 517.504 553.052 517.504 554.324C517.504 555.596 517.224 556.604 516.664 557.348C516.112 558.092 515.364 558.464 514.42 558.464ZM514.42 557.516C515.068 557.516 515.576 557.236 515.944 556.676C516.32 556.108 516.508 555.324 516.508 554.324C516.508 553.332 516.32 552.556 515.944 551.996C515.576 551.428 515.068 551.144 514.42 551.144C513.996 551.144 513.624 551.272 513.304 551.528C512.992 551.776 512.752 552.14 512.584 552.62C512.416 553.1 512.332 553.668 512.332 554.324C512.332 555.324 512.516 556.108 512.884 556.676C513.26 557.236 513.772 557.516 514.42 557.516ZM520.541 557.372H523.949V558.32H518.585V557.996C519.825 556.7 520.725 555.724 521.285 555.068C521.845 554.404 522.213 553.9 522.389 553.556C522.565 553.212 522.653 552.86 522.653 552.5C522.653 552.3 522.617 552.116 522.545 551.948C522.481 551.78 522.385 551.636 522.257 551.516C522.137 551.396 521.989 551.304 521.813 551.24C521.637 551.176 521.445 551.144 521.237 551.144C520.941 551.144 520.681 551.204 520.457 551.324C520.233 551.436 520.061 551.596 519.941 551.804C519.821 552.012 519.761 552.248 519.761 552.512V552.704H518.777V552.512C518.777 552.056 518.877 551.652 519.077 551.3C519.285 550.948 519.573 550.676 519.941 550.484C520.317 550.292 520.749 550.196 521.237 550.196C521.949 550.196 522.529 550.412 522.977 550.844C523.425 551.268 523.649 551.82 523.649 552.5C523.649 552.892 523.577 553.264 523.433 553.616C523.289 553.968 522.993 554.44 522.545 555.032C522.105 555.616 521.437 556.396 520.541 557.372ZM528.069 553.352C528.725 553.448 529.257 553.728 529.665 554.192C530.073 554.648 530.277 555.204 530.277 555.86C530.277 556.612 530.021 557.236 529.509 557.732C528.997 558.22 528.361 558.464 527.601 558.464C526.865 558.464 526.253 558.232 525.765 557.768C525.277 557.304 525.013 556.712 524.973 555.992H525.945C525.977 556.448 526.145 556.816 526.449 557.096C526.753 557.376 527.137 557.516 527.601 557.516C527.921 557.516 528.209 557.444 528.465 557.3C528.721 557.156 528.921 556.956 529.065 556.7C529.209 556.436 529.281 556.144 529.281 555.824C529.281 555.336 529.109 554.936 528.765 554.624C528.429 554.304 528.001 554.144 527.481 554.144H526.581V553.952L528.429 551.252H525.237V550.34H529.965V550.568L528.069 553.352ZM539.072 551.84V552.752H536.036V558.32H535.04V551.84H539.072ZM539.148 558.32V557.048H540.324V558.32H539.148Z" fill="#2E2E40"/>
<path d="M477.754 526.473H482.218V528.309H474.028V527.787C475.816 525.831 477.106 524.373 477.898 523.413C478.702 522.441 479.236 521.703 479.5 521.199C479.764 520.695 479.896 520.197 479.896 519.705C479.896 519.357 479.818 519.051 479.662 518.787C479.518 518.523 479.308 518.319 479.032 518.175C478.768 518.019 478.456 517.941 478.096 517.941C477.532 517.941 477.076 518.109 476.728 518.445C476.392 518.769 476.224 519.195 476.224 519.723V519.993H474.28V519.723C474.28 518.643 474.628 517.773 475.324 517.113C476.02 516.441 476.938 516.105 478.078 516.105C479.194 516.105 480.1 516.441 480.796 517.113C481.504 517.785 481.858 518.649 481.858 519.705C481.858 520.257 481.756 520.791 481.552 521.307C481.36 521.823 480.964 522.489 480.364 523.305C479.776 524.109 478.906 525.165 477.754 526.473ZM485.047 530.901V529.857C485.791 529.677 486.163 529.161 486.163 528.309H484.939V526.023H487.207V528.147C487.207 528.915 487.015 529.533 486.631 530.001C486.247 530.469 485.719 530.769 485.047 530.901ZM488.912 516.339H497.21V516.627L492.566 528.309H490.514L494.6 518.103H488.912V516.339ZM517.311 528.309H515.385L514.215 521.685L510.957 528.201H510.543L507.303 521.685L506.133 528.309H504.207L505.953 518.589H507.645L510.759 524.799L513.891 518.589H515.565L517.311 528.309ZM521.808 518.589H528.414V528.309H526.452V520.317H523.446L523.014 524.619C522.882 525.987 522.528 526.953 521.952 527.517C521.388 528.081 520.53 528.363 519.378 528.363H519.036V526.527H519.504C520.452 526.527 520.986 525.933 521.106 524.745L521.808 518.589ZM537.2 518.355C538.16 518.355 539.024 518.577 539.792 519.021C540.56 519.453 541.16 520.059 541.592 520.839C542.024 521.619 542.24 522.489 542.24 523.449C542.24 524.913 541.76 526.131 540.8 527.103C539.852 528.063 538.652 528.543 537.2 528.543C535.952 528.543 534.878 528.153 533.978 527.373V531.801H531.98V518.589H533.33L533.708 519.777C534.644 518.829 535.808 518.355 537.2 518.355ZM534.77 525.735C535.37 526.335 536.126 526.635 537.038 526.635C537.962 526.635 538.724 526.335 539.324 525.735C539.924 525.123 540.224 524.361 540.224 523.449C540.224 522.537 539.924 521.781 539.324 521.181C538.724 520.569 537.968 520.263 537.056 520.263C536.456 520.263 535.91 520.401 535.418 520.677C534.926 520.953 534.542 521.337 534.266 521.829C534.002 522.309 533.87 522.849 533.87 523.449C533.87 524.361 534.17 525.123 534.77 525.735ZM553.359 526.419H554.619V530.757H552.801V528.309H545.709V530.757H543.891V526.419H544.917C545.193 526.191 545.403 525.843 545.547 525.375C545.703 524.907 545.841 524.199 545.961 523.251C546.081 522.291 546.237 520.737 546.429 518.589H553.359V526.419ZM548.193 520.353C548.061 522.309 547.911 523.713 547.743 524.565C547.575 525.417 547.329 526.035 547.005 526.419H551.397V520.353H548.193ZM567.942 523.377H565.548V524.619H569.058V526.041H565.548V528.309H563.604V526.041H562.308V524.619H563.604V523.305H562.308V521.739H563.604V516.339H567.942C569.01 516.339 569.88 516.669 570.552 517.329C571.224 517.977 571.56 518.823 571.56 519.867C571.56 520.899 571.224 521.745 570.552 522.405C569.88 523.053 569.01 523.377 567.942 523.377ZM569.634 519.867C569.634 519.519 569.55 519.207 569.382 518.931C569.226 518.655 569.004 518.439 568.716 518.283C568.428 518.127 568.104 518.049 567.744 518.049H565.548V521.667H567.744C568.284 521.667 568.734 521.499 569.094 521.163C569.454 520.815 569.634 520.383 569.634 519.867Z" fill="#2E2E40"/>
<path opacity="0.8" d="M708.628 557.372H712.036V558.32H706.672V557.996C707.912 556.7 708.812 555.724 709.372 555.068C709.932 554.404 710.3 553.9 710.476 553.556C710.652 553.212 710.74 552.86 710.74 552.5C710.74 552.3 710.704 552.116 710.632 551.948C710.568 551.78 710.472 551.636 710.344 551.516C710.224 551.396 710.076 551.304 709.9 551.24C709.724 551.176 709.532 551.144 709.324 551.144C709.028 551.144 708.768 551.204 708.544 551.324C708.32 551.436 708.148 551.596 708.028 551.804C707.908 552.012 707.848 552.248 707.848 552.512V552.704H706.864V552.512C706.864 552.056 706.964 551.652 707.164 551.3C707.372 550.948 707.66 550.676 708.028 550.484C708.404 550.292 708.836 550.196 709.324 550.196C710.036 550.196 710.616 550.412 711.064 550.844C711.512 551.268 711.736 551.82 711.736 552.5C711.736 552.892 711.664 553.264 711.52 553.616C711.376 553.968 711.08 554.44 710.632 555.032C710.192 555.616 709.524 556.396 708.628 557.372ZM716.277 558.464C715.333 558.464 714.581 558.092 714.021 557.348C713.469 556.604 713.193 555.596 713.193 554.324C713.193 553.052 713.469 552.048 714.021 551.312C714.573 550.568 715.325 550.196 716.277 550.196C717.229 550.196 717.981 550.568 718.533 551.312C719.085 552.048 719.361 553.052 719.361 554.324C719.361 555.596 719.081 556.604 718.521 557.348C717.969 558.092 717.221 558.464 716.277 558.464ZM716.277 557.516C716.925 557.516 717.433 557.236 717.801 556.676C718.177 556.108 718.365 555.324 718.365 554.324C718.365 553.332 718.177 552.556 717.801 551.996C717.433 551.428 716.925 551.144 716.277 551.144C715.853 551.144 715.481 551.272 715.161 551.528C714.849 551.776 714.609 552.14 714.441 552.62C714.273 553.1 714.189 553.668 714.189 554.324C714.189 555.324 714.373 556.108 714.741 556.676C715.117 557.236 715.629 557.516 716.277 557.516ZM722.398 557.372H725.806V558.32H720.442V557.996C721.682 556.7 722.582 555.724 723.142 555.068C723.702 554.404 724.07 553.9 724.246 553.556C724.422 553.212 724.51 552.86 724.51 552.5C724.51 552.3 724.474 552.116 724.402 551.948C724.338 551.78 724.242 551.636 724.114 551.516C723.994 551.396 723.846 551.304 723.67 551.24C723.494 551.176 723.302 551.144 723.094 551.144C722.798 551.144 722.538 551.204 722.314 551.324C722.09 551.436 721.918 551.596 721.798 551.804C721.678 552.012 721.618 552.248 721.618 552.512V552.704H720.634V552.512C720.634 552.056 720.734 551.652 720.934 551.3C721.142 550.948 721.43 550.676 721.798 550.484C722.174 550.292 722.606 550.196 723.094 550.196C723.806 550.196 724.386 550.412 724.834 550.844C725.282 551.268 725.506 551.82 725.506 552.5C725.506 552.892 725.434 553.264 725.29 553.616C725.146 553.968 724.85 554.44 724.402 555.032C723.962 555.616 723.294 556.396 722.398 557.372ZM732.435 555.752V556.64H731.595V558.32H730.635V556.64H726.543V556.4L729.351 550.34H730.383L727.887 555.752H730.647L730.803 553.292H731.595V555.752H732.435ZM740.976 551.84V552.752H737.94V558.32H736.944V551.84H740.976ZM741.053 558.32V557.048H742.229V558.32H741.053Z" fill="#2E2E40"/>
<path d="M679.635 526.473H684.099V528.309H675.909V527.787C677.697 525.831 678.987 524.373 679.779 523.413C680.583 522.441 681.117 521.703 681.381 521.199C681.645 520.695 681.777 520.197 681.777 519.705C681.777 519.357 681.699 519.051 681.543 518.787C681.399 518.523 681.189 518.319 680.913 518.175C680.649 518.019 680.337 517.941 679.977 517.941C679.413 517.941 678.957 518.109 678.609 518.445C678.273 518.769 678.105 519.195 678.105 519.723V519.993H676.161V519.723C676.161 518.643 676.509 517.773 677.205 517.113C677.901 516.441 678.819 516.105 679.959 516.105C681.075 516.105 681.981 516.441 682.677 517.113C683.385 517.785 683.739 518.649 683.739 519.705C683.739 520.257 683.637 520.791 683.433 521.307C683.241 521.823 682.845 522.489 682.245 523.305C681.657 524.109 680.787 525.165 679.635 526.473ZM686.928 530.901V529.857C687.672 529.677 688.044 529.161 688.044 528.309H686.82V526.023H689.088V528.147C689.088 528.915 688.896 529.533 688.512 530.001C688.128 530.469 687.6 530.769 686.928 530.901ZM690.793 516.339H699.091V516.627L694.447 528.309H692.395L696.481 518.103H690.793V516.339ZM719.192 528.309H717.266L716.096 521.685L712.838 528.201H712.424L709.184 521.685L708.014 528.309H706.088L707.834 518.589H709.526L712.64 524.799L715.772 518.589H717.446L719.192 528.309ZM723.689 518.589H730.295V528.309H728.333V520.317H725.327L724.895 524.619C724.763 525.987 724.409 526.953 723.833 527.517C723.269 528.081 722.411 528.363 721.259 528.363H720.917V526.527H721.385C722.333 526.527 722.867 525.933 722.987 524.745L723.689 518.589ZM739.081 518.355C740.041 518.355 740.905 518.577 741.673 519.021C742.441 519.453 743.041 520.059 743.473 520.839C743.905 521.619 744.121 522.489 744.121 523.449C744.121 524.913 743.641 526.131 742.681 527.103C741.733 528.063 740.533 528.543 739.081 528.543C737.833 528.543 736.759 528.153 735.859 527.373V531.801H733.861V518.589H735.211L735.589 519.777C736.525 518.829 737.689 518.355 739.081 518.355ZM736.651 525.735C737.251 526.335 738.007 526.635 738.919 526.635C739.843 526.635 740.605 526.335 741.205 525.735C741.805 525.123 742.105 524.361 742.105 523.449C742.105 522.537 741.805 521.781 741.205 521.181C740.605 520.569 739.849 520.263 738.937 520.263C738.337 520.263 737.791 520.401 737.299 520.677C736.807 520.953 736.423 521.337 736.147 521.829C735.883 522.309 735.751 522.849 735.751 523.449C735.751 524.361 736.051 525.123 736.651 525.735ZM755.24 526.419H756.5V530.757H754.682V528.309H747.59V530.757H745.772V526.419H746.798C747.074 526.191 747.284 525.843 747.428 525.375C747.584 524.907 747.722 524.199 747.842 523.251C747.962 522.291 748.118 520.737 748.31 518.589H755.24V526.419ZM750.074 520.353C749.942 522.309 749.792 523.713 749.624 524.565C749.456 525.417 749.21 526.035 748.886 526.419H753.278V520.353H750.074ZM769.823 523.377H767.429V524.619H770.939V526.041H767.429V528.309H765.485V526.041H764.189V524.619H765.485V523.305H764.189V521.739H765.485V516.339H769.823C770.891 516.339 771.761 516.669 772.433 517.329C773.105 517.977 773.441 518.823 773.441 519.867C773.441 520.899 773.105 521.745 772.433 522.405C771.761 523.053 770.891 523.377 769.823 523.377ZM771.515 519.867C771.515 519.519 771.431 519.207 771.263 518.931C771.107 518.655 770.885 518.439 770.597 518.283C770.309 518.127 769.985 518.049 769.625 518.049H767.429V521.667H769.625C770.165 521.667 770.615 521.499 770.975 521.163C771.335 520.815 771.515 520.383 771.515 519.867Z" fill="#2E2E40"/>
</svg>
