<svg width="16" height="16" viewBox="0 0 16 16" fill="none" xmlns="http://www.w3.org/2000/svg">
<path d="M14.1139 10.329C13.2857 9.60123 12.0419 8.77698 10.3471 8.33743C11.4325 7.54861 12.1396 6.26953 12.1396 4.82812C12.1396 2.43732 10.1945 0.492188 7.80371 0.492188C5.4129 0.492188 3.46777 2.43732 3.46777 4.82812C3.46777 6.26953 4.17493 7.54861 5.26038 8.33743C3.56555 8.77698 2.32172 9.60123 1.49353 10.329C0.737488 10.9933 0.303711 11.9542 0.303711 12.9653V15.4922H15.3037V12.9653C15.3037 11.9542 14.8699 10.9933 14.1139 10.329ZM4.63965 4.82812C4.63965 3.0835 6.05908 1.66406 7.80371 1.66406C9.54834 1.66406 10.9678 3.0835 10.9678 4.82812C10.9678 6.57275 9.54834 7.99219 7.80371 7.99219C6.05908 7.99219 4.63965 6.57275 4.63965 4.82812ZM14.1318 14.3203H1.47559V12.9653C1.47559 12.2913 1.76407 11.6512 2.26706 11.2093C3.31378 10.2896 5.12396 9.19336 7.80371 9.19336C10.4835 9.19336 12.2936 10.2896 13.3404 11.2093C13.8434 11.6512 14.1318 12.2913 14.1318 12.9653V14.3203Z" fill="black"/>
</svg>
