<svg width="41" height="42" viewBox="0 0 41 42" fill="none" xmlns="http://www.w3.org/2000/svg">
<path d="M4.45904 10.3211H12.047V11.2678L4.45904 11.2682C3.73028 11.2682 3.13778 11.8607 3.13778 12.5894H2.19102C2.19102 11.3386 3.20826 10.3211 4.45904 10.3211V10.3211ZM13.7648 10.3211V11.2678C14.4935 11.2678 15.086 11.8604 15.086 12.5891V12.6261H16.0328V12.5891C16.0331 11.3386 15.0153 10.3211 13.7648 10.3211ZM30.5739 21.2214L31.5046 22.1522L30.8353 22.8214L29.9178 21.9038C29.194 22.5026 28.2664 22.8634 27.2558 22.8634C24.9501 22.8634 23.0749 20.9881 23.0749 18.6826C23.0749 17.6907 23.4228 16.7791 24.0019 16.0616L20.918 12.9771H17.9112C17.732 15.108 15.941 16.7878 13.765 16.7878H11.1009V17.8937C11.3589 17.7527 11.6549 17.6719 11.9693 17.6719C12.5023 17.6719 12.9802 17.904 13.3132 18.2707C13.6454 17.9062 14.1221 17.6757 14.6529 17.6757C15.1844 17.6757 15.6623 17.9068 15.9946 18.2729C16.3268 17.9074 16.8045 17.6757 17.3362 17.6757C18.3367 17.6757 19.1514 18.4903 19.1514 19.4909V33.2943H20.2603C21.4767 33.2943 22.4661 34.284 22.4661 35.5001V38.3452H21.5193V35.5001C21.5193 34.8061 20.9546 34.2417 20.261 34.2417H19.152V38.3459H9.67954V34.2248L0.83964 26.2748C0.235206 25.7321 0.140625 24.8273 0.618851 24.1709C1.09926 23.5123 1.9915 23.3273 2.69398 23.7394L7.46958 26.5426V16.788H4.45931C2.16403 16.788 0.296875 14.9208 0.296875 12.6262V12.5898C0.296875 10.2946 2.16403 8.42739 4.45931 8.42739H13.7642C15.8694 8.42739 17.6138 9.99919 17.8882 12.0305H20.8436L22.081 10.7927L22.7503 11.462L21.7459 12.4663L24.6754 15.3958C25.3866 14.8365 26.2823 14.5014 27.255 14.5014C28.2462 14.5014 29.1573 14.849 29.8748 15.4271L32.3617 12.9402C32.3495 12.8114 32.343 12.6812 32.343 12.549C32.343 10.2434 34.2183 8.36813 36.5238 8.36813C38.8295 8.36844 40.7045 10.2443 40.7045 12.5496C40.7045 14.8553 38.8286 16.7305 36.5236 16.7305C34.7385 16.7305 33.212 15.6059 32.6135 14.0281L30.5403 16.1013C31.1006 16.8129 31.436 17.7092 31.436 18.6828C31.436 19.637 31.1141 20.5171 30.5739 21.2214L30.5739 21.2214ZM33.2897 12.5499C33.2897 14.3331 34.7404 15.7838 36.5236 15.7838C38.3068 15.7838 39.7575 14.3331 39.7575 12.5499C39.7575 10.7667 38.3068 9.31603 36.5236 9.31603C34.7404 9.31603 33.2897 10.7667 33.2897 12.5499ZM8.41679 24.4564V31.8102L10.0622 33.2952H12.0251V30.9986C11.4423 30.8007 11.0211 30.2492 11.0211 29.6C11.0211 28.7851 11.6838 28.1224 12.4987 28.1224C13.3136 28.1224 13.9763 28.7851 13.9763 29.6C13.9763 30.2492 13.5551 30.8005 12.972 30.9986V33.2946H15.0458V28.6054C14.463 28.4075 14.0418 27.856 14.0418 27.2068C14.0418 26.3919 14.7045 25.7292 15.5194 25.7292C16.3343 25.7292 16.997 26.3919 16.997 27.2068C16.997 27.856 16.5758 28.4072 15.9927 28.6054V33.2958H18.2024V24.4567L8.41679 24.4564ZM16.208 27.2068C16.208 26.8266 15.9002 26.5184 15.5197 26.5184C15.1395 26.5184 14.8313 26.8263 14.8313 27.2068C14.8313 27.587 15.1392 27.8951 15.5197 27.8951C15.8996 27.8954 16.208 27.587 16.208 27.2068ZM13.1871 29.6007C13.1871 29.2205 12.8793 28.9123 12.4987 28.9123C12.1185 28.9123 11.8104 29.2202 11.8104 29.6007C11.8104 29.9809 12.1182 30.289 12.4987 30.289C12.8789 30.2893 13.1871 29.9809 13.1871 29.6007ZM8.41679 23.5091H10.153V20.5073C9.88901 20.7062 9.56143 20.8261 9.20626 20.8261C8.91845 20.8261 8.64943 20.7475 8.41705 20.6126L8.41679 23.5091ZM9.206 19.8788C9.55426 19.8788 9.83737 19.5953 9.83737 19.2474C9.83737 18.8992 9.55394 18.616 9.206 18.616C8.85807 18.616 8.57464 18.8995 8.57464 19.2474C8.57464 19.596 8.85743 19.8788 9.206 19.8788ZM11.4157 19.2474C11.4157 19.5957 11.6992 19.8788 12.0471 19.8788C12.395 19.8788 12.6785 19.5953 12.6785 19.2474C12.6785 19.057 12.5917 18.8882 12.4586 18.7723C12.3261 18.6812 12.1667 18.627 11.9957 18.6214C11.6716 18.648 11.4157 18.917 11.4157 19.2474ZM11.1001 20.5073V23.5091H12.8363V20.6122C12.6036 20.7475 12.3349 20.8258 12.0471 20.8258C11.6913 20.8261 11.364 20.7062 11.1001 20.5073L11.1001 20.5073ZM15.5193 23.5091V20.5095C15.2553 20.7084 14.9277 20.8283 14.5725 20.8283C14.2847 20.8283 14.0157 20.7497 13.7833 20.6147V23.5091L15.5193 23.5091ZM14.1413 18.7914C14.0188 18.9066 13.9411 19.0689 13.9411 19.2502C13.9411 19.5984 14.2246 19.8816 14.5725 19.8816C14.9208 19.8816 15.2039 19.5981 15.2039 19.2502C15.2039 18.9232 14.9533 18.6567 14.6345 18.6251C14.4504 18.6288 14.28 18.6899 14.1413 18.7914ZM10.1526 14.4699C10.1526 13.9913 9.76337 13.6014 9.28421 13.6014C8.80505 13.6014 8.41577 13.991 8.41577 14.4699V17.8825C8.64846 17.7472 8.91717 17.669 9.20498 17.669C9.56044 17.669 9.88802 17.7883 10.1517 17.9878L10.1524 14.4698L10.1526 14.4699ZM4.85496 28.0833C5.0651 28.0648 5.25489 27.9655 5.39049 27.8046C5.5261 27.6433 5.5903 27.4388 5.57182 27.2286C5.55334 27.0185 5.45406 26.8287 5.29309 26.6931C5.14934 26.5728 4.97208 26.5086 4.78699 26.5086C4.76351 26.5086 4.74033 26.5096 4.71653 26.5118C4.50639 26.5303 4.3166 26.6295 4.181 26.7905C4.04539 26.9521 3.98119 27.1563 3.99967 27.3664C4.01815 27.5766 4.11743 27.7664 4.2784 27.902C4.44062 28.0376 4.6445 28.1018 4.85496 28.0833V28.0833ZM1.47293 25.5704L3.07543 27.0103C3.12585 26.7078 3.25426 26.4225 3.45625 26.181C3.64259 25.9587 3.87654 25.7899 4.13867 25.6853L2.21483 24.556C1.93391 24.3906 1.57689 24.4648 1.38463 24.7288C1.19297 24.9913 1.23117 25.353 1.47295 25.5703L1.47293 25.5704ZM7.46965 30.9589V27.6411L6.50597 27.0755C6.5091 27.099 6.51348 27.1218 6.51536 27.1456C6.55576 27.6076 6.41389 28.0576 6.11575 28.4131C5.88775 28.6852 5.58867 28.8756 5.25356 28.9683L7.46965 30.9589ZM18.2032 34.2526L10.6269 34.2601V37.3993H18.2032V34.2526ZM18.2032 23.5085V20.5089C17.9392 20.7078 17.6117 20.8278 17.2565 20.8278C16.9687 20.8278 16.6997 20.7491 16.4673 20.6142V23.5086L18.2032 23.5085ZM16.6246 19.2497C16.6246 19.5979 16.908 19.881 17.2559 19.881C17.6042 19.881 17.8873 19.5976 17.8873 19.2497C17.8873 18.9227 17.6367 18.6562 17.3179 18.6246C17.1338 18.628 16.964 18.6897 16.825 18.7912C16.7022 18.9061 16.6246 19.0686 16.6246 19.2497ZM16.9797 12.5897C16.9797 10.8171 15.5372 9.37456 13.7646 9.37456H4.45968C2.68713 9.37456 1.24457 10.817 1.24457 12.5897V12.626C1.24457 14.4005 2.68705 15.8411 4.45968 15.8411H7.46994V14.47C7.46994 13.4694 8.28451 12.6548 9.28515 12.6548C10.2858 12.6548 11.1004 13.4693 11.1004 14.47V15.8411H13.7645C15.5371 15.8411 16.9796 14.3998 16.9796 12.626L16.9797 12.5897ZM30.4889 18.6831C30.4889 16.8999 29.0382 15.4493 27.255 15.4493C25.4718 15.4493 24.0212 16.8999 24.0212 18.6831C24.0212 20.4664 25.4718 21.917 27.255 21.917C29.0382 21.917 30.4889 20.4657 30.4889 18.6831ZM29.1491 18.6831C29.1491 19.7276 28.2998 20.5772 27.255 20.5772C26.2106 20.5772 25.3609 19.7279 25.3609 18.6831C25.3609 17.6384 26.2103 16.7891 27.255 16.7891C28.2998 16.7887 29.1491 17.6384 29.1491 18.6831ZM28.2024 18.6831C28.2024 18.1611 27.7777 17.7364 27.2556 17.7364C26.7335 17.7364 26.3088 18.1611 26.3088 18.6831C26.3088 19.2052 26.7335 19.6299 27.2556 19.6299C27.7777 19.6299 28.2024 19.2052 28.2024 18.6831ZM22.9413 9.93224L23.9685 8.90506C23.4091 8.19384 23.0741 7.29815 23.0741 6.32541C23.0741 4.01978 24.9494 2.14453 27.2549 2.14453C29.5606 2.14453 31.4358 4.02043 31.4358 6.32541C31.4358 8.63039 29.5605 10.5063 27.2549 10.5063C26.2631 10.5063 25.3515 10.1583 24.634 9.57932L23.6112 10.6022L22.9413 9.93224ZM24.0215 6.32541C24.0215 8.10862 25.4721 9.55927 27.2553 9.55927C29.0386 9.55927 30.4892 8.10862 30.4892 6.32541C30.4892 4.54219 29.0386 3.09154 27.2553 3.09154C25.4721 3.09122 24.0215 4.54187 24.0215 6.32541ZM40.7047 25.223C40.7047 27.5287 38.8288 29.4039 36.5239 29.4039C34.2189 29.4039 32.343 27.528 32.343 25.223C32.343 24.9446 32.3709 24.6731 32.4228 24.4094L31.6004 23.587L32.2697 22.9178L32.7586 23.4066C33.4356 22.0089 34.8687 21.0428 36.5236 21.0428C38.8289 21.0422 40.7048 22.9175 40.7048 25.2231L40.7047 25.223ZM39.758 25.223C39.758 23.4398 38.3073 21.9892 36.5241 21.9892C34.7409 21.9892 33.2902 23.4398 33.2902 25.223C33.2902 27.0063 34.7409 28.4569 36.5241 28.4569C38.3073 28.4569 39.758 27.0059 39.758 25.223ZM34.6297 12.4851C34.6297 11.4407 35.479 10.591 36.5238 10.591C37.5682 10.591 38.4179 11.4404 38.4179 12.4851C38.4179 13.5295 37.5685 14.3792 36.5238 14.3792C35.479 14.3792 34.6297 13.5299 34.6297 12.4851ZM35.5764 12.4851C35.5764 13.0072 36.0011 13.4319 36.5232 13.4319C37.0453 13.4319 37.47 13.0072 37.47 12.4851C37.47 11.9631 37.0453 11.5384 36.5232 11.5384C36.0015 11.538 35.5764 11.9627 35.5764 12.4851Z" fill="#5D60F4"/>
</svg>
