<svg width="42" height="43" viewBox="0 0 42 43" fill="none" xmlns="http://www.w3.org/2000/svg">
<path d="M41.8891 23.786L40.4053 20.5072V18.0337C40.4053 12.3667 35.82 7.75621 30.1839 7.75621L28.6012 7.75586C23.4768 7.75586 19.258 11.7221 18.8158 16.7614H15.5776C15.7256 16.1803 16.1168 15.7034 16.6867 15.4357L17.3742 15.1107L17.1882 14.2773H2.99907C1.34593 14.2777 0.00064282 15.6304 0.00064282 17.2926C0.00064282 18.9552 1.34602 20.3075 2.99907 20.3075L17.1918 20.3054L17.374 19.4713L16.6882 19.1492C16.1173 18.8814 15.726 18.4035 15.5784 17.8221H18.7792C18.8424 21.1701 20.5968 24.2632 23.4179 26.0283V34.5338H34.1495V31.7158C34.4646 31.8294 34.8014 31.8919 35.1487 31.8919H38.2295C39.4297 31.8919 40.4064 30.9104 40.4064 29.7037C40.4061 29.3514 40.4061 27.7558 40.4061 25.528L40.7756 25.5277C41.1937 25.5273 41.5787 25.3157 41.8051 24.9624C42.0309 24.609 42.0622 24.1689 41.8891 23.786ZM29.8059 16.7614C29.5948 15.9322 28.9373 15.2834 28.1064 15.0886V13.3741C29.8656 13.6061 31.2654 14.9992 31.5174 16.761L29.8059 16.7614ZM27.5878 16.0883C28.27 16.0883 28.8249 16.6463 28.8249 17.3323C28.8249 18.0184 28.2701 18.5763 27.5878 18.5763C26.9055 18.5763 26.3506 18.0184 26.3506 17.3323C26.3502 16.6463 26.9051 16.0883 27.5878 16.0883ZM27.0514 15.0932C26.2285 15.2929 25.579 15.9382 25.3693 16.7614H23.6579C23.9091 15.0051 25.3006 13.6152 27.0514 13.3762V15.0932ZM2.9987 19.2464C1.92698 19.2464 1.05555 18.3702 1.05555 17.2926C1.05555 16.215 1.92697 15.3388 2.9987 15.3388H5.31954C4.87179 15.8652 4.60098 16.5473 4.60098 17.2926C4.60098 18.039 4.87423 18.7205 5.32302 19.2464H2.9987ZM15.1357 19.2464H7.59968C6.52867 19.2464 5.65653 18.3702 5.65653 17.2926C5.65653 16.215 6.52794 15.3388 7.59968 15.3388H15.1363C14.809 15.7451 14.5891 16.2329 14.5005 16.7614H12.0983V17.8222H14.5005C14.5884 18.352 14.8087 18.8394 15.1357 19.2464ZM33.0943 33.4738H24.473V31.8418H26.5882V30.781H24.473V29.1988H26.5882V28.138H24.473V26.3235H29.0872C30.145 26.3235 31.097 26.9554 31.5134 27.9327L32.4326 30.0914C32.5903 30.4616 32.8179 30.7865 33.0946 31.0557L33.0943 33.4738ZM40.9165 24.3883C40.898 24.4175 40.8544 24.4669 40.7738 24.4669L39.3499 24.4683C39.3499 24.4683 39.3502 29.3258 39.3502 29.7052C39.3502 30.3263 38.8473 30.8316 38.2289 30.8316H35.1481C34.387 30.8316 33.7012 30.3768 33.4021 29.6736L32.4829 27.5149C31.9001 26.1467 30.5674 25.2621 29.0862 25.2621H24.193C21.552 23.7153 19.9009 20.8895 19.8359 17.8223H25.3478C25.5718 18.8585 26.49 19.6368 27.5865 19.6368C28.6831 19.6368 29.6012 18.8581 29.8259 17.8223H31.5269C31.3004 19.6716 29.8123 21.1334 27.9571 21.3071V20.2941L25.8217 21.8556L27.9571 23.4171V22.3708C30.5564 22.1792 32.6129 19.9934 32.6129 17.3318C32.6129 14.545 30.3581 12.2778 27.5864 12.2778C25.0067 12.2778 22.8762 14.2421 22.5928 16.7609H19.8728C20.3111 12.3072 24.0575 8.81679 28.6003 8.81679H30.1826C35.2365 8.81679 39.3489 12.9514 39.3489 18.0334V20.7375L40.9277 24.2251C40.9615 24.2991 40.9357 24.3589 40.9165 24.3883ZM37.6611 20.6604L36.2739 19.8463H35.2346V18.7855H37.6611V20.6604ZM2.99843 21.3762C1.34528 21.3762 0 22.7286 0 24.3911C0 26.0537 1.34537 27.406 2.99843 27.406L17.1911 27.4039L17.3733 26.5694L16.6876 26.2473C15.9512 25.9017 15.5115 25.2076 15.5115 24.3907C15.5115 23.5738 15.9512 22.8794 16.6876 22.5341L17.3751 22.2091L17.189 21.3758L2.99902 21.3751L2.99843 21.3762ZM2.99843 26.3449C1.92671 26.3449 1.05528 25.4687 1.05528 24.3911C1.05528 23.3142 1.9267 22.4373 2.99843 22.4373H5.31999C4.87259 22.964 4.60108 23.6458 4.60108 24.3911C4.60108 25.1368 4.87259 25.8182 5.31999 26.3449H2.99843ZM7.59959 26.3449C6.52858 26.3449 5.65644 25.4687 5.65644 24.3911C5.65644 23.3142 6.52786 22.4373 7.59959 22.4373H15.1362C14.7021 22.977 14.4564 23.6588 14.4564 24.3911C14.4564 25.1234 14.7021 25.8052 15.1362 26.3449H7.59959ZM16.6873 29.6322L17.3748 29.3072L17.1888 28.4739H2.99873C1.34558 28.4742 0.000294482 29.8266 0.000294482 31.4891C0.000294482 33.1517 1.34567 34.504 2.99873 34.504L17.1914 34.5019L17.3736 33.6678L16.6879 33.3457C15.9515 33 15.5118 32.306 15.5118 31.4891C15.5111 30.6722 15.9509 29.9778 16.6873 29.6322ZM2.99843 33.443C1.92671 33.443 1.05528 32.5668 1.05528 31.4892C1.05528 30.4116 1.9267 29.5353 2.99843 29.5353H5.31999C4.87259 30.062 4.60108 30.7438 4.60108 31.4892C4.60108 32.2352 4.87363 32.917 5.32208 33.443H2.99843ZM15.1354 33.443H7.59941C6.5284 33.443 5.65626 32.5668 5.65626 31.4892C5.65626 30.4116 6.52768 29.5353 7.59941 29.5353H15.136C14.7019 30.075 14.4562 30.7569 14.4562 31.4892C14.4562 32.2215 14.7013 32.9033 15.1354 33.443Z" fill="#5D60F4"/>
</svg>
