<svg width="42" height="43" viewBox="0 0 42 43" fill="none" xmlns="http://www.w3.org/2000/svg">
<path d="M32.9916 5.96524H24.5368V4.96545H32.9916V5.96524ZM32.9916 8.0074H24.5368V9.00719H32.9916V8.0074ZM18.9008 4.96545H10.446V5.96524H18.9008V4.96545ZM18.9008 8.0074H10.446V9.00719H18.9008V8.0074ZM32.9916 11.0487H24.5368V12.0485H32.9916V11.0487ZM18.9008 11.0487H10.446V12.0485H18.9008V11.0487ZM38.5576 1.92417V22.6948H24.2852C24.0313 23.8998 22.9832 24.7857 21.7178 24.7857C20.4536 24.7857 19.4063 23.8994 19.1524 22.6948H4.87826V1.92417H7.11791V0.00585938H18.7615C19.6803 0.00585938 20.5435 0.368116 21.1925 1.0258C21.3924 1.22833 21.5613 1.45293 21.7035 1.69202C21.8464 1.45326 22.0147 1.22833 22.2145 1.0258C22.8636 0.368141 23.7274 0.00585938 24.6456 0.00585938H36.2892V1.92417H38.5576ZM22.1971 3.48553L22.2153 20.2794C23.5521 19.4597 25.1036 19.0161 26.6718 19.0161H35.2999V1.00574H24.6445C23.9903 1.00574 23.3748 1.26392 22.9123 1.73222C22.4498 2.20085 22.1956 2.82357 22.1966 3.48555L22.1971 3.48553ZM8.10545 19.0156H16.7336C18.3014 19.0156 19.853 19.4596 21.19 20.2796L21.2083 3.48485C21.2092 2.82291 20.955 2.20019 20.4919 1.73187C20.0294 1.26357 19.4145 1.00538 18.7597 1.00538L8.10513 1.00505L8.10545 19.0156ZM37.5702 2.9232H36.2888L36.2891 20.0155H26.6719C25.2063 20.0155 23.7576 20.4552 22.5309 21.2613C22.2858 21.4224 22.0003 21.5086 21.7077 21.5096C21.4119 21.5106 21.1225 21.4237 20.8748 21.2607C19.648 20.4548 18.1997 20.0152 16.7341 20.0152L7.11773 20.0155V2.92321H5.86622V21.6941H20.0687L20.0827 22.1795C20.1087 23.069 20.8098 23.7682 21.6853 23.7853C22.5778 23.8024 23.3296 23.0199 23.3563 22.1173L23.3684 21.6948H37.5692L37.5695 2.92305L37.5702 2.9232ZM41.6999 29.6619L33.987 37.457C33.6716 38.5685 32.66 39.3845 31.4613 39.3845C31.4613 39.3845 13.8643 39.3812 13.8018 39.3792L10.9307 42.2828H9.53403L12.5721 39.2089C10.6488 38.7353 9.09917 37.3446 8.4105 35.4579C8.38609 35.3907 8.36559 35.3232 8.34378 35.2564L1.39862 42.2825H0.00195312L8.08331 34.1058C7.90039 32.6532 8.25093 31.1899 9.1086 29.9445C10.2341 28.31 12.009 27.3724 13.9778 27.3724L29.5576 27.3761C30.3108 27.3761 30.924 27.9965 30.924 28.7585C30.924 30.7848 29.2946 32.4334 27.2919 32.4334H23.2582L21.6614 34.0633H30.997L37.022 27.9744C38.2318 26.7516 40.2123 26.7404 41.4362 27.949L41.6927 28.2026C41.8883 28.3953 41.9963 28.6541 41.998 28.9301C41.9983 29.2067 41.8928 29.4665 41.6998 29.6618L41.6999 29.6619ZM29.5572 28.3769H23.5446C23.7327 28.6021 23.8902 28.8603 24.0087 29.1475C24.3228 29.9099 24.3039 30.7253 23.9853 31.4343H27.2916C28.7494 31.4343 29.9354 30.2343 29.9354 28.7593C29.9357 28.5482 29.7658 28.3769 29.5572 28.3769L29.5572 28.3769ZM17.4903 36.9011L22.7003 31.5829C23.3441 30.9252 23.3275 30.0924 23.0964 29.5319C22.8659 28.9714 22.2928 28.373 21.3782 28.373H13.9771C12.336 28.373 10.857 29.1545 9.91898 30.5169C8.98059 31.8793 8.7687 33.5539 9.33701 35.1116C9.92548 36.7243 11.2684 37.9046 12.9284 38.2685C14.5894 38.6334 16.2945 38.1223 17.4904 36.9011H17.4903ZM33.1018 36.7243C33.1018 35.8088 32.3655 35.0639 31.4607 35.0639H20.682L18.1927 37.6053C17.9034 37.9003 17.5893 38.1605 17.2557 38.3848H31.4606C32.3658 38.3848 33.1017 37.6399 33.1017 36.7244L33.1018 36.7243ZM41.0087 28.9368C41.0087 28.9262 41.0035 28.9213 41.0012 28.919L40.7441 28.6651C39.905 27.8365 38.5481 27.8444 37.7191 28.6826L32.2666 34.1927C33.1092 34.4681 33.7647 35.1629 33.9968 36.033L41.0012 28.9545C41.0034 28.9522 41.0087 28.9469 41.0087 28.9367L41.0087 28.9368ZM31.4265 36.1483C31.0933 36.1483 30.8231 36.4216 30.8231 36.7589C30.8231 37.0961 31.0933 37.3694 31.4265 37.3694C31.7598 37.3694 32.03 37.0961 32.03 36.7589C32.0297 36.4216 31.7595 36.1483 31.4265 36.1483ZM16.7858 33.4416C16.7858 35.0075 15.5266 36.282 13.9786 36.282C12.4309 36.282 11.1713 35.0079 11.1713 33.4416C11.1713 31.8757 12.4306 30.6012 13.9786 30.6012C15.5269 30.6012 16.7858 31.8757 16.7858 33.4416ZM15.7977 33.4416C15.7977 32.427 14.9817 31.6014 13.9789 31.6014C12.9761 31.6014 12.1601 32.427 12.1601 33.4416C12.1601 34.4563 12.9761 35.2819 13.9789 35.2819C14.982 35.2819 15.7977 34.4563 15.7977 33.4416Z" fill="#5D60F4"/>
</svg>
