<svg width="44" height="45" viewBox="0 0 44 45" fill="none" xmlns="http://www.w3.org/2000/svg">
<path d="M43.2582 23.5387L42.9226 23.2112C41.8306 22.1431 40.1821 21.9625 38.8991 22.66C39.457 21.1014 39.7636 19.4218 39.7636 17.6698C39.7636 9.52431 33.1925 2.89648 25.1161 2.89648C17.0397 2.89648 10.4687 9.52449 10.4687 17.6698C10.4687 19.4253 10.7787 21.1062 11.3386 22.6684C9.249 22.7753 7.38042 23.8069 6.17288 25.5401C5.19616 26.9424 4.80026 28.5902 5.01356 30.2267L0.140625 35.0982L0.872764 35.8304L5.28071 31.421C5.31339 31.5211 5.34439 31.6192 5.38078 31.7192C6.17154 33.8584 7.96301 35.4311 10.1816 35.9426L5.57959 40.5446L6.31005 41.2751L11.4674 36.1178H31.6565C33.0069 36.1178 34.1437 35.2084 34.4968 33.9719L43.2696 25.2052C43.4937 24.9831 43.616 24.687 43.6139 24.3696C43.6102 24.0539 43.4849 23.7594 43.2592 23.5391L43.2582 23.5387ZM37.364 12.5027C37.4243 12.4322 37.5486 12.3857 37.6706 12.3598C38.3525 13.9942 38.7299 15.7894 38.7299 17.67C38.7299 18.3432 38.68 19.0033 38.587 19.6508C38.1514 19.9039 37.4762 20.1609 36.5732 20.0885C36.0203 20.0437 35.6382 19.8287 35.4381 19.4443C35.1905 18.9672 35.2589 18.2661 35.6153 17.6583C36.2046 16.6542 37.5513 14.167 37.3255 12.7802C37.2949 12.5855 37.3464 12.5235 37.3639 12.5026L37.364 12.5027ZM31.4678 5.52361C31.2731 5.73553 31.1289 5.98015 30.9975 6.20892C30.6666 6.77899 30.4806 7.05122 29.8678 6.99429C28.953 6.91174 28.6535 6.12296 28.2984 4.93095C28.2313 4.70016 28.164 4.47644 28.0881 4.26451C29.2802 4.53304 30.4152 4.9606 31.4679 5.52363L31.4678 5.52361ZM20.6129 4.70556C20.1706 5.23925 19.7932 5.95424 19.7639 6.96702C19.7346 8.00878 20.844 9.49224 21.9637 9.90703C22.6766 10.1722 23.3518 9.99631 23.8137 9.42825C23.8568 9.37468 23.907 9.30764 23.962 9.23183C24.1995 8.90434 24.5593 8.40838 25.0762 8.37604C25.5944 8.34336 26.2682 8.74801 27.0243 9.5489C27.472 10.0226 27.689 10.4892 27.6702 10.9371C27.6459 11.497 27.2655 11.9516 26.9501 12.2326C26.4626 12.6682 25.9855 13.1783 25.5256 13.6692C24.9073 14.3306 24.2665 15.0162 23.8527 15.2123C22.3231 15.9428 22.9467 17.4427 23.2136 18.084C23.2412 18.153 23.2685 18.2184 23.2907 18.2787C23.4612 18.7177 23.4268 19.1331 23.1974 19.3622C22.9855 19.5758 22.6081 19.5984 22.1638 19.4279C21.4589 19.1574 21.2059 18.9164 20.8838 18.6115C20.5515 18.2962 20.1722 17.9384 19.3265 17.5229C19.2406 17.4798 19.1405 17.4337 19.0337 17.3835C17.8864 16.8457 15.7561 15.8488 15.1358 13.1534C14.7881 11.6376 14.3639 10.5577 13.8717 9.9307C15.4971 7.53547 17.8531 5.68578 20.6129 4.70569L20.6129 4.70556ZM13.2754 10.8993C13.5163 11.3248 13.83 12.0758 14.1299 13.3831C14.862 16.5694 17.3836 17.751 18.5961 18.318C18.6975 18.3662 18.7908 18.4094 18.872 18.4491C19.5782 18.7968 19.8677 19.0707 20.1763 19.3622C20.5314 19.6998 20.9 20.0475 21.7939 20.3919C22.1139 20.5142 22.4242 20.5765 22.7137 20.5765C23.1907 20.5765 23.6126 20.4127 23.9313 20.0927C24.4535 19.5691 24.5772 18.7322 24.2567 17.9037C24.2311 17.838 24.1998 17.7659 24.1688 17.6884C23.7659 16.7184 23.7935 16.3882 24.2979 16.1466C24.8885 15.8639 25.533 15.1752 26.2806 14.3757C26.725 13.9003 27.1866 13.4091 27.6398 13.0045C28.3046 12.4105 28.6735 11.7111 28.7024 10.9823C28.7334 10.2434 28.4218 9.52377 27.7756 8.83979C26.7732 7.77845 25.8672 7.28793 25.0107 7.34485C24.0084 7.41055 23.4333 8.19929 23.1246 8.62484C23.0815 8.68313 23.0455 8.73704 23.0111 8.77646C22.8821 8.93481 22.6994 9.07969 22.3238 8.9402C21.5832 8.66426 20.782 7.5467 20.7975 6.99719C20.8339 5.76403 21.5469 5.1613 22.1769 4.62895C22.3662 4.46857 22.5488 4.31561 22.7038 4.15187C23.4858 4.0107 24.2921 3.93152 25.1152 3.93152C25.6971 3.93152 26.2692 3.97296 26.8309 4.04506L26.8207 4.05719C27.0121 4.22768 27.1637 4.73374 27.3083 5.22496C27.6391 6.34254 28.0923 7.87249 29.7732 8.0255C29.8558 8.03224 29.9349 8.03561 30.0107 8.03561C31.1337 8.03561 31.5868 7.25563 31.8915 6.72664C32.062 6.43385 32.2082 6.18082 32.4063 6.08244L32.4029 6.0757C34.4457 7.38665 36.1165 9.23134 37.2294 11.4136C37.0053 11.4874 36.7695 11.6137 36.5852 11.825C36.408 12.0298 36.2146 12.39 36.3059 12.9466C36.4194 13.6461 35.7836 15.3304 34.7229 17.1373C34.1839 18.0571 34.106 19.1248 34.5215 19.9223C34.8867 20.6218 35.5862 21.0473 36.4922 21.1191C36.6249 21.1292 36.754 21.1346 36.8796 21.1346C37.448 21.1346 37.9376 21.0311 38.349 20.8903C38.0545 22.1201 37.5963 23.2845 36.9986 24.3613L31.1422 30.2083H20.3511L22.2683 28.2757H26.8946C29.1547 28.2757 30.9939 26.4357 30.9939 24.1764C30.9939 23.3428 30.3154 22.6639 29.4815 22.6639L12.4345 22.6585C11.8351 21.112 11.5009 19.4304 11.5009 17.6704C11.5012 15.2095 12.1491 12.8992 13.2755 10.8995L13.2754 10.8993ZM23.1022 24.6324C22.9539 24.2773 22.7525 23.966 22.5116 23.6975H29.4825C29.7463 23.6975 29.9613 23.9111 29.9613 24.1762C29.9613 25.8659 28.5853 27.2422 26.8952 27.2422H23.0435C23.433 26.438 23.4654 25.5044 23.1022 24.6324L23.1022 24.6324ZM10.4851 34.9534C8.57343 34.5387 7.0283 33.1946 6.34975 31.3601C5.69511 29.5879 5.93971 27.6809 7.01956 26.1304C8.0997 24.5805 9.80319 23.6911 11.6927 23.6911H20.1432C21.2112 23.6911 21.8797 24.3818 22.1482 25.0276C22.4167 25.6752 22.4376 26.6364 21.6863 27.3945L15.7368 33.3961C14.3605 34.7863 12.3969 35.3688 10.4851 34.9534H10.4851ZM31.6541 35.0845H15.2722C15.7011 34.8139 16.104 34.4939 16.4709 34.1232L19.3284 31.2415H31.6547C32.714 31.2415 33.5772 32.1047 33.5772 33.164C33.5769 34.2233 32.714 35.0845 31.6544 35.0845H31.6541ZM42.5366 24.4737L34.5256 32.4763C34.2793 31.4466 33.4939 30.6263 32.4845 30.3304L38.8527 23.9696C39.7709 23.0532 41.2725 23.0447 42.201 23.9508L42.5366 24.2782C42.5693 24.3109 42.5781 24.3507 42.5781 24.3763C42.5777 24.4016 42.571 24.4393 42.5366 24.4737L42.5366 24.4737ZM31.6162 31.946C30.9235 31.946 30.3588 32.5093 30.3588 33.2034C30.3588 33.8961 30.9238 34.4592 31.6162 34.4592C32.3089 34.4592 32.8719 33.8958 32.8719 33.2034C32.8719 32.509 32.3089 31.946 31.6162 31.946ZM31.6162 33.4254C31.4922 33.4254 31.3921 33.3253 31.3921 33.2034C31.3921 33.0794 31.4922 32.9793 31.6162 32.9793C31.7385 32.9793 31.8382 33.0794 31.8382 33.2034C31.8382 33.3254 31.7385 33.4254 31.6162 33.4254ZM11.6944 26.3011C9.95451 26.3011 8.53712 27.7169 8.53712 29.4584C8.53712 31.1997 9.95494 32.6157 11.6944 32.6157C13.4357 32.6157 14.8534 31.1999 14.8534 29.4584C14.8534 27.7169 13.4356 26.3011 11.6944 26.3011ZM11.6944 31.5821C10.5233 31.5821 9.57043 30.6296 9.57043 29.4581C9.57043 28.287 10.5229 27.3342 11.6944 27.3342C12.8655 27.3342 13.8201 28.2867 13.8201 29.4581C13.8201 30.6296 12.866 31.5821 11.6944 31.5821Z" fill="#5D60F4"/>
</svg>
