<svg width="41" height="39" viewBox="0 0 41 39" fill="none" xmlns="http://www.w3.org/2000/svg">
<path d="M15.2797 34.6472V20.8927C16.0901 20.6572 16.6852 19.9092 16.6852 19.024C16.6852 17.9503 15.8116 17.0767 14.7379 17.0767C13.6642 17.0767 12.7906 17.9503 12.7906 19.024C12.7906 19.9545 13.4477 20.7341 14.3219 20.9254V27.9559L9.03618 22.6695L6.18424 19.8058C6.34314 19.5241 6.43462 19.1997 6.43462 18.8534C6.43462 17.7797 5.561 16.9061 4.48732 16.9061C3.41364 16.9061 2.54003 17.7797 2.54003 18.8534C2.54003 19.9271 3.41364 20.8007 4.48732 20.8007C4.86843 20.8007 5.22389 20.6889 5.52429 20.4984L7.69508 22.6698L4.49875 22.6695C2.63467 22.6695 1.1175 21.153 1.1175 19.2882V16.7151C1.1175 14.8504 2.63402 13.3339 4.49875 13.3339H9.96812C10.1672 14.1974 10.9405 14.8438 11.8641 14.8438C12.9378 14.8438 13.8114 13.9702 13.8114 12.8965C13.8114 11.8228 12.9378 10.9492 11.8641 10.9492C10.9706 10.9492 10.2179 11.5544 9.9896 12.3764H5.62113V9.40349C5.62113 8.85303 5.83542 8.3358 6.22476 7.94652L8.59658 5.5747C8.98592 5.18536 9.50374 4.97107 10.0535 4.97107H12.52L14.6927 7.14371C14.5075 7.44189 14.3986 7.79166 14.3986 8.1674C14.3986 9.24108 15.2722 10.1147 16.3459 10.1147C17.4196 10.1147 18.2932 9.24108 18.2932 8.1674C18.2932 7.09372 17.4196 6.2201 16.3459 6.2201C15.9945 6.2201 15.6657 6.31507 15.3811 6.4784L13.8738 4.97103H23.6828C23.8796 6.23878 24.9755 7.21369 26.2979 7.21369C27.759 7.21369 28.9476 6.0251 28.9476 4.564C28.9476 3.1029 27.759 1.91432 26.2979 1.91432C25.0255 1.91432 23.9606 2.81613 23.7065 4.01387L17.2641 4.0145L19.3038 1.97475C19.8603 1.41828 20.5997 1.11216 21.3866 1.11216H30.2297C31.0166 1.11216 31.7564 1.41856 32.3125 1.97475L37.4567 7.11902C37.2599 7.42132 37.144 7.78122 37.144 8.16767C37.144 9.2296 38.0081 10.0935 39.0698 10.0935C40.1318 10.0935 40.9957 9.22936 40.9957 8.16767C40.9957 7.10574 40.1315 6.24185 39.0698 6.24185C38.7413 6.24185 38.4323 6.32478 38.1614 6.4707L32.9886 1.29758C32.2511 0.560052 31.2714 0.154613 30.229 0.154613L21.3859 0.154297C20.3436 0.154297 19.3633 0.560092 18.626 1.29726L15.9096 4.01404L10.0531 4.01436C9.24722 4.01436 8.48943 4.32836 7.91904 4.89842L5.54722 7.27025C4.97714 7.84033 4.66315 8.59813 4.66315 9.40432V12.3772L4.49824 12.3769C2.10591 12.3769 0.160156 14.3233 0.160156 16.715V19.2881C0.160156 21.6802 2.10656 23.6262 4.49824 23.6262H8.63941L14.3221 29.3086V34.6501C13.495 34.866 12.8813 35.6175 12.8813 36.512C12.8813 37.5739 13.7454 38.4378 14.8071 38.4378C15.8691 38.4378 16.7329 37.5737 16.7329 36.512C16.7333 35.6133 16.1135 34.8584 15.2794 34.647L15.2797 34.6472ZM3.4976 18.8531C3.4976 18.3071 3.9417 17.8633 4.48742 17.8633C5.03281 17.8633 5.47723 18.3071 5.47723 18.8531C5.47723 19.3992 5.03313 19.8429 4.48742 19.8429C3.94171 19.8429 3.4976 19.3992 3.4976 18.8531ZM11.8642 11.9071C12.4102 11.9071 12.854 12.3509 12.854 12.8969C12.854 13.4429 12.4099 13.8867 11.8642 13.8867C11.3188 13.8867 10.8744 13.4429 10.8744 12.8969C10.8744 12.3509 11.3182 11.9071 11.8642 11.9071ZM17.3358 8.16785C17.3358 8.71388 16.8917 9.15767 16.3456 9.15767C15.7996 9.15767 15.3558 8.71388 15.3558 8.16785C15.3558 7.62183 15.7999 7.17772 16.3456 7.17772C16.8917 7.17835 17.3358 7.62213 17.3358 8.16785ZM26.2972 2.87197C27.23 2.87197 27.9897 3.63102 27.9897 4.5645C27.9897 5.49799 27.2307 6.25702 26.2972 6.25702C25.3637 6.25702 24.6047 5.49797 24.6047 4.5645C24.6047 3.631 25.3643 2.87197 26.2972 2.87197ZM39.0695 7.19927C39.6035 7.19927 40.0384 7.63387 40.0384 8.16818C40.0384 8.70217 39.6038 9.13708 39.0695 9.13708C38.5355 9.13708 38.1006 8.70248 38.1006 8.16818C38.1006 7.63387 38.5355 7.19927 39.0695 7.19927ZM13.7468 19.0235C13.7468 18.4775 14.1909 18.0337 14.7367 18.0337C15.2821 18.0337 15.7265 18.4775 15.7265 19.0235C15.7265 19.5696 15.2824 20.0134 14.7367 20.0134C14.1909 20.0134 13.7468 19.5696 13.7468 19.0235ZM14.8063 37.4811C14.2723 37.4811 13.8374 37.0465 13.8374 36.5122C13.8374 35.9783 14.272 35.5433 14.8063 35.5433C15.3403 35.5433 15.7752 35.9779 15.7752 36.5122C15.7752 37.0462 15.3409 37.4811 14.8063 37.4811ZM40.2076 14.9282L34.5565 9.27711C34.7755 8.96216 34.9053 8.5801 34.9053 8.16793C34.9053 7.09425 34.0317 6.22064 32.958 6.22064C31.8844 6.22064 31.0107 7.09425 31.0107 8.16793C31.0107 9.24162 31.8844 10.1152 32.958 10.1152C33.2723 10.1152 33.5683 10.0386 33.8316 9.90569L39.5308 15.6049C39.8613 15.9353 40.0433 16.374 40.0433 16.8416V17.7051C40.0433 18.669 39.2592 19.4536 38.2948 19.4536H37.4816L34.6141 16.5861C34.798 16.2889 34.9053 15.9404 34.9053 15.5665C34.9053 14.4929 34.0317 13.6192 32.958 13.6192C31.8844 13.6192 31.0107 14.4929 31.0107 15.5665C31.0107 16.6402 31.8844 17.5138 32.958 17.5138C33.311 17.5138 33.6411 17.4182 33.9269 17.2533L36.1278 19.4542L28.7776 19.4535V18.0383C28.7776 17.0973 28.4123 16.2103 27.7492 15.5424L23.4519 11.2129C23.6023 10.9368 23.6874 10.6206 23.6874 10.2848C23.6874 9.21111 22.8138 8.33749 21.7401 8.33749C20.6665 8.33749 19.7928 9.21111 19.7928 10.2848C19.7928 11.3585 20.6665 12.2321 21.7401 12.2321C22.1314 12.2321 22.4954 12.115 22.8005 11.9159L27.0693 16.2169C27.5536 16.7047 27.8198 17.3514 27.8198 18.0383V21.4603C27.8198 21.7756 27.6976 22.062 27.4995 22.2776L24.537 19.3151C24.9254 18.7605 25.1555 18.0876 25.1555 17.3612C25.1555 15.4781 23.6232 13.9455 21.7398 13.9455C19.8568 13.9455 18.3242 15.4778 18.3242 17.3612C18.3242 19.2442 19.8565 20.7769 21.7398 20.7769C22.5518 20.7769 23.2979 20.491 23.8844 20.0162L26.5385 22.6704H20.4988C19.2149 22.6704 18.1709 23.7146 18.1709 24.9982V29.4876C17.34 29.7012 16.7234 30.4546 16.7234 31.3507C16.7234 32.4126 17.5876 33.2765 18.6493 33.2765C19.7112 33.2765 20.5751 32.4124 20.5751 31.3507C20.5751 30.4545 19.9585 29.7012 19.1279 29.4876V24.9982C19.1279 24.2423 19.7429 23.6273 20.4988 23.6273H26.6108C27.8057 23.6273 28.7781 22.6552 28.7781 21.46V20.411H38.2946C39.786 20.411 41 19.1977 41 17.7056V16.8421C41 16.1185 40.7186 15.4389 40.2077 14.928L40.2076 14.9282ZM31.9682 8.16793C31.9682 7.62191 32.4123 7.1778 32.9583 7.1778C33.5043 7.1778 33.9481 7.6219 33.9481 8.16793C33.9481 8.71396 33.504 9.15775 32.9583 9.15775C32.412 9.15838 31.9682 8.71396 31.9682 8.16793V8.16793ZM31.9682 15.5656C31.9682 15.0196 32.4123 14.5758 32.9583 14.5758C33.5043 14.5758 33.9481 15.0196 33.9481 15.5656C33.9481 16.1117 33.504 16.5558 32.9583 16.5558C32.412 16.5558 31.9682 16.1117 31.9682 15.5656V15.5656ZM21.7402 11.2747C21.1942 11.2747 20.7504 10.8306 20.7504 10.2846C20.7504 9.73856 21.1945 9.29477 21.7402 9.29477C22.2863 9.29477 22.7304 9.73856 22.7304 10.2846C22.7304 10.8303 22.2863 11.2747 21.7402 11.2747ZM19.6185 31.3497C19.6185 31.8837 19.1839 32.3186 18.6496 32.3186C18.1156 32.3186 17.6807 31.884 17.6807 31.3497C17.6807 30.8157 18.1153 30.3808 18.6496 30.3808C19.1836 30.3811 19.6185 30.8157 19.6185 31.3497ZM21.7402 19.8188C20.3848 19.8188 19.2817 18.716 19.2817 17.3603C19.2817 16.0043 20.3845 14.9017 21.7402 14.9017C23.0957 14.9017 24.1988 16.0045 24.1988 17.3603C24.1988 18.716 23.0963 19.8188 21.7402 19.8188ZM22.8076 17.3603C22.8076 17.9497 22.3296 18.4276 21.7402 18.4276C21.1508 18.4276 20.6729 17.9497 20.6729 17.3603C20.6729 16.7709 21.1508 16.2929 21.7402 16.2929C22.3296 16.2932 22.8076 16.7709 22.8076 17.3603ZM25.6393 4.56441C25.6393 4.20135 25.9333 3.90729 26.2964 3.90729C26.6595 3.90729 26.9535 4.20135 26.9535 4.56441C26.9535 4.92748 26.6595 5.22154 26.2964 5.22154C25.9333 5.22154 25.6393 4.92748 25.6393 4.56441Z" fill="#5D60F4"/>
</svg>
