<svg width="38" height="41" viewBox="0 0 38 41" fill="none" xmlns="http://www.w3.org/2000/svg">
<path d="M36.0069 17.3338C35.222 17.3338 34.5607 17.8719 34.3591 18.6019H28.4674L25.2051 15.3011H28.6902C28.8918 16.0311 29.5531 16.5691 30.3381 16.5691C31.2818 16.5691 32.0499 15.7922 32.0499 14.8371C32.0499 13.8822 31.282 13.105 30.3381 13.105C29.5531 13.105 28.8918 13.6431 28.6902 14.3731H21.0419C20.9645 13.8166 20.7509 13.3056 20.4355 12.8732L23.9221 9.34541H31.8478C32.0493 10.0754 32.7107 10.6135 33.4956 10.6135C34.4393 10.6135 35.2075 9.83648 35.2075 8.88139C35.2075 7.92656 34.4396 7.14932 33.4956 7.14932C32.7107 7.14932 32.0493 7.68738 31.8478 8.41738L23.5421 8.41707L19.793 12.2105C19.3823 11.8905 18.8951 11.6675 18.3639 11.5738L18.3642 4.28217C19.0857 4.07825 19.6175 3.4091 19.6175 2.61488C19.6172 1.65981 18.8493 0.882812 17.905 0.882812C16.9613 0.882812 16.1932 1.6598 16.1932 2.61488C16.1932 3.4091 16.7249 4.07823 17.4464 4.28217V11.5395C16.9143 11.5975 16.4205 11.7852 15.9952 12.0699L13.8008 9.84948V7.91716C14.5223 7.71324 15.054 7.04409 15.054 6.24987C15.054 5.29504 14.2861 4.5178 13.3422 4.5178C12.3985 4.5178 11.6303 5.29479 11.6303 6.24987C11.6303 7.04409 12.1621 7.71322 12.8836 7.91716V10.234L15.3078 12.6869C14.9132 13.1543 14.6467 13.7344 14.5581 14.3714H13.2193L8.02991 9.12256H3.58237C3.38082 8.39256 2.71948 7.8545 1.93452 7.8545C0.990825 7.8545 0.222656 8.63148 0.222656 9.58657C0.222656 10.542 0.990576 11.319 1.93452 11.319C2.71948 11.319 3.3808 10.7809 3.58237 10.0509H7.64995L11.9209 14.3722H7.62298C7.42144 13.6422 6.76009 13.1042 5.97514 13.1042C5.03144 13.1042 4.26327 13.8812 4.26327 14.8362C4.26327 15.7911 5.03119 16.5683 5.97514 16.5683C6.76009 16.5683 7.42142 16.0303 7.62298 15.3003H14.5546C14.6912 16.2814 15.2542 17.1266 16.0477 17.6368L16.0495 23.2197L14.5173 23.9491C13.5081 24.4294 13.0624 25.6182 13.5025 26.655L16.0685 32.6998C16.3605 33.3875 16.9618 33.8745 17.6672 34.0238V35.0892H16.5575V40.5072H29.739V35.0898H28.5755V22.1003C28.5755 21.3116 28.0113 20.694 27.2907 20.694C26.8157 20.694 26.5237 20.8402 26.3104 20.9467C26.1528 21.0257 26.0575 21.073 25.897 21.073C25.7874 21.073 25.662 20.9673 25.4678 20.7938C25.1989 20.553 24.8307 20.2232 24.2737 20.2232C23.8017 20.2232 23.4849 20.425 23.2302 20.5868C23.0292 20.7149 22.9078 20.787 22.7536 20.787C22.6574 20.787 22.5448 20.6986 22.3691 20.5546C22.091 20.327 21.7107 20.0147 21.1043 20.0147C20.4523 20.0147 20.0553 20.374 19.7918 20.612C19.6923 20.7017 19.556 20.8251 19.4989 20.8251C19.4837 20.8251 19.471 20.8122 19.471 20.7969V17.6877C20.3069 17.184 20.9031 16.3159 21.0445 15.3006H23.9077L28.0882 19.5304H34.3596C34.5612 20.2604 35.2225 20.7984 36.0075 20.7984C36.9512 20.7984 37.7193 20.0215 37.7193 19.0664C37.7196 18.1119 36.9511 17.334 36.0071 17.334L36.0069 17.3338ZM30.3377 14.0327C30.7754 14.0327 31.1317 14.3933 31.1317 14.8361C31.1317 15.279 30.7754 15.6395 30.3377 15.6395C29.9 15.6395 29.5436 15.279 29.5436 14.8361C29.5436 14.3933 29.9 14.0327 30.3377 14.0327ZM33.4959 8.07633C33.9336 8.07633 34.2899 8.43687 34.2899 8.87974C34.2899 9.32261 33.9336 9.68316 33.4959 9.68316C33.0582 9.68316 32.7019 9.32261 32.7019 8.87974C32.7019 8.43687 33.0576 8.07633 33.4959 8.07633ZM12.548 6.25023C12.548 5.80738 12.9044 5.44681 13.3421 5.44681C13.7798 5.44681 14.1361 5.80735 14.1361 6.25023C14.1361 6.69308 13.7798 7.05364 13.3421 7.05364C12.9044 7.05395 12.548 6.69371 12.548 6.25023ZM1.93462 10.3903C1.49693 10.3903 1.14057 10.0298 1.14057 9.58693C1.14057 9.14408 1.49691 8.78351 1.93462 8.78351C2.37232 8.78351 2.72866 9.14405 2.72866 9.58693C2.72866 10.0295 2.37232 10.3903 1.93462 10.3903ZM17.1115 2.61469C17.1115 2.17185 17.4678 1.81128 17.9056 1.81128C18.3438 1.81128 18.6996 2.17182 18.6996 2.61469C18.6996 3.05757 18.3433 3.41811 17.9056 3.41811C17.4679 3.41872 17.1115 3.05787 17.1115 2.61469ZM5.97516 15.6404C5.53747 15.6404 5.18111 15.2799 5.18111 14.837C5.18111 14.3941 5.53745 14.0336 5.97516 14.0336C6.41286 14.0336 6.7692 14.3941 6.7692 14.837C6.7692 15.2798 6.41286 15.6404 5.97516 15.6404ZM28.8213 39.5785H17.4759V36.0186H28.8221L28.8213 39.5785ZM19.504 21.7539C19.9065 21.7539 20.1821 21.5051 20.4033 21.3049C20.6513 21.0807 20.8176 20.9434 21.1047 20.9434C21.3728 20.9434 21.5403 21.0696 21.7919 21.2757C22.0308 21.4716 22.3286 21.7152 22.7544 21.7152C23.18 21.7152 23.479 21.5251 23.719 21.3721C23.9409 21.2309 24.0763 21.151 24.2742 21.151C24.473 21.151 24.6266 21.2791 24.86 21.4882C25.115 21.7167 25.4321 22.0008 25.8975 22.0008C26.272 22.0008 26.5188 21.8776 26.7173 21.7784C26.8991 21.6879 27.0306 21.6221 27.2913 21.6221C27.4971 21.6221 27.6586 21.8316 27.6586 22.0994V35.0889H18.5852V33.1425H18.1263C17.5972 33.1425 17.1207 32.8246 16.9119 32.3332L14.3459 26.2884C14.1019 25.7138 14.3489 25.0556 14.908 24.7894L16.0499 24.2458L16.0502 25.8397L16.9678 25.8394L16.9653 15.519C16.9653 15.2945 17.0546 15.0863 17.2164 14.9324C17.3781 14.7792 17.5897 14.7018 17.8128 14.7171C18.228 14.7445 18.5534 15.1154 18.5534 15.5626V20.7966C18.5537 21.3221 18.9762 21.7515 19.504 21.7536L19.504 21.7539ZM19.4712 16.5205V15.5632C19.4712 14.6283 18.7688 13.8495 17.8722 13.7912C17.3939 13.7617 16.9377 13.9245 16.5886 14.2555C16.2444 14.5817 16.0474 15.0427 16.0474 15.5196L16.0477 16.4326C15.6704 16.01 15.4397 15.4498 15.4397 14.8362C15.4397 13.519 16.4997 12.4478 17.8003 12.4478C19.1021 12.4478 20.1608 13.519 20.1608 14.8362C20.1605 15.4928 19.8967 16.088 19.4712 16.5204L19.4712 16.5205ZM36.0079 19.8692C35.5702 19.8692 35.2138 19.5087 35.2138 19.0658C35.2138 18.6229 35.5702 18.2624 36.0079 18.2624C36.4456 18.2624 36.8019 18.6229 36.8019 19.0658C36.8022 19.5086 36.4459 19.8692 36.0079 19.8692Z" fill="#5D60F4"/>
</svg>
