<svg width="42" height="43" viewBox="0 0 42 43" fill="none" xmlns="http://www.w3.org/2000/svg">
<path d="M35.7678 19.7152V21.5405H29.71L28.4496 20.509C27.6937 19.8904 26.7419 19.5495 25.7696 19.5495H18.4878C17.9924 19.5495 17.5061 19.7225 17.12 20.0367L16.1018 20.864H6.24857V19.7155H0.0169084V33.1554L6.24857 33.1558V31.8153H9.12352C9.11311 31.8842 9.1066 31.954 9.1066 32.0251C9.10757 32.39 9.24885 32.7329 9.5047 32.9901L15.9044 39.4278C16.1592 39.684 16.4974 39.826 16.8568 39.826H16.8601C17.2208 39.825 17.5596 39.682 17.8138 39.4232L18.85 38.3699L19.8295 39.2604C20.1931 39.5905 20.6514 39.7548 21.109 39.7548C21.5924 39.7548 22.0752 39.572 22.4446 39.2081L22.5813 39.0734C22.8215 38.8369 22.9827 38.5507 23.0728 38.2467L23.0761 38.25L23.3153 38.5006C23.6728 38.8774 24.1548 39.0879 24.6714 39.0931H24.6929C25.201 39.0931 25.6802 38.8939 26.0412 38.5309C26.2857 38.2855 26.4494 37.9865 26.535 37.6696C26.8417 37.8788 27.2023 37.993 27.5813 37.9963H27.6027C28.1109 37.9963 28.5884 37.7971 28.9511 37.4341C29.2102 37.1736 29.3791 36.8535 29.4592 36.5169C29.7297 36.6628 30.0314 36.7441 30.3482 36.7474H30.3677C30.8758 36.7474 31.3534 36.5468 31.716 36.1832C32.4556 35.4402 32.467 34.2206 31.7421 33.4621L31.6688 33.3857L35.768 31.9711V33.1571L41.9993 33.1561V19.7154L35.7678 19.7152ZM5.26491 32.1602H1.00098V20.711H5.26491V32.1602ZM11.1447 33.2362L10.1988 32.2837C10.1291 32.2139 10.091 32.1207 10.091 32.0215C10.091 31.9224 10.1288 31.8295 10.1978 31.759L11.5656 30.3685C11.7095 30.2223 11.9005 30.1413 12.1046 30.1409H12.1066C12.3097 30.1409 12.5008 30.2206 12.6447 30.3656L12.7684 30.4901C13.0665 30.7904 13.0679 31.2799 12.7713 31.5815C12.7713 31.5815 12.7742 31.5819 12.7765 31.5819L11.145 33.2405L11.1447 33.2362ZM14.2326 31.514C14.5295 31.2123 15.0139 31.2113 15.312 31.5107L15.4357 31.6352C15.7339 31.9356 15.7352 32.425 15.4386 32.7273L15.1252 33.0462C15.1187 33.0527 15.1112 33.0583 15.1047 33.0649L13.0513 35.1528L11.8469 33.9397L14.2326 31.514ZM14.9556 37.0676L13.7502 35.8542L15.8022 33.7678C16.0991 33.4661 16.5835 33.4647 16.8816 33.7648L17.0053 33.8893C17.1499 34.0349 17.2299 34.2282 17.2303 34.4347C17.2306 34.6409 17.1518 34.8352 17.0083 34.9814L16.5356 35.462L14.9556 37.0676ZM17.1171 38.7206C17.048 38.7911 16.9559 38.8296 16.8579 38.8303H16.857C16.7593 38.8303 16.6675 38.7921 16.5985 38.7223L15.6525 37.7704L17.2788 36.1171C17.5757 35.8154 18.0601 35.8141 18.3582 36.1141L18.4819 36.2386C18.6265 36.3842 18.7065 36.5775 18.7069 36.784C18.7072 36.9902 18.6284 37.1845 18.4849 37.3305L17.1171 38.7206ZM31.0219 35.4767C30.8464 35.653 30.6137 35.7504 30.3656 35.7504H30.3571C30.1062 35.7472 29.8718 35.646 29.6964 35.4632L24.1749 29.6909L23.4777 30.3944L28.2699 35.4036C28.6228 35.7718 28.6156 36.366 28.2569 36.7264C28.0782 36.9059 27.8422 37.0001 27.5909 37.0001C27.3399 36.9968 27.1056 36.8957 26.9314 36.7129L22.1661 31.7234L21.4708 32.4269L25.3871 36.5287C25.7133 36.8989 25.699 37.471 25.3494 37.8228C25.172 38.0003 24.9412 38.0965 24.6931 38.0965H24.6834C24.4308 38.0932 24.198 37.9921 24.0226 37.8093L20.1558 33.7559L19.4605 34.4594L21.9285 37.0459C22.2697 37.419 22.2579 38.003 21.896 38.359L21.7593 38.4937C21.4093 38.8379 20.8511 38.8498 20.4881 38.5191L19.4895 37.611C19.6219 37.358 19.6919 37.0745 19.6909 36.7803C19.69 36.308 19.507 35.8648 19.1763 35.5321L19.0526 35.4076C18.7955 35.1487 18.4777 34.9879 18.1454 34.9244C18.1903 34.7663 18.2141 34.601 18.2134 34.4313C18.2121 33.959 18.0295 33.5158 17.6988 33.183L17.5751 33.0585C17.3007 32.7822 16.9572 32.6195 16.6008 32.5662C16.7255 31.9944 16.5696 31.3719 16.1298 30.9296L16.0061 30.8051C15.4348 30.23 14.5664 30.1398 13.8997 30.5297C13.8193 30.2567 13.6751 29.9995 13.4626 29.7851L13.3389 29.6606C13.0088 29.3286 12.5716 29.1458 12.1068 29.1458H12.1022C11.6354 29.1471 11.1973 29.3319 10.8679 29.6665L9.73444 30.8189H6.24849L6.24816 21.8596H14.8764L12.0424 24.1627L12.5011 24.6851C13.7084 26.0604 15.7653 26.2367 17.1839 25.0856L18.7477 23.8162L22.3812 25.097L30.6382 33.7394L30.6379 33.7397L31.0347 34.1527C31.3879 34.5206 31.3807 35.1148 31.022 35.4764L31.0219 35.4767ZM30.9122 32.5932L22.9263 24.2344L18.5575 22.6947L16.5686 24.3082C15.6513 25.0529 14.3571 25.017 13.4843 24.268L17.7365 20.8128C17.9488 20.6399 18.2157 20.545 18.4885 20.545H25.7703C26.5183 20.545 27.2501 20.8072 27.8311 21.2831L29.3623 22.5363H35.7681V30.9178L30.9122 32.5932ZM41.0153 32.1601H36.7514V20.7109H41.0153V32.1601ZM36.7397 11.5559H33.113C32.8969 10.7675 32.1831 10.1861 31.3354 10.1861C30.3175 10.1861 29.4894 11.0244 29.4894 12.0539C29.4894 13.0838 30.3172 13.9217 31.3354 13.9217C32.1827 13.9217 32.8962 13.3404 33.1124 12.5519H36.3311L39.2164 15.4713L26.9708 15.4716C26.7546 14.6831 26.0408 14.1018 25.1938 14.1018C24.1759 14.1018 23.3478 14.9394 23.3478 15.9696C23.3478 16.9998 24.1756 17.8374 25.1938 17.8374C26.0411 17.8374 26.7546 17.256 26.9708 16.4676H41.9822V15.4719H40.6086L36.7397 11.5559ZM31.3357 12.9257C30.8608 12.9257 30.4737 12.5345 30.4737 12.0536C30.4737 11.5724 30.8605 11.1814 31.3357 11.1814C31.8107 11.1814 32.1977 11.5727 32.1977 12.0536C32.1977 12.5348 31.8113 12.9257 31.3357 12.9257ZM25.1929 16.8408C24.718 16.8408 24.3309 16.4496 24.3309 15.9687C24.3309 15.4881 24.7176 15.0965 25.1929 15.0965C25.6678 15.0965 26.0549 15.4878 26.0549 15.9687C26.0549 16.4496 25.6682 16.8408 25.1929 16.8408ZM17.1884 5.51135C16.1705 5.51135 15.3425 6.34891 15.3425 7.37911C15.3425 8.40931 16.1703 9.24687 17.1884 9.24687C18.0358 9.24687 18.7493 8.66556 18.9654 7.87708H26.9725V6.8814L18.9654 6.88173C18.7493 6.09324 18.0354 5.51126 17.1884 5.51126V5.51135ZM17.1884 8.25161C16.7135 8.25161 16.3265 7.86034 16.3265 7.37945C16.3265 6.89892 16.7132 6.50729 17.1884 6.50729C17.6634 6.50729 18.0504 6.89856 18.0504 7.37945C18.0504 7.85998 17.6634 8.25161 17.1884 8.25161ZM24.6962 11.1572C24.6962 10.1273 23.8684 9.28945 22.8502 9.28945C22.0029 9.28945 21.2894 9.87077 21.0732 10.6592L11.7859 10.6589V11.6546H21.0732C21.2894 12.4431 22.0032 13.0244 22.8502 13.0244C23.8681 13.0247 24.6962 12.1872 24.6962 11.1572V11.1572ZM22.8505 12.0294C22.3756 12.0294 21.9885 11.6381 21.9885 11.1572C21.9885 10.6767 22.3752 10.285 22.8505 10.285C23.3254 10.285 23.7125 10.6763 23.7125 11.1572C23.7125 11.6377 23.3255 12.0294 22.8505 12.0294ZM15.2731 13.7186C14.4258 13.7186 13.7123 14.2999 13.4955 15.0884H8.96956L5.57544 11.6548H9.70105V10.6592L2.21616 10.6588L7.91924 4.88878H22.4107C22.6441 5.64992 23.3463 6.20427 24.1743 6.20427C25.1922 6.20427 26.0203 5.36671 26.0203 4.33651C26.0203 3.30631 25.1919 2.46875 24.1743 2.46875C23.3078 2.46875 22.5806 3.07674 22.3834 3.89292H7.51191L0.825179 10.6589H0V11.6546H4.18452L8.56237 16.0841H13.4962C13.7124 16.8726 14.4262 17.4539 15.2732 17.4539C16.2911 17.4539 17.1192 16.6163 17.1192 15.5861C17.1195 14.5562 16.2911 13.7187 15.2732 13.7187L15.2731 13.7186ZM24.1738 3.46501C24.6494 3.46501 25.0358 3.85629 25.0358 4.33718C25.0358 4.81771 24.6491 5.20934 24.1738 5.20934C23.6989 5.20934 23.3118 4.81806 23.3118 4.33718C23.3118 3.85664 23.6986 3.46501 24.1738 3.46501ZM15.2731 16.4589C14.7982 16.4589 14.4111 16.0676 14.4111 15.5867C14.4111 15.1055 14.7979 14.7146 15.2731 14.7146C15.7481 14.7146 16.1351 15.1058 16.1351 15.5867C16.1351 16.0676 15.7487 16.4589 15.2731 16.4589ZM41.9827 9.01045V10.0061L34.6961 10.0065L32.536 7.87783H29.0572V6.88215H32.936L35.0962 9.01078L41.9827 9.01045Z" fill="#5D60F4"/>
</svg>
